<?xml version="1.0" encoding="utf-8" standalone="no"?>
<!DOCTYPE svg PUBLIC "-//W3C//DTD SVG 1.1//EN"
  "http://www.w3.org/Graphics/SVG/1.1/DTD/svg11.dtd">
<svg xmlns:xlink="http://www.w3.org/1999/xlink" width="316.071188pt" height="226.5525pt" viewBox="0 0 316.071188 226.5525" xmlns="http://www.w3.org/2000/svg" version="1.1">
 <metadata>
  <rdf:RDF xmlns:dc="http://purl.org/dc/elements/1.1/" xmlns:cc="http://creativecommons.org/ns#" xmlns:rdf="http://www.w3.org/1999/02/22-rdf-syntax-ns#">
   <cc:Work>
    <dc:type rdf:resource="http://purl.org/dc/dcmitype/StillImage"/>
    <dc:date>2024-10-21T19:11:45.111096</dc:date>
    <dc:format>image/svg+xml</dc:format>
    <dc:creator>
     <cc:Agent>
      <dc:title>Matplotlib v3.8.4, https://matplotlib.org/</dc:title>
     </cc:Agent>
    </dc:creator>
   </cc:Work>
  </rdf:RDF>
 </metadata>
 <defs>
  <style type="text/css">*{stroke-linejoin: round; stroke-linecap: butt}</style>
 </defs>
 <g id="figure_1">
  <g id="patch_1">
   <path d="M 0 226.5525 
L 316.071188 226.5525 
L 316.071188 0 
L 0 0 
z
" style="fill: #ffffff"/>
  </g>
  <g id="axes_1">
   <g id="patch_2">
    <path d="M 37.86875 96.391364 
L 141.300104 96.391364 
L 141.300104 7.2 
L 37.86875 7.2 
z
" style="fill: #ffffff"/>
   </g>
   <g id="patch_3">
    <path d="M 58.555021 96.391364 
L 58.555021 7.2 
L 94.755995 7.2 
L 94.755995 96.391364 
z
" clip-path="url(#p0c77973dbd)" style="fill: #808080; opacity: 0.15"/>
   </g>
   <g id="matplotlib.axis_1">
    <g id="xtick_1">
     <g id="line2d_1">
      <path d="M 37.86875 96.391364 
L 37.86875 7.2 
" clip-path="url(#p0c77973dbd)" style="fill: none; stroke-dasharray: 0.5,0.825; stroke-dashoffset: 0; stroke: #b0b0b0; stroke-opacity: 0.75; stroke-width: 0.5"/>
     </g>
     <g id="line2d_2">
      <defs>
       <path id="mc1aec94b0e" d="M 0 0 
L 0 -3.5 
" style="stroke: #000000; stroke-width: 0.8"/>
      </defs>
      <g>
       <use xlink:href="#mc1aec94b0e" x="37.86875" y="96.391364" style="stroke: #000000; stroke-width: 0.8"/>
      </g>
     </g>
    </g>
    <g id="xtick_2">
     <g id="line2d_3">
      <path d="M 63.726589 96.391364 
L 63.726589 7.2 
" clip-path="url(#p0c77973dbd)" style="fill: none; stroke-dasharray: 0.5,0.825; stroke-dashoffset: 0; stroke: #b0b0b0; stroke-opacity: 0.75; stroke-width: 0.5"/>
     </g>
     <g id="line2d_4">
      <g>
       <use xlink:href="#mc1aec94b0e" x="63.726589" y="96.391364" style="stroke: #000000; stroke-width: 0.8"/>
      </g>
     </g>
    </g>
    <g id="xtick_3">
     <g id="line2d_5">
      <path d="M 89.584427 96.391364 
L 89.584427 7.2 
" clip-path="url(#p0c77973dbd)" style="fill: none; stroke-dasharray: 0.5,0.825; stroke-dashoffset: 0; stroke: #b0b0b0; stroke-opacity: 0.75; stroke-width: 0.5"/>
     </g>
     <g id="line2d_6">
      <g>
       <use xlink:href="#mc1aec94b0e" x="89.584427" y="96.391364" style="stroke: #000000; stroke-width: 0.8"/>
      </g>
     </g>
    </g>
    <g id="xtick_4">
     <g id="line2d_7">
      <path d="M 115.442266 96.391364 
L 115.442266 7.2 
" clip-path="url(#p0c77973dbd)" style="fill: none; stroke-dasharray: 0.5,0.825; stroke-dashoffset: 0; stroke: #b0b0b0; stroke-opacity: 0.75; stroke-width: 0.5"/>
     </g>
     <g id="line2d_8">
      <g>
       <use xlink:href="#mc1aec94b0e" x="115.442266" y="96.391364" style="stroke: #000000; stroke-width: 0.8"/>
      </g>
     </g>
    </g>
    <g id="xtick_5">
     <g id="line2d_9">
      <path d="M 141.300104 96.391364 
L 141.300104 7.2 
" clip-path="url(#p0c77973dbd)" style="fill: none; stroke-dasharray: 0.5,0.825; stroke-dashoffset: 0; stroke: #b0b0b0; stroke-opacity: 0.75; stroke-width: 0.5"/>
     </g>
     <g id="line2d_10">
      <g>
       <use xlink:href="#mc1aec94b0e" x="141.300104" y="96.391364" style="stroke: #000000; stroke-width: 0.8"/>
      </g>
     </g>
    </g>
    <g id="xtick_6">
     <g id="line2d_11">
      <path d="M 50.797669 96.391364 
L 50.797669 7.2 
" clip-path="url(#p0c77973dbd)" style="fill: none; stroke-dasharray: 0.5,0.825; stroke-dashoffset: 0; stroke: #b0b0b0; stroke-opacity: 0.25; stroke-width: 0.5"/>
     </g>
     <g id="line2d_12">
      <defs>
       <path id="m3f7475cc65" d="M 0 0 
L 0 -2 
" style="stroke: #000000; stroke-width: 0.6"/>
      </defs>
      <g>
       <use xlink:href="#m3f7475cc65" x="50.797669" y="96.391364" style="stroke: #000000; stroke-width: 0.6"/>
      </g>
     </g>
    </g>
    <g id="xtick_7">
     <g id="line2d_13">
      <path d="M 76.655508 96.391364 
L 76.655508 7.2 
" clip-path="url(#p0c77973dbd)" style="fill: none; stroke-dasharray: 0.5,0.825; stroke-dashoffset: 0; stroke: #b0b0b0; stroke-opacity: 0.25; stroke-width: 0.5"/>
     </g>
     <g id="line2d_14">
      <g>
       <use xlink:href="#m3f7475cc65" x="76.655508" y="96.391364" style="stroke: #000000; stroke-width: 0.6"/>
      </g>
     </g>
    </g>
    <g id="xtick_8">
     <g id="line2d_15">
      <path d="M 102.513346 96.391364 
L 102.513346 7.2 
" clip-path="url(#p0c77973dbd)" style="fill: none; stroke-dasharray: 0.5,0.825; stroke-dashoffset: 0; stroke: #b0b0b0; stroke-opacity: 0.25; stroke-width: 0.5"/>
     </g>
     <g id="line2d_16">
      <g>
       <use xlink:href="#m3f7475cc65" x="102.513346" y="96.391364" style="stroke: #000000; stroke-width: 0.6"/>
      </g>
     </g>
    </g>
    <g id="xtick_9">
     <g id="line2d_17">
      <path d="M 128.371185 96.391364 
L 128.371185 7.2 
" clip-path="url(#p0c77973dbd)" style="fill: none; stroke-dasharray: 0.5,0.825; stroke-dashoffset: 0; stroke: #b0b0b0; stroke-opacity: 0.25; stroke-width: 0.5"/>
     </g>
     <g id="line2d_18">
      <g>
       <use xlink:href="#m3f7475cc65" x="128.371185" y="96.391364" style="stroke: #000000; stroke-width: 0.6"/>
      </g>
     </g>
    </g>
   </g>
   <g id="matplotlib.axis_2">
    <g id="ytick_1">
     <g id="line2d_19">
      <path d="M 37.86875 92.337211 
L 141.300104 92.337211 
" clip-path="url(#p0c77973dbd)" style="fill: none; stroke-dasharray: 0.5,0.825; stroke-dashoffset: 0; stroke: #b0b0b0; stroke-opacity: 0.75; stroke-width: 0.5"/>
     </g>
     <g id="line2d_20">
      <defs>
       <path id="mc939826621" d="M 0 0 
L 3.5 0 
" style="stroke: #000000; stroke-width: 0.8"/>
      </defs>
      <g>
       <use xlink:href="#mc939826621" x="37.86875" y="92.337211" style="stroke: #000000; stroke-width: 0.8"/>
      </g>
     </g>
     <g id="text_1">
      <!-- 0.00 -->
      <g transform="translate(18.8 95.200336) scale(0.08 -0.08)">
       <defs>
        <path id="ArialMT-30" d="M 266 2259 
Q 266 3072 433 3567 
Q 600 4063 929 4331 
Q 1259 4600 1759 4600 
Q 2128 4600 2406 4451 
Q 2684 4303 2865 4023 
Q 3047 3744 3150 3342 
Q 3253 2941 3253 2259 
Q 3253 1453 3087 958 
Q 2922 463 2592 192 
Q 2263 -78 1759 -78 
Q 1097 -78 719 397 
Q 266 969 266 2259 
z
M 844 2259 
Q 844 1131 1108 757 
Q 1372 384 1759 384 
Q 2147 384 2411 759 
Q 2675 1134 2675 2259 
Q 2675 3391 2411 3762 
Q 2147 4134 1753 4134 
Q 1366 4134 1134 3806 
Q 844 3388 844 2259 
z
" transform="scale(0.015625)"/>
        <path id="ArialMT-2e" d="M 581 0 
L 581 641 
L 1222 641 
L 1222 0 
L 581 0 
z
" transform="scale(0.015625)"/>
       </defs>
       <use xlink:href="#ArialMT-30"/>
       <use xlink:href="#ArialMT-2e" x="55.615234"/>
       <use xlink:href="#ArialMT-30" x="83.398438"/>
       <use xlink:href="#ArialMT-30" x="139.013672"/>
      </g>
     </g>
    </g>
    <g id="ytick_2">
     <g id="line2d_21">
      <path d="M 37.86875 72.066446 
L 141.300104 72.066446 
" clip-path="url(#p0c77973dbd)" style="fill: none; stroke-dasharray: 0.5,0.825; stroke-dashoffset: 0; stroke: #b0b0b0; stroke-opacity: 0.75; stroke-width: 0.5"/>
     </g>
     <g id="line2d_22">
      <g>
       <use xlink:href="#mc939826621" x="37.86875" y="72.066446" style="stroke: #000000; stroke-width: 0.8"/>
      </g>
     </g>
     <g id="text_2">
      <!-- 0.25 -->
      <g transform="translate(18.8 74.929571) scale(0.08 -0.08)">
       <defs>
        <path id="ArialMT-32" d="M 3222 541 
L 3222 0 
L 194 0 
Q 188 203 259 391 
Q 375 700 629 1000 
Q 884 1300 1366 1694 
Q 2113 2306 2375 2664 
Q 2638 3022 2638 3341 
Q 2638 3675 2398 3904 
Q 2159 4134 1775 4134 
Q 1369 4134 1125 3890 
Q 881 3647 878 3216 
L 300 3275 
Q 359 3922 746 4261 
Q 1134 4600 1788 4600 
Q 2447 4600 2831 4234 
Q 3216 3869 3216 3328 
Q 3216 3053 3103 2787 
Q 2991 2522 2730 2228 
Q 2469 1934 1863 1422 
Q 1356 997 1212 845 
Q 1069 694 975 541 
L 3222 541 
z
" transform="scale(0.015625)"/>
        <path id="ArialMT-35" d="M 266 1200 
L 856 1250 
Q 922 819 1161 601 
Q 1400 384 1738 384 
Q 2144 384 2425 690 
Q 2706 997 2706 1503 
Q 2706 1984 2436 2262 
Q 2166 2541 1728 2541 
Q 1456 2541 1237 2417 
Q 1019 2294 894 2097 
L 366 2166 
L 809 4519 
L 3088 4519 
L 3088 3981 
L 1259 3981 
L 1013 2750 
Q 1425 3038 1878 3038 
Q 2478 3038 2890 2622 
Q 3303 2206 3303 1553 
Q 3303 931 2941 478 
Q 2500 -78 1738 -78 
Q 1113 -78 717 272 
Q 322 622 266 1200 
z
" transform="scale(0.015625)"/>
       </defs>
       <use xlink:href="#ArialMT-30"/>
       <use xlink:href="#ArialMT-2e" x="55.615234"/>
       <use xlink:href="#ArialMT-32" x="83.398438"/>
       <use xlink:href="#ArialMT-35" x="139.013672"/>
      </g>
     </g>
    </g>
    <g id="ytick_3">
     <g id="line2d_23">
      <path d="M 37.86875 51.795682 
L 141.300104 51.795682 
" clip-path="url(#p0c77973dbd)" style="fill: none; stroke-dasharray: 0.5,0.825; stroke-dashoffset: 0; stroke: #b0b0b0; stroke-opacity: 0.75; stroke-width: 0.5"/>
     </g>
     <g id="line2d_24">
      <g>
       <use xlink:href="#mc939826621" x="37.86875" y="51.795682" style="stroke: #000000; stroke-width: 0.8"/>
      </g>
     </g>
     <g id="text_3">
      <!-- 0.50 -->
      <g transform="translate(18.8 54.658807) scale(0.08 -0.08)">
       <use xlink:href="#ArialMT-30"/>
       <use xlink:href="#ArialMT-2e" x="55.615234"/>
       <use xlink:href="#ArialMT-35" x="83.398438"/>
       <use xlink:href="#ArialMT-30" x="139.013672"/>
      </g>
     </g>
    </g>
    <g id="ytick_4">
     <g id="line2d_25">
      <path d="M 37.86875 31.524917 
L 141.300104 31.524917 
" clip-path="url(#p0c77973dbd)" style="fill: none; stroke-dasharray: 0.5,0.825; stroke-dashoffset: 0; stroke: #b0b0b0; stroke-opacity: 0.75; stroke-width: 0.5"/>
     </g>
     <g id="line2d_26">
      <g>
       <use xlink:href="#mc939826621" x="37.86875" y="31.524917" style="stroke: #000000; stroke-width: 0.8"/>
      </g>
     </g>
     <g id="text_4">
      <!-- 0.75 -->
      <g transform="translate(18.8 34.388042) scale(0.08 -0.08)">
       <defs>
        <path id="ArialMT-37" d="M 303 3981 
L 303 4522 
L 3269 4522 
L 3269 4084 
Q 2831 3619 2401 2847 
Q 1972 2075 1738 1259 
Q 1569 684 1522 0 
L 944 0 
Q 953 541 1156 1306 
Q 1359 2072 1739 2783 
Q 2119 3494 2547 3981 
L 303 3981 
z
" transform="scale(0.015625)"/>
       </defs>
       <use xlink:href="#ArialMT-30"/>
       <use xlink:href="#ArialMT-2e" x="55.615234"/>
       <use xlink:href="#ArialMT-37" x="83.398438"/>
       <use xlink:href="#ArialMT-35" x="139.013672"/>
      </g>
     </g>
    </g>
    <g id="ytick_5">
     <g id="line2d_27">
      <path d="M 37.86875 11.254153 
L 141.300104 11.254153 
" clip-path="url(#p0c77973dbd)" style="fill: none; stroke-dasharray: 0.5,0.825; stroke-dashoffset: 0; stroke: #b0b0b0; stroke-opacity: 0.75; stroke-width: 0.5"/>
     </g>
     <g id="line2d_28">
      <g>
       <use xlink:href="#mc939826621" x="37.86875" y="11.254153" style="stroke: #000000; stroke-width: 0.8"/>
      </g>
     </g>
     <g id="text_5">
      <!-- 1.00 -->
      <g transform="translate(18.8 14.117278) scale(0.08 -0.08)">
       <defs>
        <path id="ArialMT-31" d="M 2384 0 
L 1822 0 
L 1822 3584 
Q 1619 3391 1289 3197 
Q 959 3003 697 2906 
L 697 3450 
Q 1169 3672 1522 3987 
Q 1875 4303 2022 4600 
L 2384 4600 
L 2384 0 
z
" transform="scale(0.015625)"/>
       </defs>
       <use xlink:href="#ArialMT-31"/>
       <use xlink:href="#ArialMT-2e" x="55.615234"/>
       <use xlink:href="#ArialMT-30" x="83.398438"/>
       <use xlink:href="#ArialMT-30" x="139.013672"/>
      </g>
     </g>
    </g>
    <g id="text_6">
     <!-- $\Delta T$  [$\degree C$] -->
     <g transform="translate(13.2 66.235682) rotate(-90) scale(0.08 -0.08)">
      <defs>
       <path id="DejaVuSans-394" d="M 2188 4044 
L 906 525 
L 3472 525 
L 2188 4044 
z
M 50 0 
L 1831 4666 
L 2547 4666 
L 4325 0 
L 50 0 
z
" transform="scale(0.015625)"/>
       <path id="DejaVuSans-Oblique-54" d="M 378 4666 
L 4325 4666 
L 4225 4134 
L 2559 4134 
L 1759 0 
L 1125 0 
L 1925 4134 
L 275 4134 
L 378 4666 
z
" transform="scale(0.015625)"/>
       <path id="ArialMT-20" transform="scale(0.015625)"/>
       <path id="ArialMT-5b" d="M 434 -1272 
L 434 4581 
L 1675 4581 
L 1675 4116 
L 997 4116 
L 997 -806 
L 1675 -806 
L 1675 -1272 
L 434 -1272 
z
" transform="scale(0.015625)"/>
       <path id="DejaVuSans-b0" d="M 1600 4347 
Q 1350 4347 1178 4173 
Q 1006 4000 1006 3750 
Q 1006 3503 1178 3333 
Q 1350 3163 1600 3163 
Q 1850 3163 2022 3333 
Q 2194 3503 2194 3750 
Q 2194 3997 2020 4172 
Q 1847 4347 1600 4347 
z
M 1600 4750 
Q 1800 4750 1984 4673 
Q 2169 4597 2303 4453 
Q 2447 4313 2519 4134 
Q 2591 3956 2591 3750 
Q 2591 3338 2302 3052 
Q 2013 2766 1594 2766 
Q 1172 2766 890 3047 
Q 609 3328 609 3750 
Q 609 4169 896 4459 
Q 1184 4750 1600 4750 
z
" transform="scale(0.015625)"/>
       <path id="DejaVuSans-Oblique-43" d="M 4447 4306 
L 4319 3641 
Q 4019 3944 3683 4091 
Q 3347 4238 2956 4238 
Q 2422 4238 2017 3981 
Q 1613 3725 1319 3200 
Q 1131 2863 1032 2486 
Q 934 2109 934 1728 
Q 934 1091 1264 756 
Q 1594 422 2222 422 
Q 2656 422 3056 561 
Q 3456 700 3834 978 
L 3688 231 
Q 3316 72 2936 -9 
Q 2556 -91 2175 -91 
Q 1278 -91 773 396 
Q 269 884 269 1753 
Q 269 2309 461 2846 
Q 653 3384 1013 3828 
Q 1394 4300 1883 4525 
Q 2372 4750 3022 4750 
Q 3422 4750 3780 4639 
Q 4138 4528 4447 4306 
z
" transform="scale(0.015625)"/>
       <path id="ArialMT-5d" d="M 1363 -1272 
L 122 -1272 
L 122 -806 
L 800 -806 
L 800 4116 
L 122 4116 
L 122 4581 
L 1363 4581 
L 1363 -1272 
z
" transform="scale(0.015625)"/>
      </defs>
      <use xlink:href="#DejaVuSans-394" transform="translate(0 0.78125)"/>
      <use xlink:href="#DejaVuSans-Oblique-54" transform="translate(68.408203 0.78125)"/>
      <use xlink:href="#ArialMT-20" transform="translate(129.492188 0.78125)"/>
      <use xlink:href="#ArialMT-20" transform="translate(157.275391 0.78125)"/>
      <use xlink:href="#ArialMT-5b" transform="translate(185.058594 0.78125)"/>
      <use xlink:href="#DejaVuSans-b0" transform="translate(212.841797 0.78125)"/>
      <use xlink:href="#DejaVuSans-Oblique-43" transform="translate(262.841797 0.78125)"/>
      <use xlink:href="#ArialMT-5d" transform="translate(332.666016 0.78125)"/>
     </g>
    </g>
   </g>
   <g id="line2d_29">
    <path d="M 37.86875 92.337211 
L 58.555021 92.337211 
L 94.497417 11.254153 
L 192.757203 11.254153 
L 192.757203 11.254153 
" clip-path="url(#p0c77973dbd)" style="fill: none; stroke: #ff0000; stroke-width: 1.5; stroke-linecap: square"/>
   </g>
   <g id="patch_4">
    <path d="M 37.86875 96.391364 
L 37.86875 7.2 
" style="fill: none; stroke: #000000; stroke-width: 0.8; stroke-linejoin: miter; stroke-linecap: square"/>
   </g>
   <g id="patch_5">
    <path d="M 141.300104 96.391364 
L 141.300104 7.2 
" style="fill: none; stroke: #000000; stroke-width: 0.8; stroke-linejoin: miter; stroke-linecap: square"/>
   </g>
   <g id="patch_6">
    <path d="M 37.86875 96.391364 
L 141.300104 96.391364 
" style="fill: none; stroke: #000000; stroke-width: 0.8; stroke-linejoin: miter; stroke-linecap: square"/>
   </g>
   <g id="patch_7">
    <path d="M 37.86875 7.2 
L 141.300104 7.2 
" style="fill: none; stroke: #000000; stroke-width: 0.8; stroke-linejoin: miter; stroke-linecap: square"/>
   </g>
   <g id="text_7">
    <!-- (a) -->
    <g transform="translate(146.128537 15.020119) scale(0.1 -0.1)">
     <defs>
      <path id="Arial-BoldMT-28" d="M 1916 -1347 
L 1313 -1347 
Q 834 -625 584 153 
Q 334 931 334 1659 
Q 334 2563 644 3369 
Q 913 4069 1325 4659 
L 1925 4659 
Q 1497 3713 1336 3048 
Q 1175 2384 1175 1641 
Q 1175 1128 1270 590 
Q 1366 53 1531 -431 
Q 1641 -750 1916 -1347 
z
" transform="scale(0.015625)"/>
      <path id="Arial-BoldMT-61" d="M 1116 2306 
L 319 2450 
Q 453 2931 781 3162 
Q 1109 3394 1756 3394 
Q 2344 3394 2631 3255 
Q 2919 3116 3036 2902 
Q 3153 2688 3153 2116 
L 3144 1091 
Q 3144 653 3186 445 
Q 3228 238 3344 0 
L 2475 0 
Q 2441 88 2391 259 
Q 2369 338 2359 363 
Q 2134 144 1878 34 
Q 1622 -75 1331 -75 
Q 819 -75 523 203 
Q 228 481 228 906 
Q 228 1188 362 1408 
Q 497 1628 739 1745 
Q 981 1863 1438 1950 
Q 2053 2066 2291 2166 
L 2291 2253 
Q 2291 2506 2166 2614 
Q 2041 2722 1694 2722 
Q 1459 2722 1328 2630 
Q 1197 2538 1116 2306 
z
M 2291 1594 
Q 2122 1538 1756 1459 
Q 1391 1381 1278 1306 
Q 1106 1184 1106 997 
Q 1106 813 1243 678 
Q 1381 544 1594 544 
Q 1831 544 2047 700 
Q 2206 819 2256 991 
Q 2291 1103 2291 1419 
L 2291 1594 
z
" transform="scale(0.015625)"/>
      <path id="Arial-BoldMT-29" d="M 216 -1347 
Q 475 -791 581 -494 
Q 688 -197 778 190 
Q 869 578 912 926 
Q 956 1275 956 1641 
Q 956 2384 797 3048 
Q 638 3713 209 4659 
L 806 4659 
Q 1278 3988 1539 3234 
Q 1800 2481 1800 1706 
Q 1800 1053 1594 306 
Q 1359 -531 822 -1347 
L 216 -1347 
z
" transform="scale(0.015625)"/>
     </defs>
     <use xlink:href="#Arial-BoldMT-28"/>
     <use xlink:href="#Arial-BoldMT-61" x="33.300781"/>
     <use xlink:href="#Arial-BoldMT-29" x="88.916016"/>
    </g>
   </g>
  </g>
  <g id="axes_2">
   <g id="patch_8">
    <path d="M 187.844214 96.391364 
L 291.275568 96.391364 
L 291.275568 7.2 
L 187.844214 7.2 
z
" style="fill: #ffffff"/>
   </g>
   <g id="patch_9">
    <path d="M 208.530485 96.391364 
L 208.530485 7.2 
L 244.731459 7.2 
L 244.731459 96.391364 
z
" clip-path="url(#p883876bf58)" style="fill: #808080; opacity: 0.15"/>
   </g>
   <g id="matplotlib.axis_3">
    <g id="xtick_10">
     <g id="line2d_30">
      <path d="M 187.844214 96.391364 
L 187.844214 7.2 
" clip-path="url(#p883876bf58)" style="fill: none; stroke-dasharray: 0.5,0.825; stroke-dashoffset: 0; stroke: #b0b0b0; stroke-opacity: 0.75; stroke-width: 0.5"/>
     </g>
     <g id="line2d_31">
      <g>
       <use xlink:href="#mc1aec94b0e" x="187.844214" y="96.391364" style="stroke: #000000; stroke-width: 0.8"/>
      </g>
     </g>
    </g>
    <g id="xtick_11">
     <g id="line2d_32">
      <path d="M 213.702052 96.391364 
L 213.702052 7.2 
" clip-path="url(#p883876bf58)" style="fill: none; stroke-dasharray: 0.5,0.825; stroke-dashoffset: 0; stroke: #b0b0b0; stroke-opacity: 0.75; stroke-width: 0.5"/>
     </g>
     <g id="line2d_33">
      <g>
       <use xlink:href="#mc1aec94b0e" x="213.702052" y="96.391364" style="stroke: #000000; stroke-width: 0.8"/>
      </g>
     </g>
    </g>
    <g id="xtick_12">
     <g id="line2d_34">
      <path d="M 239.559891 96.391364 
L 239.559891 7.2 
" clip-path="url(#p883876bf58)" style="fill: none; stroke-dasharray: 0.5,0.825; stroke-dashoffset: 0; stroke: #b0b0b0; stroke-opacity: 0.75; stroke-width: 0.5"/>
     </g>
     <g id="line2d_35">
      <g>
       <use xlink:href="#mc1aec94b0e" x="239.559891" y="96.391364" style="stroke: #000000; stroke-width: 0.8"/>
      </g>
     </g>
    </g>
    <g id="xtick_13">
     <g id="line2d_36">
      <path d="M 265.41773 96.391364 
L 265.41773 7.2 
" clip-path="url(#p883876bf58)" style="fill: none; stroke-dasharray: 0.5,0.825; stroke-dashoffset: 0; stroke: #b0b0b0; stroke-opacity: 0.75; stroke-width: 0.5"/>
     </g>
     <g id="line2d_37">
      <g>
       <use xlink:href="#mc1aec94b0e" x="265.41773" y="96.391364" style="stroke: #000000; stroke-width: 0.8"/>
      </g>
     </g>
    </g>
    <g id="xtick_14">
     <g id="line2d_38">
      <path d="M 291.275568 96.391364 
L 291.275568 7.2 
" clip-path="url(#p883876bf58)" style="fill: none; stroke-dasharray: 0.5,0.825; stroke-dashoffset: 0; stroke: #b0b0b0; stroke-opacity: 0.75; stroke-width: 0.5"/>
     </g>
     <g id="line2d_39">
      <g>
       <use xlink:href="#mc1aec94b0e" x="291.275568" y="96.391364" style="stroke: #000000; stroke-width: 0.8"/>
      </g>
     </g>
    </g>
    <g id="xtick_15">
     <g id="line2d_40">
      <path d="M 200.773133 96.391364 
L 200.773133 7.2 
" clip-path="url(#p883876bf58)" style="fill: none; stroke-dasharray: 0.5,0.825; stroke-dashoffset: 0; stroke: #b0b0b0; stroke-opacity: 0.25; stroke-width: 0.5"/>
     </g>
     <g id="line2d_41">
      <g>
       <use xlink:href="#m3f7475cc65" x="200.773133" y="96.391364" style="stroke: #000000; stroke-width: 0.6"/>
      </g>
     </g>
    </g>
    <g id="xtick_16">
     <g id="line2d_42">
      <path d="M 226.630972 96.391364 
L 226.630972 7.2 
" clip-path="url(#p883876bf58)" style="fill: none; stroke-dasharray: 0.5,0.825; stroke-dashoffset: 0; stroke: #b0b0b0; stroke-opacity: 0.25; stroke-width: 0.5"/>
     </g>
     <g id="line2d_43">
      <g>
       <use xlink:href="#m3f7475cc65" x="226.630972" y="96.391364" style="stroke: #000000; stroke-width: 0.6"/>
      </g>
     </g>
    </g>
    <g id="xtick_17">
     <g id="line2d_44">
      <path d="M 252.48881 96.391364 
L 252.48881 7.2 
" clip-path="url(#p883876bf58)" style="fill: none; stroke-dasharray: 0.5,0.825; stroke-dashoffset: 0; stroke: #b0b0b0; stroke-opacity: 0.25; stroke-width: 0.5"/>
     </g>
     <g id="line2d_45">
      <g>
       <use xlink:href="#m3f7475cc65" x="252.48881" y="96.391364" style="stroke: #000000; stroke-width: 0.6"/>
      </g>
     </g>
    </g>
    <g id="xtick_18">
     <g id="line2d_46">
      <path d="M 278.346649 96.391364 
L 278.346649 7.2 
" clip-path="url(#p883876bf58)" style="fill: none; stroke-dasharray: 0.5,0.825; stroke-dashoffset: 0; stroke: #b0b0b0; stroke-opacity: 0.25; stroke-width: 0.5"/>
     </g>
     <g id="line2d_47">
      <g>
       <use xlink:href="#m3f7475cc65" x="278.346649" y="96.391364" style="stroke: #000000; stroke-width: 0.6"/>
      </g>
     </g>
    </g>
   </g>
   <g id="matplotlib.axis_4">
    <g id="ytick_6">
     <g id="line2d_48">
      <path d="M 187.844214 77.783841 
L 291.275568 77.783841 
" clip-path="url(#p883876bf58)" style="fill: none; stroke-dasharray: 0.5,0.825; stroke-dashoffset: 0; stroke: #b0b0b0; stroke-opacity: 0.75; stroke-width: 0.5"/>
     </g>
     <g id="line2d_49">
      <g>
       <use xlink:href="#mc939826621" x="187.844214" y="77.783841" style="stroke: #000000; stroke-width: 0.8"/>
      </g>
     </g>
     <g id="text_8">
      <!-- −4 -->
      <g transform="translate(175.222964 80.646966) scale(0.08 -0.08)">
       <defs>
        <path id="ArialMT-2212" d="M 3381 1997 
L 356 1997 
L 356 2522 
L 3381 2522 
L 3381 1997 
z
" transform="scale(0.015625)"/>
        <path id="ArialMT-34" d="M 2069 0 
L 2069 1097 
L 81 1097 
L 81 1613 
L 2172 4581 
L 2631 4581 
L 2631 1613 
L 3250 1613 
L 3250 1097 
L 2631 1097 
L 2631 0 
L 2069 0 
z
M 2069 1613 
L 2069 3678 
L 634 1613 
L 2069 1613 
z
" transform="scale(0.015625)"/>
       </defs>
       <use xlink:href="#ArialMT-2212"/>
       <use xlink:href="#ArialMT-34" x="58.398438"/>
      </g>
     </g>
    </g>
    <g id="ytick_7">
     <g id="line2d_50">
      <path d="M 187.844214 44.518997 
L 291.275568 44.518997 
" clip-path="url(#p883876bf58)" style="fill: none; stroke-dasharray: 0.5,0.825; stroke-dashoffset: 0; stroke: #b0b0b0; stroke-opacity: 0.75; stroke-width: 0.5"/>
     </g>
     <g id="line2d_51">
      <g>
       <use xlink:href="#mc939826621" x="187.844214" y="44.518997" style="stroke: #000000; stroke-width: 0.8"/>
      </g>
     </g>
     <g id="text_9">
      <!-- −2 -->
      <g transform="translate(175.222964 47.382122) scale(0.08 -0.08)">
       <use xlink:href="#ArialMT-2212"/>
       <use xlink:href="#ArialMT-32" x="58.398438"/>
      </g>
     </g>
    </g>
    <g id="ytick_8">
     <g id="line2d_52">
      <path d="M 187.844214 11.254153 
L 291.275568 11.254153 
" clip-path="url(#p883876bf58)" style="fill: none; stroke-dasharray: 0.5,0.825; stroke-dashoffset: 0; stroke: #b0b0b0; stroke-opacity: 0.75; stroke-width: 0.5"/>
     </g>
     <g id="line2d_53">
      <g>
       <use xlink:href="#mc939826621" x="187.844214" y="11.254153" style="stroke: #000000; stroke-width: 0.8"/>
      </g>
     </g>
     <g id="text_10">
      <!-- 0 -->
      <g transform="translate(179.895464 14.117278) scale(0.08 -0.08)">
       <use xlink:href="#ArialMT-30"/>
      </g>
     </g>
    </g>
    <g id="text_11">
     <!-- $L'$  [km] -->
     <g transform="translate(169.622964 64.995682) rotate(-90) scale(0.08 -0.08)">
      <defs>
       <path id="DejaVuSans-Oblique-4c" d="M 1075 4666 
L 1709 4666 
L 909 525 
L 3181 525 
L 3078 0 
L 172 0 
L 1075 4666 
z
" transform="scale(0.015625)"/>
       <path id="Cmsy10-30" d="M 225 347 
Q 184 359 184 409 
L 966 3316 
Q 1003 3434 1093 3506 
Q 1184 3578 1300 3578 
Q 1450 3578 1564 3479 
Q 1678 3381 1678 3231 
Q 1678 3166 1644 3084 
L 488 319 
Q 466 275 428 275 
Q 394 275 320 306 
Q 247 338 225 347 
z
" transform="scale(0.015625)"/>
       <path id="ArialMT-6b" d="M 425 0 
L 425 4581 
L 988 4581 
L 988 1969 
L 2319 3319 
L 3047 3319 
L 1778 2088 
L 3175 0 
L 2481 0 
L 1384 1697 
L 988 1316 
L 988 0 
L 425 0 
z
" transform="scale(0.015625)"/>
       <path id="ArialMT-6d" d="M 422 0 
L 422 3319 
L 925 3319 
L 925 2853 
Q 1081 3097 1340 3245 
Q 1600 3394 1931 3394 
Q 2300 3394 2536 3241 
Q 2772 3088 2869 2813 
Q 3263 3394 3894 3394 
Q 4388 3394 4653 3120 
Q 4919 2847 4919 2278 
L 4919 0 
L 4359 0 
L 4359 2091 
Q 4359 2428 4304 2576 
Q 4250 2725 4106 2815 
Q 3963 2906 3769 2906 
Q 3419 2906 3187 2673 
Q 2956 2441 2956 1928 
L 2956 0 
L 2394 0 
L 2394 2156 
Q 2394 2531 2256 2718 
Q 2119 2906 1806 2906 
Q 1569 2906 1367 2781 
Q 1166 2656 1075 2415 
Q 984 2175 984 1722 
L 984 0 
L 422 0 
z
" transform="scale(0.015625)"/>
      </defs>
      <use xlink:href="#DejaVuSans-Oblique-4c" transform="translate(0 0.584375)"/>
      <use xlink:href="#Cmsy10-30" transform="translate(62.729661 38.865625) scale(0.7)"/>
      <use xlink:href="#ArialMT-20" transform="translate(84.707201 0.584375)"/>
      <use xlink:href="#ArialMT-20" transform="translate(112.490404 0.584375)"/>
      <use xlink:href="#ArialMT-5b" transform="translate(140.273607 0.584375)"/>
      <use xlink:href="#ArialMT-6b" transform="translate(168.05681 0.584375)"/>
      <use xlink:href="#ArialMT-6d" transform="translate(218.05681 0.584375)"/>
      <use xlink:href="#ArialMT-5d" transform="translate(301.357591 0.584375)"/>
     </g>
    </g>
   </g>
   <g id="line2d_54">
    <path d="M 187.844214 11.254153 
L 208.530485 11.254153 
L 244.47288 92.337211 
L 317.071188 92.337211 
L 317.071188 92.337211 
" clip-path="url(#p883876bf58)" style="fill: none; stroke-dasharray: 1,1.65; stroke-dashoffset: 0; stroke: #1f77b4"/>
   </g>
   <g id="line2d_55">
    <path d="M 187.844214 11.254153 
L 208.530485 11.254153 
L 244.47288 38.281839 
L 317.071188 38.281839 
L 317.071188 38.281839 
" clip-path="url(#p883876bf58)" style="fill: none; stroke-dasharray: 1,1.65; stroke-dashoffset: 0; stroke: #ff7f0e"/>
   </g>
   <g id="line2d_56">
    <path d="M 187.844214 11.254153 
L 215.770679 11.360043 
L 218.615042 11.621605 
L 221.200826 12.084739 
L 223.528031 12.735687 
L 225.596658 13.528525 
L 227.665285 14.540349 
L 229.733912 15.781755 
L 232.061118 17.459147 
L 234.388323 19.434269 
L 236.715529 21.701725 
L 239.301313 24.551591 
L 241.887096 27.731065 
L 244.731459 31.582537 
L 247.834399 36.1656 
L 251.971654 42.719109 
L 260.50474 56.34841 
L 264.124838 61.644767 
L 267.227778 65.806056 
L 270.072141 69.27936 
L 272.916503 72.41546 
L 275.760865 75.217265 
L 278.605227 77.697233 
L 281.44959 79.874359 
L 284.293952 81.771698 
L 287.138314 83.414425 
L 290.241255 84.94645 
L 293.344195 86.239117 
L 296.705714 87.405567 
L 300.325812 88.430365 
L 304.463066 89.358448 
L 308.858898 90.116091 
L 314.030466 90.774573 
L 317.071188 91.070119 
L 317.071188 91.070119 
" clip-path="url(#p883876bf58)" style="fill: none; stroke: #1f77b4; stroke-width: 1.5; stroke-linecap: square"/>
   </g>
   <g id="line2d_57">
    <path d="M 187.844214 11.254153 
L 212.926317 11.344244 
L 214.994944 11.604843 
L 217.063571 12.09658 
L 219.132199 12.824024 
L 221.459404 13.891467 
L 224.045188 15.322475 
L 227.406707 17.451242 
L 232.061118 20.688956 
L 240.077048 26.583973 
L 249.644448 33.591111 
L 251.971654 34.936336 
L 254.040281 35.879817 
L 256.108908 36.598201 
L 258.436113 37.179663 
L 261.280475 37.643439 
L 264.641994 37.957673 
L 269.554984 38.167199 
L 278.088071 38.264772 
L 311.703261 38.281834 
L 317.071188 38.281838 
L 317.071188 38.281838 
" clip-path="url(#p883876bf58)" style="fill: none; stroke: #ff7f0e; stroke-width: 1.5; stroke-linecap: square"/>
   </g>
   <g id="patch_10">
    <path d="M 187.844214 96.391364 
L 187.844214 7.2 
" style="fill: none; stroke: #000000; stroke-width: 0.8; stroke-linejoin: miter; stroke-linecap: square"/>
   </g>
   <g id="patch_11">
    <path d="M 291.275568 96.391364 
L 291.275568 7.2 
" style="fill: none; stroke: #000000; stroke-width: 0.8; stroke-linejoin: miter; stroke-linecap: square"/>
   </g>
   <g id="patch_12">
    <path d="M 187.844214 96.391364 
L 291.275568 96.391364 
" style="fill: none; stroke: #000000; stroke-width: 0.8; stroke-linejoin: miter; stroke-linecap: square"/>
   </g>
   <g id="patch_13">
    <path d="M 187.844214 7.2 
L 291.275568 7.2 
" style="fill: none; stroke: #000000; stroke-width: 0.8; stroke-linejoin: miter; stroke-linecap: square"/>
   </g>
   <g id="text_12">
    <!-- (b) -->
    <g transform="translate(296.104 15.020119) scale(0.1 -0.1)">
     <defs>
      <path id="Arial-BoldMT-62" d="M 422 0 
L 422 4581 
L 1300 4581 
L 1300 2931 
Q 1706 3394 2263 3394 
Q 2869 3394 3266 2955 
Q 3663 2516 3663 1694 
Q 3663 844 3258 384 
Q 2853 -75 2275 -75 
Q 1991 -75 1714 67 
Q 1438 209 1238 488 
L 1238 0 
L 422 0 
z
M 1294 1731 
Q 1294 1216 1456 969 
Q 1684 619 2063 619 
Q 2353 619 2558 867 
Q 2763 1116 2763 1650 
Q 2763 2219 2556 2470 
Q 2350 2722 2028 2722 
Q 1713 2722 1503 2476 
Q 1294 2231 1294 1731 
z
" transform="scale(0.015625)"/>
     </defs>
     <use xlink:href="#Arial-BoldMT-28"/>
     <use xlink:href="#Arial-BoldMT-62" x="33.300781"/>
     <use xlink:href="#Arial-BoldMT-29" x="94.384766"/>
    </g>
   </g>
  </g>
  <g id="axes_3">
   <g id="patch_14">
    <path d="M 37.86875 197.22 
L 141.300104 197.22 
L 141.300104 108.028636 
L 37.86875 108.028636 
z
" style="fill: #ffffff"/>
   </g>
   <g id="patch_15">
    <path d="M 58.555021 197.22 
L 58.555021 108.028636 
L 94.755995 108.028636 
L 94.755995 197.22 
z
" clip-path="url(#pa4523e60e8)" style="fill: #808080; opacity: 0.15"/>
   </g>
   <g id="matplotlib.axis_5">
    <g id="xtick_19">
     <g id="line2d_58">
      <path d="M 37.86875 197.22 
L 37.86875 108.028636 
" clip-path="url(#pa4523e60e8)" style="fill: none; stroke-dasharray: 0.5,0.825; stroke-dashoffset: 0; stroke: #b0b0b0; stroke-opacity: 0.75; stroke-width: 0.5"/>
     </g>
     <g id="line2d_59">
      <g>
       <use xlink:href="#mc1aec94b0e" x="37.86875" y="197.22" style="stroke: #000000; stroke-width: 0.8"/>
      </g>
     </g>
     <g id="text_13">
      <!-- 1800 -->
      <g transform="translate(28.97125 206.44625) scale(0.08 -0.08)">
       <defs>
        <path id="ArialMT-38" d="M 1131 2484 
Q 781 2613 612 2850 
Q 444 3088 444 3419 
Q 444 3919 803 4259 
Q 1163 4600 1759 4600 
Q 2359 4600 2725 4251 
Q 3091 3903 3091 3403 
Q 3091 3084 2923 2848 
Q 2756 2613 2416 2484 
Q 2838 2347 3058 2040 
Q 3278 1734 3278 1309 
Q 3278 722 2862 322 
Q 2447 -78 1769 -78 
Q 1091 -78 675 323 
Q 259 725 259 1325 
Q 259 1772 486 2073 
Q 713 2375 1131 2484 
z
M 1019 3438 
Q 1019 3113 1228 2906 
Q 1438 2700 1772 2700 
Q 2097 2700 2305 2904 
Q 2513 3109 2513 3406 
Q 2513 3716 2298 3927 
Q 2084 4138 1766 4138 
Q 1444 4138 1231 3931 
Q 1019 3725 1019 3438 
z
M 838 1322 
Q 838 1081 952 856 
Q 1066 631 1291 507 
Q 1516 384 1775 384 
Q 2178 384 2440 643 
Q 2703 903 2703 1303 
Q 2703 1709 2433 1975 
Q 2163 2241 1756 2241 
Q 1359 2241 1098 1978 
Q 838 1716 838 1322 
z
" transform="scale(0.015625)"/>
       </defs>
       <use xlink:href="#ArialMT-31"/>
       <use xlink:href="#ArialMT-38" x="55.615234"/>
       <use xlink:href="#ArialMT-30" x="111.230469"/>
       <use xlink:href="#ArialMT-30" x="166.845703"/>
      </g>
     </g>
    </g>
    <g id="xtick_20">
     <g id="line2d_60">
      <path d="M 63.726589 197.22 
L 63.726589 108.028636 
" clip-path="url(#pa4523e60e8)" style="fill: none; stroke-dasharray: 0.5,0.825; stroke-dashoffset: 0; stroke: #b0b0b0; stroke-opacity: 0.75; stroke-width: 0.5"/>
     </g>
     <g id="line2d_61">
      <g>
       <use xlink:href="#mc1aec94b0e" x="63.726589" y="197.22" style="stroke: #000000; stroke-width: 0.8"/>
      </g>
     </g>
     <g id="text_14">
      <!-- 1900 -->
      <g transform="translate(54.829089 206.44625) scale(0.08 -0.08)">
       <defs>
        <path id="ArialMT-39" d="M 350 1059 
L 891 1109 
Q 959 728 1153 556 
Q 1347 384 1650 384 
Q 1909 384 2104 503 
Q 2300 622 2425 820 
Q 2550 1019 2634 1356 
Q 2719 1694 2719 2044 
Q 2719 2081 2716 2156 
Q 2547 1888 2255 1720 
Q 1963 1553 1622 1553 
Q 1053 1553 659 1965 
Q 266 2378 266 3053 
Q 266 3750 677 4175 
Q 1088 4600 1706 4600 
Q 2153 4600 2523 4359 
Q 2894 4119 3086 3673 
Q 3278 3228 3278 2384 
Q 3278 1506 3087 986 
Q 2897 466 2520 194 
Q 2144 -78 1638 -78 
Q 1100 -78 759 220 
Q 419 519 350 1059 
z
M 2653 3081 
Q 2653 3566 2395 3850 
Q 2138 4134 1775 4134 
Q 1400 4134 1122 3828 
Q 844 3522 844 3034 
Q 844 2597 1108 2323 
Q 1372 2050 1759 2050 
Q 2150 2050 2401 2323 
Q 2653 2597 2653 3081 
z
" transform="scale(0.015625)"/>
       </defs>
       <use xlink:href="#ArialMT-31"/>
       <use xlink:href="#ArialMT-39" x="55.615234"/>
       <use xlink:href="#ArialMT-30" x="111.230469"/>
       <use xlink:href="#ArialMT-30" x="166.845703"/>
      </g>
     </g>
    </g>
    <g id="xtick_21">
     <g id="line2d_62">
      <path d="M 89.584427 197.22 
L 89.584427 108.028636 
" clip-path="url(#pa4523e60e8)" style="fill: none; stroke-dasharray: 0.5,0.825; stroke-dashoffset: 0; stroke: #b0b0b0; stroke-opacity: 0.75; stroke-width: 0.5"/>
     </g>
     <g id="line2d_63">
      <g>
       <use xlink:href="#mc1aec94b0e" x="89.584427" y="197.22" style="stroke: #000000; stroke-width: 0.8"/>
      </g>
     </g>
     <g id="text_15">
      <!-- 2000 -->
      <g transform="translate(80.686927 206.44625) scale(0.08 -0.08)">
       <use xlink:href="#ArialMT-32"/>
       <use xlink:href="#ArialMT-30" x="55.615234"/>
       <use xlink:href="#ArialMT-30" x="111.230469"/>
       <use xlink:href="#ArialMT-30" x="166.845703"/>
      </g>
     </g>
    </g>
    <g id="xtick_22">
     <g id="line2d_64">
      <path d="M 115.442266 197.22 
L 115.442266 108.028636 
" clip-path="url(#pa4523e60e8)" style="fill: none; stroke-dasharray: 0.5,0.825; stroke-dashoffset: 0; stroke: #b0b0b0; stroke-opacity: 0.75; stroke-width: 0.5"/>
     </g>
     <g id="line2d_65">
      <g>
       <use xlink:href="#mc1aec94b0e" x="115.442266" y="197.22" style="stroke: #000000; stroke-width: 0.8"/>
      </g>
     </g>
     <g id="text_16">
      <!-- 2100 -->
      <g transform="translate(106.544766 206.44625) scale(0.08 -0.08)">
       <use xlink:href="#ArialMT-32"/>
       <use xlink:href="#ArialMT-31" x="55.615234"/>
       <use xlink:href="#ArialMT-30" x="111.230469"/>
       <use xlink:href="#ArialMT-30" x="166.845703"/>
      </g>
     </g>
    </g>
    <g id="xtick_23">
     <g id="line2d_66">
      <path d="M 141.300104 197.22 
L 141.300104 108.028636 
" clip-path="url(#pa4523e60e8)" style="fill: none; stroke-dasharray: 0.5,0.825; stroke-dashoffset: 0; stroke: #b0b0b0; stroke-opacity: 0.75; stroke-width: 0.5"/>
     </g>
     <g id="line2d_67">
      <g>
       <use xlink:href="#mc1aec94b0e" x="141.300104" y="197.22" style="stroke: #000000; stroke-width: 0.8"/>
      </g>
     </g>
     <g id="text_17">
      <!-- 2200 -->
      <g transform="translate(132.402604 206.44625) scale(0.08 -0.08)">
       <use xlink:href="#ArialMT-32"/>
       <use xlink:href="#ArialMT-32" x="55.615234"/>
       <use xlink:href="#ArialMT-30" x="111.230469"/>
       <use xlink:href="#ArialMT-30" x="166.845703"/>
      </g>
     </g>
    </g>
    <g id="xtick_24">
     <g id="line2d_68">
      <path d="M 50.797669 197.22 
L 50.797669 108.028636 
" clip-path="url(#pa4523e60e8)" style="fill: none; stroke-dasharray: 0.5,0.825; stroke-dashoffset: 0; stroke: #b0b0b0; stroke-opacity: 0.25; stroke-width: 0.5"/>
     </g>
     <g id="line2d_69">
      <g>
       <use xlink:href="#m3f7475cc65" x="50.797669" y="197.22" style="stroke: #000000; stroke-width: 0.6"/>
      </g>
     </g>
    </g>
    <g id="xtick_25">
     <g id="line2d_70">
      <path d="M 76.655508 197.22 
L 76.655508 108.028636 
" clip-path="url(#pa4523e60e8)" style="fill: none; stroke-dasharray: 0.5,0.825; stroke-dashoffset: 0; stroke: #b0b0b0; stroke-opacity: 0.25; stroke-width: 0.5"/>
     </g>
     <g id="line2d_71">
      <g>
       <use xlink:href="#m3f7475cc65" x="76.655508" y="197.22" style="stroke: #000000; stroke-width: 0.6"/>
      </g>
     </g>
    </g>
    <g id="xtick_26">
     <g id="line2d_72">
      <path d="M 102.513346 197.22 
L 102.513346 108.028636 
" clip-path="url(#pa4523e60e8)" style="fill: none; stroke-dasharray: 0.5,0.825; stroke-dashoffset: 0; stroke: #b0b0b0; stroke-opacity: 0.25; stroke-width: 0.5"/>
     </g>
     <g id="line2d_73">
      <g>
       <use xlink:href="#m3f7475cc65" x="102.513346" y="197.22" style="stroke: #000000; stroke-width: 0.6"/>
      </g>
     </g>
    </g>
    <g id="xtick_27">
     <g id="line2d_74">
      <path d="M 128.371185 197.22 
L 128.371185 108.028636 
" clip-path="url(#pa4523e60e8)" style="fill: none; stroke-dasharray: 0.5,0.825; stroke-dashoffset: 0; stroke: #b0b0b0; stroke-opacity: 0.25; stroke-width: 0.5"/>
     </g>
     <g id="line2d_75">
      <g>
       <use xlink:href="#m3f7475cc65" x="128.371185" y="197.22" style="stroke: #000000; stroke-width: 0.6"/>
      </g>
     </g>
    </g>
    <g id="text_18">
     <!-- Year -->
     <g transform="translate(81.500677 217.7625) scale(0.08 -0.08)">
      <defs>
       <path id="ArialMT-59" d="M 1784 0 
L 1784 1941 
L 19 4581 
L 756 4581 
L 1659 3200 
Q 1909 2813 2125 2425 
Q 2331 2784 2625 3234 
L 3513 4581 
L 4219 4581 
L 2391 1941 
L 2391 0 
L 1784 0 
z
" transform="scale(0.015625)"/>
       <path id="ArialMT-65" d="M 2694 1069 
L 3275 997 
Q 3138 488 2766 206 
Q 2394 -75 1816 -75 
Q 1088 -75 661 373 
Q 234 822 234 1631 
Q 234 2469 665 2931 
Q 1097 3394 1784 3394 
Q 2450 3394 2872 2941 
Q 3294 2488 3294 1666 
Q 3294 1616 3291 1516 
L 816 1516 
Q 847 969 1125 678 
Q 1403 388 1819 388 
Q 2128 388 2347 550 
Q 2566 713 2694 1069 
z
M 847 1978 
L 2700 1978 
Q 2663 2397 2488 2606 
Q 2219 2931 1791 2931 
Q 1403 2931 1139 2672 
Q 875 2413 847 1978 
z
" transform="scale(0.015625)"/>
       <path id="ArialMT-61" d="M 2588 409 
Q 2275 144 1986 34 
Q 1697 -75 1366 -75 
Q 819 -75 525 192 
Q 231 459 231 875 
Q 231 1119 342 1320 
Q 453 1522 633 1644 
Q 813 1766 1038 1828 
Q 1203 1872 1538 1913 
Q 2219 1994 2541 2106 
Q 2544 2222 2544 2253 
Q 2544 2597 2384 2738 
Q 2169 2928 1744 2928 
Q 1347 2928 1158 2789 
Q 969 2650 878 2297 
L 328 2372 
Q 403 2725 575 2942 
Q 747 3159 1072 3276 
Q 1397 3394 1825 3394 
Q 2250 3394 2515 3294 
Q 2781 3194 2906 3042 
Q 3031 2891 3081 2659 
Q 3109 2516 3109 2141 
L 3109 1391 
Q 3109 606 3145 398 
Q 3181 191 3288 0 
L 2700 0 
Q 2613 175 2588 409 
z
M 2541 1666 
Q 2234 1541 1622 1453 
Q 1275 1403 1131 1340 
Q 988 1278 909 1158 
Q 831 1038 831 891 
Q 831 666 1001 516 
Q 1172 366 1500 366 
Q 1825 366 2078 508 
Q 2331 650 2450 897 
Q 2541 1088 2541 1459 
L 2541 1666 
z
" transform="scale(0.015625)"/>
       <path id="ArialMT-72" d="M 416 0 
L 416 3319 
L 922 3319 
L 922 2816 
Q 1116 3169 1280 3281 
Q 1444 3394 1641 3394 
Q 1925 3394 2219 3213 
L 2025 2691 
Q 1819 2813 1613 2813 
Q 1428 2813 1281 2702 
Q 1134 2591 1072 2394 
Q 978 2094 978 1738 
L 978 0 
L 416 0 
z
" transform="scale(0.015625)"/>
      </defs>
      <use xlink:href="#ArialMT-59"/>
      <use xlink:href="#ArialMT-65" x="57.574219"/>
      <use xlink:href="#ArialMT-61" x="113.189453"/>
      <use xlink:href="#ArialMT-72" x="168.804688"/>
     </g>
    </g>
   </g>
   <g id="matplotlib.axis_6">
    <g id="ytick_9">
     <g id="line2d_76">
      <path d="M 37.86875 193.165847 
L 141.300104 193.165847 
" clip-path="url(#pa4523e60e8)" style="fill: none; stroke-dasharray: 0.5,0.825; stroke-dashoffset: 0; stroke: #b0b0b0; stroke-opacity: 0.75; stroke-width: 0.5"/>
     </g>
     <g id="line2d_77">
      <g>
       <use xlink:href="#mc939826621" x="37.86875" y="193.165847" style="stroke: #000000; stroke-width: 0.8"/>
      </g>
     </g>
     <g id="text_19">
      <!-- 0 -->
      <g transform="translate(29.92 196.028972) scale(0.08 -0.08)">
       <use xlink:href="#ArialMT-30"/>
      </g>
     </g>
    </g>
    <g id="ytick_10">
     <g id="line2d_78">
      <path d="M 37.86875 171.100691 
L 141.300104 171.100691 
" clip-path="url(#pa4523e60e8)" style="fill: none; stroke-dasharray: 0.5,0.825; stroke-dashoffset: 0; stroke: #b0b0b0; stroke-opacity: 0.75; stroke-width: 0.5"/>
     </g>
     <g id="line2d_79">
      <g>
       <use xlink:href="#mc939826621" x="37.86875" y="171.100691" style="stroke: #000000; stroke-width: 0.8"/>
      </g>
     </g>
     <g id="text_20">
      <!-- 1 -->
      <g transform="translate(29.92 173.963816) scale(0.08 -0.08)">
       <use xlink:href="#ArialMT-31"/>
      </g>
     </g>
    </g>
    <g id="ytick_11">
     <g id="line2d_80">
      <path d="M 37.86875 149.035535 
L 141.300104 149.035535 
" clip-path="url(#pa4523e60e8)" style="fill: none; stroke-dasharray: 0.5,0.825; stroke-dashoffset: 0; stroke: #b0b0b0; stroke-opacity: 0.75; stroke-width: 0.5"/>
     </g>
     <g id="line2d_81">
      <g>
       <use xlink:href="#mc939826621" x="37.86875" y="149.035535" style="stroke: #000000; stroke-width: 0.8"/>
      </g>
     </g>
     <g id="text_21">
      <!-- 2 -->
      <g transform="translate(29.92 151.89866) scale(0.08 -0.08)">
       <use xlink:href="#ArialMT-32"/>
      </g>
     </g>
    </g>
    <g id="ytick_12">
     <g id="line2d_82">
      <path d="M 37.86875 126.970379 
L 141.300104 126.970379 
" clip-path="url(#pa4523e60e8)" style="fill: none; stroke-dasharray: 0.5,0.825; stroke-dashoffset: 0; stroke: #b0b0b0; stroke-opacity: 0.75; stroke-width: 0.5"/>
     </g>
     <g id="line2d_83">
      <g>
       <use xlink:href="#mc939826621" x="37.86875" y="126.970379" style="stroke: #000000; stroke-width: 0.8"/>
      </g>
     </g>
     <g id="text_22">
      <!-- 3 -->
      <g transform="translate(29.92 129.833504) scale(0.08 -0.08)">
       <defs>
        <path id="ArialMT-33" d="M 269 1209 
L 831 1284 
Q 928 806 1161 595 
Q 1394 384 1728 384 
Q 2125 384 2398 659 
Q 2672 934 2672 1341 
Q 2672 1728 2419 1979 
Q 2166 2231 1775 2231 
Q 1616 2231 1378 2169 
L 1441 2663 
Q 1497 2656 1531 2656 
Q 1891 2656 2178 2843 
Q 2466 3031 2466 3422 
Q 2466 3731 2256 3934 
Q 2047 4138 1716 4138 
Q 1388 4138 1169 3931 
Q 950 3725 888 3313 
L 325 3413 
Q 428 3978 793 4289 
Q 1159 4600 1703 4600 
Q 2078 4600 2393 4439 
Q 2709 4278 2876 4000 
Q 3044 3722 3044 3409 
Q 3044 3113 2884 2869 
Q 2725 2625 2413 2481 
Q 2819 2388 3044 2092 
Q 3269 1797 3269 1353 
Q 3269 753 2831 336 
Q 2394 -81 1725 -81 
Q 1122 -81 723 278 
Q 325 638 269 1209 
z
" transform="scale(0.015625)"/>
       </defs>
       <use xlink:href="#ArialMT-33"/>
      </g>
     </g>
    </g>
    <g id="text_23">
     <!-- $|L' - L_{eq}|$  [km] -->
     <g transform="translate(23.44 179.264318) rotate(-90) scale(0.08 -0.08)">
      <defs>
       <path id="DejaVuSans-7c" d="M 1344 4891 
L 1344 -1509 
L 813 -1509 
L 813 4891 
L 1344 4891 
z
" transform="scale(0.015625)"/>
       <path id="DejaVuSans-2212" d="M 678 2272 
L 4684 2272 
L 4684 1741 
L 678 1741 
L 678 2272 
z
" transform="scale(0.015625)"/>
       <path id="DejaVuSans-Oblique-65" d="M 3078 2063 
Q 3088 2113 3092 2166 
Q 3097 2219 3097 2272 
Q 3097 2653 2873 2875 
Q 2650 3097 2266 3097 
Q 1838 3097 1509 2826 
Q 1181 2556 1013 2059 
L 3078 2063 
z
M 3578 1613 
L 903 1613 
Q 884 1494 878 1425 
Q 872 1356 872 1306 
Q 872 872 1139 634 
Q 1406 397 1894 397 
Q 2269 397 2603 481 
Q 2938 566 3225 728 
L 3116 159 
Q 2806 34 2476 -28 
Q 2147 -91 1806 -91 
Q 1078 -91 686 257 
Q 294 606 294 1247 
Q 294 1794 489 2264 
Q 684 2734 1063 3103 
Q 1306 3334 1642 3459 
Q 1978 3584 2356 3584 
Q 2950 3584 3301 3228 
Q 3653 2872 3653 2272 
Q 3653 2128 3634 1964 
Q 3616 1800 3578 1613 
z
" transform="scale(0.015625)"/>
       <path id="DejaVuSans-Oblique-71" d="M 2669 525 
Q 2438 222 2123 65 
Q 1809 -91 1428 -91 
Q 897 -91 595 267 
Q 294 625 294 1253 
Q 294 1759 480 2231 
Q 666 2703 1013 3078 
Q 1238 3322 1530 3453 
Q 1822 3584 2144 3584 
Q 2531 3584 2781 3431 
Q 3031 3278 3144 2969 
L 3244 3494 
L 3822 3494 
L 2888 -1319 
L 2309 -1319 
L 2669 525 
z
M 891 1338 
Q 891 875 1084 633 
Q 1278 391 1644 391 
Q 2188 391 2572 911 
Q 2956 1431 2956 2175 
Q 2956 2625 2757 2864 
Q 2559 3103 2188 3103 
Q 1916 3103 1684 2976 
Q 1453 2850 1281 2606 
Q 1100 2350 995 2006 
Q 891 1663 891 1338 
z
" transform="scale(0.015625)"/>
      </defs>
      <use xlink:href="#DejaVuSans-7c" transform="translate(0 0.584375)"/>
      <use xlink:href="#DejaVuSans-Oblique-4c" transform="translate(33.691406 0.584375)"/>
      <use xlink:href="#Cmsy10-30" transform="translate(96.421068 38.865625) scale(0.7)"/>
      <use xlink:href="#DejaVuSans-2212" transform="translate(137.881029 0.584375)"/>
      <use xlink:href="#DejaVuSans-Oblique-4c" transform="translate(241.152513 0.584375)"/>
      <use xlink:href="#DejaVuSans-Oblique-65" transform="translate(296.865404 -15.821875) scale(0.7)"/>
      <use xlink:href="#DejaVuSans-Oblique-71" transform="translate(339.93181 -15.821875) scale(0.7)"/>
      <use xlink:href="#DejaVuSans-7c" transform="translate(387.099779 0.584375)"/>
      <use xlink:href="#ArialMT-20" transform="translate(420.791185 0.584375)"/>
      <use xlink:href="#ArialMT-20" transform="translate(448.574388 0.584375)"/>
      <use xlink:href="#ArialMT-5b" transform="translate(476.357591 0.584375)"/>
      <use xlink:href="#ArialMT-6b" transform="translate(504.140794 0.584375)"/>
      <use xlink:href="#ArialMT-6d" transform="translate(554.140794 0.584375)"/>
      <use xlink:href="#ArialMT-5d" transform="translate(637.441576 0.584375)"/>
     </g>
    </g>
   </g>
   <g id="line2d_84">
    <path d="M 37.86875 193.165847 
L 58.555021 193.165847 
L 67.605264 166.407653 
L 71.48394 155.654751 
L 74.845459 147.001958 
L 77.689821 140.259207 
L 80.534184 134.091295 
L 83.119968 128.996223 
L 85.705751 124.385762 
L 88.291535 120.245603 
L 90.877319 116.553352 
L 93.463103 113.281066 
L 94.497417 112.082789 
L 97.600357 118.12217 
L 101.479033 126.231492 
L 110.787855 145.942155 
L 114.149374 152.448172 
L 117.252314 157.968685 
L 120.096677 162.576492 
L 122.682461 166.377216 
L 125.268244 169.81049 
L 127.854028 172.887689 
L 130.439812 175.626555 
L 133.025596 178.049061 
L 135.61138 180.179672 
L 138.197164 182.043991 
L 141.041526 183.817832 
L 143.885888 185.333798 
L 146.988829 186.730388 
L 150.350348 187.982889 
L 153.970445 189.076717 
L 157.849121 190.007081 
L 162.244954 190.819567 
L 167.157943 191.492158 
L 172.846667 192.041298 
L 179.828284 192.481411 
L 188.878527 192.810642 
L 192.757203 192.898692 
L 192.757203 192.898692 
" clip-path="url(#pa4523e60e8)" style="fill: none; stroke: #1f77b4; stroke-width: 1.5; stroke-linecap: square"/>
   </g>
   <g id="line2d_85">
    <path d="M 37.86875 193.165847 
L 58.555021 193.165847 
L 63.209432 188.670326 
L 65.278059 186.988339 
L 67.088108 185.770894 
L 68.898156 184.793452 
L 70.966783 183.941159 
L 73.03541 183.323271 
L 75.621194 182.801081 
L 78.724135 182.426182 
L 82.861389 182.175865 
L 89.325849 182.039246 
L 94.497417 182.009277 
L 99.151827 186.496009 
L 101.220455 188.176268 
L 103.030503 189.392755 
L 104.840552 190.369573 
L 106.909179 191.221413 
L 108.977806 191.839025 
L 111.56359 192.361017 
L 114.666531 192.735797 
L 118.803785 192.986046 
L 125.268244 193.122635 
L 141.300104 193.164831 
L 192.757203 193.165847 
L 192.757203 193.165847 
" clip-path="url(#pa4523e60e8)" style="fill: none; stroke: #ff7f0e; stroke-width: 1.5; stroke-linecap: square"/>
   </g>
   <g id="patch_16">
    <path d="M 37.86875 197.22 
L 37.86875 108.028636 
" style="fill: none; stroke: #000000; stroke-width: 0.8; stroke-linejoin: miter; stroke-linecap: square"/>
   </g>
   <g id="patch_17">
    <path d="M 141.300104 197.22 
L 141.300104 108.028636 
" style="fill: none; stroke: #000000; stroke-width: 0.8; stroke-linejoin: miter; stroke-linecap: square"/>
   </g>
   <g id="patch_18">
    <path d="M 37.86875 197.22 
L 141.300104 197.22 
" style="fill: none; stroke: #000000; stroke-width: 0.8; stroke-linejoin: miter; stroke-linecap: square"/>
   </g>
   <g id="patch_19">
    <path d="M 37.86875 108.028636 
L 141.300104 108.028636 
" style="fill: none; stroke: #000000; stroke-width: 0.8; stroke-linejoin: miter; stroke-linecap: square"/>
   </g>
   <g id="text_24">
    <!-- (c) -->
    <g transform="translate(146.128537 115.848756) scale(0.1 -0.1)">
     <defs>
      <path id="Arial-BoldMT-63" d="M 3353 2338 
L 2488 2181 
Q 2444 2441 2289 2572 
Q 2134 2703 1888 2703 
Q 1559 2703 1364 2476 
Q 1169 2250 1169 1719 
Q 1169 1128 1367 884 
Q 1566 641 1900 641 
Q 2150 641 2309 783 
Q 2469 925 2534 1272 
L 3397 1125 
Q 3263 531 2881 228 
Q 2500 -75 1859 -75 
Q 1131 -75 698 384 
Q 266 844 266 1656 
Q 266 2478 700 2936 
Q 1134 3394 1875 3394 
Q 2481 3394 2839 3133 
Q 3197 2872 3353 2338 
z
" transform="scale(0.015625)"/>
     </defs>
     <use xlink:href="#Arial-BoldMT-28"/>
     <use xlink:href="#Arial-BoldMT-63" x="33.300781"/>
     <use xlink:href="#Arial-BoldMT-29" x="88.916016"/>
    </g>
   </g>
  </g>
  <g id="axes_4">
   <g id="patch_20">
    <path d="M 187.844214 197.22 
L 291.275568 197.22 
L 291.275568 108.028636 
L 187.844214 108.028636 
z
" style="fill: #ffffff"/>
   </g>
   <g id="patch_21">
    <path d="M 208.530485 197.22 
L 208.530485 108.028636 
L 244.731459 108.028636 
L 244.731459 197.22 
z
" clip-path="url(#pef98a68515)" style="fill: #808080; opacity: 0.15"/>
   </g>
   <g id="matplotlib.axis_7">
    <g id="xtick_28">
     <g id="line2d_86">
      <path d="M 187.844214 197.22 
L 187.844214 108.028636 
" clip-path="url(#pef98a68515)" style="fill: none; stroke-dasharray: 0.5,0.825; stroke-dashoffset: 0; stroke: #b0b0b0; stroke-opacity: 0.75; stroke-width: 0.5"/>
     </g>
     <g id="line2d_87">
      <g>
       <use xlink:href="#mc1aec94b0e" x="187.844214" y="197.22" style="stroke: #000000; stroke-width: 0.8"/>
      </g>
     </g>
     <g id="text_25">
      <!-- 1800 -->
      <g transform="translate(178.946714 206.44625) scale(0.08 -0.08)">
       <use xlink:href="#ArialMT-31"/>
       <use xlink:href="#ArialMT-38" x="55.615234"/>
       <use xlink:href="#ArialMT-30" x="111.230469"/>
       <use xlink:href="#ArialMT-30" x="166.845703"/>
      </g>
     </g>
    </g>
    <g id="xtick_29">
     <g id="line2d_88">
      <path d="M 213.702052 197.22 
L 213.702052 108.028636 
" clip-path="url(#pef98a68515)" style="fill: none; stroke-dasharray: 0.5,0.825; stroke-dashoffset: 0; stroke: #b0b0b0; stroke-opacity: 0.75; stroke-width: 0.5"/>
     </g>
     <g id="line2d_89">
      <g>
       <use xlink:href="#mc1aec94b0e" x="213.702052" y="197.22" style="stroke: #000000; stroke-width: 0.8"/>
      </g>
     </g>
     <g id="text_26">
      <!-- 1900 -->
      <g transform="translate(204.804552 206.44625) scale(0.08 -0.08)">
       <use xlink:href="#ArialMT-31"/>
       <use xlink:href="#ArialMT-39" x="55.615234"/>
       <use xlink:href="#ArialMT-30" x="111.230469"/>
       <use xlink:href="#ArialMT-30" x="166.845703"/>
      </g>
     </g>
    </g>
    <g id="xtick_30">
     <g id="line2d_90">
      <path d="M 239.559891 197.22 
L 239.559891 108.028636 
" clip-path="url(#pef98a68515)" style="fill: none; stroke-dasharray: 0.5,0.825; stroke-dashoffset: 0; stroke: #b0b0b0; stroke-opacity: 0.75; stroke-width: 0.5"/>
     </g>
     <g id="line2d_91">
      <g>
       <use xlink:href="#mc1aec94b0e" x="239.559891" y="197.22" style="stroke: #000000; stroke-width: 0.8"/>
      </g>
     </g>
     <g id="text_27">
      <!-- 2000 -->
      <g transform="translate(230.662391 206.44625) scale(0.08 -0.08)">
       <use xlink:href="#ArialMT-32"/>
       <use xlink:href="#ArialMT-30" x="55.615234"/>
       <use xlink:href="#ArialMT-30" x="111.230469"/>
       <use xlink:href="#ArialMT-30" x="166.845703"/>
      </g>
     </g>
    </g>
    <g id="xtick_31">
     <g id="line2d_92">
      <path d="M 265.41773 197.22 
L 265.41773 108.028636 
" clip-path="url(#pef98a68515)" style="fill: none; stroke-dasharray: 0.5,0.825; stroke-dashoffset: 0; stroke: #b0b0b0; stroke-opacity: 0.75; stroke-width: 0.5"/>
     </g>
     <g id="line2d_93">
      <g>
       <use xlink:href="#mc1aec94b0e" x="265.41773" y="197.22" style="stroke: #000000; stroke-width: 0.8"/>
      </g>
     </g>
     <g id="text_28">
      <!-- 2100 -->
      <g transform="translate(256.52023 206.44625) scale(0.08 -0.08)">
       <use xlink:href="#ArialMT-32"/>
       <use xlink:href="#ArialMT-31" x="55.615234"/>
       <use xlink:href="#ArialMT-30" x="111.230469"/>
       <use xlink:href="#ArialMT-30" x="166.845703"/>
      </g>
     </g>
    </g>
    <g id="xtick_32">
     <g id="line2d_94">
      <path d="M 291.275568 197.22 
L 291.275568 108.028636 
" clip-path="url(#pef98a68515)" style="fill: none; stroke-dasharray: 0.5,0.825; stroke-dashoffset: 0; stroke: #b0b0b0; stroke-opacity: 0.75; stroke-width: 0.5"/>
     </g>
     <g id="line2d_95">
      <g>
       <use xlink:href="#mc1aec94b0e" x="291.275568" y="197.22" style="stroke: #000000; stroke-width: 0.8"/>
      </g>
     </g>
     <g id="text_29">
      <!-- 2200 -->
      <g transform="translate(282.378068 206.44625) scale(0.08 -0.08)">
       <use xlink:href="#ArialMT-32"/>
       <use xlink:href="#ArialMT-32" x="55.615234"/>
       <use xlink:href="#ArialMT-30" x="111.230469"/>
       <use xlink:href="#ArialMT-30" x="166.845703"/>
      </g>
     </g>
    </g>
    <g id="xtick_33">
     <g id="line2d_96">
      <path d="M 200.773133 197.22 
L 200.773133 108.028636 
" clip-path="url(#pef98a68515)" style="fill: none; stroke-dasharray: 0.5,0.825; stroke-dashoffset: 0; stroke: #b0b0b0; stroke-opacity: 0.25; stroke-width: 0.5"/>
     </g>
     <g id="line2d_97">
      <g>
       <use xlink:href="#m3f7475cc65" x="200.773133" y="197.22" style="stroke: #000000; stroke-width: 0.6"/>
      </g>
     </g>
    </g>
    <g id="xtick_34">
     <g id="line2d_98">
      <path d="M 226.630972 197.22 
L 226.630972 108.028636 
" clip-path="url(#pef98a68515)" style="fill: none; stroke-dasharray: 0.5,0.825; stroke-dashoffset: 0; stroke: #b0b0b0; stroke-opacity: 0.25; stroke-width: 0.5"/>
     </g>
     <g id="line2d_99">
      <g>
       <use xlink:href="#m3f7475cc65" x="226.630972" y="197.22" style="stroke: #000000; stroke-width: 0.6"/>
      </g>
     </g>
    </g>
    <g id="xtick_35">
     <g id="line2d_100">
      <path d="M 252.48881 197.22 
L 252.48881 108.028636 
" clip-path="url(#pef98a68515)" style="fill: none; stroke-dasharray: 0.5,0.825; stroke-dashoffset: 0; stroke: #b0b0b0; stroke-opacity: 0.25; stroke-width: 0.5"/>
     </g>
     <g id="line2d_101">
      <g>
       <use xlink:href="#m3f7475cc65" x="252.48881" y="197.22" style="stroke: #000000; stroke-width: 0.6"/>
      </g>
     </g>
    </g>
    <g id="xtick_36">
     <g id="line2d_102">
      <path d="M 278.346649 197.22 
L 278.346649 108.028636 
" clip-path="url(#pef98a68515)" style="fill: none; stroke-dasharray: 0.5,0.825; stroke-dashoffset: 0; stroke: #b0b0b0; stroke-opacity: 0.25; stroke-width: 0.5"/>
     </g>
     <g id="line2d_103">
      <g>
       <use xlink:href="#m3f7475cc65" x="278.346649" y="197.22" style="stroke: #000000; stroke-width: 0.6"/>
      </g>
     </g>
    </g>
    <g id="text_30">
     <!-- Year -->
     <g transform="translate(231.476141 217.7625) scale(0.08 -0.08)">
      <use xlink:href="#ArialMT-59"/>
      <use xlink:href="#ArialMT-65" x="57.574219"/>
      <use xlink:href="#ArialMT-61" x="113.189453"/>
      <use xlink:href="#ArialMT-72" x="168.804688"/>
     </g>
    </g>
   </g>
   <g id="matplotlib.axis_8">
    <g id="ytick_13">
     <g id="line2d_104">
      <path d="M 187.844214 193.342115 
L 291.275568 193.342115 
" clip-path="url(#pef98a68515)" style="fill: none; stroke-dasharray: 0.5,0.825; stroke-dashoffset: 0; stroke: #b0b0b0; stroke-opacity: 0.75; stroke-width: 0.5"/>
     </g>
     <g id="line2d_105">
      <g>
       <use xlink:href="#mc939826621" x="187.844214" y="193.342115" style="stroke: #000000; stroke-width: 0.8"/>
      </g>
     </g>
     <g id="text_31">
      <!-- 0.00 -->
      <g transform="translate(168.775464 196.20524) scale(0.08 -0.08)">
       <use xlink:href="#ArialMT-30"/>
       <use xlink:href="#ArialMT-2e" x="55.615234"/>
       <use xlink:href="#ArialMT-30" x="83.398438"/>
       <use xlink:href="#ArialMT-30" x="139.013672"/>
      </g>
     </g>
    </g>
    <g id="ytick_14">
     <g id="line2d_106">
      <path d="M 187.844214 173.952688 
L 291.275568 173.952688 
" clip-path="url(#pef98a68515)" style="fill: none; stroke-dasharray: 0.5,0.825; stroke-dashoffset: 0; stroke: #b0b0b0; stroke-opacity: 0.75; stroke-width: 0.5"/>
     </g>
     <g id="line2d_107">
      <g>
       <use xlink:href="#mc939826621" x="187.844214" y="173.952688" style="stroke: #000000; stroke-width: 0.8"/>
      </g>
     </g>
     <g id="text_32">
      <!-- 0.25 -->
      <g transform="translate(168.775464 176.815813) scale(0.08 -0.08)">
       <use xlink:href="#ArialMT-30"/>
       <use xlink:href="#ArialMT-2e" x="55.615234"/>
       <use xlink:href="#ArialMT-32" x="83.398438"/>
       <use xlink:href="#ArialMT-35" x="139.013672"/>
      </g>
     </g>
    </g>
    <g id="ytick_15">
     <g id="line2d_108">
      <path d="M 187.844214 154.563261 
L 291.275568 154.563261 
" clip-path="url(#pef98a68515)" style="fill: none; stroke-dasharray: 0.5,0.825; stroke-dashoffset: 0; stroke: #b0b0b0; stroke-opacity: 0.75; stroke-width: 0.5"/>
     </g>
     <g id="line2d_109">
      <g>
       <use xlink:href="#mc939826621" x="187.844214" y="154.563261" style="stroke: #000000; stroke-width: 0.8"/>
      </g>
     </g>
     <g id="text_33">
      <!-- 0.50 -->
      <g transform="translate(168.775464 157.426386) scale(0.08 -0.08)">
       <use xlink:href="#ArialMT-30"/>
       <use xlink:href="#ArialMT-2e" x="55.615234"/>
       <use xlink:href="#ArialMT-35" x="83.398438"/>
       <use xlink:href="#ArialMT-30" x="139.013672"/>
      </g>
     </g>
    </g>
    <g id="ytick_16">
     <g id="line2d_110">
      <path d="M 187.844214 135.173834 
L 291.275568 135.173834 
" clip-path="url(#pef98a68515)" style="fill: none; stroke-dasharray: 0.5,0.825; stroke-dashoffset: 0; stroke: #b0b0b0; stroke-opacity: 0.75; stroke-width: 0.5"/>
     </g>
     <g id="line2d_111">
      <g>
       <use xlink:href="#mc939826621" x="187.844214" y="135.173834" style="stroke: #000000; stroke-width: 0.8"/>
      </g>
     </g>
     <g id="text_34">
      <!-- 0.75 -->
      <g transform="translate(168.775464 138.036959) scale(0.08 -0.08)">
       <use xlink:href="#ArialMT-30"/>
       <use xlink:href="#ArialMT-2e" x="55.615234"/>
       <use xlink:href="#ArialMT-37" x="83.398438"/>
       <use xlink:href="#ArialMT-35" x="139.013672"/>
      </g>
     </g>
    </g>
    <g id="ytick_17">
     <g id="line2d_112">
      <path d="M 187.844214 115.784407 
L 291.275568 115.784407 
" clip-path="url(#pef98a68515)" style="fill: none; stroke-dasharray: 0.5,0.825; stroke-dashoffset: 0; stroke: #b0b0b0; stroke-opacity: 0.75; stroke-width: 0.5"/>
     </g>
     <g id="line2d_113">
      <g>
       <use xlink:href="#mc939826621" x="187.844214" y="115.784407" style="stroke: #000000; stroke-width: 0.8"/>
      </g>
     </g>
     <g id="text_35">
      <!-- 1.00 -->
      <g transform="translate(168.775464 118.647532) scale(0.08 -0.08)">
       <use xlink:href="#ArialMT-31"/>
       <use xlink:href="#ArialMT-2e" x="55.615234"/>
       <use xlink:href="#ArialMT-30" x="83.398438"/>
       <use xlink:href="#ArialMT-30" x="139.013672"/>
      </g>
     </g>
    </g>
    <g id="text_36">
     <!-- $f_{eq}$ ($L'/L_{eq}$)  -->
     <g transform="translate(162.295464 173.104318) rotate(-90) scale(0.08 -0.08)">
      <defs>
       <path id="DejaVuSans-Oblique-66" d="M 3059 4863 
L 2969 4384 
L 2419 4384 
Q 2106 4384 1964 4261 
Q 1822 4138 1753 3809 
L 1691 3500 
L 2638 3500 
L 2553 3053 
L 1606 3053 
L 1013 0 
L 434 0 
L 1031 3053 
L 481 3053 
L 563 3500 
L 1113 3500 
L 1159 3744 
Q 1278 4363 1576 4613 
Q 1875 4863 2516 4863 
L 3059 4863 
z
" transform="scale(0.015625)"/>
       <path id="ArialMT-28" d="M 1497 -1347 
Q 1031 -759 709 28 
Q 388 816 388 1659 
Q 388 2403 628 3084 
Q 909 3875 1497 4659 
L 1900 4659 
Q 1522 4009 1400 3731 
Q 1209 3300 1100 2831 
Q 966 2247 966 1656 
Q 966 153 1900 -1347 
L 1497 -1347 
z
" transform="scale(0.015625)"/>
       <path id="DejaVuSans-2f" d="M 1625 4666 
L 2156 4666 
L 531 -594 
L 0 -594 
L 1625 4666 
z
" transform="scale(0.015625)"/>
       <path id="ArialMT-29" d="M 791 -1347 
L 388 -1347 
Q 1322 153 1322 1656 
Q 1322 2244 1188 2822 
Q 1081 3291 891 3722 
Q 769 4003 388 4659 
L 791 4659 
Q 1378 3875 1659 3084 
Q 1900 2403 1900 1659 
Q 1900 816 1576 28 
Q 1253 -759 791 -1347 
z
" transform="scale(0.015625)"/>
      </defs>
      <use xlink:href="#DejaVuSans-Oblique-66" transform="translate(0 0.584375)"/>
      <use xlink:href="#DejaVuSans-Oblique-65" transform="translate(35.205078 -15.821875) scale(0.7)"/>
      <use xlink:href="#DejaVuSans-Oblique-71" transform="translate(78.271484 -15.821875) scale(0.7)"/>
      <use xlink:href="#ArialMT-20" transform="translate(125.439453 0.584375)"/>
      <use xlink:href="#ArialMT-28" transform="translate(153.222656 0.584375)"/>
      <use xlink:href="#DejaVuSans-Oblique-4c" transform="translate(186.523438 0.584375)"/>
      <use xlink:href="#Cmsy10-30" transform="translate(249.253099 38.865625) scale(0.7)"/>
      <use xlink:href="#DejaVuSans-2f" transform="translate(271.230638 0.584375)"/>
      <use xlink:href="#DejaVuSans-Oblique-4c" transform="translate(304.922044 0.584375)"/>
      <use xlink:href="#DejaVuSans-Oblique-65" transform="translate(360.634935 -15.821875) scale(0.7)"/>
      <use xlink:href="#DejaVuSans-Oblique-71" transform="translate(403.701341 -15.821875) scale(0.7)"/>
      <use xlink:href="#ArialMT-29" transform="translate(450.86931 0.584375)"/>
      <use xlink:href="#ArialMT-20" transform="translate(484.170091 0.584375)"/>
     </g>
    </g>
   </g>
   <g id="line2d_114">
    <path d="M 208.789063 193.342115 
L 212.667739 193.250072 
L 214.994944 192.979844 
L 217.32215 192.476486 
L 219.649355 191.724669 
L 221.976561 190.731736 
L 224.562345 189.371718 
L 227.406707 187.60982 
L 230.768226 185.246861 
L 235.164058 181.848647 
L 243.955724 174.667137 
L 244.731459 173.897574 
L 247.834399 169.513774 
L 251.971654 163.2452 
L 260.50474 150.208478 
L 264.124838 145.142397 
L 267.227778 141.162033 
L 270.330719 137.553673 
L 273.175081 134.583269 
L 276.019443 131.931874 
L 278.863806 129.586888 
L 281.708168 127.529703 
L 284.55253 125.738011 
L 287.655471 124.057788 
L 290.758411 122.632685 
L 294.11993 121.340476 
L 297.740028 120.199837 
L 301.618704 119.219599 
L 305.755958 118.399449 
L 310.668947 117.664334 
L 316.099093 117.08069 
L 317.071188 116.996408 
L 317.071188 116.996408 
" clip-path="url(#pef98a68515)" style="fill: none; stroke: #1f77b4; stroke-width: 1.5; stroke-linecap: square"/>
   </g>
   <g id="line2d_115">
    <path d="M 208.789063 193.342115 
L 210.081955 193.282871 
L 210.85769 193.049478 
L 211.633425 192.580114 
L 212.40916 191.853657 
L 213.443474 190.496443 
L 214.477788 188.74614 
L 215.770679 186.12177 
L 217.580728 181.913509 
L 224.303766 165.729972 
L 226.630972 160.946529 
L 228.699599 157.182042 
L 230.768226 153.85806 
L 232.836853 150.936283 
L 234.90548 148.370979 
L 237.232686 145.853724 
L 239.559891 143.668483 
L 242.145675 141.565474 
L 244.47288 139.916518 
L 248.868713 130.707968 
L 250.678762 127.425443 
L 252.230232 125.008649 
L 253.781702 122.978711 
L 255.333173 121.318491 
L 256.884643 119.990296 
L 258.436113 118.947173 
L 260.246162 118.025953 
L 262.056211 117.355573 
L 264.124838 116.8189 
L 266.710622 116.388681 
L 270.072141 116.078455 
L 274.98513 115.883482 
L 284.035373 115.79672 
L 317.071188 115.784411 
L 317.071188 115.784411 
" clip-path="url(#pef98a68515)" style="fill: none; stroke: #ff7f0e; stroke-width: 1.5; stroke-linecap: square"/>
   </g>
   <g id="patch_22">
    <path d="M 187.844214 197.22 
L 187.844214 108.028636 
" style="fill: none; stroke: #000000; stroke-width: 0.8; stroke-linejoin: miter; stroke-linecap: square"/>
   </g>
   <g id="patch_23">
    <path d="M 291.275568 197.22 
L 291.275568 108.028636 
" style="fill: none; stroke: #000000; stroke-width: 0.8; stroke-linejoin: miter; stroke-linecap: square"/>
   </g>
   <g id="patch_24">
    <path d="M 187.844214 197.22 
L 291.275568 197.22 
" style="fill: none; stroke: #000000; stroke-width: 0.8; stroke-linejoin: miter; stroke-linecap: square"/>
   </g>
   <g id="patch_25">
    <path d="M 187.844214 108.028636 
L 291.275568 108.028636 
" style="fill: none; stroke: #000000; stroke-width: 0.8; stroke-linejoin: miter; stroke-linecap: square"/>
   </g>
   <g id="text_37">
    <!-- (d) -->
    <g transform="translate(296.104 115.848756) scale(0.1 -0.1)">
     <defs>
      <path id="Arial-BoldMT-64" d="M 3503 0 
L 2688 0 
L 2688 488 
Q 2484 203 2207 64 
Q 1931 -75 1650 -75 
Q 1078 -75 670 386 
Q 263 847 263 1672 
Q 263 2516 659 2955 
Q 1056 3394 1663 3394 
Q 2219 3394 2625 2931 
L 2625 4581 
L 3503 4581 
L 3503 0 
z
M 1159 1731 
Q 1159 1200 1306 963 
Q 1519 619 1900 619 
Q 2203 619 2415 876 
Q 2628 1134 2628 1647 
Q 2628 2219 2422 2470 
Q 2216 2722 1894 2722 
Q 1581 2722 1370 2473 
Q 1159 2225 1159 1731 
z
" transform="scale(0.015625)"/>
     </defs>
     <use xlink:href="#Arial-BoldMT-28"/>
     <use xlink:href="#Arial-BoldMT-64" x="33.300781"/>
     <use xlink:href="#Arial-BoldMT-29" x="94.384766"/>
    </g>
   </g>
   <g id="legend_1">
    <g id="patch_26">
     <path d="M 195.000154 129.31141 
L 236.514454 129.31141 
Q 237.672454 129.31141 237.672454 128.15341 
L 237.672454 112.081636 
Q 237.672454 110.923636 236.514454 110.923636 
L 195.000154 110.923636 
Q 193.842154 110.923636 193.842154 112.081636 
L 193.842154 128.15341 
Q 193.842154 129.31141 195.000154 129.31141 
z
" style="fill: #ffffff; opacity: 0.8; stroke: #cccccc; stroke-linejoin: miter"/>
    </g>
    <g id="line2d_116">
     <path d="M 196.158154 115.35751 
L 201.948154 115.35751 
L 207.738154 115.35751 
" style="fill: none; stroke: #1f77b4; stroke-width: 1.5; stroke-linecap: square"/>
    </g>
    <g id="text_38">
     <!-- $\tau$ = 75 yr -->
     <g transform="translate(212.370154 117.38401) scale(0.0579 -0.0579)">
      <defs>
       <path id="DejaVuSans-Oblique-3c4" d="M 2103 638 
Q 2188 488 2525 488 
L 2800 488 
L 2706 0 
L 2363 0 
Q 1800 0 1600 300 
Q 1403 606 1534 1269 
L 1856 2925 
L 541 2925 
L 653 3500 
L 3881 3500 
L 3769 2925 
L 2444 2925 
L 2113 1234 
Q 2025 781 2103 638 
z
" transform="scale(0.015625)"/>
       <path id="ArialMT-3d" d="M 3381 2694 
L 356 2694 
L 356 3219 
L 3381 3219 
L 3381 2694 
z
M 3381 1303 
L 356 1303 
L 356 1828 
L 3381 1828 
L 3381 1303 
z
" transform="scale(0.015625)"/>
       <path id="ArialMT-79" d="M 397 -1278 
L 334 -750 
Q 519 -800 656 -800 
Q 844 -800 956 -737 
Q 1069 -675 1141 -563 
Q 1194 -478 1313 -144 
Q 1328 -97 1363 -6 
L 103 3319 
L 709 3319 
L 1400 1397 
Q 1534 1031 1641 628 
Q 1738 1016 1872 1384 
L 2581 3319 
L 3144 3319 
L 1881 -56 
Q 1678 -603 1566 -809 
Q 1416 -1088 1222 -1217 
Q 1028 -1347 759 -1347 
Q 597 -1347 397 -1278 
z
" transform="scale(0.015625)"/>
      </defs>
      <use xlink:href="#DejaVuSans-Oblique-3c4" transform="translate(0 0.34375)"/>
      <use xlink:href="#ArialMT-20" transform="translate(60.205078 0.34375)"/>
      <use xlink:href="#ArialMT-3d" transform="translate(87.988281 0.34375)"/>
      <use xlink:href="#ArialMT-20" transform="translate(146.386719 0.34375)"/>
      <use xlink:href="#ArialMT-37" transform="translate(174.169922 0.34375)"/>
      <use xlink:href="#ArialMT-35" transform="translate(229.785156 0.34375)"/>
      <use xlink:href="#ArialMT-20" transform="translate(285.400391 0.34375)"/>
      <use xlink:href="#ArialMT-79" transform="translate(313.183594 0.34375)"/>
      <use xlink:href="#ArialMT-72" transform="translate(363.183594 0.34375)"/>
     </g>
    </g>
    <g id="line2d_117">
     <path d="M 196.158154 123.69511 
L 201.948154 123.69511 
L 207.738154 123.69511 
" style="fill: none; stroke: #ff7f0e; stroke-width: 1.5; stroke-linecap: square"/>
    </g>
    <g id="text_39">
     <!-- $\tau$ = 25 yr -->
     <g transform="translate(212.370154 125.72161) scale(0.0579 -0.0579)">
      <use xlink:href="#DejaVuSans-Oblique-3c4" transform="translate(0 0.125)"/>
      <use xlink:href="#ArialMT-20" transform="translate(60.205078 0.125)"/>
      <use xlink:href="#ArialMT-3d" transform="translate(87.988281 0.125)"/>
      <use xlink:href="#ArialMT-20" transform="translate(146.386719 0.125)"/>
      <use xlink:href="#ArialMT-32" transform="translate(174.169922 0.125)"/>
      <use xlink:href="#ArialMT-35" transform="translate(229.785156 0.125)"/>
      <use xlink:href="#ArialMT-20" transform="translate(285.400391 0.125)"/>
      <use xlink:href="#ArialMT-79" transform="translate(313.183594 0.125)"/>
      <use xlink:href="#ArialMT-72" transform="translate(363.183594 0.125)"/>
     </g>
    </g>
   </g>
  </g>
 </g>
 <defs>
  <clipPath id="p0c77973dbd">
   <rect x="37.86875" y="7.2" width="103.431354" height="89.191364"/>
  </clipPath>
  <clipPath id="p883876bf58">
   <rect x="187.844214" y="7.2" width="103.431354" height="89.191364"/>
  </clipPath>
  <clipPath id="pa4523e60e8">
   <rect x="37.86875" y="108.028636" width="103.431354" height="89.191364"/>
  </clipPath>
  <clipPath id="pef98a68515">
   <rect x="187.844214" y="108.028636" width="103.431354" height="89.191364"/>
  </clipPath>
 </defs>
</svg>
