<?xml version="1.0" encoding="utf-8" standalone="no"?>
<!DOCTYPE svg PUBLIC "-//W3C//DTD SVG 1.1//EN"
  "http://www.w3.org/Graphics/SVG/1.1/DTD/svg11.dtd">
<svg xmlns:xlink="http://www.w3.org/1999/xlink" width="324pt" height="154.8pt" viewBox="0 0 324 154.8" xmlns="http://www.w3.org/2000/svg" version="1.1">
 <metadata>
  <rdf:RDF xmlns:dc="http://purl.org/dc/elements/1.1/" xmlns:cc="http://creativecommons.org/ns#" xmlns:rdf="http://www.w3.org/1999/02/22-rdf-syntax-ns#">
   <cc:Work>
    <dc:type rdf:resource="http://purl.org/dc/dcmitype/StillImage"/>
    <dc:date>2024-02-01T11:28:09.672773</dc:date>
    <dc:format>image/svg+xml</dc:format>
    <dc:creator>
     <cc:Agent>
      <dc:title>Matplotlib v3.5.2, https://matplotlib.org/</dc:title>
     </cc:Agent>
    </dc:creator>
   </cc:Work>
  </rdf:RDF>
 </metadata>
 <defs>
  <style type="text/css">*{stroke-linejoin: round; stroke-linecap: butt}</style>
 </defs>
 <g id="figure_1">
  <g id="patch_1">
   <path d="M 0 154.8 
L 324 154.8 
L 324 0 
L 0 0 
z
" style="fill: #ffffff"/>
  </g>
  <g id="axes_1">
   <g id="patch_2">
    <path d="M 40.5 132.760957 
L 149.673913 132.760957 
L 149.673913 23.587043 
L 40.5 23.587043 
z
" style="fill: #ffffff"/>
   </g>
   <g id="matplotlib.axis_1">
    <g id="xtick_1">
     <g id="line2d_1">
      <path d="M 40.5 132.760957 
L 40.5 23.587043 
" clip-path="url(#p4c333a8387)" style="fill: none; stroke: #b0b0b0; stroke-opacity: 0.75; stroke-width: 0.5; stroke-linecap: square"/>
     </g>
     <g id="line2d_2">
      <defs>
       <path id="mbb5bdfd18b" d="M 0 0 
L 0 -4 
" style="stroke: #000000; stroke-width: 0.8"/>
      </defs>
      <g>
       <use xlink:href="#mbb5bdfd18b" x="40.5" y="132.760957" style="stroke: #000000; stroke-width: 0.8"/>
      </g>
     </g>
     <g id="text_1">
      <!-- 0 -->
      <g transform="translate(37.850019 142.590455)scale(0.0833 -0.0833)">
       <defs>
        <path id="DejaVuSans-30" d="M 2034 4250 
Q 1547 4250 1301 3770 
Q 1056 3291 1056 2328 
Q 1056 1369 1301 889 
Q 1547 409 2034 409 
Q 2525 409 2770 889 
Q 3016 1369 3016 2328 
Q 3016 3291 2770 3770 
Q 2525 4250 2034 4250 
z
M 2034 4750 
Q 2819 4750 3233 4129 
Q 3647 3509 3647 2328 
Q 3647 1150 3233 529 
Q 2819 -91 2034 -91 
Q 1250 -91 836 529 
Q 422 1150 422 2328 
Q 422 3509 836 4129 
Q 1250 4750 2034 4750 
z
" transform="scale(0.015625)"/>
       </defs>
       <use xlink:href="#DejaVuSans-30"/>
      </g>
     </g>
    </g>
    <g id="xtick_2">
     <g id="line2d_3">
      <path d="M 67.793478 132.760957 
L 67.793478 23.587043 
" clip-path="url(#p4c333a8387)" style="fill: none; stroke: #b0b0b0; stroke-opacity: 0.75; stroke-width: 0.5; stroke-linecap: square"/>
     </g>
     <g id="line2d_4">
      <g>
       <use xlink:href="#mbb5bdfd18b" x="67.793478" y="132.760957" style="stroke: #000000; stroke-width: 0.8"/>
      </g>
     </g>
     <g id="text_2">
      <!-- 200 -->
      <g transform="translate(59.843535 142.590455)scale(0.0833 -0.0833)">
       <defs>
        <path id="DejaVuSans-32" d="M 1228 531 
L 3431 531 
L 3431 0 
L 469 0 
L 469 531 
Q 828 903 1448 1529 
Q 2069 2156 2228 2338 
Q 2531 2678 2651 2914 
Q 2772 3150 2772 3378 
Q 2772 3750 2511 3984 
Q 2250 4219 1831 4219 
Q 1534 4219 1204 4116 
Q 875 4013 500 3803 
L 500 4441 
Q 881 4594 1212 4672 
Q 1544 4750 1819 4750 
Q 2544 4750 2975 4387 
Q 3406 4025 3406 3419 
Q 3406 3131 3298 2873 
Q 3191 2616 2906 2266 
Q 2828 2175 2409 1742 
Q 1991 1309 1228 531 
z
" transform="scale(0.015625)"/>
       </defs>
       <use xlink:href="#DejaVuSans-32"/>
       <use xlink:href="#DejaVuSans-30" x="63.623047"/>
       <use xlink:href="#DejaVuSans-30" x="127.246094"/>
      </g>
     </g>
    </g>
    <g id="xtick_3">
     <g id="line2d_5">
      <path d="M 95.086957 132.760957 
L 95.086957 23.587043 
" clip-path="url(#p4c333a8387)" style="fill: none; stroke: #b0b0b0; stroke-opacity: 0.75; stroke-width: 0.5; stroke-linecap: square"/>
     </g>
     <g id="line2d_6">
      <g>
       <use xlink:href="#mbb5bdfd18b" x="95.086957" y="132.760957" style="stroke: #000000; stroke-width: 0.8"/>
      </g>
     </g>
     <g id="text_3">
      <!-- 400 -->
      <g transform="translate(87.137013 142.590455)scale(0.0833 -0.0833)">
       <defs>
        <path id="DejaVuSans-34" d="M 2419 4116 
L 825 1625 
L 2419 1625 
L 2419 4116 
z
M 2253 4666 
L 3047 4666 
L 3047 1625 
L 3713 1625 
L 3713 1100 
L 3047 1100 
L 3047 0 
L 2419 0 
L 2419 1100 
L 313 1100 
L 313 1709 
L 2253 4666 
z
" transform="scale(0.015625)"/>
       </defs>
       <use xlink:href="#DejaVuSans-34"/>
       <use xlink:href="#DejaVuSans-30" x="63.623047"/>
       <use xlink:href="#DejaVuSans-30" x="127.246094"/>
      </g>
     </g>
    </g>
    <g id="xtick_4">
     <g id="line2d_7">
      <path d="M 122.380435 132.760957 
L 122.380435 23.587043 
" clip-path="url(#p4c333a8387)" style="fill: none; stroke: #b0b0b0; stroke-opacity: 0.75; stroke-width: 0.5; stroke-linecap: square"/>
     </g>
     <g id="line2d_8">
      <g>
       <use xlink:href="#mbb5bdfd18b" x="122.380435" y="132.760957" style="stroke: #000000; stroke-width: 0.8"/>
      </g>
     </g>
     <g id="text_4">
      <!-- 600 -->
      <g transform="translate(114.430491 142.590455)scale(0.0833 -0.0833)">
       <defs>
        <path id="DejaVuSans-36" d="M 2113 2584 
Q 1688 2584 1439 2293 
Q 1191 2003 1191 1497 
Q 1191 994 1439 701 
Q 1688 409 2113 409 
Q 2538 409 2786 701 
Q 3034 994 3034 1497 
Q 3034 2003 2786 2293 
Q 2538 2584 2113 2584 
z
M 3366 4563 
L 3366 3988 
Q 3128 4100 2886 4159 
Q 2644 4219 2406 4219 
Q 1781 4219 1451 3797 
Q 1122 3375 1075 2522 
Q 1259 2794 1537 2939 
Q 1816 3084 2150 3084 
Q 2853 3084 3261 2657 
Q 3669 2231 3669 1497 
Q 3669 778 3244 343 
Q 2819 -91 2113 -91 
Q 1303 -91 875 529 
Q 447 1150 447 2328 
Q 447 3434 972 4092 
Q 1497 4750 2381 4750 
Q 2619 4750 2861 4703 
Q 3103 4656 3366 4563 
z
" transform="scale(0.015625)"/>
       </defs>
       <use xlink:href="#DejaVuSans-36"/>
       <use xlink:href="#DejaVuSans-30" x="63.623047"/>
       <use xlink:href="#DejaVuSans-30" x="127.246094"/>
      </g>
     </g>
    </g>
    <g id="xtick_5">
     <g id="line2d_9">
      <path d="M 149.673913 132.760957 
L 149.673913 23.587043 
" clip-path="url(#p4c333a8387)" style="fill: none; stroke: #b0b0b0; stroke-opacity: 0.75; stroke-width: 0.5; stroke-linecap: square"/>
     </g>
     <g id="line2d_10">
      <g>
       <use xlink:href="#mbb5bdfd18b" x="149.673913" y="132.760957" style="stroke: #000000; stroke-width: 0.8"/>
      </g>
     </g>
     <g id="text_5">
      <!-- 800 -->
      <g transform="translate(141.723969 142.590455)scale(0.0833 -0.0833)">
       <defs>
        <path id="DejaVuSans-38" d="M 2034 2216 
Q 1584 2216 1326 1975 
Q 1069 1734 1069 1313 
Q 1069 891 1326 650 
Q 1584 409 2034 409 
Q 2484 409 2743 651 
Q 3003 894 3003 1313 
Q 3003 1734 2745 1975 
Q 2488 2216 2034 2216 
z
M 1403 2484 
Q 997 2584 770 2862 
Q 544 3141 544 3541 
Q 544 4100 942 4425 
Q 1341 4750 2034 4750 
Q 2731 4750 3128 4425 
Q 3525 4100 3525 3541 
Q 3525 3141 3298 2862 
Q 3072 2584 2669 2484 
Q 3125 2378 3379 2068 
Q 3634 1759 3634 1313 
Q 3634 634 3220 271 
Q 2806 -91 2034 -91 
Q 1263 -91 848 271 
Q 434 634 434 1313 
Q 434 1759 690 2068 
Q 947 2378 1403 2484 
z
M 1172 3481 
Q 1172 3119 1398 2916 
Q 1625 2713 2034 2713 
Q 2441 2713 2670 2916 
Q 2900 3119 2900 3481 
Q 2900 3844 2670 4047 
Q 2441 4250 2034 4250 
Q 1625 4250 1398 4047 
Q 1172 3844 1172 3481 
z
" transform="scale(0.015625)"/>
       </defs>
       <use xlink:href="#DejaVuSans-38"/>
       <use xlink:href="#DejaVuSans-30" x="63.623047"/>
       <use xlink:href="#DejaVuSans-30" x="127.246094"/>
      </g>
     </g>
    </g>
    <g id="xtick_6">
     <g id="line2d_11">
      <path d="M 47.32337 132.760957 
L 47.32337 23.587043 
" clip-path="url(#p4c333a8387)" style="fill: none; stroke: #b0b0b0; stroke-opacity: 0.25; stroke-width: 0.5; stroke-linecap: square"/>
     </g>
     <g id="line2d_12">
      <defs>
       <path id="mf411e00436" d="M 0 0 
L 0 -2 
" style="stroke: #000000; stroke-width: 0.6"/>
      </defs>
      <g>
       <use xlink:href="#mf411e00436" x="47.32337" y="132.760957" style="stroke: #000000; stroke-width: 0.6"/>
      </g>
     </g>
    </g>
    <g id="xtick_7">
     <g id="line2d_13">
      <path d="M 54.146739 132.760957 
L 54.146739 23.587043 
" clip-path="url(#p4c333a8387)" style="fill: none; stroke: #b0b0b0; stroke-opacity: 0.25; stroke-width: 0.5; stroke-linecap: square"/>
     </g>
     <g id="line2d_14">
      <g>
       <use xlink:href="#mf411e00436" x="54.146739" y="132.760957" style="stroke: #000000; stroke-width: 0.6"/>
      </g>
     </g>
    </g>
    <g id="xtick_8">
     <g id="line2d_15">
      <path d="M 60.970109 132.760957 
L 60.970109 23.587043 
" clip-path="url(#p4c333a8387)" style="fill: none; stroke: #b0b0b0; stroke-opacity: 0.25; stroke-width: 0.5; stroke-linecap: square"/>
     </g>
     <g id="line2d_16">
      <g>
       <use xlink:href="#mf411e00436" x="60.970109" y="132.760957" style="stroke: #000000; stroke-width: 0.6"/>
      </g>
     </g>
    </g>
    <g id="xtick_9">
     <g id="line2d_17">
      <path d="M 74.616848 132.760957 
L 74.616848 23.587043 
" clip-path="url(#p4c333a8387)" style="fill: none; stroke: #b0b0b0; stroke-opacity: 0.25; stroke-width: 0.5; stroke-linecap: square"/>
     </g>
     <g id="line2d_18">
      <g>
       <use xlink:href="#mf411e00436" x="74.616848" y="132.760957" style="stroke: #000000; stroke-width: 0.6"/>
      </g>
     </g>
    </g>
    <g id="xtick_10">
     <g id="line2d_19">
      <path d="M 81.440217 132.760957 
L 81.440217 23.587043 
" clip-path="url(#p4c333a8387)" style="fill: none; stroke: #b0b0b0; stroke-opacity: 0.25; stroke-width: 0.5; stroke-linecap: square"/>
     </g>
     <g id="line2d_20">
      <g>
       <use xlink:href="#mf411e00436" x="81.440217" y="132.760957" style="stroke: #000000; stroke-width: 0.6"/>
      </g>
     </g>
    </g>
    <g id="xtick_11">
     <g id="line2d_21">
      <path d="M 88.263587 132.760957 
L 88.263587 23.587043 
" clip-path="url(#p4c333a8387)" style="fill: none; stroke: #b0b0b0; stroke-opacity: 0.25; stroke-width: 0.5; stroke-linecap: square"/>
     </g>
     <g id="line2d_22">
      <g>
       <use xlink:href="#mf411e00436" x="88.263587" y="132.760957" style="stroke: #000000; stroke-width: 0.6"/>
      </g>
     </g>
    </g>
    <g id="xtick_12">
     <g id="line2d_23">
      <path d="M 101.910326 132.760957 
L 101.910326 23.587043 
" clip-path="url(#p4c333a8387)" style="fill: none; stroke: #b0b0b0; stroke-opacity: 0.25; stroke-width: 0.5; stroke-linecap: square"/>
     </g>
     <g id="line2d_24">
      <g>
       <use xlink:href="#mf411e00436" x="101.910326" y="132.760957" style="stroke: #000000; stroke-width: 0.6"/>
      </g>
     </g>
    </g>
    <g id="xtick_13">
     <g id="line2d_25">
      <path d="M 108.733696 132.760957 
L 108.733696 23.587043 
" clip-path="url(#p4c333a8387)" style="fill: none; stroke: #b0b0b0; stroke-opacity: 0.25; stroke-width: 0.5; stroke-linecap: square"/>
     </g>
     <g id="line2d_26">
      <g>
       <use xlink:href="#mf411e00436" x="108.733696" y="132.760957" style="stroke: #000000; stroke-width: 0.6"/>
      </g>
     </g>
    </g>
    <g id="xtick_14">
     <g id="line2d_27">
      <path d="M 115.557065 132.760957 
L 115.557065 23.587043 
" clip-path="url(#p4c333a8387)" style="fill: none; stroke: #b0b0b0; stroke-opacity: 0.25; stroke-width: 0.5; stroke-linecap: square"/>
     </g>
     <g id="line2d_28">
      <g>
       <use xlink:href="#mf411e00436" x="115.557065" y="132.760957" style="stroke: #000000; stroke-width: 0.6"/>
      </g>
     </g>
    </g>
    <g id="xtick_15">
     <g id="line2d_29">
      <path d="M 129.203804 132.760957 
L 129.203804 23.587043 
" clip-path="url(#p4c333a8387)" style="fill: none; stroke: #b0b0b0; stroke-opacity: 0.25; stroke-width: 0.5; stroke-linecap: square"/>
     </g>
     <g id="line2d_30">
      <g>
       <use xlink:href="#mf411e00436" x="129.203804" y="132.760957" style="stroke: #000000; stroke-width: 0.6"/>
      </g>
     </g>
    </g>
    <g id="xtick_16">
     <g id="line2d_31">
      <path d="M 136.027174 132.760957 
L 136.027174 23.587043 
" clip-path="url(#p4c333a8387)" style="fill: none; stroke: #b0b0b0; stroke-opacity: 0.25; stroke-width: 0.5; stroke-linecap: square"/>
     </g>
     <g id="line2d_32">
      <g>
       <use xlink:href="#mf411e00436" x="136.027174" y="132.760957" style="stroke: #000000; stroke-width: 0.6"/>
      </g>
     </g>
    </g>
    <g id="xtick_17">
     <g id="line2d_33">
      <path d="M 142.850543 132.760957 
L 142.850543 23.587043 
" clip-path="url(#p4c333a8387)" style="fill: none; stroke: #b0b0b0; stroke-opacity: 0.25; stroke-width: 0.5; stroke-linecap: square"/>
     </g>
     <g id="line2d_34">
      <g>
       <use xlink:href="#mf411e00436" x="142.850543" y="132.760957" style="stroke: #000000; stroke-width: 0.6"/>
      </g>
     </g>
    </g>
    <g id="text_6">
     <!-- Thickness, $H$ [m] -->
     <g transform="translate(65.904257 153.59615)scale(0.0694 -0.0694)">
      <defs>
       <path id="DejaVuSans-54" d="M -19 4666 
L 3928 4666 
L 3928 4134 
L 2272 4134 
L 2272 0 
L 1638 0 
L 1638 4134 
L -19 4134 
L -19 4666 
z
" transform="scale(0.015625)"/>
       <path id="DejaVuSans-68" d="M 3513 2113 
L 3513 0 
L 2938 0 
L 2938 2094 
Q 2938 2591 2744 2837 
Q 2550 3084 2163 3084 
Q 1697 3084 1428 2787 
Q 1159 2491 1159 1978 
L 1159 0 
L 581 0 
L 581 4863 
L 1159 4863 
L 1159 2956 
Q 1366 3272 1645 3428 
Q 1925 3584 2291 3584 
Q 2894 3584 3203 3211 
Q 3513 2838 3513 2113 
z
" transform="scale(0.015625)"/>
       <path id="DejaVuSans-69" d="M 603 3500 
L 1178 3500 
L 1178 0 
L 603 0 
L 603 3500 
z
M 603 4863 
L 1178 4863 
L 1178 4134 
L 603 4134 
L 603 4863 
z
" transform="scale(0.015625)"/>
       <path id="DejaVuSans-63" d="M 3122 3366 
L 3122 2828 
Q 2878 2963 2633 3030 
Q 2388 3097 2138 3097 
Q 1578 3097 1268 2742 
Q 959 2388 959 1747 
Q 959 1106 1268 751 
Q 1578 397 2138 397 
Q 2388 397 2633 464 
Q 2878 531 3122 666 
L 3122 134 
Q 2881 22 2623 -34 
Q 2366 -91 2075 -91 
Q 1284 -91 818 406 
Q 353 903 353 1747 
Q 353 2603 823 3093 
Q 1294 3584 2113 3584 
Q 2378 3584 2631 3529 
Q 2884 3475 3122 3366 
z
" transform="scale(0.015625)"/>
       <path id="DejaVuSans-6b" d="M 581 4863 
L 1159 4863 
L 1159 1991 
L 2875 3500 
L 3609 3500 
L 1753 1863 
L 3688 0 
L 2938 0 
L 1159 1709 
L 1159 0 
L 581 0 
L 581 4863 
z
" transform="scale(0.015625)"/>
       <path id="DejaVuSans-6e" d="M 3513 2113 
L 3513 0 
L 2938 0 
L 2938 2094 
Q 2938 2591 2744 2837 
Q 2550 3084 2163 3084 
Q 1697 3084 1428 2787 
Q 1159 2491 1159 1978 
L 1159 0 
L 581 0 
L 581 3500 
L 1159 3500 
L 1159 2956 
Q 1366 3272 1645 3428 
Q 1925 3584 2291 3584 
Q 2894 3584 3203 3211 
Q 3513 2838 3513 2113 
z
" transform="scale(0.015625)"/>
       <path id="DejaVuSans-65" d="M 3597 1894 
L 3597 1613 
L 953 1613 
Q 991 1019 1311 708 
Q 1631 397 2203 397 
Q 2534 397 2845 478 
Q 3156 559 3463 722 
L 3463 178 
Q 3153 47 2828 -22 
Q 2503 -91 2169 -91 
Q 1331 -91 842 396 
Q 353 884 353 1716 
Q 353 2575 817 3079 
Q 1281 3584 2069 3584 
Q 2775 3584 3186 3129 
Q 3597 2675 3597 1894 
z
M 3022 2063 
Q 3016 2534 2758 2815 
Q 2500 3097 2075 3097 
Q 1594 3097 1305 2825 
Q 1016 2553 972 2059 
L 3022 2063 
z
" transform="scale(0.015625)"/>
       <path id="DejaVuSans-73" d="M 2834 3397 
L 2834 2853 
Q 2591 2978 2328 3040 
Q 2066 3103 1784 3103 
Q 1356 3103 1142 2972 
Q 928 2841 928 2578 
Q 928 2378 1081 2264 
Q 1234 2150 1697 2047 
L 1894 2003 
Q 2506 1872 2764 1633 
Q 3022 1394 3022 966 
Q 3022 478 2636 193 
Q 2250 -91 1575 -91 
Q 1294 -91 989 -36 
Q 684 19 347 128 
L 347 722 
Q 666 556 975 473 
Q 1284 391 1588 391 
Q 1994 391 2212 530 
Q 2431 669 2431 922 
Q 2431 1156 2273 1281 
Q 2116 1406 1581 1522 
L 1381 1569 
Q 847 1681 609 1914 
Q 372 2147 372 2553 
Q 372 3047 722 3315 
Q 1072 3584 1716 3584 
Q 2034 3584 2315 3537 
Q 2597 3491 2834 3397 
z
" transform="scale(0.015625)"/>
       <path id="DejaVuSans-2c" d="M 750 794 
L 1409 794 
L 1409 256 
L 897 -744 
L 494 -744 
L 750 256 
L 750 794 
z
" transform="scale(0.015625)"/>
       <path id="DejaVuSans-20" transform="scale(0.015625)"/>
       <path id="DejaVuSans-Oblique-48" d="M 1081 4666 
L 1716 4666 
L 1344 2753 
L 3634 2753 
L 4006 4666 
L 4641 4666 
L 3731 0 
L 3097 0 
L 3531 2222 
L 1241 2222 
L 806 0 
L 172 0 
L 1081 4666 
z
" transform="scale(0.015625)"/>
       <path id="DejaVuSans-5b" d="M 550 4863 
L 1875 4863 
L 1875 4416 
L 1125 4416 
L 1125 -397 
L 1875 -397 
L 1875 -844 
L 550 -844 
L 550 4863 
z
" transform="scale(0.015625)"/>
       <path id="DejaVuSans-6d" d="M 3328 2828 
Q 3544 3216 3844 3400 
Q 4144 3584 4550 3584 
Q 5097 3584 5394 3201 
Q 5691 2819 5691 2113 
L 5691 0 
L 5113 0 
L 5113 2094 
Q 5113 2597 4934 2840 
Q 4756 3084 4391 3084 
Q 3944 3084 3684 2787 
Q 3425 2491 3425 1978 
L 3425 0 
L 2847 0 
L 2847 2094 
Q 2847 2600 2669 2842 
Q 2491 3084 2119 3084 
Q 1678 3084 1418 2786 
Q 1159 2488 1159 1978 
L 1159 0 
L 581 0 
L 581 3500 
L 1159 3500 
L 1159 2956 
Q 1356 3278 1631 3431 
Q 1906 3584 2284 3584 
Q 2666 3584 2933 3390 
Q 3200 3197 3328 2828 
z
" transform="scale(0.015625)"/>
       <path id="DejaVuSans-5d" d="M 1947 4863 
L 1947 -844 
L 622 -844 
L 622 -397 
L 1369 -397 
L 1369 4416 
L 622 4416 
L 622 4863 
L 1947 4863 
z
" transform="scale(0.015625)"/>
      </defs>
      <use xlink:href="#DejaVuSans-54" transform="translate(0 0.015625)"/>
      <use xlink:href="#DejaVuSans-68" transform="translate(61.083984 0.015625)"/>
      <use xlink:href="#DejaVuSans-69" transform="translate(124.462891 0.015625)"/>
      <use xlink:href="#DejaVuSans-63" transform="translate(152.246094 0.015625)"/>
      <use xlink:href="#DejaVuSans-6b" transform="translate(207.226562 0.015625)"/>
      <use xlink:href="#DejaVuSans-6e" transform="translate(265.136719 0.015625)"/>
      <use xlink:href="#DejaVuSans-65" transform="translate(328.515625 0.015625)"/>
      <use xlink:href="#DejaVuSans-73" transform="translate(390.039062 0.015625)"/>
      <use xlink:href="#DejaVuSans-73" transform="translate(442.138672 0.015625)"/>
      <use xlink:href="#DejaVuSans-2c" transform="translate(494.238281 0.015625)"/>
      <use xlink:href="#DejaVuSans-20" transform="translate(526.025391 0.015625)"/>
      <use xlink:href="#DejaVuSans-Oblique-48" transform="translate(557.8125 0.015625)"/>
      <use xlink:href="#DejaVuSans-20" transform="translate(633.007812 0.015625)"/>
      <use xlink:href="#DejaVuSans-5b" transform="translate(664.794922 0.015625)"/>
      <use xlink:href="#DejaVuSans-6d" transform="translate(703.808594 0.015625)"/>
      <use xlink:href="#DejaVuSans-5d" transform="translate(801.220703 0.015625)"/>
     </g>
    </g>
   </g>
   <g id="matplotlib.axis_2">
    <g id="ytick_1">
     <g id="line2d_35">
      <path d="M 40.5 132.760957 
L 149.673913 132.760957 
" clip-path="url(#p4c333a8387)" style="fill: none; stroke: #b0b0b0; stroke-opacity: 0.75; stroke-width: 0.5; stroke-linecap: square"/>
     </g>
     <g id="line2d_36">
      <defs>
       <path id="mb281bb71b6" d="M 0 0 
L 4 0 
" style="stroke: #000000; stroke-width: 0.8"/>
      </defs>
      <g>
       <use xlink:href="#mb281bb71b6" x="40.5" y="132.760957" style="stroke: #000000; stroke-width: 0.8"/>
      </g>
     </g>
    </g>
    <g id="ytick_2">
     <g id="line2d_37">
      <path d="M 40.5 82.923976 
L 149.673913 82.923976 
" clip-path="url(#p4c333a8387)" style="fill: none; stroke: #b0b0b0; stroke-opacity: 0.75; stroke-width: 0.5; stroke-linecap: square"/>
     </g>
     <g id="line2d_38">
      <g>
       <use xlink:href="#mb281bb71b6" x="40.5" y="82.923976" style="stroke: #000000; stroke-width: 0.8"/>
      </g>
     </g>
     <g id="text_7">
      <!-- 0.1 -->
      <g transform="translate(23.752697 86.088725)scale(0.0833 -0.0833)">
       <defs>
        <path id="DejaVuSans-2e" d="M 684 794 
L 1344 794 
L 1344 0 
L 684 0 
L 684 794 
z
" transform="scale(0.015625)"/>
        <path id="DejaVuSans-31" d="M 794 531 
L 1825 531 
L 1825 4091 
L 703 3866 
L 703 4441 
L 1819 4666 
L 2450 4666 
L 2450 531 
L 3481 531 
L 3481 0 
L 794 0 
L 794 531 
z
" transform="scale(0.015625)"/>
       </defs>
       <use xlink:href="#DejaVuSans-30"/>
       <use xlink:href="#DejaVuSans-2e" x="63.623047"/>
       <use xlink:href="#DejaVuSans-31" x="95.410156"/>
      </g>
     </g>
    </g>
    <g id="ytick_3">
     <g id="line2d_39">
      <path d="M 40.5 33.086996 
L 149.673913 33.086996 
" clip-path="url(#p4c333a8387)" style="fill: none; stroke: #b0b0b0; stroke-opacity: 0.75; stroke-width: 0.5; stroke-linecap: square"/>
     </g>
     <g id="line2d_40">
      <g>
       <use xlink:href="#mb281bb71b6" x="40.5" y="33.086996" style="stroke: #000000; stroke-width: 0.8"/>
      </g>
     </g>
     <g id="text_8">
      <!-- 0.2 -->
      <g transform="translate(23.752697 36.251745)scale(0.0833 -0.0833)">
       <use xlink:href="#DejaVuSans-30"/>
       <use xlink:href="#DejaVuSans-2e" x="63.623047"/>
       <use xlink:href="#DejaVuSans-32" x="95.410156"/>
      </g>
     </g>
    </g>
    <g id="ytick_4">
     <g id="line2d_41">
      <path d="M 40.5 107.842466 
L 149.673913 107.842466 
" clip-path="url(#p4c333a8387)" style="fill: none; stroke: #b0b0b0; stroke-opacity: 0.25; stroke-width: 0.5; stroke-linecap: square"/>
     </g>
     <g id="line2d_42">
      <defs>
       <path id="md65efaea1d" d="M 0 0 
L 2 0 
" style="stroke: #000000; stroke-width: 0.6"/>
      </defs>
      <g>
       <use xlink:href="#md65efaea1d" x="40.5" y="107.842466" style="stroke: #000000; stroke-width: 0.6"/>
      </g>
     </g>
    </g>
    <g id="ytick_5">
     <g id="line2d_43">
      <path d="M 40.5 58.005486 
L 149.673913 58.005486 
" clip-path="url(#p4c333a8387)" style="fill: none; stroke: #b0b0b0; stroke-opacity: 0.25; stroke-width: 0.5; stroke-linecap: square"/>
     </g>
     <g id="line2d_44">
      <g>
       <use xlink:href="#md65efaea1d" x="40.5" y="58.005486" style="stroke: #000000; stroke-width: 0.6"/>
      </g>
     </g>
    </g>
    <g id="text_9">
     <!-- Probability dens. -->
     <g transform="translate(18.309394 107.066087)rotate(-90)scale(0.0694 -0.0694)">
      <defs>
       <path id="DejaVuSans-50" d="M 1259 4147 
L 1259 2394 
L 2053 2394 
Q 2494 2394 2734 2622 
Q 2975 2850 2975 3272 
Q 2975 3691 2734 3919 
Q 2494 4147 2053 4147 
L 1259 4147 
z
M 628 4666 
L 2053 4666 
Q 2838 4666 3239 4311 
Q 3641 3956 3641 3272 
Q 3641 2581 3239 2228 
Q 2838 1875 2053 1875 
L 1259 1875 
L 1259 0 
L 628 0 
L 628 4666 
z
" transform="scale(0.015625)"/>
       <path id="DejaVuSans-72" d="M 2631 2963 
Q 2534 3019 2420 3045 
Q 2306 3072 2169 3072 
Q 1681 3072 1420 2755 
Q 1159 2438 1159 1844 
L 1159 0 
L 581 0 
L 581 3500 
L 1159 3500 
L 1159 2956 
Q 1341 3275 1631 3429 
Q 1922 3584 2338 3584 
Q 2397 3584 2469 3576 
Q 2541 3569 2628 3553 
L 2631 2963 
z
" transform="scale(0.015625)"/>
       <path id="DejaVuSans-6f" d="M 1959 3097 
Q 1497 3097 1228 2736 
Q 959 2375 959 1747 
Q 959 1119 1226 758 
Q 1494 397 1959 397 
Q 2419 397 2687 759 
Q 2956 1122 2956 1747 
Q 2956 2369 2687 2733 
Q 2419 3097 1959 3097 
z
M 1959 3584 
Q 2709 3584 3137 3096 
Q 3566 2609 3566 1747 
Q 3566 888 3137 398 
Q 2709 -91 1959 -91 
Q 1206 -91 779 398 
Q 353 888 353 1747 
Q 353 2609 779 3096 
Q 1206 3584 1959 3584 
z
" transform="scale(0.015625)"/>
       <path id="DejaVuSans-62" d="M 3116 1747 
Q 3116 2381 2855 2742 
Q 2594 3103 2138 3103 
Q 1681 3103 1420 2742 
Q 1159 2381 1159 1747 
Q 1159 1113 1420 752 
Q 1681 391 2138 391 
Q 2594 391 2855 752 
Q 3116 1113 3116 1747 
z
M 1159 2969 
Q 1341 3281 1617 3432 
Q 1894 3584 2278 3584 
Q 2916 3584 3314 3078 
Q 3713 2572 3713 1747 
Q 3713 922 3314 415 
Q 2916 -91 2278 -91 
Q 1894 -91 1617 61 
Q 1341 213 1159 525 
L 1159 0 
L 581 0 
L 581 4863 
L 1159 4863 
L 1159 2969 
z
" transform="scale(0.015625)"/>
       <path id="DejaVuSans-61" d="M 2194 1759 
Q 1497 1759 1228 1600 
Q 959 1441 959 1056 
Q 959 750 1161 570 
Q 1363 391 1709 391 
Q 2188 391 2477 730 
Q 2766 1069 2766 1631 
L 2766 1759 
L 2194 1759 
z
M 3341 1997 
L 3341 0 
L 2766 0 
L 2766 531 
Q 2569 213 2275 61 
Q 1981 -91 1556 -91 
Q 1019 -91 701 211 
Q 384 513 384 1019 
Q 384 1609 779 1909 
Q 1175 2209 1959 2209 
L 2766 2209 
L 2766 2266 
Q 2766 2663 2505 2880 
Q 2244 3097 1772 3097 
Q 1472 3097 1187 3025 
Q 903 2953 641 2809 
L 641 3341 
Q 956 3463 1253 3523 
Q 1550 3584 1831 3584 
Q 2591 3584 2966 3190 
Q 3341 2797 3341 1997 
z
" transform="scale(0.015625)"/>
       <path id="DejaVuSans-6c" d="M 603 4863 
L 1178 4863 
L 1178 0 
L 603 0 
L 603 4863 
z
" transform="scale(0.015625)"/>
       <path id="DejaVuSans-74" d="M 1172 4494 
L 1172 3500 
L 2356 3500 
L 2356 3053 
L 1172 3053 
L 1172 1153 
Q 1172 725 1289 603 
Q 1406 481 1766 481 
L 2356 481 
L 2356 0 
L 1766 0 
Q 1100 0 847 248 
Q 594 497 594 1153 
L 594 3053 
L 172 3053 
L 172 3500 
L 594 3500 
L 594 4494 
L 1172 4494 
z
" transform="scale(0.015625)"/>
       <path id="DejaVuSans-79" d="M 2059 -325 
Q 1816 -950 1584 -1140 
Q 1353 -1331 966 -1331 
L 506 -1331 
L 506 -850 
L 844 -850 
Q 1081 -850 1212 -737 
Q 1344 -625 1503 -206 
L 1606 56 
L 191 3500 
L 800 3500 
L 1894 763 
L 2988 3500 
L 3597 3500 
L 2059 -325 
z
" transform="scale(0.015625)"/>
       <path id="DejaVuSans-64" d="M 2906 2969 
L 2906 4863 
L 3481 4863 
L 3481 0 
L 2906 0 
L 2906 525 
Q 2725 213 2448 61 
Q 2172 -91 1784 -91 
Q 1150 -91 751 415 
Q 353 922 353 1747 
Q 353 2572 751 3078 
Q 1150 3584 1784 3584 
Q 2172 3584 2448 3432 
Q 2725 3281 2906 2969 
z
M 947 1747 
Q 947 1113 1208 752 
Q 1469 391 1925 391 
Q 2381 391 2643 752 
Q 2906 1113 2906 1747 
Q 2906 2381 2643 2742 
Q 2381 3103 1925 3103 
Q 1469 3103 1208 2742 
Q 947 2381 947 1747 
z
" transform="scale(0.015625)"/>
      </defs>
      <use xlink:href="#DejaVuSans-50"/>
      <use xlink:href="#DejaVuSans-72" x="58.552734"/>
      <use xlink:href="#DejaVuSans-6f" x="97.416016"/>
      <use xlink:href="#DejaVuSans-62" x="158.597656"/>
      <use xlink:href="#DejaVuSans-61" x="222.074219"/>
      <use xlink:href="#DejaVuSans-62" x="283.353516"/>
      <use xlink:href="#DejaVuSans-69" x="346.830078"/>
      <use xlink:href="#DejaVuSans-6c" x="374.613281"/>
      <use xlink:href="#DejaVuSans-69" x="402.396484"/>
      <use xlink:href="#DejaVuSans-74" x="430.179688"/>
      <use xlink:href="#DejaVuSans-79" x="469.388672"/>
      <use xlink:href="#DejaVuSans-20" x="528.568359"/>
      <use xlink:href="#DejaVuSans-64" x="560.355469"/>
      <use xlink:href="#DejaVuSans-65" x="623.832031"/>
      <use xlink:href="#DejaVuSans-6e" x="685.355469"/>
      <use xlink:href="#DejaVuSans-73" x="748.734375"/>
      <use xlink:href="#DejaVuSans-2e" x="800.833984"/>
     </g>
    </g>
   </g>
   <g id="line2d_45">
    <path d="M 40.5 132.405486 
L 42.205842 132.405486 
L 42.205842 120.319485 
L 43.911685 120.319485 
L 43.911685 62.377774 
L 45.617527 62.377774 
L 45.617527 28.785801 
L 47.32337 28.785801 
L 47.32337 51.713656 
L 49.029212 51.713656 
L 49.029212 72.77529 
L 50.735054 72.77529 
L 50.735054 93.836924 
L 52.440897 93.836924 
L 52.440897 107.700278 
L 54.146739 107.700278 
L 54.146739 115.520632 
L 55.852582 115.520632 
L 55.852582 118.453264 
L 57.558424 118.453264 
L 57.558424 122.00797 
L 59.264266 122.00797 
L 59.264266 126.629088 
L 60.970109 126.629088 
L 60.970109 125.473809 
L 62.675951 125.473809 
L 62.675951 127.34003 
L 64.381793 127.34003 
L 64.381793 127.606633 
L 66.087636 127.606633 
L 66.087636 129.561721 
L 67.793478 129.561721 
L 67.793478 129.117383 
L 69.499321 129.117383 
L 69.499321 129.828324 
L 71.205163 129.828324 
L 71.205163 130.183795 
L 74.616848 130.094927 
L 74.616848 130.805868 
L 81.440217 130.717 
L 81.440217 131.694545 
L 83.14606 131.694545 
L 83.14606 131.250206 
L 84.851902 131.250206 
L 84.851902 131.605677 
L 89.969429 131.605677 
L 89.969429 131.87228 
L 91.675272 131.87228 
L 91.675272 131.694545 
L 93.381114 131.694545 
L 93.381114 132.227751 
L 96.792799 132.316618 
L 96.792799 132.050015 
L 101.910326 132.138883 
L 101.910326 132.227751 
L 105.322011 132.227751 
L 105.322011 132.405486 
L 110.439538 132.405486 
L 110.439538 132.583221 
L 112.14538 132.583221 
L 112.14538 132.760957 
L 113.851223 132.760957 
L 113.851223 132.138883 
L 115.557065 132.138883 
L 115.557065 132.583221 
L 117.262908 132.583221 
L 117.262908 132.316618 
L 118.96875 132.316618 
L 118.96875 132.583221 
L 120.674592 132.583221 
L 120.674592 132.316618 
L 122.380435 132.316618 
L 122.380435 132.672089 
L 136.027174 132.672089 
L 136.027174 132.494354 
L 137.733016 132.494354 
L 137.733016 132.760957 
L 141.144701 132.760957 
L 141.144701 132.583221 
L 144.556386 132.672089 
L 144.556386 132.760957 
L 166.732337 132.760957 
L 166.732337 132.760957 
" clip-path="url(#p4c333a8387)" style="fill: none; stroke: #1f77b4; stroke-width: 1.5; stroke-linecap: square"/>
   </g>
   <g id="line2d_46">
    <path d="M 40.5 132.710884 
L 42.205842 132.710884 
L 42.205842 131.400213 
L 43.911685 131.400213 
L 43.911685 124.207922 
L 45.617527 124.207922 
L 45.617527 118.679994 
L 47.32337 118.679994 
L 47.32337 118.925972 
L 49.029212 118.925972 
L 49.029212 119.282104 
L 50.735054 119.282104 
L 50.735054 121.049349 
L 52.440897 121.049349 
L 52.440897 123.438046 
L 54.146739 123.438046 
L 54.146739 124.227692 
L 55.852582 124.227692 
L 55.852582 123.759099 
L 57.558424 123.759099 
L 57.558424 125.083365 
L 59.264266 125.083365 
L 59.264266 127.288088 
L 60.970109 127.288088 
L 60.970109 124.705989 
L 62.675951 124.705989 
L 62.675951 126.407637 
L 64.381793 126.407637 
L 64.381793 125.074299 
L 66.087636 125.074299 
L 66.087636 126.430753 
L 67.793478 126.430753 
L 67.793478 126.101512 
L 69.499321 126.101512 
L 69.499321 126.536204 
L 72.911005 126.451627 
L 72.911005 124.774584 
L 74.616848 124.774584 
L 74.616848 127.425429 
L 76.32269 127.425429 
L 76.32269 123.824508 
L 78.028533 123.824508 
L 78.028533 124.469562 
L 79.734375 124.469562 
L 79.734375 123.625416 
L 81.440217 123.625416 
L 81.440217 126.369562 
L 83.14606 126.369562 
L 83.14606 123.772665 
L 84.851902 123.772665 
L 84.851902 125.999989 
L 86.557745 125.999989 
L 86.557745 123.994706 
L 88.263587 123.994706 
L 88.263587 125.624943 
L 89.969429 125.624943 
L 89.969429 126.369061 
L 91.675272 126.369061 
L 91.675272 118.21683 
L 93.381114 118.21683 
L 93.381114 126.892952 
L 95.086957 126.892952 
L 95.086957 124.780746 
L 98.498641 124.767028 
L 98.498641 124.418822 
L 100.204484 124.418822 
L 100.204484 125.988565 
L 101.910326 125.988565 
L 101.910326 126.533627 
L 103.616168 126.533627 
L 103.616168 125.619115 
L 105.322011 125.619115 
L 105.322011 126.146708 
L 107.027853 126.146708 
L 107.027853 122.877843 
L 108.733696 122.877843 
L 108.733696 124.128353 
L 110.439538 124.128353 
L 110.439538 124.998411 
L 112.14538 124.998411 
L 112.14538 132.760957 
L 113.851223 132.760957 
L 113.851223 122.451629 
L 115.557065 122.451629 
L 115.557065 127.253221 
L 117.262908 127.253221 
L 117.262908 119.68576 
L 118.96875 119.68576 
L 118.96875 129.219434 
L 120.674592 129.219434 
L 120.674592 116.789271 
L 122.380435 116.789271 
L 122.380435 129.042312 
L 125.79212 129.024559 
L 125.79212 131.171886 
L 127.497962 131.171886 
L 127.497962 126.044908 
L 129.203804 126.044908 
L 129.203804 129.560817 
L 130.909647 129.560817 
L 130.909647 105.299407 
L 132.615489 105.299407 
L 132.615489 125.113137 
L 134.321332 125.113137 
L 134.321332 125.294018 
L 136.027174 125.294018 
L 136.027174 119.585376 
L 137.733016 119.585376 
L 137.733016 132.760957 
L 141.144701 132.760957 
L 141.144701 117.259047 
L 142.850543 117.259047 
L 142.850543 127.546753 
L 144.556386 127.546753 
L 144.556386 132.760957 
L 163.320652 132.760957 
L 163.320652 110.804922 
L 165.026495 110.804922 
L 165.026495 132.760957 
L 166.732337 132.760957 
L 166.732337 132.760957 
" clip-path="url(#p4c333a8387)" style="fill: none; stroke: #ff7f0e; stroke-width: 1.5; stroke-linecap: square"/>
   </g>
   <g id="line2d_47">
    <path d="M 48.599531 132.760957 
L 48.599531 23.587043 
" clip-path="url(#p4c333a8387)" style="fill: none; stroke-dasharray: 3.7,1.6; stroke-dashoffset: 0; stroke: #1f77b4"/>
   </g>
   <g id="line2d_48">
    <path d="M 93.359167 132.760957 
L 93.359167 23.587043 
" clip-path="url(#p4c333a8387)" style="fill: none; stroke-dasharray: 3.7,1.6; stroke-dashoffset: 0; stroke: #ff7f0e"/>
   </g>
   <g id="patch_3">
    <path d="M 40.5 132.760957 
L 40.5 23.587043 
" style="fill: none; stroke: #000000; stroke-width: 0.8; stroke-linejoin: miter; stroke-linecap: square"/>
   </g>
   <g id="patch_4">
    <path d="M 149.673913 132.760957 
L 149.673913 23.587043 
" style="fill: none; stroke: #000000; stroke-width: 0.8; stroke-linejoin: miter; stroke-linecap: square"/>
   </g>
   <g id="patch_5">
    <path d="M 40.5 132.760957 
L 149.673913 132.760957 
" style="fill: none; stroke: #000000; stroke-width: 0.8; stroke-linejoin: miter; stroke-linecap: square"/>
   </g>
   <g id="patch_6">
    <path d="M 40.5 23.587043 
L 149.673913 23.587043 
" style="fill: none; stroke: #000000; stroke-width: 0.8; stroke-linejoin: miter; stroke-linecap: square"/>
   </g>
   <g id="text_10">
    <!-- (a) -->
    <g transform="translate(151.48587 15.545588)scale(0.0833 -0.0833)">
     <defs>
      <path id="Arial-BoldMT-28" d="M 1916 -1347 
L 1313 -1347 
Q 834 -625 584 153 
Q 334 931 334 1659 
Q 334 2563 644 3369 
Q 913 4069 1325 4659 
L 1925 4659 
Q 1497 3713 1336 3048 
Q 1175 2384 1175 1641 
Q 1175 1128 1270 590 
Q 1366 53 1531 -431 
Q 1641 -750 1916 -1347 
z
" transform="scale(0.015625)"/>
      <path id="Arial-BoldMT-61" d="M 1116 2306 
L 319 2450 
Q 453 2931 781 3162 
Q 1109 3394 1756 3394 
Q 2344 3394 2631 3255 
Q 2919 3116 3036 2902 
Q 3153 2688 3153 2116 
L 3144 1091 
Q 3144 653 3186 445 
Q 3228 238 3344 0 
L 2475 0 
Q 2441 88 2391 259 
Q 2369 338 2359 363 
Q 2134 144 1878 34 
Q 1622 -75 1331 -75 
Q 819 -75 523 203 
Q 228 481 228 906 
Q 228 1188 362 1408 
Q 497 1628 739 1745 
Q 981 1863 1438 1950 
Q 2053 2066 2291 2166 
L 2291 2253 
Q 2291 2506 2166 2614 
Q 2041 2722 1694 2722 
Q 1459 2722 1328 2630 
Q 1197 2538 1116 2306 
z
M 2291 1594 
Q 2122 1538 1756 1459 
Q 1391 1381 1278 1306 
Q 1106 1184 1106 997 
Q 1106 813 1243 678 
Q 1381 544 1594 544 
Q 1831 544 2047 700 
Q 2206 819 2256 991 
Q 2291 1103 2291 1419 
L 2291 1594 
z
" transform="scale(0.015625)"/>
      <path id="Arial-BoldMT-29" d="M 216 -1347 
Q 475 -791 581 -494 
Q 688 -197 778 190 
Q 869 578 912 926 
Q 956 1275 956 1641 
Q 956 2384 797 3048 
Q 638 3713 209 4659 
L 806 4659 
Q 1278 3988 1539 3234 
Q 1800 2481 1800 1706 
Q 1800 1053 1594 306 
Q 1359 -531 822 -1347 
L 216 -1347 
z
" transform="scale(0.015625)"/>
     </defs>
     <use xlink:href="#Arial-BoldMT-28"/>
     <use xlink:href="#Arial-BoldMT-61" x="33.300781"/>
     <use xlink:href="#Arial-BoldMT-29" x="88.916016"/>
    </g>
   </g>
  </g>
  <g id="axes_2">
   <g id="patch_7">
    <path d="M 182.426087 132.760957 
L 291.6 132.760957 
L 291.6 23.587043 
L 182.426087 23.587043 
z
" style="fill: #ffffff"/>
   </g>
   <g id="matplotlib.axis_3">
    <g id="xtick_18">
     <g id="line2d_49">
      <path d="M 182.426087 132.760957 
L 182.426087 23.587043 
" clip-path="url(#pbbdc2edc62)" style="fill: none; stroke: #b0b0b0; stroke-opacity: 0.75; stroke-width: 0.5; stroke-linecap: square"/>
     </g>
     <g id="line2d_50">
      <g>
       <use xlink:href="#mbb5bdfd18b" x="182.426087" y="132.760957" style="stroke: #000000; stroke-width: 0.8"/>
      </g>
     </g>
     <g id="text_11">
      <!-- 0 -->
      <g transform="translate(179.776106 142.590455)scale(0.0833 -0.0833)">
       <use xlink:href="#DejaVuSans-30"/>
      </g>
     </g>
    </g>
    <g id="xtick_19">
     <g id="line2d_51">
      <path d="M 209.719565 132.760957 
L 209.719565 23.587043 
" clip-path="url(#pbbdc2edc62)" style="fill: none; stroke: #b0b0b0; stroke-opacity: 0.75; stroke-width: 0.5; stroke-linecap: square"/>
     </g>
     <g id="line2d_52">
      <g>
       <use xlink:href="#mbb5bdfd18b" x="209.719565" y="132.760957" style="stroke: #000000; stroke-width: 0.8"/>
      </g>
     </g>
     <g id="text_12">
      <!-- 200 -->
      <g transform="translate(201.769621 142.590455)scale(0.0833 -0.0833)">
       <use xlink:href="#DejaVuSans-32"/>
       <use xlink:href="#DejaVuSans-30" x="63.623047"/>
       <use xlink:href="#DejaVuSans-30" x="127.246094"/>
      </g>
     </g>
    </g>
    <g id="xtick_20">
     <g id="line2d_53">
      <path d="M 237.013043 132.760957 
L 237.013043 23.587043 
" clip-path="url(#pbbdc2edc62)" style="fill: none; stroke: #b0b0b0; stroke-opacity: 0.75; stroke-width: 0.5; stroke-linecap: square"/>
     </g>
     <g id="line2d_54">
      <g>
       <use xlink:href="#mbb5bdfd18b" x="237.013043" y="132.760957" style="stroke: #000000; stroke-width: 0.8"/>
      </g>
     </g>
     <g id="text_13">
      <!-- 400 -->
      <g transform="translate(229.0631 142.590455)scale(0.0833 -0.0833)">
       <use xlink:href="#DejaVuSans-34"/>
       <use xlink:href="#DejaVuSans-30" x="63.623047"/>
       <use xlink:href="#DejaVuSans-30" x="127.246094"/>
      </g>
     </g>
    </g>
    <g id="xtick_21">
     <g id="line2d_55">
      <path d="M 264.306522 132.760957 
L 264.306522 23.587043 
" clip-path="url(#pbbdc2edc62)" style="fill: none; stroke: #b0b0b0; stroke-opacity: 0.75; stroke-width: 0.5; stroke-linecap: square"/>
     </g>
     <g id="line2d_56">
      <g>
       <use xlink:href="#mbb5bdfd18b" x="264.306522" y="132.760957" style="stroke: #000000; stroke-width: 0.8"/>
      </g>
     </g>
     <g id="text_14">
      <!-- 600 -->
      <g transform="translate(256.356578 142.590455)scale(0.0833 -0.0833)">
       <use xlink:href="#DejaVuSans-36"/>
       <use xlink:href="#DejaVuSans-30" x="63.623047"/>
       <use xlink:href="#DejaVuSans-30" x="127.246094"/>
      </g>
     </g>
    </g>
    <g id="xtick_22">
     <g id="line2d_57">
      <path d="M 291.6 132.760957 
L 291.6 23.587043 
" clip-path="url(#pbbdc2edc62)" style="fill: none; stroke: #b0b0b0; stroke-opacity: 0.75; stroke-width: 0.5; stroke-linecap: square"/>
     </g>
     <g id="line2d_58">
      <g>
       <use xlink:href="#mbb5bdfd18b" x="291.6" y="132.760957" style="stroke: #000000; stroke-width: 0.8"/>
      </g>
     </g>
     <g id="text_15">
      <!-- 800 -->
      <g transform="translate(283.650056 142.590455)scale(0.0833 -0.0833)">
       <use xlink:href="#DejaVuSans-38"/>
       <use xlink:href="#DejaVuSans-30" x="63.623047"/>
       <use xlink:href="#DejaVuSans-30" x="127.246094"/>
      </g>
     </g>
    </g>
    <g id="xtick_23">
     <g id="line2d_59">
      <path d="M 189.249457 132.760957 
L 189.249457 23.587043 
" clip-path="url(#pbbdc2edc62)" style="fill: none; stroke: #b0b0b0; stroke-opacity: 0.25; stroke-width: 0.5; stroke-linecap: square"/>
     </g>
     <g id="line2d_60">
      <g>
       <use xlink:href="#mf411e00436" x="189.249457" y="132.760957" style="stroke: #000000; stroke-width: 0.6"/>
      </g>
     </g>
    </g>
    <g id="xtick_24">
     <g id="line2d_61">
      <path d="M 196.072826 132.760957 
L 196.072826 23.587043 
" clip-path="url(#pbbdc2edc62)" style="fill: none; stroke: #b0b0b0; stroke-opacity: 0.25; stroke-width: 0.5; stroke-linecap: square"/>
     </g>
     <g id="line2d_62">
      <g>
       <use xlink:href="#mf411e00436" x="196.072826" y="132.760957" style="stroke: #000000; stroke-width: 0.6"/>
      </g>
     </g>
    </g>
    <g id="xtick_25">
     <g id="line2d_63">
      <path d="M 202.896196 132.760957 
L 202.896196 23.587043 
" clip-path="url(#pbbdc2edc62)" style="fill: none; stroke: #b0b0b0; stroke-opacity: 0.25; stroke-width: 0.5; stroke-linecap: square"/>
     </g>
     <g id="line2d_64">
      <g>
       <use xlink:href="#mf411e00436" x="202.896196" y="132.760957" style="stroke: #000000; stroke-width: 0.6"/>
      </g>
     </g>
    </g>
    <g id="xtick_26">
     <g id="line2d_65">
      <path d="M 216.542935 132.760957 
L 216.542935 23.587043 
" clip-path="url(#pbbdc2edc62)" style="fill: none; stroke: #b0b0b0; stroke-opacity: 0.25; stroke-width: 0.5; stroke-linecap: square"/>
     </g>
     <g id="line2d_66">
      <g>
       <use xlink:href="#mf411e00436" x="216.542935" y="132.760957" style="stroke: #000000; stroke-width: 0.6"/>
      </g>
     </g>
    </g>
    <g id="xtick_27">
     <g id="line2d_67">
      <path d="M 223.366304 132.760957 
L 223.366304 23.587043 
" clip-path="url(#pbbdc2edc62)" style="fill: none; stroke: #b0b0b0; stroke-opacity: 0.25; stroke-width: 0.5; stroke-linecap: square"/>
     </g>
     <g id="line2d_68">
      <g>
       <use xlink:href="#mf411e00436" x="223.366304" y="132.760957" style="stroke: #000000; stroke-width: 0.6"/>
      </g>
     </g>
    </g>
    <g id="xtick_28">
     <g id="line2d_69">
      <path d="M 230.189674 132.760957 
L 230.189674 23.587043 
" clip-path="url(#pbbdc2edc62)" style="fill: none; stroke: #b0b0b0; stroke-opacity: 0.25; stroke-width: 0.5; stroke-linecap: square"/>
     </g>
     <g id="line2d_70">
      <g>
       <use xlink:href="#mf411e00436" x="230.189674" y="132.760957" style="stroke: #000000; stroke-width: 0.6"/>
      </g>
     </g>
    </g>
    <g id="xtick_29">
     <g id="line2d_71">
      <path d="M 243.836413 132.760957 
L 243.836413 23.587043 
" clip-path="url(#pbbdc2edc62)" style="fill: none; stroke: #b0b0b0; stroke-opacity: 0.25; stroke-width: 0.5; stroke-linecap: square"/>
     </g>
     <g id="line2d_72">
      <g>
       <use xlink:href="#mf411e00436" x="243.836413" y="132.760957" style="stroke: #000000; stroke-width: 0.6"/>
      </g>
     </g>
    </g>
    <g id="xtick_30">
     <g id="line2d_73">
      <path d="M 250.659783 132.760957 
L 250.659783 23.587043 
" clip-path="url(#pbbdc2edc62)" style="fill: none; stroke: #b0b0b0; stroke-opacity: 0.25; stroke-width: 0.5; stroke-linecap: square"/>
     </g>
     <g id="line2d_74">
      <g>
       <use xlink:href="#mf411e00436" x="250.659783" y="132.760957" style="stroke: #000000; stroke-width: 0.6"/>
      </g>
     </g>
    </g>
    <g id="xtick_31">
     <g id="line2d_75">
      <path d="M 257.483152 132.760957 
L 257.483152 23.587043 
" clip-path="url(#pbbdc2edc62)" style="fill: none; stroke: #b0b0b0; stroke-opacity: 0.25; stroke-width: 0.5; stroke-linecap: square"/>
     </g>
     <g id="line2d_76">
      <g>
       <use xlink:href="#mf411e00436" x="257.483152" y="132.760957" style="stroke: #000000; stroke-width: 0.6"/>
      </g>
     </g>
    </g>
    <g id="xtick_32">
     <g id="line2d_77">
      <path d="M 271.129891 132.760957 
L 271.129891 23.587043 
" clip-path="url(#pbbdc2edc62)" style="fill: none; stroke: #b0b0b0; stroke-opacity: 0.25; stroke-width: 0.5; stroke-linecap: square"/>
     </g>
     <g id="line2d_78">
      <g>
       <use xlink:href="#mf411e00436" x="271.129891" y="132.760957" style="stroke: #000000; stroke-width: 0.6"/>
      </g>
     </g>
    </g>
    <g id="xtick_33">
     <g id="line2d_79">
      <path d="M 277.953261 132.760957 
L 277.953261 23.587043 
" clip-path="url(#pbbdc2edc62)" style="fill: none; stroke: #b0b0b0; stroke-opacity: 0.25; stroke-width: 0.5; stroke-linecap: square"/>
     </g>
     <g id="line2d_80">
      <g>
       <use xlink:href="#mf411e00436" x="277.953261" y="132.760957" style="stroke: #000000; stroke-width: 0.6"/>
      </g>
     </g>
    </g>
    <g id="xtick_34">
     <g id="line2d_81">
      <path d="M 284.77663 132.760957 
L 284.77663 23.587043 
" clip-path="url(#pbbdc2edc62)" style="fill: none; stroke: #b0b0b0; stroke-opacity: 0.25; stroke-width: 0.5; stroke-linecap: square"/>
     </g>
     <g id="line2d_82">
      <g>
       <use xlink:href="#mf411e00436" x="284.77663" y="132.760957" style="stroke: #000000; stroke-width: 0.6"/>
      </g>
     </g>
    </g>
    <g id="text_16">
     <!-- Thickness, $H$ [m] -->
     <g transform="translate(207.830343 153.59615)scale(0.0694 -0.0694)">
      <use xlink:href="#DejaVuSans-54" transform="translate(0 0.015625)"/>
      <use xlink:href="#DejaVuSans-68" transform="translate(61.083984 0.015625)"/>
      <use xlink:href="#DejaVuSans-69" transform="translate(124.462891 0.015625)"/>
      <use xlink:href="#DejaVuSans-63" transform="translate(152.246094 0.015625)"/>
      <use xlink:href="#DejaVuSans-6b" transform="translate(207.226562 0.015625)"/>
      <use xlink:href="#DejaVuSans-6e" transform="translate(265.136719 0.015625)"/>
      <use xlink:href="#DejaVuSans-65" transform="translate(328.515625 0.015625)"/>
      <use xlink:href="#DejaVuSans-73" transform="translate(390.039062 0.015625)"/>
      <use xlink:href="#DejaVuSans-73" transform="translate(442.138672 0.015625)"/>
      <use xlink:href="#DejaVuSans-2c" transform="translate(494.238281 0.015625)"/>
      <use xlink:href="#DejaVuSans-20" transform="translate(526.025391 0.015625)"/>
      <use xlink:href="#DejaVuSans-Oblique-48" transform="translate(557.8125 0.015625)"/>
      <use xlink:href="#DejaVuSans-20" transform="translate(633.007812 0.015625)"/>
      <use xlink:href="#DejaVuSans-5b" transform="translate(664.794922 0.015625)"/>
      <use xlink:href="#DejaVuSans-6d" transform="translate(703.808594 0.015625)"/>
      <use xlink:href="#DejaVuSans-5d" transform="translate(801.220703 0.015625)"/>
     </g>
    </g>
   </g>
   <g id="matplotlib.axis_4">
    <g id="ytick_6">
     <g id="line2d_83">
      <path d="M 182.426087 132.760957 
L 291.6 132.760957 
" clip-path="url(#pbbdc2edc62)" style="fill: none; stroke: #b0b0b0; stroke-opacity: 0.75; stroke-width: 0.5; stroke-linecap: square"/>
     </g>
     <g id="line2d_84">
      <g>
       <use xlink:href="#mb281bb71b6" x="182.426087" y="132.760957" style="stroke: #000000; stroke-width: 0.8"/>
      </g>
     </g>
    </g>
    <g id="ytick_7">
     <g id="line2d_85">
      <path d="M 182.426087 110.926174 
L 291.6 110.926174 
" clip-path="url(#pbbdc2edc62)" style="fill: none; stroke: #b0b0b0; stroke-opacity: 0.75; stroke-width: 0.5; stroke-linecap: square"/>
     </g>
     <g id="line2d_86">
      <g>
       <use xlink:href="#mb281bb71b6" x="182.426087" y="110.926174" style="stroke: #000000; stroke-width: 0.8"/>
      </g>
     </g>
     <g id="text_17">
      <!-- 0.2 -->
      <g transform="translate(165.678784 114.090923)scale(0.0833 -0.0833)">
       <use xlink:href="#DejaVuSans-30"/>
       <use xlink:href="#DejaVuSans-2e" x="63.623047"/>
       <use xlink:href="#DejaVuSans-32" x="95.410156"/>
      </g>
     </g>
    </g>
    <g id="ytick_8">
     <g id="line2d_87">
      <path d="M 182.426087 89.091391 
L 291.6 89.091391 
" clip-path="url(#pbbdc2edc62)" style="fill: none; stroke: #b0b0b0; stroke-opacity: 0.75; stroke-width: 0.5; stroke-linecap: square"/>
     </g>
     <g id="line2d_88">
      <g>
       <use xlink:href="#mb281bb71b6" x="182.426087" y="89.091391" style="stroke: #000000; stroke-width: 0.8"/>
      </g>
     </g>
     <g id="text_18">
      <!-- 0.4 -->
      <g transform="translate(165.678784 92.256141)scale(0.0833 -0.0833)">
       <use xlink:href="#DejaVuSans-30"/>
       <use xlink:href="#DejaVuSans-2e" x="63.623047"/>
       <use xlink:href="#DejaVuSans-34" x="95.410156"/>
      </g>
     </g>
    </g>
    <g id="ytick_9">
     <g id="line2d_89">
      <path d="M 182.426087 67.256609 
L 291.6 67.256609 
" clip-path="url(#pbbdc2edc62)" style="fill: none; stroke: #b0b0b0; stroke-opacity: 0.75; stroke-width: 0.5; stroke-linecap: square"/>
     </g>
     <g id="line2d_90">
      <g>
       <use xlink:href="#mb281bb71b6" x="182.426087" y="67.256609" style="stroke: #000000; stroke-width: 0.8"/>
      </g>
     </g>
     <g id="text_19">
      <!-- 0.6 -->
      <g transform="translate(165.678784 70.421358)scale(0.0833 -0.0833)">
       <use xlink:href="#DejaVuSans-30"/>
       <use xlink:href="#DejaVuSans-2e" x="63.623047"/>
       <use xlink:href="#DejaVuSans-36" x="95.410156"/>
      </g>
     </g>
    </g>
    <g id="ytick_10">
     <g id="line2d_91">
      <path d="M 182.426087 45.421826 
L 291.6 45.421826 
" clip-path="url(#pbbdc2edc62)" style="fill: none; stroke: #b0b0b0; stroke-opacity: 0.75; stroke-width: 0.5; stroke-linecap: square"/>
     </g>
     <g id="line2d_92">
      <g>
       <use xlink:href="#mb281bb71b6" x="182.426087" y="45.421826" style="stroke: #000000; stroke-width: 0.8"/>
      </g>
     </g>
     <g id="text_20">
      <!-- 0.8 -->
      <g transform="translate(165.678784 48.586575)scale(0.0833 -0.0833)">
       <use xlink:href="#DejaVuSans-30"/>
       <use xlink:href="#DejaVuSans-2e" x="63.623047"/>
       <use xlink:href="#DejaVuSans-38" x="95.410156"/>
      </g>
     </g>
    </g>
    <g id="ytick_11">
     <g id="line2d_93">
      <path d="M 182.426087 23.587043 
L 291.6 23.587043 
" clip-path="url(#pbbdc2edc62)" style="fill: none; stroke: #b0b0b0; stroke-opacity: 0.75; stroke-width: 0.5; stroke-linecap: square"/>
     </g>
     <g id="line2d_94">
      <g>
       <use xlink:href="#mb281bb71b6" x="182.426087" y="23.587043" style="stroke: #000000; stroke-width: 0.8"/>
      </g>
     </g>
     <g id="text_21">
      <!-- 1.0 -->
      <g transform="translate(165.678784 26.751793)scale(0.0833 -0.0833)">
       <use xlink:href="#DejaVuSans-31"/>
       <use xlink:href="#DejaVuSans-2e" x="63.623047"/>
       <use xlink:href="#DejaVuSans-30" x="95.410156"/>
      </g>
     </g>
    </g>
    <g id="ytick_12">
     <g id="line2d_95">
      <path d="M 182.426087 121.843565 
L 291.6 121.843565 
" clip-path="url(#pbbdc2edc62)" style="fill: none; stroke: #b0b0b0; stroke-opacity: 0.25; stroke-width: 0.5; stroke-linecap: square"/>
     </g>
     <g id="line2d_96">
      <g>
       <use xlink:href="#md65efaea1d" x="182.426087" y="121.843565" style="stroke: #000000; stroke-width: 0.6"/>
      </g>
     </g>
    </g>
    <g id="ytick_13">
     <g id="line2d_97">
      <path d="M 182.426087 100.008783 
L 291.6 100.008783 
" clip-path="url(#pbbdc2edc62)" style="fill: none; stroke: #b0b0b0; stroke-opacity: 0.25; stroke-width: 0.5; stroke-linecap: square"/>
     </g>
     <g id="line2d_98">
      <g>
       <use xlink:href="#md65efaea1d" x="182.426087" y="100.008783" style="stroke: #000000; stroke-width: 0.6"/>
      </g>
     </g>
    </g>
    <g id="ytick_14">
     <g id="line2d_99">
      <path d="M 182.426087 78.174 
L 291.6 78.174 
" clip-path="url(#pbbdc2edc62)" style="fill: none; stroke: #b0b0b0; stroke-opacity: 0.25; stroke-width: 0.5; stroke-linecap: square"/>
     </g>
     <g id="line2d_100">
      <g>
       <use xlink:href="#md65efaea1d" x="182.426087" y="78.174" style="stroke: #000000; stroke-width: 0.6"/>
      </g>
     </g>
    </g>
    <g id="ytick_15">
     <g id="line2d_101">
      <path d="M 182.426087 56.339217 
L 291.6 56.339217 
" clip-path="url(#pbbdc2edc62)" style="fill: none; stroke: #b0b0b0; stroke-opacity: 0.25; stroke-width: 0.5; stroke-linecap: square"/>
     </g>
     <g id="line2d_102">
      <g>
       <use xlink:href="#md65efaea1d" x="182.426087" y="56.339217" style="stroke: #000000; stroke-width: 0.6"/>
      </g>
     </g>
    </g>
    <g id="ytick_16">
     <g id="line2d_103">
      <path d="M 182.426087 34.504435 
L 291.6 34.504435 
" clip-path="url(#pbbdc2edc62)" style="fill: none; stroke: #b0b0b0; stroke-opacity: 0.25; stroke-width: 0.5; stroke-linecap: square"/>
     </g>
     <g id="line2d_104">
      <g>
       <use xlink:href="#md65efaea1d" x="182.426087" y="34.504435" style="stroke: #000000; stroke-width: 0.6"/>
      </g>
     </g>
    </g>
    <g id="text_22">
     <!-- Cumulative frac. -->
     <g transform="translate(160.235481 106.867105)rotate(-90)scale(0.0694 -0.0694)">
      <defs>
       <path id="DejaVuSans-43" d="M 4122 4306 
L 4122 3641 
Q 3803 3938 3442 4084 
Q 3081 4231 2675 4231 
Q 1875 4231 1450 3742 
Q 1025 3253 1025 2328 
Q 1025 1406 1450 917 
Q 1875 428 2675 428 
Q 3081 428 3442 575 
Q 3803 722 4122 1019 
L 4122 359 
Q 3791 134 3420 21 
Q 3050 -91 2638 -91 
Q 1578 -91 968 557 
Q 359 1206 359 2328 
Q 359 3453 968 4101 
Q 1578 4750 2638 4750 
Q 3056 4750 3426 4639 
Q 3797 4528 4122 4306 
z
" transform="scale(0.015625)"/>
       <path id="DejaVuSans-75" d="M 544 1381 
L 544 3500 
L 1119 3500 
L 1119 1403 
Q 1119 906 1312 657 
Q 1506 409 1894 409 
Q 2359 409 2629 706 
Q 2900 1003 2900 1516 
L 2900 3500 
L 3475 3500 
L 3475 0 
L 2900 0 
L 2900 538 
Q 2691 219 2414 64 
Q 2138 -91 1772 -91 
Q 1169 -91 856 284 
Q 544 659 544 1381 
z
M 1991 3584 
L 1991 3584 
z
" transform="scale(0.015625)"/>
       <path id="DejaVuSans-76" d="M 191 3500 
L 800 3500 
L 1894 563 
L 2988 3500 
L 3597 3500 
L 2284 0 
L 1503 0 
L 191 3500 
z
" transform="scale(0.015625)"/>
       <path id="DejaVuSans-66" d="M 2375 4863 
L 2375 4384 
L 1825 4384 
Q 1516 4384 1395 4259 
Q 1275 4134 1275 3809 
L 1275 3500 
L 2222 3500 
L 2222 3053 
L 1275 3053 
L 1275 0 
L 697 0 
L 697 3053 
L 147 3053 
L 147 3500 
L 697 3500 
L 697 3744 
Q 697 4328 969 4595 
Q 1241 4863 1831 4863 
L 2375 4863 
z
" transform="scale(0.015625)"/>
      </defs>
      <use xlink:href="#DejaVuSans-43"/>
      <use xlink:href="#DejaVuSans-75" x="69.824219"/>
      <use xlink:href="#DejaVuSans-6d" x="133.203125"/>
      <use xlink:href="#DejaVuSans-75" x="230.615234"/>
      <use xlink:href="#DejaVuSans-6c" x="293.994141"/>
      <use xlink:href="#DejaVuSans-61" x="321.777344"/>
      <use xlink:href="#DejaVuSans-74" x="383.056641"/>
      <use xlink:href="#DejaVuSans-69" x="422.265625"/>
      <use xlink:href="#DejaVuSans-76" x="450.048828"/>
      <use xlink:href="#DejaVuSans-65" x="509.228516"/>
      <use xlink:href="#DejaVuSans-20" x="570.751953"/>
      <use xlink:href="#DejaVuSans-66" x="602.539062"/>
      <use xlink:href="#DejaVuSans-72" x="637.744141"/>
      <use xlink:href="#DejaVuSans-61" x="678.857422"/>
      <use xlink:href="#DejaVuSans-63" x="740.136719"/>
      <use xlink:href="#DejaVuSans-2e" x="795.117188"/>
     </g>
    </g>
   </g>
   <g id="line2d_105">
    <path d="M 182.426087 78.174 
L 291.6 78.174 
" clip-path="url(#pbbdc2edc62)" style="fill: none; stroke-dasharray: 3.7,1.6; stroke-dashoffset: 0; stroke: #000000"/>
   </g>
   <g id="line2d_106">
    <path d="M 182.426087 132.683086 
L 184.131929 132.683086 
L 184.131929 129.957632 
L 185.837772 129.957632 
L 185.837772 114.539348 
L 187.543614 114.539348 
L 187.543614 91.762337 
L 189.249457 91.762337 
L 189.249457 74.007948 
L 190.955299 74.007948 
L 190.955299 60.867365 
L 192.661141 60.867365 
L 192.661141 52.340587 
L 194.366984 52.340587 
L 194.366984 46.850743 
L 196.072826 46.850743 
L 196.072826 43.074042 
L 197.778668 43.074042 
L 197.778668 39.939769 
L 199.484511 39.939769 
L 199.484511 37.584198 
L 201.190353 37.584198 
L 201.190353 36.240939 
L 202.896196 36.240939 
L 202.896196 34.644601 
L 204.602038 34.644601 
L 204.602038 33.457082 
L 206.30788 33.457082 
L 206.30788 32.327965 
L 208.013723 32.327965 
L 208.013723 31.627134 
L 209.719565 31.627134 
L 209.719565 30.828965 
L 211.425408 30.828965 
L 211.425408 30.186536 
L 213.13125 30.186536 
L 213.13125 29.621978 
L 214.837092 29.621978 
L 214.837092 29.037952 
L 216.542935 29.037952 
L 216.542935 28.609666 
L 218.248777 28.609666 
L 218.248777 28.161913 
L 219.95462 28.161913 
L 219.95462 27.71416 
L 221.660462 27.71416 
L 221.660462 27.266407 
L 223.366304 27.266407 
L 223.366304 27.032796 
L 225.072147 27.032796 
L 225.072147 26.701848 
L 226.777989 26.701848 
L 226.777989 26.448771 
L 228.483832 26.448771 
L 228.483832 26.176225 
L 230.189674 26.176225 
L 230.189674 25.923147 
L 231.895516 25.923147 
L 231.895516 25.728472 
L 233.601359 25.728472 
L 233.601359 25.494862 
L 235.307201 25.494862 
L 235.307201 25.378056 
L 238.718886 25.280719 
L 238.718886 25.124978 
L 240.424728 25.124978 
L 240.424728 24.969238 
L 242.130571 24.969238 
L 242.130571 24.832965 
L 243.836413 24.832965 
L 243.836413 24.71616 
L 245.542255 24.71616 
L 245.542255 24.599355 
L 248.95394 24.521485 
L 248.95394 24.424147 
L 252.365625 24.346277 
L 252.365625 24.307342 
L 255.77731 24.307342 
L 255.77731 24.171069 
L 259.188995 24.132134 
L 259.188995 24.034797 
L 262.600679 23.995862 
L 262.600679 23.898524 
L 272.835734 23.801186 
L 272.835734 23.762251 
L 283.070788 23.664914 
L 283.070788 23.625979 
L 308.658424 23.587043 
L 308.658424 23.587043 
" clip-path="url(#pbbdc2edc62)" style="fill: none; stroke: #1f77b4; stroke-width: 1.5; stroke-linecap: square"/>
   </g>
   <g id="line2d_107">
    <path d="M 182.426087 132.749988 
L 184.131929 132.749988 
L 184.131929 132.4519 
L 185.837772 132.4519 
L 185.837772 130.578255 
L 187.543614 130.578255 
L 187.543614 127.49365 
L 189.249457 127.49365 
L 189.249457 124.46293 
L 190.955299 124.46293 
L 190.955299 121.510225 
L 192.661141 121.510225 
L 192.661141 118.944656 
L 194.366984 118.944656 
L 194.366984 116.90236 
L 196.072826 116.90236 
L 196.072826 115.033046 
L 197.778668 115.033046 
L 197.778668 113.061081 
L 199.484511 113.061081 
L 199.484511 111.379212 
L 201.190353 111.379212 
L 201.190353 110.180314 
L 202.896196 110.180314 
L 202.896196 108.415776 
L 204.602038 108.415776 
L 204.602038 107.024005 
L 206.30788 107.024005 
L 206.30788 105.34015 
L 208.013723 105.34015 
L 208.013723 103.953443 
L 209.719565 103.953443 
L 209.719565 102.494611 
L 211.425408 102.494611 
L 211.425408 101.131004 
L 213.13125 101.131004 
L 213.13125 99.748869 
L 214.837092 99.748869 
L 214.837092 97.999358 
L 216.542935 97.999358 
L 216.542935 96.830547 
L 218.248777 96.830547 
L 218.248777 94.87291 
L 219.95462 94.87291 
L 219.95462 93.05658 
L 221.660462 93.05658 
L 221.660462 91.05533 
L 223.366304 91.05533 
L 223.366304 89.655218 
L 225.072147 89.655218 
L 225.072147 87.686224 
L 226.777989 87.686224 
L 226.777989 86.205152 
L 228.483832 86.205152 
L 228.483832 84.2848 
L 230.189674 84.2848 
L 230.189674 82.72157 
L 231.895516 82.72157 
L 231.895516 81.321348 
L 233.601359 81.321348 
L 233.601359 78.135282 
L 235.307201 78.135282 
L 235.307201 76.849825 
L 237.013043 76.849825 
L 237.013043 75.101663 
L 238.718886 75.101663 
L 238.718886 73.350497 
L 240.424728 73.350497 
L 240.424728 71.523052 
L 242.130571 71.523052 
L 242.130571 70.039478 
L 243.836413 70.039478 
L 243.836413 68.675306 
L 245.542255 68.675306 
L 245.542255 67.1108 
L 247.248098 67.1108 
L 247.248098 65.661869 
L 248.95394 65.661869 
L 248.95394 63.496854 
L 250.659783 63.496854 
L 250.659783 61.605778 
L 252.365625 61.605778 
L 252.365625 59.905299 
L 255.77731 59.905299 
L 255.77731 57.646916 
L 257.483152 57.646916 
L 257.483152 56.44038 
L 259.188995 56.44038 
L 259.188995 53.576101 
L 260.894837 53.576101 
L 260.894837 52.800288 
L 262.600679 52.800288 
L 262.600679 49.301498 
L 264.306522 49.301498 
L 264.306522 48.486884 
L 266.012364 48.486884 
L 266.012364 47.668381 
L 267.718207 47.668381 
L 267.718207 47.320276 
L 269.424049 47.320276 
L 269.424049 45.849044 
L 271.129891 45.849044 
L 271.129891 45.148015 
L 272.835734 45.148015 
L 272.835734 39.132232 
L 274.541576 39.132232 
L 274.541576 37.456885 
L 276.247418 37.456885 
L 276.247418 35.821162 
L 277.953261 35.821162 
L 277.953261 32.934892 
L 283.070788 32.934892 
L 283.070788 29.539012 
L 284.77663 29.539012 
L 284.77663 28.396778 
L 305.246739 28.396778 
L 305.246739 23.587043 
L 308.658424 23.587043 
L 308.658424 23.587043 
" clip-path="url(#pbbdc2edc62)" style="fill: none; stroke: #ff7f0e; stroke-width: 1.5; stroke-linecap: square"/>
   </g>
   <g id="line2d_108">
    <path d="M 190.525618 132.760957 
L 190.525618 78.174 
" clip-path="url(#pbbdc2edc62)" style="fill: none; stroke-dasharray: 3.7,1.6; stroke-dashoffset: 0; stroke: #1f77b4"/>
   </g>
   <g id="line2d_109">
    <path d="M 235.285254 132.760957 
L 235.285254 78.174 
" clip-path="url(#pbbdc2edc62)" style="fill: none; stroke-dasharray: 3.7,1.6; stroke-dashoffset: 0; stroke: #ff7f0e"/>
   </g>
   <g id="patch_8">
    <path d="M 182.426087 132.760957 
L 182.426087 23.587043 
" style="fill: none; stroke: #000000; stroke-width: 0.8; stroke-linejoin: miter; stroke-linecap: square"/>
   </g>
   <g id="patch_9">
    <path d="M 291.6 132.760957 
L 291.6 23.587043 
" style="fill: none; stroke: #000000; stroke-width: 0.8; stroke-linejoin: miter; stroke-linecap: square"/>
   </g>
   <g id="patch_10">
    <path d="M 182.426087 132.760957 
L 291.6 132.760957 
" style="fill: none; stroke: #000000; stroke-width: 0.8; stroke-linejoin: miter; stroke-linecap: square"/>
   </g>
   <g id="patch_11">
    <path d="M 182.426087 23.587043 
L 291.6 23.587043 
" style="fill: none; stroke: #000000; stroke-width: 0.8; stroke-linejoin: miter; stroke-linecap: square"/>
   </g>
   <g id="text_23">
    <!-- (b) -->
    <g transform="translate(293.411957 15.545588)scale(0.0833 -0.0833)">
     <defs>
      <path id="Arial-BoldMT-62" d="M 422 0 
L 422 4581 
L 1300 4581 
L 1300 2931 
Q 1706 3394 2263 3394 
Q 2869 3394 3266 2955 
Q 3663 2516 3663 1694 
Q 3663 844 3258 384 
Q 2853 -75 2275 -75 
Q 1991 -75 1714 67 
Q 1438 209 1238 488 
L 1238 0 
L 422 0 
z
M 1294 1731 
Q 1294 1216 1456 969 
Q 1684 619 2063 619 
Q 2353 619 2558 867 
Q 2763 1116 2763 1650 
Q 2763 2219 2556 2470 
Q 2350 2722 2028 2722 
Q 1713 2722 1503 2476 
Q 1294 2231 1294 1731 
z
" transform="scale(0.015625)"/>
     </defs>
     <use xlink:href="#Arial-BoldMT-28"/>
     <use xlink:href="#Arial-BoldMT-62" x="33.300781"/>
     <use xlink:href="#Arial-BoldMT-29" x="94.384766"/>
    </g>
   </g>
  </g>
 </g>
 <defs>
  <clipPath id="p4c333a8387">
   <rect x="40.5" y="23.587043" width="109.173913" height="109.173913"/>
  </clipPath>
  <clipPath id="pbbdc2edc62">
   <rect x="182.426087" y="23.587043" width="109.173913" height="109.173913"/>
  </clipPath>
 </defs>
</svg>
