<?xml version="1.0" encoding="utf-8" standalone="no"?>
<!DOCTYPE svg PUBLIC "-//W3C//DTD SVG 1.1//EN"
  "http://www.w3.org/Graphics/SVG/1.1/DTD/svg11.dtd">
<svg xmlns:xlink="http://www.w3.org/1999/xlink" width="360pt" height="288pt" viewBox="0 0 360 288" xmlns="http://www.w3.org/2000/svg" version="1.1">
 <metadata>
  <rdf:RDF xmlns:dc="http://purl.org/dc/elements/1.1/" xmlns:cc="http://creativecommons.org/ns#" xmlns:rdf="http://www.w3.org/1999/02/22-rdf-syntax-ns#">
   <cc:Work>
    <dc:type rdf:resource="http://purl.org/dc/dcmitype/StillImage"/>
    <dc:date>2024-02-01T11:28:39.157635</dc:date>
    <dc:format>image/svg+xml</dc:format>
    <dc:creator>
     <cc:Agent>
      <dc:title>Matplotlib v3.5.2, https://matplotlib.org/</dc:title>
     </cc:Agent>
    </dc:creator>
   </cc:Work>
  </rdf:RDF>
 </metadata>
 <defs>
  <style type="text/css">*{stroke-linejoin: round; stroke-linecap: butt}</style>
 </defs>
 <g id="figure_1">
  <g id="patch_1">
   <path d="M 0 288 
L 360 288 
L 360 0 
L 0 0 
z
" style="fill: #ffffff"/>
  </g>
  <g id="axes_1">
   <g id="patch_2">
    <path d="M 41.889303 257.154448 
L 354.219291 257.154448 
L 354.219291 3.00024 
L 41.889303 3.00024 
z
" style="fill: #ffffff"/>
   </g>
   <g id="matplotlib.axis_1">
    <g id="xtick_1">
     <g id="line2d_1">
      <path d="M 41.889303 257.154448 
L 41.889303 3.00024 
" clip-path="url(#p59fda2ed58)" style="fill: none; stroke: #cccccc; stroke-width: 0.5; stroke-linecap: round"/>
     </g>
     <g id="text_1">
      <!-- −10 -->
      <g style="fill: #262626" transform="translate(33.408053 267.81226)scale(0.1 -0.1)">
       <defs>
        <path id="ArialMT-2212" d="M 3381 1997 
L 356 1997 
L 356 2522 
L 3381 2522 
L 3381 1997 
z
" transform="scale(0.015625)"/>
        <path id="ArialMT-31" d="M 2384 0 
L 1822 0 
L 1822 3584 
Q 1619 3391 1289 3197 
Q 959 3003 697 2906 
L 697 3450 
Q 1169 3672 1522 3987 
Q 1875 4303 2022 4600 
L 2384 4600 
L 2384 0 
z
" transform="scale(0.015625)"/>
        <path id="ArialMT-30" d="M 266 2259 
Q 266 3072 433 3567 
Q 600 4063 929 4331 
Q 1259 4600 1759 4600 
Q 2128 4600 2406 4451 
Q 2684 4303 2865 4023 
Q 3047 3744 3150 3342 
Q 3253 2941 3253 2259 
Q 3253 1453 3087 958 
Q 2922 463 2592 192 
Q 2263 -78 1759 -78 
Q 1097 -78 719 397 
Q 266 969 266 2259 
z
M 844 2259 
Q 844 1131 1108 757 
Q 1372 384 1759 384 
Q 2147 384 2411 759 
Q 2675 1134 2675 2259 
Q 2675 3391 2411 3762 
Q 2147 4134 1753 4134 
Q 1366 4134 1134 3806 
Q 844 3388 844 2259 
z
" transform="scale(0.015625)"/>
       </defs>
       <use xlink:href="#ArialMT-2212"/>
       <use xlink:href="#ArialMT-31" x="58.398438"/>
       <use xlink:href="#ArialMT-30" x="114.013672"/>
      </g>
     </g>
    </g>
    <g id="xtick_2">
     <g id="line2d_2">
      <path d="M 86.507872 257.154448 
L 86.507872 3.00024 
" clip-path="url(#p59fda2ed58)" style="fill: none; stroke: #cccccc; stroke-width: 0.5; stroke-linecap: round"/>
     </g>
     <g id="text_2">
      <!-- −8 -->
      <g style="fill: #262626" transform="translate(80.807091 267.81226)scale(0.1 -0.1)">
       <defs>
        <path id="ArialMT-38" d="M 1131 2484 
Q 781 2613 612 2850 
Q 444 3088 444 3419 
Q 444 3919 803 4259 
Q 1163 4600 1759 4600 
Q 2359 4600 2725 4251 
Q 3091 3903 3091 3403 
Q 3091 3084 2923 2848 
Q 2756 2613 2416 2484 
Q 2838 2347 3058 2040 
Q 3278 1734 3278 1309 
Q 3278 722 2862 322 
Q 2447 -78 1769 -78 
Q 1091 -78 675 323 
Q 259 725 259 1325 
Q 259 1772 486 2073 
Q 713 2375 1131 2484 
z
M 1019 3438 
Q 1019 3113 1228 2906 
Q 1438 2700 1772 2700 
Q 2097 2700 2305 2904 
Q 2513 3109 2513 3406 
Q 2513 3716 2298 3927 
Q 2084 4138 1766 4138 
Q 1444 4138 1231 3931 
Q 1019 3725 1019 3438 
z
M 838 1322 
Q 838 1081 952 856 
Q 1066 631 1291 507 
Q 1516 384 1775 384 
Q 2178 384 2440 643 
Q 2703 903 2703 1303 
Q 2703 1709 2433 1975 
Q 2163 2241 1756 2241 
Q 1359 2241 1098 1978 
Q 838 1716 838 1322 
z
" transform="scale(0.015625)"/>
       </defs>
       <use xlink:href="#ArialMT-2212"/>
       <use xlink:href="#ArialMT-38" x="58.398438"/>
      </g>
     </g>
    </g>
    <g id="xtick_3">
     <g id="line2d_3">
      <path d="M 131.126442 257.154448 
L 131.126442 3.00024 
" clip-path="url(#p59fda2ed58)" style="fill: none; stroke: #cccccc; stroke-width: 0.5; stroke-linecap: round"/>
     </g>
     <g id="text_3">
      <!-- −6 -->
      <g style="fill: #262626" transform="translate(125.425661 267.81226)scale(0.1 -0.1)">
       <defs>
        <path id="ArialMT-36" d="M 3184 3459 
L 2625 3416 
Q 2550 3747 2413 3897 
Q 2184 4138 1850 4138 
Q 1581 4138 1378 3988 
Q 1113 3794 959 3422 
Q 806 3050 800 2363 
Q 1003 2672 1297 2822 
Q 1591 2972 1913 2972 
Q 2475 2972 2870 2558 
Q 3266 2144 3266 1488 
Q 3266 1056 3080 686 
Q 2894 316 2569 119 
Q 2244 -78 1831 -78 
Q 1128 -78 684 439 
Q 241 956 241 2144 
Q 241 3472 731 4075 
Q 1159 4600 1884 4600 
Q 2425 4600 2770 4297 
Q 3116 3994 3184 3459 
z
M 888 1484 
Q 888 1194 1011 928 
Q 1134 663 1356 523 
Q 1578 384 1822 384 
Q 2178 384 2434 671 
Q 2691 959 2691 1453 
Q 2691 1928 2437 2201 
Q 2184 2475 1800 2475 
Q 1419 2475 1153 2201 
Q 888 1928 888 1484 
z
" transform="scale(0.015625)"/>
       </defs>
       <use xlink:href="#ArialMT-2212"/>
       <use xlink:href="#ArialMT-36" x="58.398438"/>
      </g>
     </g>
    </g>
    <g id="xtick_4">
     <g id="line2d_4">
      <path d="M 175.745012 257.154448 
L 175.745012 3.00024 
" clip-path="url(#p59fda2ed58)" style="fill: none; stroke: #cccccc; stroke-width: 0.5; stroke-linecap: round"/>
     </g>
     <g id="text_4">
      <!-- −4 -->
      <g style="fill: #262626" transform="translate(170.044231 267.81226)scale(0.1 -0.1)">
       <defs>
        <path id="ArialMT-34" d="M 2069 0 
L 2069 1097 
L 81 1097 
L 81 1613 
L 2172 4581 
L 2631 4581 
L 2631 1613 
L 3250 1613 
L 3250 1097 
L 2631 1097 
L 2631 0 
L 2069 0 
z
M 2069 1613 
L 2069 3678 
L 634 1613 
L 2069 1613 
z
" transform="scale(0.015625)"/>
       </defs>
       <use xlink:href="#ArialMT-2212"/>
       <use xlink:href="#ArialMT-34" x="58.398438"/>
      </g>
     </g>
    </g>
    <g id="xtick_5">
     <g id="line2d_5">
      <path d="M 220.363582 257.154448 
L 220.363582 3.00024 
" clip-path="url(#p59fda2ed58)" style="fill: none; stroke: #cccccc; stroke-width: 0.5; stroke-linecap: round"/>
     </g>
     <g id="text_5">
      <!-- −2 -->
      <g style="fill: #262626" transform="translate(214.662801 267.81226)scale(0.1 -0.1)">
       <defs>
        <path id="ArialMT-32" d="M 3222 541 
L 3222 0 
L 194 0 
Q 188 203 259 391 
Q 375 700 629 1000 
Q 884 1300 1366 1694 
Q 2113 2306 2375 2664 
Q 2638 3022 2638 3341 
Q 2638 3675 2398 3904 
Q 2159 4134 1775 4134 
Q 1369 4134 1125 3890 
Q 881 3647 878 3216 
L 300 3275 
Q 359 3922 746 4261 
Q 1134 4600 1788 4600 
Q 2447 4600 2831 4234 
Q 3216 3869 3216 3328 
Q 3216 3053 3103 2787 
Q 2991 2522 2730 2228 
Q 2469 1934 1863 1422 
Q 1356 997 1212 845 
Q 1069 694 975 541 
L 3222 541 
z
" transform="scale(0.015625)"/>
       </defs>
       <use xlink:href="#ArialMT-2212"/>
       <use xlink:href="#ArialMT-32" x="58.398438"/>
      </g>
     </g>
    </g>
    <g id="xtick_6">
     <g id="line2d_6">
      <path d="M 264.982152 257.154448 
L 264.982152 3.00024 
" clip-path="url(#p59fda2ed58)" style="fill: none; stroke: #cccccc; stroke-width: 0.5; stroke-linecap: round"/>
     </g>
     <g id="text_6">
      <!-- 0 -->
      <g style="fill: #262626" transform="translate(262.201683 267.81226)scale(0.1 -0.1)">
       <use xlink:href="#ArialMT-30"/>
      </g>
     </g>
    </g>
    <g id="xtick_7">
     <g id="line2d_7">
      <path d="M 309.600721 257.154448 
L 309.600721 3.00024 
" clip-path="url(#p59fda2ed58)" style="fill: none; stroke: #cccccc; stroke-width: 0.5; stroke-linecap: round"/>
     </g>
     <g id="text_7">
      <!-- 2 -->
      <g style="fill: #262626" transform="translate(306.820253 267.81226)scale(0.1 -0.1)">
       <use xlink:href="#ArialMT-32"/>
      </g>
     </g>
    </g>
    <g id="xtick_8">
     <g id="line2d_8">
      <path d="M 354.219291 257.154448 
L 354.219291 3.00024 
" clip-path="url(#p59fda2ed58)" style="fill: none; stroke: #cccccc; stroke-width: 0.5; stroke-linecap: round"/>
     </g>
     <g id="text_8">
      <!-- 4 -->
      <g style="fill: #262626" transform="translate(351.438822 267.81226)scale(0.1 -0.1)">
       <use xlink:href="#ArialMT-34"/>
      </g>
     </g>
    </g>
    <g id="xtick_9">
     <g id="line2d_9">
      <path d="M 64.198587 257.154448 
L 64.198587 3.00024 
" clip-path="url(#p59fda2ed58)" style="fill: none; stroke: #cccccc; stroke-opacity: 0.25; stroke-width: 0.5; stroke-linecap: round"/>
     </g>
    </g>
    <g id="xtick_10">
     <g id="line2d_10">
      <path d="M 108.817157 257.154448 
L 108.817157 3.00024 
" clip-path="url(#p59fda2ed58)" style="fill: none; stroke: #cccccc; stroke-opacity: 0.25; stroke-width: 0.5; stroke-linecap: round"/>
     </g>
    </g>
    <g id="xtick_11">
     <g id="line2d_11">
      <path d="M 153.435727 257.154448 
L 153.435727 3.00024 
" clip-path="url(#p59fda2ed58)" style="fill: none; stroke: #cccccc; stroke-opacity: 0.25; stroke-width: 0.5; stroke-linecap: round"/>
     </g>
    </g>
    <g id="xtick_12">
     <g id="line2d_12">
      <path d="M 198.054297 257.154448 
L 198.054297 3.00024 
" clip-path="url(#p59fda2ed58)" style="fill: none; stroke: #cccccc; stroke-opacity: 0.25; stroke-width: 0.5; stroke-linecap: round"/>
     </g>
    </g>
    <g id="xtick_13">
     <g id="line2d_13">
      <path d="M 242.672867 257.154448 
L 242.672867 3.00024 
" clip-path="url(#p59fda2ed58)" style="fill: none; stroke: #cccccc; stroke-opacity: 0.25; stroke-width: 0.5; stroke-linecap: round"/>
     </g>
    </g>
    <g id="xtick_14">
     <g id="line2d_14">
      <path d="M 287.291437 257.154448 
L 287.291437 3.00024 
" clip-path="url(#p59fda2ed58)" style="fill: none; stroke: #cccccc; stroke-opacity: 0.25; stroke-width: 0.5; stroke-linecap: round"/>
     </g>
    </g>
    <g id="xtick_15">
     <g id="line2d_15">
      <path d="M 331.910006 257.154448 
L 331.910006 3.00024 
" clip-path="url(#p59fda2ed58)" style="fill: none; stroke: #cccccc; stroke-opacity: 0.25; stroke-width: 0.5; stroke-linecap: round"/>
     </g>
    </g>
    <g id="text_9">
     <!-- Mass balance [m yr$^{-1}$] -->
     <g style="fill: #262626" transform="translate(147.954297 282.79976)scale(0.1 -0.1)">
      <defs>
       <path id="ArialMT-4d" d="M 475 0 
L 475 4581 
L 1388 4581 
L 2472 1338 
Q 2622 884 2691 659 
Q 2769 909 2934 1394 
L 4031 4581 
L 4847 4581 
L 4847 0 
L 4263 0 
L 4263 3834 
L 2931 0 
L 2384 0 
L 1059 3900 
L 1059 0 
L 475 0 
z
" transform="scale(0.015625)"/>
       <path id="ArialMT-61" d="M 2588 409 
Q 2275 144 1986 34 
Q 1697 -75 1366 -75 
Q 819 -75 525 192 
Q 231 459 231 875 
Q 231 1119 342 1320 
Q 453 1522 633 1644 
Q 813 1766 1038 1828 
Q 1203 1872 1538 1913 
Q 2219 1994 2541 2106 
Q 2544 2222 2544 2253 
Q 2544 2597 2384 2738 
Q 2169 2928 1744 2928 
Q 1347 2928 1158 2789 
Q 969 2650 878 2297 
L 328 2372 
Q 403 2725 575 2942 
Q 747 3159 1072 3276 
Q 1397 3394 1825 3394 
Q 2250 3394 2515 3294 
Q 2781 3194 2906 3042 
Q 3031 2891 3081 2659 
Q 3109 2516 3109 2141 
L 3109 1391 
Q 3109 606 3145 398 
Q 3181 191 3288 0 
L 2700 0 
Q 2613 175 2588 409 
z
M 2541 1666 
Q 2234 1541 1622 1453 
Q 1275 1403 1131 1340 
Q 988 1278 909 1158 
Q 831 1038 831 891 
Q 831 666 1001 516 
Q 1172 366 1500 366 
Q 1825 366 2078 508 
Q 2331 650 2450 897 
Q 2541 1088 2541 1459 
L 2541 1666 
z
" transform="scale(0.015625)"/>
       <path id="ArialMT-73" d="M 197 991 
L 753 1078 
Q 800 744 1014 566 
Q 1228 388 1613 388 
Q 2000 388 2187 545 
Q 2375 703 2375 916 
Q 2375 1106 2209 1216 
Q 2094 1291 1634 1406 
Q 1016 1563 777 1677 
Q 538 1791 414 1992 
Q 291 2194 291 2438 
Q 291 2659 392 2848 
Q 494 3038 669 3163 
Q 800 3259 1026 3326 
Q 1253 3394 1513 3394 
Q 1903 3394 2198 3281 
Q 2494 3169 2634 2976 
Q 2775 2784 2828 2463 
L 2278 2388 
Q 2241 2644 2061 2787 
Q 1881 2931 1553 2931 
Q 1166 2931 1000 2803 
Q 834 2675 834 2503 
Q 834 2394 903 2306 
Q 972 2216 1119 2156 
Q 1203 2125 1616 2013 
Q 2213 1853 2448 1751 
Q 2684 1650 2818 1456 
Q 2953 1263 2953 975 
Q 2953 694 2789 445 
Q 2625 197 2315 61 
Q 2006 -75 1616 -75 
Q 969 -75 630 194 
Q 291 463 197 991 
z
" transform="scale(0.015625)"/>
       <path id="ArialMT-20" transform="scale(0.015625)"/>
       <path id="ArialMT-62" d="M 941 0 
L 419 0 
L 419 4581 
L 981 4581 
L 981 2947 
Q 1338 3394 1891 3394 
Q 2197 3394 2470 3270 
Q 2744 3147 2920 2923 
Q 3097 2700 3197 2384 
Q 3297 2069 3297 1709 
Q 3297 856 2875 390 
Q 2453 -75 1863 -75 
Q 1275 -75 941 416 
L 941 0 
z
M 934 1684 
Q 934 1088 1097 822 
Q 1363 388 1816 388 
Q 2184 388 2453 708 
Q 2722 1028 2722 1663 
Q 2722 2313 2464 2622 
Q 2206 2931 1841 2931 
Q 1472 2931 1203 2611 
Q 934 2291 934 1684 
z
" transform="scale(0.015625)"/>
       <path id="ArialMT-6c" d="M 409 0 
L 409 4581 
L 972 4581 
L 972 0 
L 409 0 
z
" transform="scale(0.015625)"/>
       <path id="ArialMT-6e" d="M 422 0 
L 422 3319 
L 928 3319 
L 928 2847 
Q 1294 3394 1984 3394 
Q 2284 3394 2536 3286 
Q 2788 3178 2913 3003 
Q 3038 2828 3088 2588 
Q 3119 2431 3119 2041 
L 3119 0 
L 2556 0 
L 2556 2019 
Q 2556 2363 2490 2533 
Q 2425 2703 2258 2804 
Q 2091 2906 1866 2906 
Q 1506 2906 1245 2678 
Q 984 2450 984 1813 
L 984 0 
L 422 0 
z
" transform="scale(0.015625)"/>
       <path id="ArialMT-63" d="M 2588 1216 
L 3141 1144 
Q 3050 572 2676 248 
Q 2303 -75 1759 -75 
Q 1078 -75 664 370 
Q 250 816 250 1647 
Q 250 2184 428 2587 
Q 606 2991 970 3192 
Q 1334 3394 1763 3394 
Q 2303 3394 2647 3120 
Q 2991 2847 3088 2344 
L 2541 2259 
Q 2463 2594 2264 2762 
Q 2066 2931 1784 2931 
Q 1359 2931 1093 2626 
Q 828 2322 828 1663 
Q 828 994 1084 691 
Q 1341 388 1753 388 
Q 2084 388 2306 591 
Q 2528 794 2588 1216 
z
" transform="scale(0.015625)"/>
       <path id="ArialMT-65" d="M 2694 1069 
L 3275 997 
Q 3138 488 2766 206 
Q 2394 -75 1816 -75 
Q 1088 -75 661 373 
Q 234 822 234 1631 
Q 234 2469 665 2931 
Q 1097 3394 1784 3394 
Q 2450 3394 2872 2941 
Q 3294 2488 3294 1666 
Q 3294 1616 3291 1516 
L 816 1516 
Q 847 969 1125 678 
Q 1403 388 1819 388 
Q 2128 388 2347 550 
Q 2566 713 2694 1069 
z
M 847 1978 
L 2700 1978 
Q 2663 2397 2488 2606 
Q 2219 2931 1791 2931 
Q 1403 2931 1139 2672 
Q 875 2413 847 1978 
z
" transform="scale(0.015625)"/>
       <path id="ArialMT-5b" d="M 434 -1272 
L 434 4581 
L 1675 4581 
L 1675 4116 
L 997 4116 
L 997 -806 
L 1675 -806 
L 1675 -1272 
L 434 -1272 
z
" transform="scale(0.015625)"/>
       <path id="ArialMT-6d" d="M 422 0 
L 422 3319 
L 925 3319 
L 925 2853 
Q 1081 3097 1340 3245 
Q 1600 3394 1931 3394 
Q 2300 3394 2536 3241 
Q 2772 3088 2869 2813 
Q 3263 3394 3894 3394 
Q 4388 3394 4653 3120 
Q 4919 2847 4919 2278 
L 4919 0 
L 4359 0 
L 4359 2091 
Q 4359 2428 4304 2576 
Q 4250 2725 4106 2815 
Q 3963 2906 3769 2906 
Q 3419 2906 3187 2673 
Q 2956 2441 2956 1928 
L 2956 0 
L 2394 0 
L 2394 2156 
Q 2394 2531 2256 2718 
Q 2119 2906 1806 2906 
Q 1569 2906 1367 2781 
Q 1166 2656 1075 2415 
Q 984 2175 984 1722 
L 984 0 
L 422 0 
z
" transform="scale(0.015625)"/>
       <path id="ArialMT-79" d="M 397 -1278 
L 334 -750 
Q 519 -800 656 -800 
Q 844 -800 956 -737 
Q 1069 -675 1141 -563 
Q 1194 -478 1313 -144 
Q 1328 -97 1363 -6 
L 103 3319 
L 709 3319 
L 1400 1397 
Q 1534 1031 1641 628 
Q 1738 1016 1872 1384 
L 2581 3319 
L 3144 3319 
L 1881 -56 
Q 1678 -603 1566 -809 
Q 1416 -1088 1222 -1217 
Q 1028 -1347 759 -1347 
Q 597 -1347 397 -1278 
z
" transform="scale(0.015625)"/>
       <path id="ArialMT-72" d="M 416 0 
L 416 3319 
L 922 3319 
L 922 2816 
Q 1116 3169 1280 3281 
Q 1444 3394 1641 3394 
Q 1925 3394 2219 3213 
L 2025 2691 
Q 1819 2813 1613 2813 
Q 1428 2813 1281 2702 
Q 1134 2591 1072 2394 
Q 978 2094 978 1738 
L 978 0 
L 416 0 
z
" transform="scale(0.015625)"/>
       <path id="DejaVuSans-2212" d="M 678 2272 
L 4684 2272 
L 4684 1741 
L 678 1741 
L 678 2272 
z
" transform="scale(0.015625)"/>
       <path id="DejaVuSans-31" d="M 794 531 
L 1825 531 
L 1825 4091 
L 703 3866 
L 703 4441 
L 1819 4666 
L 2450 4666 
L 2450 531 
L 3481 531 
L 3481 0 
L 794 0 
L 794 531 
z
" transform="scale(0.015625)"/>
       <path id="ArialMT-5d" d="M 1363 -1272 
L 122 -1272 
L 122 -806 
L 800 -806 
L 800 4116 
L 122 4116 
L 122 4581 
L 1363 4581 
L 1363 -1272 
z
" transform="scale(0.015625)"/>
      </defs>
      <use xlink:href="#ArialMT-4d" transform="translate(0 0.684375)"/>
      <use xlink:href="#ArialMT-61" transform="translate(83.300781 0.684375)"/>
      <use xlink:href="#ArialMT-73" transform="translate(138.916016 0.684375)"/>
      <use xlink:href="#ArialMT-73" transform="translate(188.916016 0.684375)"/>
      <use xlink:href="#ArialMT-20" transform="translate(238.916016 0.684375)"/>
      <use xlink:href="#ArialMT-62" transform="translate(266.699219 0.684375)"/>
      <use xlink:href="#ArialMT-61" transform="translate(322.314453 0.684375)"/>
      <use xlink:href="#ArialMT-6c" transform="translate(377.929688 0.684375)"/>
      <use xlink:href="#ArialMT-61" transform="translate(400.146484 0.684375)"/>
      <use xlink:href="#ArialMT-6e" transform="translate(455.761719 0.684375)"/>
      <use xlink:href="#ArialMT-63" transform="translate(511.376953 0.684375)"/>
      <use xlink:href="#ArialMT-65" transform="translate(561.376953 0.684375)"/>
      <use xlink:href="#ArialMT-20" transform="translate(616.992188 0.684375)"/>
      <use xlink:href="#ArialMT-5b" transform="translate(644.775391 0.684375)"/>
      <use xlink:href="#ArialMT-6d" transform="translate(672.558594 0.684375)"/>
      <use xlink:href="#ArialMT-20" transform="translate(755.859375 0.684375)"/>
      <use xlink:href="#ArialMT-79" transform="translate(783.642578 0.684375)"/>
      <use xlink:href="#ArialMT-72" transform="translate(833.642578 0.684375)"/>
      <use xlink:href="#DejaVuSans-2212" transform="translate(867.900391 38.965625)scale(0.7)"/>
      <use xlink:href="#DejaVuSans-31" transform="translate(926.552734 38.965625)scale(0.7)"/>
      <use xlink:href="#ArialMT-5d" transform="translate(973.823242 0.684375)"/>
     </g>
    </g>
   </g>
   <g id="matplotlib.axis_2">
    <g id="ytick_1">
     <g id="line2d_16">
      <path d="M 41.889303 257.154448 
L 354.219291 257.154448 
" clip-path="url(#p59fda2ed58)" style="fill: none; stroke: #cccccc; stroke-width: 0.5; stroke-linecap: round"/>
     </g>
     <g id="text_10">
      <!-- 0 -->
      <g style="fill: #262626" transform="translate(32.828365 260.733354)scale(0.1 -0.1)">
       <use xlink:href="#ArialMT-30"/>
      </g>
     </g>
    </g>
    <g id="ytick_2">
     <g id="line2d_17">
      <path d="M 41.889303 208.744122 
L 354.219291 208.744122 
" clip-path="url(#p59fda2ed58)" style="fill: none; stroke: #cccccc; stroke-width: 0.5; stroke-linecap: round"/>
     </g>
     <g id="text_11">
      <!-- 500 -->
      <g style="fill: #262626" transform="translate(21.70649 212.323029)scale(0.1 -0.1)">
       <defs>
        <path id="ArialMT-35" d="M 266 1200 
L 856 1250 
Q 922 819 1161 601 
Q 1400 384 1738 384 
Q 2144 384 2425 690 
Q 2706 997 2706 1503 
Q 2706 1984 2436 2262 
Q 2166 2541 1728 2541 
Q 1456 2541 1237 2417 
Q 1019 2294 894 2097 
L 366 2166 
L 809 4519 
L 3088 4519 
L 3088 3981 
L 1259 3981 
L 1013 2750 
Q 1425 3038 1878 3038 
Q 2478 3038 2890 2622 
Q 3303 2206 3303 1553 
Q 3303 931 2941 478 
Q 2500 -78 1738 -78 
Q 1113 -78 717 272 
Q 322 622 266 1200 
z
" transform="scale(0.015625)"/>
       </defs>
       <use xlink:href="#ArialMT-35"/>
       <use xlink:href="#ArialMT-30" x="55.615234"/>
       <use xlink:href="#ArialMT-30" x="111.230469"/>
      </g>
     </g>
    </g>
    <g id="ytick_3">
     <g id="line2d_18">
      <path d="M 41.889303 160.333797 
L 354.219291 160.333797 
" clip-path="url(#p59fda2ed58)" style="fill: none; stroke: #cccccc; stroke-width: 0.5; stroke-linecap: round"/>
     </g>
     <g id="text_12">
      <!-- 1000 -->
      <g style="fill: #262626" transform="translate(16.145553 163.912703)scale(0.1 -0.1)">
       <use xlink:href="#ArialMT-31"/>
       <use xlink:href="#ArialMT-30" x="55.615234"/>
       <use xlink:href="#ArialMT-30" x="111.230469"/>
       <use xlink:href="#ArialMT-30" x="166.845703"/>
      </g>
     </g>
    </g>
    <g id="ytick_4">
     <g id="line2d_19">
      <path d="M 41.889303 111.923472 
L 354.219291 111.923472 
" clip-path="url(#p59fda2ed58)" style="fill: none; stroke: #cccccc; stroke-width: 0.5; stroke-linecap: round"/>
     </g>
     <g id="text_13">
      <!-- 1500 -->
      <g style="fill: #262626" transform="translate(16.145553 115.502378)scale(0.1 -0.1)">
       <use xlink:href="#ArialMT-31"/>
       <use xlink:href="#ArialMT-35" x="55.615234"/>
       <use xlink:href="#ArialMT-30" x="111.230469"/>
       <use xlink:href="#ArialMT-30" x="166.845703"/>
      </g>
     </g>
    </g>
    <g id="ytick_5">
     <g id="line2d_20">
      <path d="M 41.889303 63.513147 
L 354.219291 63.513147 
" clip-path="url(#p59fda2ed58)" style="fill: none; stroke: #cccccc; stroke-width: 0.5; stroke-linecap: round"/>
     </g>
     <g id="text_14">
      <!-- 2000 -->
      <g style="fill: #262626" transform="translate(16.145553 67.092053)scale(0.1 -0.1)">
       <use xlink:href="#ArialMT-32"/>
       <use xlink:href="#ArialMT-30" x="55.615234"/>
       <use xlink:href="#ArialMT-30" x="111.230469"/>
       <use xlink:href="#ArialMT-30" x="166.845703"/>
      </g>
     </g>
    </g>
    <g id="ytick_6">
     <g id="line2d_21">
      <path d="M 41.889303 15.102821 
L 354.219291 15.102821 
" clip-path="url(#p59fda2ed58)" style="fill: none; stroke: #cccccc; stroke-width: 0.5; stroke-linecap: round"/>
     </g>
     <g id="text_15">
      <!-- 2500 -->
      <g style="fill: #262626" transform="translate(16.145553 18.681728)scale(0.1 -0.1)">
       <use xlink:href="#ArialMT-32"/>
       <use xlink:href="#ArialMT-35" x="55.615234"/>
       <use xlink:href="#ArialMT-30" x="111.230469"/>
       <use xlink:href="#ArialMT-30" x="166.845703"/>
      </g>
     </g>
    </g>
    <g id="ytick_7">
     <g id="line2d_22">
      <path d="M 41.889303 232.949285 
L 354.219291 232.949285 
" clip-path="url(#p59fda2ed58)" style="fill: none; stroke: #cccccc; stroke-opacity: 0.25; stroke-width: 0.5; stroke-linecap: round"/>
     </g>
    </g>
    <g id="ytick_8">
     <g id="line2d_23">
      <path d="M 41.889303 184.53896 
L 354.219291 184.53896 
" clip-path="url(#p59fda2ed58)" style="fill: none; stroke: #cccccc; stroke-opacity: 0.25; stroke-width: 0.5; stroke-linecap: round"/>
     </g>
    </g>
    <g id="ytick_9">
     <g id="line2d_24">
      <path d="M 41.889303 136.128634 
L 354.219291 136.128634 
" clip-path="url(#p59fda2ed58)" style="fill: none; stroke: #cccccc; stroke-opacity: 0.25; stroke-width: 0.5; stroke-linecap: round"/>
     </g>
    </g>
    <g id="ytick_10">
     <g id="line2d_25">
      <path d="M 41.889303 87.718309 
L 354.219291 87.718309 
" clip-path="url(#p59fda2ed58)" style="fill: none; stroke: #cccccc; stroke-opacity: 0.25; stroke-width: 0.5; stroke-linecap: round"/>
     </g>
    </g>
    <g id="ytick_11">
     <g id="line2d_26">
      <path d="M 41.889303 39.307984 
L 354.219291 39.307984 
" clip-path="url(#p59fda2ed58)" style="fill: none; stroke: #cccccc; stroke-opacity: 0.25; stroke-width: 0.5; stroke-linecap: round"/>
     </g>
    </g>
    <g id="text_16">
     <!-- Elevation [m] -->
     <g style="fill: #262626" transform="translate(10.158053 158.977344)rotate(-90)scale(0.1 -0.1)">
      <defs>
       <path id="ArialMT-45" d="M 506 0 
L 506 4581 
L 3819 4581 
L 3819 4041 
L 1113 4041 
L 1113 2638 
L 3647 2638 
L 3647 2100 
L 1113 2100 
L 1113 541 
L 3925 541 
L 3925 0 
L 506 0 
z
" transform="scale(0.015625)"/>
       <path id="ArialMT-76" d="M 1344 0 
L 81 3319 
L 675 3319 
L 1388 1331 
Q 1503 1009 1600 663 
Q 1675 925 1809 1294 
L 2547 3319 
L 3125 3319 
L 1869 0 
L 1344 0 
z
" transform="scale(0.015625)"/>
       <path id="ArialMT-74" d="M 1650 503 
L 1731 6 
Q 1494 -44 1306 -44 
Q 1000 -44 831 53 
Q 663 150 594 308 
Q 525 466 525 972 
L 525 2881 
L 113 2881 
L 113 3319 
L 525 3319 
L 525 4141 
L 1084 4478 
L 1084 3319 
L 1650 3319 
L 1650 2881 
L 1084 2881 
L 1084 941 
Q 1084 700 1114 631 
Q 1144 563 1211 522 
Q 1278 481 1403 481 
Q 1497 481 1650 503 
z
" transform="scale(0.015625)"/>
       <path id="ArialMT-69" d="M 425 3934 
L 425 4581 
L 988 4581 
L 988 3934 
L 425 3934 
z
M 425 0 
L 425 3319 
L 988 3319 
L 988 0 
L 425 0 
z
" transform="scale(0.015625)"/>
       <path id="ArialMT-6f" d="M 213 1659 
Q 213 2581 725 3025 
Q 1153 3394 1769 3394 
Q 2453 3394 2887 2945 
Q 3322 2497 3322 1706 
Q 3322 1066 3130 698 
Q 2938 331 2570 128 
Q 2203 -75 1769 -75 
Q 1072 -75 642 372 
Q 213 819 213 1659 
z
M 791 1659 
Q 791 1022 1069 705 
Q 1347 388 1769 388 
Q 2188 388 2466 706 
Q 2744 1025 2744 1678 
Q 2744 2294 2464 2611 
Q 2184 2928 1769 2928 
Q 1347 2928 1069 2612 
Q 791 2297 791 1659 
z
" transform="scale(0.015625)"/>
      </defs>
      <use xlink:href="#ArialMT-45"/>
      <use xlink:href="#ArialMT-6c" x="66.699219"/>
      <use xlink:href="#ArialMT-65" x="88.916016"/>
      <use xlink:href="#ArialMT-76" x="144.53125"/>
      <use xlink:href="#ArialMT-61" x="194.53125"/>
      <use xlink:href="#ArialMT-74" x="250.146484"/>
      <use xlink:href="#ArialMT-69" x="277.929688"/>
      <use xlink:href="#ArialMT-6f" x="300.146484"/>
      <use xlink:href="#ArialMT-6e" x="355.761719"/>
      <use xlink:href="#ArialMT-20" x="411.376953"/>
      <use xlink:href="#ArialMT-5b" x="439.160156"/>
      <use xlink:href="#ArialMT-6d" x="466.943359"/>
      <use xlink:href="#ArialMT-5d" x="550.244141"/>
     </g>
    </g>
   </g>
   <g id="line2d_27">
    <path d="M 128.084327 168.362463 
L 221.262084 104.916388 
L 314.439842 41.470312 
" clip-path="url(#p59fda2ed58)" style="fill: none; stroke: #1f77b4; stroke-width: 3; stroke-linecap: round"/>
   </g>
   <g id="line2d_28">
    <path d="M 138.620374 239.668638 
L 230.549903 177.538827 
L 322.479432 115.409015 
" clip-path="url(#p59fda2ed58)" style="fill: none; stroke: #aec7e8; stroke-width: 3; stroke-linecap: round"/>
   </g>
   <g id="line2d_29">
    <path d="M 146.426027 241.043491 
L 183.209394 216.349384 
L 219.992762 191.655277 
" clip-path="url(#p59fda2ed58)" style="fill: none; stroke: #ff7f0e; stroke-width: 3; stroke-linecap: round"/>
   </g>
   <g id="line2d_30">
    <path d="M 174.582609 148.482949 
L 205.180066 129.178784 
L 235.777524 109.874618 
" clip-path="url(#p59fda2ed58)" style="fill: none; stroke: #ffbb78; stroke-width: 3; stroke-linecap: round"/>
   </g>
   <g id="line2d_31">
    <path d="M 220.579124 173.210944 
L 257.440122 152.733376 
L 294.30112 132.255808 
" clip-path="url(#p59fda2ed58)" style="fill: none; stroke: #2ca02c; stroke-width: 3; stroke-linecap: round"/>
   </g>
   <g id="line2d_32">
    <path d="M 63.277937 234.263916 
L 153.683482 172.948898 
L 244.089027 111.633881 
" clip-path="url(#p59fda2ed58)" style="fill: none; stroke: #98df8a; stroke-width: 3; stroke-linecap: round"/>
   </g>
   <g id="line2d_33">
    <path d="M 176.003005 134.579504 
L 242.249063 97.594016 
L 308.495121 60.608527 
" clip-path="url(#p59fda2ed58)" style="fill: none; stroke: #d62728; stroke-width: 3; stroke-linecap: round"/>
   </g>
   <g id="line2d_34">
    <path d="M 156.211712 180.588677 
L 176.614212 153.357869 
L 197.016713 126.127061 
" clip-path="url(#p59fda2ed58)" style="fill: none; stroke: #ff9896; stroke-width: 3; stroke-linecap: round"/>
   </g>
   <g id="line2d_35">
    <path d="M 181.599419 177.858335 
L 224.412404 160.127527 
L 267.22539 142.396719 
" clip-path="url(#p59fda2ed58)" style="fill: none; stroke: #9467bd; stroke-width: 3; stroke-linecap: round"/>
   </g>
   <g id="line2d_36">
    <path d="M 15.071731 245.367778 
L 175.470383 175.048185 
L 335.869035 104.728591 
" clip-path="url(#p59fda2ed58)" style="fill: none; stroke: #c5b0d5; stroke-width: 3; stroke-linecap: round"/>
   </g>
   <g id="line2d_37">
    <path d="M 171.552053 198.908606 
L 231.337771 164.160768 
L 291.123489 129.41293 
" clip-path="url(#p59fda2ed58)" style="fill: none; stroke: #8c564b; stroke-width: 3; stroke-linecap: round"/>
   </g>
   <g id="line2d_38">
    <path d="M 228.729564 121.605537 
L 274.497062 15.102821 
" clip-path="url(#p59fda2ed58)" style="fill: none; stroke: #9edae5; stroke-width: 3; stroke-linecap: round"/>
   </g>
   <g id="line2d_39">
    <path d="M 41.889303 257.154448 
L 354.219291 48.617662 
" clip-path="url(#p59fda2ed58)" style="fill: none; stroke-dasharray: 14.8,6.4; stroke-dashoffset: 0; stroke: #000000; stroke-width: 4"/>
   </g>
   <g id="line2d_40">
    <defs>
     <path id="m90f214681c" d="M 0 3 
C 0.795609 3 1.55874 2.683901 2.12132 2.12132 
C 2.683901 1.55874 3 0.795609 3 0 
C 3 -0.795609 2.683901 -1.55874 2.12132 -2.12132 
C 1.55874 -2.683901 0.795609 -3 0 -3 
C -0.795609 -3 -1.55874 -2.683901 -2.12132 -2.12132 
C -2.683901 -1.55874 -3 -0.795609 -3 0 
C -3 0.795609 -2.683901 1.55874 -2.12132 2.12132 
C -1.55874 2.683901 -0.795609 3 0 3 
z
" style="stroke: #000000"/>
    </defs>
    <g clip-path="url(#p59fda2ed58)">
     <use xlink:href="#m90f214681c" x="130.971993" y="168.362463" style="fill: #1f77b4; stroke: #000000"/>
     <use xlink:href="#m90f214681c" x="169.671929" y="149.350032" style="fill: #1f77b4; stroke: #000000"/>
     <use xlink:href="#m90f214681c" x="174.401993" y="142.835078" style="fill: #1f77b4; stroke: #000000"/>
     <use xlink:href="#m90f214681c" x="180.653055" y="128.086825" style="fill: #1f77b4; stroke: #000000"/>
     <use xlink:href="#m90f214681c" x="206.337734" y="111.826651" style="fill: #1f77b4; stroke: #000000"/>
     <use xlink:href="#m90f214681c" x="240.227323" y="91.811886" style="fill: #1f77b4; stroke: #000000"/>
     <use xlink:href="#m90f214681c" x="249.763501" y="81.15871" style="fill: #1f77b4; stroke: #000000"/>
     <use xlink:href="#m90f214681c" x="277.730713" y="71.035765" style="fill: #1f77b4; stroke: #000000"/>
     <use xlink:href="#m90f214681c" x="320.829728" y="41.470312" style="fill: #1f77b4; stroke: #000000"/>
    </g>
   </g>
   <g id="line2d_41">
    <defs>
     <path id="m96833b66ea" d="M 0 -3 
L -3 3 
L 3 3 
z
" style="stroke: #000000; stroke-linejoin: miter"/>
    </defs>
    <g clip-path="url(#p59fda2ed58)">
     <use xlink:href="#m96833b66ea" x="108.817157" y="239.668638" style="fill: #aec7e8; stroke: #000000; stroke-linejoin: miter"/>
     <use xlink:href="#m96833b66ea" x="169.609959" y="230.528769" style="fill: #aec7e8; stroke: #000000; stroke-linejoin: miter"/>
     <use xlink:href="#m96833b66ea" x="171.283155" y="208.840943" style="fill: #aec7e8; stroke: #000000; stroke-linejoin: miter"/>
     <use xlink:href="#m96833b66ea" x="210.324404" y="198.994283" style="fill: #aec7e8; stroke: #000000; stroke-linejoin: miter"/>
     <use xlink:href="#m96833b66ea" x="239.198992" y="185.825291" style="fill: #aec7e8; stroke: #000000; stroke-linejoin: miter"/>
     <use xlink:href="#m96833b66ea" x="255.314795" y="166.433498" style="fill: #aec7e8; stroke: #000000; stroke-linejoin: miter"/>
     <use xlink:href="#m96833b66ea" x="278.293358" y="150.135355" style="fill: #aec7e8; stroke: #000000; stroke-linejoin: miter"/>
     <use xlink:href="#m96833b66ea" x="269.444009" y="145.375007" style="fill: #aec7e8; stroke: #000000; stroke-linejoin: miter"/>
     <use xlink:href="#m96833b66ea" x="291.455836" y="124.219694" style="fill: #aec7e8; stroke: #000000; stroke-linejoin: miter"/>
     <use xlink:href="#m96833b66ea" x="291.753293" y="115.409015" style="fill: #aec7e8; stroke: #000000; stroke-linejoin: miter"/>
    </g>
   </g>
   <g id="line2d_42">
    <defs>
     <path id="mc974155e4a" d="M -3 3 
L 3 3 
L 3 -3 
L -3 -3 
z
" style="stroke: #000000; stroke-linejoin: miter"/>
    </defs>
    <g clip-path="url(#p59fda2ed58)">
     <use xlink:href="#mc974155e4a" x="140.496342" y="241.043491" style="fill: #ff7f0e; stroke: #000000; stroke-linejoin: miter"/>
     <use xlink:href="#mc974155e4a" x="166.709752" y="230.189896" style="fill: #ff7f0e; stroke: #000000; stroke-linejoin: miter"/>
     <use xlink:href="#mc974155e4a" x="189.952504" y="214.318953" style="fill: #ff7f0e; stroke: #000000; stroke-linejoin: miter"/>
     <use xlink:href="#mc974155e4a" x="208.10941" y="200.631935" style="fill: #ff7f0e; stroke: #000000; stroke-linejoin: miter"/>
     <use xlink:href="#mc974155e4a" x="202.850793" y="191.655277" style="fill: #ff7f0e; stroke: #000000; stroke-linejoin: miter"/>
    </g>
   </g>
   <g id="line2d_43">
    <defs>
     <path id="mcdb748898a" d="M -1.5 3 
L 0 1.5 
L 1.5 3 
L 3 1.5 
L 1.5 0 
L 3 -1.5 
L 1.5 -3 
L 0 -1.5 
L -1.5 -3 
L -3 -1.5 
L -1.5 0 
L -3 1.5 
z
" style="stroke: #000000; stroke-linejoin: miter"/>
    </defs>
    <g clip-path="url(#p59fda2ed58)">
     <use xlink:href="#mcdb748898a" x="151.152149" y="148.482949" style="fill: #ffbb78; stroke: #000000; stroke-linejoin: miter"/>
     <use xlink:href="#mcdb748898a" x="173.523039" y="146.563964" style="fill: #ffbb78; stroke: #000000; stroke-linejoin: miter"/>
     <use xlink:href="#mcdb748898a" x="214.296404" y="123.476596" style="fill: #ffbb78; stroke: #000000; stroke-linejoin: miter"/>
     <use xlink:href="#mcdb748898a" x="228.838135" y="109.874618" style="fill: #ffbb78; stroke: #000000; stroke-linejoin: miter"/>
    </g>
   </g>
   <g id="line2d_44">
    <defs>
     <path id="md7309c646c" d="M -3 -0 
L 3 3 
L 3 -3 
z
" style="stroke: #000000; stroke-linejoin: miter"/>
    </defs>
    <g clip-path="url(#p59fda2ed58)">
     <use xlink:href="#md7309c646c" x="217.727899" y="173.210944" style="fill: #2ca02c; stroke: #000000; stroke-linejoin: miter"/>
     <use xlink:href="#md7309c646c" x="262.283054" y="149.720764" style="fill: #2ca02c; stroke: #000000; stroke-linejoin: miter"/>
     <use xlink:href="#md7309c646c" x="281.257302" y="137.3752" style="fill: #2ca02c; stroke: #000000; stroke-linejoin: miter"/>
     <use xlink:href="#md7309c646c" x="291.474427" y="132.255808" style="fill: #2ca02c; stroke: #000000; stroke-linejoin: miter"/>
    </g>
   </g>
   <g id="line2d_45">
    <defs>
     <path id="mc0c4ee3907" d="M -0 4.242641 
L 4.242641 0 
L 0 -4.242641 
L -4.242641 -0 
z
" style="stroke: #000000; stroke-linejoin: miter"/>
    </defs>
    <g clip-path="url(#p59fda2ed58)">
     <use xlink:href="#mc0c4ee3907" x="62.993886" y="234.263916" style="fill: #98df8a; stroke: #000000; stroke-linejoin: miter"/>
     <use xlink:href="#mc0c4ee3907" x="182.66089" y="160.557259" style="fill: #98df8a; stroke: #000000; stroke-linejoin: miter"/>
     <use xlink:href="#mc0c4ee3907" x="209.342795" y="130.006568" style="fill: #98df8a; stroke: #000000; stroke-linejoin: miter"/>
     <use xlink:href="#mc0c4ee3907" x="259.137119" y="111.633881" style="fill: #98df8a; stroke: #000000; stroke-linejoin: miter"/>
    </g>
   </g>
   <g id="line2d_46">
    <defs>
     <path id="ma48ca99422" d="M 0 -3 
L -0.673542 -0.927051 
L -2.85317 -0.927051 
L -1.089814 0.354102 
L -1.763356 2.427051 
L -0 1.145898 
L 1.763356 2.427051 
L 1.089814 0.354102 
L 2.85317 -0.927051 
L 0.673542 -0.927051 
z
" style="stroke: #000000; stroke-linejoin: bevel"/>
    </defs>
    <g clip-path="url(#p59fda2ed58)">
     <use xlink:href="#ma48ca99422" x="166.653978" y="134.579504" style="fill: #d62728; stroke: #000000; stroke-linejoin: bevel"/>
     <use xlink:href="#ma48ca99422" x="188.553619" y="123.655464" style="fill: #d62728; stroke: #000000; stroke-linejoin: bevel"/>
     <use xlink:href="#ma48ca99422" x="197.89682" y="111.90069" style="fill: #d62728; stroke: #000000; stroke-linejoin: bevel"/>
     <use xlink:href="#ma48ca99422" x="246.382818" y="92.652576" style="fill: #d62728; stroke: #000000; stroke-linejoin: bevel"/>
     <use xlink:href="#ma48ca99422" x="277.337034" y="77.699308" style="fill: #d62728; stroke: #000000; stroke-linejoin: bevel"/>
     <use xlink:href="#ma48ca99422" x="270.983349" y="70.648828" style="fill: #d62728; stroke: #000000; stroke-linejoin: bevel"/>
     <use xlink:href="#ma48ca99422" x="278.937849" y="60.608527" style="fill: #d62728; stroke: #000000; stroke-linejoin: bevel"/>
    </g>
   </g>
   <g id="line2d_47">
    <defs>
     <path id="m09342712ad" d="M 3 0 
L -3 -3 
L -3 3 
z
" style="stroke: #000000; stroke-linejoin: miter"/>
    </defs>
    <g clip-path="url(#p59fda2ed58)">
     <use xlink:href="#m09342712ad" x="150.089334" y="180.588677" style="fill: #ff9896; stroke: #000000; stroke-linejoin: miter"/>
     <use xlink:href="#m09342712ad" x="163.02872" y="170.277278" style="fill: #ff9896; stroke: #000000; stroke-linejoin: miter"/>
     <use xlink:href="#m09342712ad" x="177.864394" y="157.351721" style="fill: #ff9896; stroke: #000000; stroke-linejoin: miter"/>
     <use xlink:href="#m09342712ad" x="188.535669" y="139.846547" style="fill: #ff9896; stroke: #000000; stroke-linejoin: miter"/>
     <use xlink:href="#m09342712ad" x="193.59244" y="126.127061" style="fill: #ff9896; stroke: #000000; stroke-linejoin: miter"/>
    </g>
   </g>
   <g id="line2d_48">
    <defs>
     <path id="m0283f89d35" d="M -1 3 
L 1 3 
L 1 1 
L 3 1 
L 3 -1 
L 1 -1 
L 1 -3 
L -1 -3 
L -1 -1 
L -3 -1 
L -3 1 
L -1 1 
z
" style="stroke: #000000; stroke-linejoin: miter"/>
    </defs>
    <g clip-path="url(#p59fda2ed58)">
     <use xlink:href="#m0283f89d35" x="156.707756" y="177.858335" style="fill: #9467bd; stroke: #000000; stroke-linejoin: miter"/>
     <use xlink:href="#m0283f89d35" x="203.755559" y="169.510243" style="fill: #9467bd; stroke: #000000; stroke-linejoin: miter"/>
     <use xlink:href="#m0283f89d35" x="242.182062" y="154.15664" style="fill: #9467bd; stroke: #000000; stroke-linejoin: miter"/>
     <use xlink:href="#m0283f89d35" x="268.522538" y="142.396719" style="fill: #9467bd; stroke: #000000; stroke-linejoin: miter"/>
    </g>
   </g>
   <g id="line2d_49">
    <defs>
     <path id="mc3c8898d2d" d="M 0 -3 
L -2.85317 -0.927051 
L -1.763356 2.427051 
L 1.763356 2.427051 
L 2.85317 -0.927051 
z
" style="stroke: #000000; stroke-linejoin: miter"/>
    </defs>
    <g clip-path="url(#p59fda2ed58)">
     <use xlink:href="#mc3c8898d2d" x="-1" y="241.631205" style="fill: #c5b0d5; stroke: #000000; stroke-linejoin: miter"/>
     <use xlink:href="#mc3c8898d2d" x="71.516033" y="225.14554" style="fill: #c5b0d5; stroke: #000000; stroke-linejoin: miter"/>
     <use xlink:href="#mc3c8898d2d" x="62.246525" y="214.413455" style="fill: #c5b0d5; stroke: #000000; stroke-linejoin: miter"/>
     <use xlink:href="#mc3c8898d2d" x="197.790091" y="191.011143" style="fill: #c5b0d5; stroke: #000000; stroke-linejoin: miter"/>
     <use xlink:href="#mc3c8898d2d" x="227.428684" y="159.187871" style="fill: #c5b0d5; stroke: #000000; stroke-linejoin: miter"/>
     <use xlink:href="#mc3c8898d2d" x="257.880363" y="140.666457" style="fill: #c5b0d5; stroke: #000000; stroke-linejoin: miter"/>
     <use xlink:href="#mc3c8898d2d" x="281.140448" y="126.054031" style="fill: #c5b0d5; stroke: #000000; stroke-linejoin: miter"/>
     <use xlink:href="#mc3c8898d2d" x="321.647735" y="104.728591" style="fill: #c5b0d5; stroke: #000000; stroke-linejoin: miter"/>
    </g>
   </g>
   <g id="line2d_50">
    <defs>
     <path id="mcd36022aa2" d="M -0 3 
L 3 -3 
L -3 -3 
z
" style="stroke: #000000; stroke-linejoin: miter"/>
    </defs>
    <g clip-path="url(#p59fda2ed58)">
     <use xlink:href="#mcd36022aa2" x="171.956643" y="198.908606" style="fill: #8c564b; stroke: #000000; stroke-linejoin: miter"/>
     <use xlink:href="#mcd36022aa2" x="237.498552" y="154.113851" style="fill: #8c564b; stroke: #000000; stroke-linejoin: miter"/>
     <use xlink:href="#mcd36022aa2" x="253.09449" y="137.53945" style="fill: #8c564b; stroke: #000000; stroke-linejoin: miter"/>
     <use xlink:href="#mcd36022aa2" x="291.724194" y="129.41293" style="fill: #8c564b; stroke: #000000; stroke-linejoin: miter"/>
    </g>
   </g>
   <g id="patch_3">
    <path d="M 41.889303 257.154448 
L 41.889303 3.00024 
" style="fill: none; stroke: #cccccc; stroke-width: 0.8; stroke-linejoin: miter; stroke-linecap: square"/>
   </g>
   <g id="patch_4">
    <path d="M 354.219291 257.154448 
L 354.219291 3.00024 
" style="fill: none; stroke: #cccccc; stroke-width: 0.8; stroke-linejoin: miter; stroke-linecap: square"/>
   </g>
   <g id="patch_5">
    <path d="M 41.889303 257.154448 
L 354.219291 257.154448 
" style="fill: none; stroke: #cccccc; stroke-width: 0.8; stroke-linejoin: miter; stroke-linecap: square"/>
   </g>
   <g id="patch_6">
    <path d="M 41.889303 3.00024 
L 354.219291 3.00024 
" style="fill: none; stroke: #cccccc; stroke-width: 0.8; stroke-linejoin: miter; stroke-linecap: square"/>
   </g>
   <g id="legend_1">
    <g id="patch_7">
     <path d="M 46.747303 126.604893 
L 134.522037 126.604893 
Q 135.910037 126.604893 135.910037 125.216893 
L 135.910037 7.85824 
Q 135.910037 6.47024 134.522037 6.47024 
L 46.747303 6.47024 
Q 45.359303 6.47024 45.359303 7.85824 
L 45.359303 125.216893 
Q 45.359303 126.604893 46.747303 126.604893 
z
" style="fill: #ffffff; opacity: 0.8; stroke: #cccccc; stroke-linejoin: miter"/>
    </g>
    <g id="line2d_51">
     <g>
      <use xlink:href="#m90f214681c" x="55.075303" y="11.869343" style="fill: #1f77b4; stroke: #000000"/>
     </g>
    </g>
    <g id="text_17">
     <!-- Black Rapids Glacier -->
     <g style="fill: #262626" transform="translate(67.567303 14.298343)scale(0.0694 -0.0694)">
      <defs>
       <path id="ArialMT-42" d="M 469 0 
L 469 4581 
L 2188 4581 
Q 2713 4581 3030 4442 
Q 3347 4303 3526 4014 
Q 3706 3725 3706 3409 
Q 3706 3116 3547 2856 
Q 3388 2597 3066 2438 
Q 3481 2316 3704 2022 
Q 3928 1728 3928 1328 
Q 3928 1006 3792 729 
Q 3656 453 3456 303 
Q 3256 153 2954 76 
Q 2653 0 2216 0 
L 469 0 
z
M 1075 2656 
L 2066 2656 
Q 2469 2656 2644 2709 
Q 2875 2778 2992 2937 
Q 3109 3097 3109 3338 
Q 3109 3566 3000 3739 
Q 2891 3913 2687 3977 
Q 2484 4041 1991 4041 
L 1075 4041 
L 1075 2656 
z
M 1075 541 
L 2216 541 
Q 2509 541 2628 563 
Q 2838 600 2978 687 
Q 3119 775 3209 942 
Q 3300 1109 3300 1328 
Q 3300 1584 3169 1773 
Q 3038 1963 2805 2039 
Q 2572 2116 2134 2116 
L 1075 2116 
L 1075 541 
z
" transform="scale(0.015625)"/>
       <path id="ArialMT-6b" d="M 425 0 
L 425 4581 
L 988 4581 
L 988 1969 
L 2319 3319 
L 3047 3319 
L 1778 2088 
L 3175 0 
L 2481 0 
L 1384 1697 
L 988 1316 
L 988 0 
L 425 0 
z
" transform="scale(0.015625)"/>
       <path id="ArialMT-52" d="M 503 0 
L 503 4581 
L 2534 4581 
Q 3147 4581 3465 4457 
Q 3784 4334 3975 4021 
Q 4166 3709 4166 3331 
Q 4166 2844 3850 2509 
Q 3534 2175 2875 2084 
Q 3116 1969 3241 1856 
Q 3506 1613 3744 1247 
L 4541 0 
L 3778 0 
L 3172 953 
Q 2906 1366 2734 1584 
Q 2563 1803 2427 1890 
Q 2291 1978 2150 2013 
Q 2047 2034 1813 2034 
L 1109 2034 
L 1109 0 
L 503 0 
z
M 1109 2559 
L 2413 2559 
Q 2828 2559 3062 2645 
Q 3297 2731 3419 2920 
Q 3541 3109 3541 3331 
Q 3541 3656 3305 3865 
Q 3069 4075 2559 4075 
L 1109 4075 
L 1109 2559 
z
" transform="scale(0.015625)"/>
       <path id="ArialMT-70" d="M 422 -1272 
L 422 3319 
L 934 3319 
L 934 2888 
Q 1116 3141 1344 3267 
Q 1572 3394 1897 3394 
Q 2322 3394 2647 3175 
Q 2972 2956 3137 2557 
Q 3303 2159 3303 1684 
Q 3303 1175 3120 767 
Q 2938 359 2589 142 
Q 2241 -75 1856 -75 
Q 1575 -75 1351 44 
Q 1128 163 984 344 
L 984 -1272 
L 422 -1272 
z
M 931 1641 
Q 931 1000 1190 694 
Q 1450 388 1819 388 
Q 2194 388 2461 705 
Q 2728 1022 2728 1688 
Q 2728 2322 2467 2637 
Q 2206 2953 1844 2953 
Q 1484 2953 1207 2617 
Q 931 2281 931 1641 
z
" transform="scale(0.015625)"/>
       <path id="ArialMT-64" d="M 2575 0 
L 2575 419 
Q 2259 -75 1647 -75 
Q 1250 -75 917 144 
Q 584 363 401 755 
Q 219 1147 219 1656 
Q 219 2153 384 2558 
Q 550 2963 881 3178 
Q 1213 3394 1622 3394 
Q 1922 3394 2156 3267 
Q 2391 3141 2538 2938 
L 2538 4581 
L 3097 4581 
L 3097 0 
L 2575 0 
z
M 797 1656 
Q 797 1019 1065 703 
Q 1334 388 1700 388 
Q 2069 388 2326 689 
Q 2584 991 2584 1609 
Q 2584 2291 2321 2609 
Q 2059 2928 1675 2928 
Q 1300 2928 1048 2622 
Q 797 2316 797 1656 
z
" transform="scale(0.015625)"/>
       <path id="ArialMT-47" d="M 2638 1797 
L 2638 2334 
L 4578 2338 
L 4578 638 
Q 4131 281 3656 101 
Q 3181 -78 2681 -78 
Q 2006 -78 1454 211 
Q 903 500 622 1047 
Q 341 1594 341 2269 
Q 341 2938 620 3517 
Q 900 4097 1425 4378 
Q 1950 4659 2634 4659 
Q 3131 4659 3532 4498 
Q 3934 4338 4162 4050 
Q 4391 3763 4509 3300 
L 3963 3150 
Q 3859 3500 3706 3700 
Q 3553 3900 3268 4020 
Q 2984 4141 2638 4141 
Q 2222 4141 1919 4014 
Q 1616 3888 1430 3681 
Q 1244 3475 1141 3228 
Q 966 2803 966 2306 
Q 966 1694 1177 1281 
Q 1388 869 1791 669 
Q 2194 469 2647 469 
Q 3041 469 3416 620 
Q 3791 772 3984 944 
L 3984 1797 
L 2638 1797 
z
" transform="scale(0.015625)"/>
      </defs>
      <use xlink:href="#ArialMT-42"/>
      <use xlink:href="#ArialMT-6c" x="66.699219"/>
      <use xlink:href="#ArialMT-61" x="88.916016"/>
      <use xlink:href="#ArialMT-63" x="144.53125"/>
      <use xlink:href="#ArialMT-6b" x="194.53125"/>
      <use xlink:href="#ArialMT-20" x="244.53125"/>
      <use xlink:href="#ArialMT-52" x="272.314453"/>
      <use xlink:href="#ArialMT-61" x="344.53125"/>
      <use xlink:href="#ArialMT-70" x="400.146484"/>
      <use xlink:href="#ArialMT-69" x="455.761719"/>
      <use xlink:href="#ArialMT-64" x="477.978516"/>
      <use xlink:href="#ArialMT-73" x="533.59375"/>
      <use xlink:href="#ArialMT-20" x="583.59375"/>
      <use xlink:href="#ArialMT-47" x="611.376953"/>
      <use xlink:href="#ArialMT-6c" x="689.160156"/>
      <use xlink:href="#ArialMT-61" x="711.376953"/>
      <use xlink:href="#ArialMT-63" x="766.992188"/>
      <use xlink:href="#ArialMT-69" x="816.992188"/>
      <use xlink:href="#ArialMT-65" x="839.208984"/>
      <use xlink:href="#ArialMT-72" x="894.824219"/>
     </g>
    </g>
    <g id="line2d_52">
     <g>
      <use xlink:href="#m96833b66ea" x="55.075303" y="21.68619" style="fill: #aec7e8; stroke: #000000; stroke-linejoin: miter"/>
     </g>
    </g>
    <g id="text_18">
     <!-- Columbia Glacier -->
     <g style="fill: #262626" transform="translate(67.567303 24.11519)scale(0.0694 -0.0694)">
      <defs>
       <path id="ArialMT-43" d="M 3763 1606 
L 4369 1453 
Q 4178 706 3683 314 
Q 3188 -78 2472 -78 
Q 1731 -78 1267 223 
Q 803 525 561 1097 
Q 319 1669 319 2325 
Q 319 3041 592 3573 
Q 866 4106 1370 4382 
Q 1875 4659 2481 4659 
Q 3169 4659 3637 4309 
Q 4106 3959 4291 3325 
L 3694 3184 
Q 3534 3684 3231 3912 
Q 2928 4141 2469 4141 
Q 1941 4141 1586 3887 
Q 1231 3634 1087 3207 
Q 944 2781 944 2328 
Q 944 1744 1114 1308 
Q 1284 872 1643 656 
Q 2003 441 2422 441 
Q 2931 441 3284 734 
Q 3638 1028 3763 1606 
z
" transform="scale(0.015625)"/>
       <path id="ArialMT-75" d="M 2597 0 
L 2597 488 
Q 2209 -75 1544 -75 
Q 1250 -75 995 37 
Q 741 150 617 320 
Q 494 491 444 738 
Q 409 903 409 1263 
L 409 3319 
L 972 3319 
L 972 1478 
Q 972 1038 1006 884 
Q 1059 663 1231 536 
Q 1403 409 1656 409 
Q 1909 409 2131 539 
Q 2353 669 2445 892 
Q 2538 1116 2538 1541 
L 2538 3319 
L 3100 3319 
L 3100 0 
L 2597 0 
z
" transform="scale(0.015625)"/>
      </defs>
      <use xlink:href="#ArialMT-43"/>
      <use xlink:href="#ArialMT-6f" x="72.216797"/>
      <use xlink:href="#ArialMT-6c" x="127.832031"/>
      <use xlink:href="#ArialMT-75" x="150.048828"/>
      <use xlink:href="#ArialMT-6d" x="205.664062"/>
      <use xlink:href="#ArialMT-62" x="288.964844"/>
      <use xlink:href="#ArialMT-69" x="344.580078"/>
      <use xlink:href="#ArialMT-61" x="366.796875"/>
      <use xlink:href="#ArialMT-20" x="422.412109"/>
      <use xlink:href="#ArialMT-47" x="450.195312"/>
      <use xlink:href="#ArialMT-6c" x="527.978516"/>
      <use xlink:href="#ArialMT-61" x="550.195312"/>
      <use xlink:href="#ArialMT-63" x="605.810547"/>
      <use xlink:href="#ArialMT-69" x="655.810547"/>
      <use xlink:href="#ArialMT-65" x="678.027344"/>
      <use xlink:href="#ArialMT-72" x="733.642578"/>
     </g>
    </g>
    <g id="line2d_53">
     <g>
      <use xlink:href="#mc974155e4a" x="55.075303" y="31.503037" style="fill: #ff7f0e; stroke: #000000; stroke-linejoin: miter"/>
     </g>
    </g>
    <g id="text_19">
     <!-- East Yakutat Glacier -->
     <g style="fill: #262626" transform="translate(67.567303 33.932037)scale(0.0694 -0.0694)">
      <defs>
       <path id="ArialMT-59" d="M 1784 0 
L 1784 1941 
L 19 4581 
L 756 4581 
L 1659 3200 
Q 1909 2813 2125 2425 
Q 2331 2784 2625 3234 
L 3513 4581 
L 4219 4581 
L 2391 1941 
L 2391 0 
L 1784 0 
z
" transform="scale(0.015625)"/>
      </defs>
      <use xlink:href="#ArialMT-45"/>
      <use xlink:href="#ArialMT-61" x="66.699219"/>
      <use xlink:href="#ArialMT-73" x="122.314453"/>
      <use xlink:href="#ArialMT-74" x="172.314453"/>
      <use xlink:href="#ArialMT-20" x="200.097656"/>
      <use xlink:href="#ArialMT-59" x="226.130859"/>
      <use xlink:href="#ArialMT-61" x="285.455078"/>
      <use xlink:href="#ArialMT-6b" x="341.070312"/>
      <use xlink:href="#ArialMT-75" x="391.070312"/>
      <use xlink:href="#ArialMT-74" x="446.685547"/>
      <use xlink:href="#ArialMT-61" x="474.46875"/>
      <use xlink:href="#ArialMT-74" x="530.083984"/>
      <use xlink:href="#ArialMT-20" x="557.867188"/>
      <use xlink:href="#ArialMT-47" x="585.650391"/>
      <use xlink:href="#ArialMT-6c" x="663.433594"/>
      <use xlink:href="#ArialMT-61" x="685.650391"/>
      <use xlink:href="#ArialMT-63" x="741.265625"/>
      <use xlink:href="#ArialMT-69" x="791.265625"/>
      <use xlink:href="#ArialMT-65" x="813.482422"/>
      <use xlink:href="#ArialMT-72" x="869.097656"/>
     </g>
    </g>
    <g id="line2d_54">
     <g>
      <use xlink:href="#mcdb748898a" x="55.075303" y="41.319884" style="fill: #ffbb78; stroke: #000000; stroke-linejoin: miter"/>
     </g>
    </g>
    <g id="text_20">
     <!-- Eklutna Glacier -->
     <g style="fill: #262626" transform="translate(67.567303 43.748884)scale(0.0694 -0.0694)">
      <use xlink:href="#ArialMT-45"/>
      <use xlink:href="#ArialMT-6b" x="66.699219"/>
      <use xlink:href="#ArialMT-6c" x="116.699219"/>
      <use xlink:href="#ArialMT-75" x="138.916016"/>
      <use xlink:href="#ArialMT-74" x="194.53125"/>
      <use xlink:href="#ArialMT-6e" x="222.314453"/>
      <use xlink:href="#ArialMT-61" x="277.929688"/>
      <use xlink:href="#ArialMT-20" x="333.544922"/>
      <use xlink:href="#ArialMT-47" x="361.328125"/>
      <use xlink:href="#ArialMT-6c" x="439.111328"/>
      <use xlink:href="#ArialMT-61" x="461.328125"/>
      <use xlink:href="#ArialMT-63" x="516.943359"/>
      <use xlink:href="#ArialMT-69" x="566.943359"/>
      <use xlink:href="#ArialMT-65" x="589.160156"/>
      <use xlink:href="#ArialMT-72" x="644.775391"/>
     </g>
    </g>
    <g id="line2d_55">
     <g>
      <use xlink:href="#md7309c646c" x="55.075303" y="51.136731" style="fill: #2ca02c; stroke: #000000; stroke-linejoin: miter"/>
     </g>
    </g>
    <g id="text_21">
     <!-- Exit Glacier -->
     <g style="fill: #262626" transform="translate(67.567303 53.565731)scale(0.0694 -0.0694)">
      <defs>
       <path id="ArialMT-78" d="M 47 0 
L 1259 1725 
L 138 3319 
L 841 3319 
L 1350 2541 
Q 1494 2319 1581 2169 
Q 1719 2375 1834 2534 
L 2394 3319 
L 3066 3319 
L 1919 1756 
L 3153 0 
L 2463 0 
L 1781 1031 
L 1600 1309 
L 728 0 
L 47 0 
z
" transform="scale(0.015625)"/>
      </defs>
      <use xlink:href="#ArialMT-45"/>
      <use xlink:href="#ArialMT-78" x="66.699219"/>
      <use xlink:href="#ArialMT-69" x="116.699219"/>
      <use xlink:href="#ArialMT-74" x="138.916016"/>
      <use xlink:href="#ArialMT-20" x="166.699219"/>
      <use xlink:href="#ArialMT-47" x="194.482422"/>
      <use xlink:href="#ArialMT-6c" x="272.265625"/>
      <use xlink:href="#ArialMT-61" x="294.482422"/>
      <use xlink:href="#ArialMT-63" x="350.097656"/>
      <use xlink:href="#ArialMT-69" x="400.097656"/>
      <use xlink:href="#ArialMT-65" x="422.314453"/>
      <use xlink:href="#ArialMT-72" x="477.929688"/>
     </g>
    </g>
    <g id="line2d_56">
     <g>
      <use xlink:href="#mc0c4ee3907" x="55.075303" y="61.038159" style="fill: #98df8a; stroke: #000000; stroke-linejoin: miter"/>
     </g>
    </g>
    <g id="text_22">
     <!-- Gilkey Glacier -->
     <g style="fill: #262626" transform="translate(67.567303 63.467159)scale(0.0694 -0.0694)">
      <use xlink:href="#ArialMT-47"/>
      <use xlink:href="#ArialMT-69" x="77.783203"/>
      <use xlink:href="#ArialMT-6c" x="100"/>
      <use xlink:href="#ArialMT-6b" x="122.216797"/>
      <use xlink:href="#ArialMT-65" x="172.216797"/>
      <use xlink:href="#ArialMT-79" x="227.832031"/>
      <use xlink:href="#ArialMT-20" x="277.832031"/>
      <use xlink:href="#ArialMT-47" x="305.615234"/>
      <use xlink:href="#ArialMT-6c" x="383.398438"/>
      <use xlink:href="#ArialMT-61" x="405.615234"/>
      <use xlink:href="#ArialMT-63" x="461.230469"/>
      <use xlink:href="#ArialMT-69" x="511.230469"/>
      <use xlink:href="#ArialMT-65" x="533.447266"/>
      <use xlink:href="#ArialMT-72" x="589.0625"/>
     </g>
    </g>
    <g id="line2d_57">
     <g>
      <use xlink:href="#ma48ca99422" x="55.075303" y="70.936334" style="fill: #d62728; stroke: #000000; stroke-linejoin: bevel"/>
     </g>
    </g>
    <g id="text_23">
     <!-- Gulkana Glacier -->
     <g style="fill: #262626" transform="translate(67.567303 73.365334)scale(0.0694 -0.0694)">
      <use xlink:href="#ArialMT-47"/>
      <use xlink:href="#ArialMT-75" x="77.783203"/>
      <use xlink:href="#ArialMT-6c" x="133.398438"/>
      <use xlink:href="#ArialMT-6b" x="155.615234"/>
      <use xlink:href="#ArialMT-61" x="205.615234"/>
      <use xlink:href="#ArialMT-6e" x="261.230469"/>
      <use xlink:href="#ArialMT-61" x="316.845703"/>
      <use xlink:href="#ArialMT-20" x="372.460938"/>
      <use xlink:href="#ArialMT-47" x="400.244141"/>
      <use xlink:href="#ArialMT-6c" x="478.027344"/>
      <use xlink:href="#ArialMT-61" x="500.244141"/>
      <use xlink:href="#ArialMT-63" x="555.859375"/>
      <use xlink:href="#ArialMT-69" x="605.859375"/>
      <use xlink:href="#ArialMT-65" x="628.076172"/>
      <use xlink:href="#ArialMT-72" x="683.691406"/>
     </g>
    </g>
    <g id="line2d_58">
     <g>
      <use xlink:href="#m09342712ad" x="55.075303" y="80.753181" style="fill: #ff9896; stroke: #000000; stroke-linejoin: miter"/>
     </g>
    </g>
    <g id="text_24">
     <!-- Kahiltna Glacier -->
     <g style="fill: #262626" transform="translate(67.567303 83.182181)scale(0.0694 -0.0694)">
      <defs>
       <path id="ArialMT-4b" d="M 469 0 
L 469 4581 
L 1075 4581 
L 1075 2309 
L 3350 4581 
L 4172 4581 
L 2250 2725 
L 4256 0 
L 3456 0 
L 1825 2319 
L 1075 1588 
L 1075 0 
L 469 0 
z
" transform="scale(0.015625)"/>
       <path id="ArialMT-68" d="M 422 0 
L 422 4581 
L 984 4581 
L 984 2938 
Q 1378 3394 1978 3394 
Q 2347 3394 2619 3248 
Q 2891 3103 3008 2847 
Q 3125 2591 3125 2103 
L 3125 0 
L 2563 0 
L 2563 2103 
Q 2563 2525 2380 2717 
Q 2197 2909 1863 2909 
Q 1613 2909 1392 2779 
Q 1172 2650 1078 2428 
Q 984 2206 984 1816 
L 984 0 
L 422 0 
z
" transform="scale(0.015625)"/>
      </defs>
      <use xlink:href="#ArialMT-4b"/>
      <use xlink:href="#ArialMT-61" x="66.699219"/>
      <use xlink:href="#ArialMT-68" x="122.314453"/>
      <use xlink:href="#ArialMT-69" x="177.929688"/>
      <use xlink:href="#ArialMT-6c" x="200.146484"/>
      <use xlink:href="#ArialMT-74" x="222.363281"/>
      <use xlink:href="#ArialMT-6e" x="250.146484"/>
      <use xlink:href="#ArialMT-61" x="305.761719"/>
      <use xlink:href="#ArialMT-20" x="361.376953"/>
      <use xlink:href="#ArialMT-47" x="389.160156"/>
      <use xlink:href="#ArialMT-6c" x="466.943359"/>
      <use xlink:href="#ArialMT-61" x="489.160156"/>
      <use xlink:href="#ArialMT-63" x="544.775391"/>
      <use xlink:href="#ArialMT-69" x="594.775391"/>
      <use xlink:href="#ArialMT-65" x="616.992188"/>
      <use xlink:href="#ArialMT-72" x="672.607422"/>
     </g>
    </g>
    <g id="line2d_59">
     <g>
      <use xlink:href="#m0283f89d35" x="55.075303" y="90.570027" style="fill: #9467bd; stroke: #000000; stroke-linejoin: miter"/>
     </g>
    </g>
    <g id="text_25">
     <!-- Lemon Creek Glacier -->
     <g style="fill: #262626" transform="translate(67.567303 92.999027)scale(0.0694 -0.0694)">
      <defs>
       <path id="ArialMT-4c" d="M 469 0 
L 469 4581 
L 1075 4581 
L 1075 541 
L 3331 541 
L 3331 0 
L 469 0 
z
" transform="scale(0.015625)"/>
      </defs>
      <use xlink:href="#ArialMT-4c"/>
      <use xlink:href="#ArialMT-65" x="55.615234"/>
      <use xlink:href="#ArialMT-6d" x="111.230469"/>
      <use xlink:href="#ArialMT-6f" x="194.53125"/>
      <use xlink:href="#ArialMT-6e" x="250.146484"/>
      <use xlink:href="#ArialMT-20" x="305.761719"/>
      <use xlink:href="#ArialMT-43" x="333.544922"/>
      <use xlink:href="#ArialMT-72" x="405.761719"/>
      <use xlink:href="#ArialMT-65" x="439.0625"/>
      <use xlink:href="#ArialMT-65" x="494.677734"/>
      <use xlink:href="#ArialMT-6b" x="550.292969"/>
      <use xlink:href="#ArialMT-20" x="600.292969"/>
      <use xlink:href="#ArialMT-47" x="628.076172"/>
      <use xlink:href="#ArialMT-6c" x="705.859375"/>
      <use xlink:href="#ArialMT-61" x="728.076172"/>
      <use xlink:href="#ArialMT-63" x="783.691406"/>
      <use xlink:href="#ArialMT-69" x="833.691406"/>
      <use xlink:href="#ArialMT-65" x="855.908203"/>
      <use xlink:href="#ArialMT-72" x="911.523438"/>
     </g>
    </g>
    <g id="line2d_60">
     <g>
      <use xlink:href="#mc3c8898d2d" x="55.075303" y="100.386874" style="fill: #c5b0d5; stroke: #000000; stroke-linejoin: miter"/>
     </g>
    </g>
    <g id="text_26">
     <!-- Mendenhall Glacier -->
     <g style="fill: #262626" transform="translate(67.567303 102.815874)scale(0.0694 -0.0694)">
      <use xlink:href="#ArialMT-4d"/>
      <use xlink:href="#ArialMT-65" x="83.300781"/>
      <use xlink:href="#ArialMT-6e" x="138.916016"/>
      <use xlink:href="#ArialMT-64" x="194.53125"/>
      <use xlink:href="#ArialMT-65" x="250.146484"/>
      <use xlink:href="#ArialMT-6e" x="305.761719"/>
      <use xlink:href="#ArialMT-68" x="361.376953"/>
      <use xlink:href="#ArialMT-61" x="416.992188"/>
      <use xlink:href="#ArialMT-6c" x="472.607422"/>
      <use xlink:href="#ArialMT-6c" x="494.824219"/>
      <use xlink:href="#ArialMT-20" x="517.041016"/>
      <use xlink:href="#ArialMT-47" x="544.824219"/>
      <use xlink:href="#ArialMT-6c" x="622.607422"/>
      <use xlink:href="#ArialMT-61" x="644.824219"/>
      <use xlink:href="#ArialMT-63" x="700.439453"/>
      <use xlink:href="#ArialMT-69" x="750.439453"/>
      <use xlink:href="#ArialMT-65" x="772.65625"/>
      <use xlink:href="#ArialMT-72" x="828.271484"/>
     </g>
    </g>
    <g id="line2d_61">
     <g>
      <use xlink:href="#mcd36022aa2" x="55.075303" y="110.203721" style="fill: #8c564b; stroke: #000000; stroke-linejoin: miter"/>
     </g>
    </g>
    <g id="text_27">
     <!-- Wolverine Glacier -->
     <g style="fill: #262626" transform="translate(67.567303 112.632721)scale(0.0694 -0.0694)">
      <defs>
       <path id="ArialMT-57" d="M 1294 0 
L 78 4581 
L 700 4581 
L 1397 1578 
Q 1509 1106 1591 641 
Q 1766 1375 1797 1488 
L 2669 4581 
L 3400 4581 
L 4056 2263 
Q 4303 1400 4413 641 
Q 4500 1075 4641 1638 
L 5359 4581 
L 5969 4581 
L 4713 0 
L 4128 0 
L 3163 3491 
Q 3041 3928 3019 4028 
Q 2947 3713 2884 3491 
L 1913 0 
L 1294 0 
z
" transform="scale(0.015625)"/>
      </defs>
      <use xlink:href="#ArialMT-57"/>
      <use xlink:href="#ArialMT-6f" x="92.634766"/>
      <use xlink:href="#ArialMT-6c" x="148.25"/>
      <use xlink:href="#ArialMT-76" x="170.466797"/>
      <use xlink:href="#ArialMT-65" x="220.466797"/>
      <use xlink:href="#ArialMT-72" x="276.082031"/>
      <use xlink:href="#ArialMT-69" x="309.382812"/>
      <use xlink:href="#ArialMT-6e" x="331.599609"/>
      <use xlink:href="#ArialMT-65" x="387.214844"/>
      <use xlink:href="#ArialMT-20" x="442.830078"/>
      <use xlink:href="#ArialMT-47" x="470.613281"/>
      <use xlink:href="#ArialMT-6c" x="548.396484"/>
      <use xlink:href="#ArialMT-61" x="570.613281"/>
      <use xlink:href="#ArialMT-63" x="626.228516"/>
      <use xlink:href="#ArialMT-69" x="676.228516"/>
      <use xlink:href="#ArialMT-65" x="698.445312"/>
      <use xlink:href="#ArialMT-72" x="754.060547"/>
     </g>
    </g>
    <g id="line2d_62">
     <path d="M 48.135303 120.020568 
L 55.075303 120.020568 
L 62.015303 120.020568 
" style="fill: none; stroke: #9edae5; stroke-width: 3; stroke-linecap: round"/>
    </g>
    <g id="text_28">
     <!-- McCall Glacier -->
     <g style="fill: #262626" transform="translate(67.567303 122.449568)scale(0.0694 -0.0694)">
      <use xlink:href="#ArialMT-4d"/>
      <use xlink:href="#ArialMT-63" x="83.300781"/>
      <use xlink:href="#ArialMT-43" x="133.300781"/>
      <use xlink:href="#ArialMT-61" x="205.517578"/>
      <use xlink:href="#ArialMT-6c" x="261.132812"/>
      <use xlink:href="#ArialMT-6c" x="283.349609"/>
      <use xlink:href="#ArialMT-20" x="305.566406"/>
      <use xlink:href="#ArialMT-47" x="333.349609"/>
      <use xlink:href="#ArialMT-6c" x="411.132812"/>
      <use xlink:href="#ArialMT-61" x="433.349609"/>
      <use xlink:href="#ArialMT-63" x="488.964844"/>
      <use xlink:href="#ArialMT-69" x="538.964844"/>
      <use xlink:href="#ArialMT-65" x="561.181641"/>
      <use xlink:href="#ArialMT-72" x="616.796875"/>
     </g>
    </g>
   </g>
  </g>
 </g>
 <defs>
  <clipPath id="p59fda2ed58">
   <rect x="41.889303" y="3.00024" width="312.329989" height="254.154208"/>
  </clipPath>
 </defs>
</svg>
