<?xml version="1.0" encoding="utf-8" standalone="no"?>
<!DOCTYPE svg PUBLIC "-//W3C//DTD SVG 1.1//EN"
  "http://www.w3.org/Graphics/SVG/1.1/DTD/svg11.dtd">
<svg xmlns:xlink="http://www.w3.org/1999/xlink" width="324pt" height="154.8pt" viewBox="0 0 324 154.8" xmlns="http://www.w3.org/2000/svg" version="1.1">
 <metadata>
  <rdf:RDF xmlns:dc="http://purl.org/dc/elements/1.1/" xmlns:cc="http://creativecommons.org/ns#" xmlns:rdf="http://www.w3.org/1999/02/22-rdf-syntax-ns#">
   <cc:Work>
    <dc:type rdf:resource="http://purl.org/dc/dcmitype/StillImage"/>
    <dc:date>2024-02-01T11:28:14.226322</dc:date>
    <dc:format>image/svg+xml</dc:format>
    <dc:creator>
     <cc:Agent>
      <dc:title>Matplotlib v3.5.2, https://matplotlib.org/</dc:title>
     </cc:Agent>
    </dc:creator>
   </cc:Work>
  </rdf:RDF>
 </metadata>
 <defs>
  <style type="text/css">*{stroke-linejoin: round; stroke-linecap: butt}</style>
 </defs>
 <g id="figure_1">
  <g id="patch_1">
   <path d="M 0 154.8 
L 324 154.8 
L 324 0 
L 0 0 
z
" style="fill: #ffffff"/>
  </g>
  <g id="axes_1">
   <g id="patch_2">
    <path d="M 40.5 132.760957 
L 149.673913 132.760957 
L 149.673913 23.587043 
L 40.5 23.587043 
z
" style="fill: #ffffff"/>
   </g>
   <g id="matplotlib.axis_1">
    <g id="xtick_1">
     <g id="line2d_1">
      <path d="M 42.171029 132.760957 
L 42.171029 23.587043 
" clip-path="url(#p89868ebf49)" style="fill: none; stroke: #b0b0b0; stroke-opacity: 0.75; stroke-width: 0.5; stroke-linecap: square"/>
     </g>
     <g id="line2d_2">
      <defs>
       <path id="m234b940dfc" d="M 0 0 
L 0 -4 
" style="stroke: #000000; stroke-width: 0.8"/>
      </defs>
      <g>
       <use xlink:href="#m234b940dfc" x="42.171029" y="132.760957" style="stroke: #000000; stroke-width: 0.8"/>
      </g>
     </g>
     <g id="text_1">
      <!-- −12 -->
      <g transform="translate(33.380927 142.590455)scale(0.0833 -0.0833)">
       <defs>
        <path id="DejaVuSans-2212" d="M 678 2272 
L 4684 2272 
L 4684 1741 
L 678 1741 
L 678 2272 
z
" transform="scale(0.015625)"/>
        <path id="DejaVuSans-31" d="M 794 531 
L 1825 531 
L 1825 4091 
L 703 3866 
L 703 4441 
L 1819 4666 
L 2450 4666 
L 2450 531 
L 3481 531 
L 3481 0 
L 794 0 
L 794 531 
z
" transform="scale(0.015625)"/>
        <path id="DejaVuSans-32" d="M 1228 531 
L 3431 531 
L 3431 0 
L 469 0 
L 469 531 
Q 828 903 1448 1529 
Q 2069 2156 2228 2338 
Q 2531 2678 2651 2914 
Q 2772 3150 2772 3378 
Q 2772 3750 2511 3984 
Q 2250 4219 1831 4219 
Q 1534 4219 1204 4116 
Q 875 4013 500 3803 
L 500 4441 
Q 881 4594 1212 4672 
Q 1544 4750 1819 4750 
Q 2544 4750 2975 4387 
Q 3406 4025 3406 3419 
Q 3406 3131 3298 2873 
Q 3191 2616 2906 2266 
Q 2828 2175 2409 1742 
Q 1991 1309 1228 531 
z
" transform="scale(0.015625)"/>
       </defs>
       <use xlink:href="#DejaVuSans-2212"/>
       <use xlink:href="#DejaVuSans-31" x="83.789062"/>
       <use xlink:href="#DejaVuSans-32" x="147.412109"/>
      </g>
     </g>
    </g>
    <g id="xtick_2">
     <g id="line2d_3">
      <path d="M 77.819654 132.760957 
L 77.819654 23.587043 
" clip-path="url(#p89868ebf49)" style="fill: none; stroke: #b0b0b0; stroke-opacity: 0.75; stroke-width: 0.5; stroke-linecap: square"/>
     </g>
     <g id="line2d_4">
      <g>
       <use xlink:href="#m234b940dfc" x="77.819654" y="132.760957" style="stroke: #000000; stroke-width: 0.8"/>
      </g>
     </g>
     <g id="text_2">
      <!-- −8 -->
      <g transform="translate(71.679533 142.590455)scale(0.0833 -0.0833)">
       <defs>
        <path id="DejaVuSans-38" d="M 2034 2216 
Q 1584 2216 1326 1975 
Q 1069 1734 1069 1313 
Q 1069 891 1326 650 
Q 1584 409 2034 409 
Q 2484 409 2743 651 
Q 3003 894 3003 1313 
Q 3003 1734 2745 1975 
Q 2488 2216 2034 2216 
z
M 1403 2484 
Q 997 2584 770 2862 
Q 544 3141 544 3541 
Q 544 4100 942 4425 
Q 1341 4750 2034 4750 
Q 2731 4750 3128 4425 
Q 3525 4100 3525 3541 
Q 3525 3141 3298 2862 
Q 3072 2584 2669 2484 
Q 3125 2378 3379 2068 
Q 3634 1759 3634 1313 
Q 3634 634 3220 271 
Q 2806 -91 2034 -91 
Q 1263 -91 848 271 
Q 434 634 434 1313 
Q 434 1759 690 2068 
Q 947 2378 1403 2484 
z
M 1172 3481 
Q 1172 3119 1398 2916 
Q 1625 2713 2034 2713 
Q 2441 2713 2670 2916 
Q 2900 3119 2900 3481 
Q 2900 3844 2670 4047 
Q 2441 4250 2034 4250 
Q 1625 4250 1398 4047 
Q 1172 3844 1172 3481 
z
" transform="scale(0.015625)"/>
       </defs>
       <use xlink:href="#DejaVuSans-2212"/>
       <use xlink:href="#DejaVuSans-38" x="83.789062"/>
      </g>
     </g>
    </g>
    <g id="xtick_3">
     <g id="line2d_5">
      <path d="M 113.468279 132.760957 
L 113.468279 23.587043 
" clip-path="url(#p89868ebf49)" style="fill: none; stroke: #b0b0b0; stroke-opacity: 0.75; stroke-width: 0.5; stroke-linecap: square"/>
     </g>
     <g id="line2d_6">
      <g>
       <use xlink:href="#m234b940dfc" x="113.468279" y="132.760957" style="stroke: #000000; stroke-width: 0.8"/>
      </g>
     </g>
     <g id="text_3">
      <!-- −4 -->
      <g transform="translate(107.328158 142.590455)scale(0.0833 -0.0833)">
       <defs>
        <path id="DejaVuSans-34" d="M 2419 4116 
L 825 1625 
L 2419 1625 
L 2419 4116 
z
M 2253 4666 
L 3047 4666 
L 3047 1625 
L 3713 1625 
L 3713 1100 
L 3047 1100 
L 3047 0 
L 2419 0 
L 2419 1100 
L 313 1100 
L 313 1709 
L 2253 4666 
z
" transform="scale(0.015625)"/>
       </defs>
       <use xlink:href="#DejaVuSans-2212"/>
       <use xlink:href="#DejaVuSans-34" x="83.789062"/>
      </g>
     </g>
    </g>
    <g id="xtick_4">
     <g id="line2d_7">
      <path d="M 149.116903 132.760957 
L 149.116903 23.587043 
" clip-path="url(#p89868ebf49)" style="fill: none; stroke: #b0b0b0; stroke-opacity: 0.75; stroke-width: 0.5; stroke-linecap: square"/>
     </g>
     <g id="line2d_8">
      <g>
       <use xlink:href="#m234b940dfc" x="149.116903" y="132.760957" style="stroke: #000000; stroke-width: 0.8"/>
      </g>
     </g>
     <g id="text_4">
      <!-- 0 -->
      <g transform="translate(146.466922 142.590455)scale(0.0833 -0.0833)">
       <defs>
        <path id="DejaVuSans-30" d="M 2034 4250 
Q 1547 4250 1301 3770 
Q 1056 3291 1056 2328 
Q 1056 1369 1301 889 
Q 1547 409 2034 409 
Q 2525 409 2770 889 
Q 3016 1369 3016 2328 
Q 3016 3291 2770 3770 
Q 2525 4250 2034 4250 
z
M 2034 4750 
Q 2819 4750 3233 4129 
Q 3647 3509 3647 2328 
Q 3647 1150 3233 529 
Q 2819 -91 2034 -91 
Q 1250 -91 836 529 
Q 422 1150 422 2328 
Q 422 3509 836 4129 
Q 1250 4750 2034 4750 
z
" transform="scale(0.015625)"/>
       </defs>
       <use xlink:href="#DejaVuSans-30"/>
      </g>
     </g>
    </g>
    <g id="xtick_5">
     <g id="line2d_9">
      <path d="M 46.627107 132.760957 
L 46.627107 23.587043 
" clip-path="url(#p89868ebf49)" style="fill: none; stroke: #b0b0b0; stroke-opacity: 0.25; stroke-width: 0.5; stroke-linecap: square"/>
     </g>
     <g id="line2d_10">
      <defs>
       <path id="mac4a13b6f7" d="M 0 0 
L 0 -2 
" style="stroke: #000000; stroke-width: 0.6"/>
      </defs>
      <g>
       <use xlink:href="#mac4a13b6f7" x="46.627107" y="132.760957" style="stroke: #000000; stroke-width: 0.6"/>
      </g>
     </g>
    </g>
    <g id="xtick_6">
     <g id="line2d_11">
      <path d="M 51.083185 132.760957 
L 51.083185 23.587043 
" clip-path="url(#p89868ebf49)" style="fill: none; stroke: #b0b0b0; stroke-opacity: 0.25; stroke-width: 0.5; stroke-linecap: square"/>
     </g>
     <g id="line2d_12">
      <g>
       <use xlink:href="#mac4a13b6f7" x="51.083185" y="132.760957" style="stroke: #000000; stroke-width: 0.6"/>
      </g>
     </g>
    </g>
    <g id="xtick_7">
     <g id="line2d_13">
      <path d="M 55.539264 132.760957 
L 55.539264 23.587043 
" clip-path="url(#p89868ebf49)" style="fill: none; stroke: #b0b0b0; stroke-opacity: 0.25; stroke-width: 0.5; stroke-linecap: square"/>
     </g>
     <g id="line2d_14">
      <g>
       <use xlink:href="#mac4a13b6f7" x="55.539264" y="132.760957" style="stroke: #000000; stroke-width: 0.6"/>
      </g>
     </g>
    </g>
    <g id="xtick_8">
     <g id="line2d_15">
      <path d="M 59.995342 132.760957 
L 59.995342 23.587043 
" clip-path="url(#p89868ebf49)" style="fill: none; stroke: #b0b0b0; stroke-opacity: 0.25; stroke-width: 0.5; stroke-linecap: square"/>
     </g>
     <g id="line2d_16">
      <g>
       <use xlink:href="#mac4a13b6f7" x="59.995342" y="132.760957" style="stroke: #000000; stroke-width: 0.6"/>
      </g>
     </g>
    </g>
    <g id="xtick_9">
     <g id="line2d_17">
      <path d="M 64.45142 132.760957 
L 64.45142 23.587043 
" clip-path="url(#p89868ebf49)" style="fill: none; stroke: #b0b0b0; stroke-opacity: 0.25; stroke-width: 0.5; stroke-linecap: square"/>
     </g>
     <g id="line2d_18">
      <g>
       <use xlink:href="#mac4a13b6f7" x="64.45142" y="132.760957" style="stroke: #000000; stroke-width: 0.6"/>
      </g>
     </g>
    </g>
    <g id="xtick_10">
     <g id="line2d_19">
      <path d="M 68.907498 132.760957 
L 68.907498 23.587043 
" clip-path="url(#p89868ebf49)" style="fill: none; stroke: #b0b0b0; stroke-opacity: 0.25; stroke-width: 0.5; stroke-linecap: square"/>
     </g>
     <g id="line2d_20">
      <g>
       <use xlink:href="#mac4a13b6f7" x="68.907498" y="132.760957" style="stroke: #000000; stroke-width: 0.6"/>
      </g>
     </g>
    </g>
    <g id="xtick_11">
     <g id="line2d_21">
      <path d="M 73.363576 132.760957 
L 73.363576 23.587043 
" clip-path="url(#p89868ebf49)" style="fill: none; stroke: #b0b0b0; stroke-opacity: 0.25; stroke-width: 0.5; stroke-linecap: square"/>
     </g>
     <g id="line2d_22">
      <g>
       <use xlink:href="#mac4a13b6f7" x="73.363576" y="132.760957" style="stroke: #000000; stroke-width: 0.6"/>
      </g>
     </g>
    </g>
    <g id="xtick_12">
     <g id="line2d_23">
      <path d="M 82.275732 132.760957 
L 82.275732 23.587043 
" clip-path="url(#p89868ebf49)" style="fill: none; stroke: #b0b0b0; stroke-opacity: 0.25; stroke-width: 0.5; stroke-linecap: square"/>
     </g>
     <g id="line2d_24">
      <g>
       <use xlink:href="#mac4a13b6f7" x="82.275732" y="132.760957" style="stroke: #000000; stroke-width: 0.6"/>
      </g>
     </g>
    </g>
    <g id="xtick_13">
     <g id="line2d_25">
      <path d="M 86.73181 132.760957 
L 86.73181 23.587043 
" clip-path="url(#p89868ebf49)" style="fill: none; stroke: #b0b0b0; stroke-opacity: 0.25; stroke-width: 0.5; stroke-linecap: square"/>
     </g>
     <g id="line2d_26">
      <g>
       <use xlink:href="#mac4a13b6f7" x="86.73181" y="132.760957" style="stroke: #000000; stroke-width: 0.6"/>
      </g>
     </g>
    </g>
    <g id="xtick_14">
     <g id="line2d_27">
      <path d="M 91.187888 132.760957 
L 91.187888 23.587043 
" clip-path="url(#p89868ebf49)" style="fill: none; stroke: #b0b0b0; stroke-opacity: 0.25; stroke-width: 0.5; stroke-linecap: square"/>
     </g>
     <g id="line2d_28">
      <g>
       <use xlink:href="#mac4a13b6f7" x="91.187888" y="132.760957" style="stroke: #000000; stroke-width: 0.6"/>
      </g>
     </g>
    </g>
    <g id="xtick_15">
     <g id="line2d_29">
      <path d="M 95.643966 132.760957 
L 95.643966 23.587043 
" clip-path="url(#p89868ebf49)" style="fill: none; stroke: #b0b0b0; stroke-opacity: 0.25; stroke-width: 0.5; stroke-linecap: square"/>
     </g>
     <g id="line2d_30">
      <g>
       <use xlink:href="#mac4a13b6f7" x="95.643966" y="132.760957" style="stroke: #000000; stroke-width: 0.6"/>
      </g>
     </g>
    </g>
    <g id="xtick_16">
     <g id="line2d_31">
      <path d="M 100.100044 132.760957 
L 100.100044 23.587043 
" clip-path="url(#p89868ebf49)" style="fill: none; stroke: #b0b0b0; stroke-opacity: 0.25; stroke-width: 0.5; stroke-linecap: square"/>
     </g>
     <g id="line2d_32">
      <g>
       <use xlink:href="#mac4a13b6f7" x="100.100044" y="132.760957" style="stroke: #000000; stroke-width: 0.6"/>
      </g>
     </g>
    </g>
    <g id="xtick_17">
     <g id="line2d_33">
      <path d="M 104.556122 132.760957 
L 104.556122 23.587043 
" clip-path="url(#p89868ebf49)" style="fill: none; stroke: #b0b0b0; stroke-opacity: 0.25; stroke-width: 0.5; stroke-linecap: square"/>
     </g>
     <g id="line2d_34">
      <g>
       <use xlink:href="#mac4a13b6f7" x="104.556122" y="132.760957" style="stroke: #000000; stroke-width: 0.6"/>
      </g>
     </g>
    </g>
    <g id="xtick_18">
     <g id="line2d_35">
      <path d="M 109.012201 132.760957 
L 109.012201 23.587043 
" clip-path="url(#p89868ebf49)" style="fill: none; stroke: #b0b0b0; stroke-opacity: 0.25; stroke-width: 0.5; stroke-linecap: square"/>
     </g>
     <g id="line2d_36">
      <g>
       <use xlink:href="#mac4a13b6f7" x="109.012201" y="132.760957" style="stroke: #000000; stroke-width: 0.6"/>
      </g>
     </g>
    </g>
    <g id="xtick_19">
     <g id="line2d_37">
      <path d="M 117.924357 132.760957 
L 117.924357 23.587043 
" clip-path="url(#p89868ebf49)" style="fill: none; stroke: #b0b0b0; stroke-opacity: 0.25; stroke-width: 0.5; stroke-linecap: square"/>
     </g>
     <g id="line2d_38">
      <g>
       <use xlink:href="#mac4a13b6f7" x="117.924357" y="132.760957" style="stroke: #000000; stroke-width: 0.6"/>
      </g>
     </g>
    </g>
    <g id="xtick_20">
     <g id="line2d_39">
      <path d="M 122.380435 132.760957 
L 122.380435 23.587043 
" clip-path="url(#p89868ebf49)" style="fill: none; stroke: #b0b0b0; stroke-opacity: 0.25; stroke-width: 0.5; stroke-linecap: square"/>
     </g>
     <g id="line2d_40">
      <g>
       <use xlink:href="#mac4a13b6f7" x="122.380435" y="132.760957" style="stroke: #000000; stroke-width: 0.6"/>
      </g>
     </g>
    </g>
    <g id="xtick_21">
     <g id="line2d_41">
      <path d="M 126.836513 132.760957 
L 126.836513 23.587043 
" clip-path="url(#p89868ebf49)" style="fill: none; stroke: #b0b0b0; stroke-opacity: 0.25; stroke-width: 0.5; stroke-linecap: square"/>
     </g>
     <g id="line2d_42">
      <g>
       <use xlink:href="#mac4a13b6f7" x="126.836513" y="132.760957" style="stroke: #000000; stroke-width: 0.6"/>
      </g>
     </g>
    </g>
    <g id="xtick_22">
     <g id="line2d_43">
      <path d="M 131.292591 132.760957 
L 131.292591 23.587043 
" clip-path="url(#p89868ebf49)" style="fill: none; stroke: #b0b0b0; stroke-opacity: 0.25; stroke-width: 0.5; stroke-linecap: square"/>
     </g>
     <g id="line2d_44">
      <g>
       <use xlink:href="#mac4a13b6f7" x="131.292591" y="132.760957" style="stroke: #000000; stroke-width: 0.6"/>
      </g>
     </g>
    </g>
    <g id="xtick_23">
     <g id="line2d_45">
      <path d="M 135.748669 132.760957 
L 135.748669 23.587043 
" clip-path="url(#p89868ebf49)" style="fill: none; stroke: #b0b0b0; stroke-opacity: 0.25; stroke-width: 0.5; stroke-linecap: square"/>
     </g>
     <g id="line2d_46">
      <g>
       <use xlink:href="#mac4a13b6f7" x="135.748669" y="132.760957" style="stroke: #000000; stroke-width: 0.6"/>
      </g>
     </g>
    </g>
    <g id="xtick_24">
     <g id="line2d_47">
      <path d="M 140.204747 132.760957 
L 140.204747 23.587043 
" clip-path="url(#p89868ebf49)" style="fill: none; stroke: #b0b0b0; stroke-opacity: 0.25; stroke-width: 0.5; stroke-linecap: square"/>
     </g>
     <g id="line2d_48">
      <g>
       <use xlink:href="#mac4a13b6f7" x="140.204747" y="132.760957" style="stroke: #000000; stroke-width: 0.6"/>
      </g>
     </g>
    </g>
    <g id="xtick_25">
     <g id="line2d_49">
      <path d="M 144.660825 132.760957 
L 144.660825 23.587043 
" clip-path="url(#p89868ebf49)" style="fill: none; stroke: #b0b0b0; stroke-opacity: 0.25; stroke-width: 0.5; stroke-linecap: square"/>
     </g>
     <g id="line2d_50">
      <g>
       <use xlink:href="#mac4a13b6f7" x="144.660825" y="132.760957" style="stroke: #000000; stroke-width: 0.6"/>
      </g>
     </g>
    </g>
    <g id="text_5">
     <!-- $b_t$ [m yr$^{-1}$] -->
     <g transform="translate(76.348957 154.568835)scale(0.0694 -0.0694)">
      <defs>
       <path id="DejaVuSans-Oblique-62" d="M 3169 2138 
Q 3169 2591 2961 2847 
Q 2753 3103 2388 3103 
Q 2122 3103 1889 2973 
Q 1656 2844 1484 2597 
Q 1303 2338 1198 1995 
Q 1094 1653 1094 1313 
Q 1094 881 1298 636 
Q 1503 391 1863 391 
Q 2134 391 2365 517 
Q 2597 644 2772 891 
Q 2950 1147 3059 1487 
Q 3169 1828 3169 2138 
z
M 1381 2969 
Q 1594 3256 1914 3420 
Q 2234 3584 2584 3584 
Q 3122 3584 3439 3221 
Q 3756 2859 3756 2241 
Q 3756 1734 3570 1259 
Q 3384 784 3041 416 
Q 2816 172 2522 40 
Q 2228 -91 1906 -91 
Q 1566 -91 1316 65 
Q 1066 222 909 531 
L 806 0 
L 231 0 
L 1178 4863 
L 1753 4863 
L 1381 2969 
z
" transform="scale(0.015625)"/>
       <path id="DejaVuSans-Oblique-74" d="M 2706 3500 
L 2619 3053 
L 1472 3053 
L 1100 1153 
Q 1081 1047 1072 975 
Q 1063 903 1063 863 
Q 1063 663 1183 572 
Q 1303 481 1569 481 
L 2150 481 
L 2053 0 
L 1503 0 
Q 991 0 739 200 
Q 488 400 488 806 
Q 488 878 497 964 
Q 506 1050 525 1153 
L 897 3053 
L 409 3053 
L 500 3500 
L 978 3500 
L 1172 4494 
L 1747 4494 
L 1556 3500 
L 2706 3500 
z
" transform="scale(0.015625)"/>
       <path id="DejaVuSans-20" transform="scale(0.015625)"/>
       <path id="DejaVuSans-5b" d="M 550 4863 
L 1875 4863 
L 1875 4416 
L 1125 4416 
L 1125 -397 
L 1875 -397 
L 1875 -844 
L 550 -844 
L 550 4863 
z
" transform="scale(0.015625)"/>
       <path id="DejaVuSans-6d" d="M 3328 2828 
Q 3544 3216 3844 3400 
Q 4144 3584 4550 3584 
Q 5097 3584 5394 3201 
Q 5691 2819 5691 2113 
L 5691 0 
L 5113 0 
L 5113 2094 
Q 5113 2597 4934 2840 
Q 4756 3084 4391 3084 
Q 3944 3084 3684 2787 
Q 3425 2491 3425 1978 
L 3425 0 
L 2847 0 
L 2847 2094 
Q 2847 2600 2669 2842 
Q 2491 3084 2119 3084 
Q 1678 3084 1418 2786 
Q 1159 2488 1159 1978 
L 1159 0 
L 581 0 
L 581 3500 
L 1159 3500 
L 1159 2956 
Q 1356 3278 1631 3431 
Q 1906 3584 2284 3584 
Q 2666 3584 2933 3390 
Q 3200 3197 3328 2828 
z
" transform="scale(0.015625)"/>
       <path id="DejaVuSans-79" d="M 2059 -325 
Q 1816 -950 1584 -1140 
Q 1353 -1331 966 -1331 
L 506 -1331 
L 506 -850 
L 844 -850 
Q 1081 -850 1212 -737 
Q 1344 -625 1503 -206 
L 1606 56 
L 191 3500 
L 800 3500 
L 1894 763 
L 2988 3500 
L 3597 3500 
L 2059 -325 
z
" transform="scale(0.015625)"/>
       <path id="DejaVuSans-72" d="M 2631 2963 
Q 2534 3019 2420 3045 
Q 2306 3072 2169 3072 
Q 1681 3072 1420 2755 
Q 1159 2438 1159 1844 
L 1159 0 
L 581 0 
L 581 3500 
L 1159 3500 
L 1159 2956 
Q 1341 3275 1631 3429 
Q 1922 3584 2338 3584 
Q 2397 3584 2469 3576 
Q 2541 3569 2628 3553 
L 2631 2963 
z
" transform="scale(0.015625)"/>
       <path id="DejaVuSans-5d" d="M 1947 4863 
L 1947 -844 
L 622 -844 
L 622 -397 
L 1369 -397 
L 1369 4416 
L 622 4416 
L 622 4863 
L 1947 4863 
z
" transform="scale(0.015625)"/>
      </defs>
      <use xlink:href="#DejaVuSans-Oblique-62" transform="translate(0 0.684375)"/>
      <use xlink:href="#DejaVuSans-Oblique-74" transform="translate(63.476562 -15.721875)scale(0.7)"/>
      <use xlink:href="#DejaVuSans-20" transform="translate(93.657227 0.684375)"/>
      <use xlink:href="#DejaVuSans-5b" transform="translate(125.444336 0.684375)"/>
      <use xlink:href="#DejaVuSans-6d" transform="translate(164.458008 0.684375)"/>
      <use xlink:href="#DejaVuSans-20" transform="translate(261.870117 0.684375)"/>
      <use xlink:href="#DejaVuSans-79" transform="translate(293.657227 0.684375)"/>
      <use xlink:href="#DejaVuSans-72" transform="translate(352.836914 0.684375)"/>
      <use xlink:href="#DejaVuSans-2212" transform="translate(394.907227 38.965625)scale(0.7)"/>
      <use xlink:href="#DejaVuSans-31" transform="translate(453.55957 38.965625)scale(0.7)"/>
      <use xlink:href="#DejaVuSans-5d" transform="translate(500.830078 0.684375)"/>
     </g>
    </g>
   </g>
   <g id="matplotlib.axis_2">
    <g id="ytick_1">
     <g id="line2d_51">
      <path d="M 40.5 132.760957 
L 149.673913 132.760957 
" clip-path="url(#p89868ebf49)" style="fill: none; stroke: #b0b0b0; stroke-opacity: 0.75; stroke-width: 0.5; stroke-linecap: square"/>
     </g>
     <g id="line2d_52">
      <defs>
       <path id="ma3f44cb621" d="M 0 0 
L 4 0 
" style="stroke: #000000; stroke-width: 0.8"/>
      </defs>
      <g>
       <use xlink:href="#ma3f44cb621" x="40.5" y="132.760957" style="stroke: #000000; stroke-width: 0.8"/>
      </g>
     </g>
    </g>
    <g id="ytick_2">
     <g id="line2d_53">
      <path d="M 40.5 78.174 
L 149.673913 78.174 
" clip-path="url(#p89868ebf49)" style="fill: none; stroke: #b0b0b0; stroke-opacity: 0.75; stroke-width: 0.5; stroke-linecap: square"/>
     </g>
     <g id="line2d_54">
      <g>
       <use xlink:href="#ma3f44cb621" x="40.5" y="78.174" style="stroke: #000000; stroke-width: 0.8"/>
      </g>
     </g>
     <g id="text_6">
      <!-- 0.1 -->
      <g transform="translate(23.752697 81.338749)scale(0.0833 -0.0833)">
       <defs>
        <path id="DejaVuSans-2e" d="M 684 794 
L 1344 794 
L 1344 0 
L 684 0 
L 684 794 
z
" transform="scale(0.015625)"/>
       </defs>
       <use xlink:href="#DejaVuSans-30"/>
       <use xlink:href="#DejaVuSans-2e" x="63.623047"/>
       <use xlink:href="#DejaVuSans-31" x="95.410156"/>
      </g>
     </g>
    </g>
    <g id="ytick_3">
     <g id="line2d_55">
      <path d="M 40.5 23.587043 
L 149.673913 23.587043 
" clip-path="url(#p89868ebf49)" style="fill: none; stroke: #b0b0b0; stroke-opacity: 0.75; stroke-width: 0.5; stroke-linecap: square"/>
     </g>
     <g id="line2d_56">
      <g>
       <use xlink:href="#ma3f44cb621" x="40.5" y="23.587043" style="stroke: #000000; stroke-width: 0.8"/>
      </g>
     </g>
     <g id="text_7">
      <!-- 0.2 -->
      <g transform="translate(23.752697 26.751793)scale(0.0833 -0.0833)">
       <use xlink:href="#DejaVuSans-30"/>
       <use xlink:href="#DejaVuSans-2e" x="63.623047"/>
       <use xlink:href="#DejaVuSans-32" x="95.410156"/>
      </g>
     </g>
    </g>
    <g id="ytick_4">
     <g id="line2d_57">
      <path d="M 40.5 105.467478 
L 149.673913 105.467478 
" clip-path="url(#p89868ebf49)" style="fill: none; stroke: #b0b0b0; stroke-opacity: 0.25; stroke-width: 0.5; stroke-linecap: square"/>
     </g>
     <g id="line2d_58">
      <defs>
       <path id="mcb116a1b8f" d="M 0 0 
L 2 0 
" style="stroke: #000000; stroke-width: 0.6"/>
      </defs>
      <g>
       <use xlink:href="#mcb116a1b8f" x="40.5" y="105.467478" style="stroke: #000000; stroke-width: 0.6"/>
      </g>
     </g>
    </g>
    <g id="ytick_5">
     <g id="line2d_59">
      <path d="M 40.5 50.880522 
L 149.673913 50.880522 
" clip-path="url(#p89868ebf49)" style="fill: none; stroke: #b0b0b0; stroke-opacity: 0.25; stroke-width: 0.5; stroke-linecap: square"/>
     </g>
     <g id="line2d_60">
      <g>
       <use xlink:href="#mcb116a1b8f" x="40.5" y="50.880522" style="stroke: #000000; stroke-width: 0.6"/>
      </g>
     </g>
    </g>
    <g id="text_8">
     <!-- Probability dens. -->
     <g transform="translate(18.309394 107.066087)rotate(-90)scale(0.0694 -0.0694)">
      <defs>
       <path id="DejaVuSans-50" d="M 1259 4147 
L 1259 2394 
L 2053 2394 
Q 2494 2394 2734 2622 
Q 2975 2850 2975 3272 
Q 2975 3691 2734 3919 
Q 2494 4147 2053 4147 
L 1259 4147 
z
M 628 4666 
L 2053 4666 
Q 2838 4666 3239 4311 
Q 3641 3956 3641 3272 
Q 3641 2581 3239 2228 
Q 2838 1875 2053 1875 
L 1259 1875 
L 1259 0 
L 628 0 
L 628 4666 
z
" transform="scale(0.015625)"/>
       <path id="DejaVuSans-6f" d="M 1959 3097 
Q 1497 3097 1228 2736 
Q 959 2375 959 1747 
Q 959 1119 1226 758 
Q 1494 397 1959 397 
Q 2419 397 2687 759 
Q 2956 1122 2956 1747 
Q 2956 2369 2687 2733 
Q 2419 3097 1959 3097 
z
M 1959 3584 
Q 2709 3584 3137 3096 
Q 3566 2609 3566 1747 
Q 3566 888 3137 398 
Q 2709 -91 1959 -91 
Q 1206 -91 779 398 
Q 353 888 353 1747 
Q 353 2609 779 3096 
Q 1206 3584 1959 3584 
z
" transform="scale(0.015625)"/>
       <path id="DejaVuSans-62" d="M 3116 1747 
Q 3116 2381 2855 2742 
Q 2594 3103 2138 3103 
Q 1681 3103 1420 2742 
Q 1159 2381 1159 1747 
Q 1159 1113 1420 752 
Q 1681 391 2138 391 
Q 2594 391 2855 752 
Q 3116 1113 3116 1747 
z
M 1159 2969 
Q 1341 3281 1617 3432 
Q 1894 3584 2278 3584 
Q 2916 3584 3314 3078 
Q 3713 2572 3713 1747 
Q 3713 922 3314 415 
Q 2916 -91 2278 -91 
Q 1894 -91 1617 61 
Q 1341 213 1159 525 
L 1159 0 
L 581 0 
L 581 4863 
L 1159 4863 
L 1159 2969 
z
" transform="scale(0.015625)"/>
       <path id="DejaVuSans-61" d="M 2194 1759 
Q 1497 1759 1228 1600 
Q 959 1441 959 1056 
Q 959 750 1161 570 
Q 1363 391 1709 391 
Q 2188 391 2477 730 
Q 2766 1069 2766 1631 
L 2766 1759 
L 2194 1759 
z
M 3341 1997 
L 3341 0 
L 2766 0 
L 2766 531 
Q 2569 213 2275 61 
Q 1981 -91 1556 -91 
Q 1019 -91 701 211 
Q 384 513 384 1019 
Q 384 1609 779 1909 
Q 1175 2209 1959 2209 
L 2766 2209 
L 2766 2266 
Q 2766 2663 2505 2880 
Q 2244 3097 1772 3097 
Q 1472 3097 1187 3025 
Q 903 2953 641 2809 
L 641 3341 
Q 956 3463 1253 3523 
Q 1550 3584 1831 3584 
Q 2591 3584 2966 3190 
Q 3341 2797 3341 1997 
z
" transform="scale(0.015625)"/>
       <path id="DejaVuSans-69" d="M 603 3500 
L 1178 3500 
L 1178 0 
L 603 0 
L 603 3500 
z
M 603 4863 
L 1178 4863 
L 1178 4134 
L 603 4134 
L 603 4863 
z
" transform="scale(0.015625)"/>
       <path id="DejaVuSans-6c" d="M 603 4863 
L 1178 4863 
L 1178 0 
L 603 0 
L 603 4863 
z
" transform="scale(0.015625)"/>
       <path id="DejaVuSans-74" d="M 1172 4494 
L 1172 3500 
L 2356 3500 
L 2356 3053 
L 1172 3053 
L 1172 1153 
Q 1172 725 1289 603 
Q 1406 481 1766 481 
L 2356 481 
L 2356 0 
L 1766 0 
Q 1100 0 847 248 
Q 594 497 594 1153 
L 594 3053 
L 172 3053 
L 172 3500 
L 594 3500 
L 594 4494 
L 1172 4494 
z
" transform="scale(0.015625)"/>
       <path id="DejaVuSans-64" d="M 2906 2969 
L 2906 4863 
L 3481 4863 
L 3481 0 
L 2906 0 
L 2906 525 
Q 2725 213 2448 61 
Q 2172 -91 1784 -91 
Q 1150 -91 751 415 
Q 353 922 353 1747 
Q 353 2572 751 3078 
Q 1150 3584 1784 3584 
Q 2172 3584 2448 3432 
Q 2725 3281 2906 2969 
z
M 947 1747 
Q 947 1113 1208 752 
Q 1469 391 1925 391 
Q 2381 391 2643 752 
Q 2906 1113 2906 1747 
Q 2906 2381 2643 2742 
Q 2381 3103 1925 3103 
Q 1469 3103 1208 2742 
Q 947 2381 947 1747 
z
" transform="scale(0.015625)"/>
       <path id="DejaVuSans-65" d="M 3597 1894 
L 3597 1613 
L 953 1613 
Q 991 1019 1311 708 
Q 1631 397 2203 397 
Q 2534 397 2845 478 
Q 3156 559 3463 722 
L 3463 178 
Q 3153 47 2828 -22 
Q 2503 -91 2169 -91 
Q 1331 -91 842 396 
Q 353 884 353 1716 
Q 353 2575 817 3079 
Q 1281 3584 2069 3584 
Q 2775 3584 3186 3129 
Q 3597 2675 3597 1894 
z
M 3022 2063 
Q 3016 2534 2758 2815 
Q 2500 3097 2075 3097 
Q 1594 3097 1305 2825 
Q 1016 2553 972 2059 
L 3022 2063 
z
" transform="scale(0.015625)"/>
       <path id="DejaVuSans-6e" d="M 3513 2113 
L 3513 0 
L 2938 0 
L 2938 2094 
Q 2938 2591 2744 2837 
Q 2550 3084 2163 3084 
Q 1697 3084 1428 2787 
Q 1159 2491 1159 1978 
L 1159 0 
L 581 0 
L 581 3500 
L 1159 3500 
L 1159 2956 
Q 1366 3272 1645 3428 
Q 1925 3584 2291 3584 
Q 2894 3584 3203 3211 
Q 3513 2838 3513 2113 
z
" transform="scale(0.015625)"/>
       <path id="DejaVuSans-73" d="M 2834 3397 
L 2834 2853 
Q 2591 2978 2328 3040 
Q 2066 3103 1784 3103 
Q 1356 3103 1142 2972 
Q 928 2841 928 2578 
Q 928 2378 1081 2264 
Q 1234 2150 1697 2047 
L 1894 2003 
Q 2506 1872 2764 1633 
Q 3022 1394 3022 966 
Q 3022 478 2636 193 
Q 2250 -91 1575 -91 
Q 1294 -91 989 -36 
Q 684 19 347 128 
L 347 722 
Q 666 556 975 473 
Q 1284 391 1588 391 
Q 1994 391 2212 530 
Q 2431 669 2431 922 
Q 2431 1156 2273 1281 
Q 2116 1406 1581 1522 
L 1381 1569 
Q 847 1681 609 1914 
Q 372 2147 372 2553 
Q 372 3047 722 3315 
Q 1072 3584 1716 3584 
Q 2034 3584 2315 3537 
Q 2597 3491 2834 3397 
z
" transform="scale(0.015625)"/>
      </defs>
      <use xlink:href="#DejaVuSans-50"/>
      <use xlink:href="#DejaVuSans-72" x="58.552734"/>
      <use xlink:href="#DejaVuSans-6f" x="97.416016"/>
      <use xlink:href="#DejaVuSans-62" x="158.597656"/>
      <use xlink:href="#DejaVuSans-61" x="222.074219"/>
      <use xlink:href="#DejaVuSans-62" x="283.353516"/>
      <use xlink:href="#DejaVuSans-69" x="346.830078"/>
      <use xlink:href="#DejaVuSans-6c" x="374.613281"/>
      <use xlink:href="#DejaVuSans-69" x="402.396484"/>
      <use xlink:href="#DejaVuSans-74" x="430.179688"/>
      <use xlink:href="#DejaVuSans-79" x="469.388672"/>
      <use xlink:href="#DejaVuSans-20" x="528.568359"/>
      <use xlink:href="#DejaVuSans-64" x="560.355469"/>
      <use xlink:href="#DejaVuSans-65" x="623.832031"/>
      <use xlink:href="#DejaVuSans-6e" x="685.355469"/>
      <use xlink:href="#DejaVuSans-73" x="748.734375"/>
      <use xlink:href="#DejaVuSans-2e" x="800.833984"/>
     </g>
    </g>
   </g>
   <g id="line2d_61">
    <path d="M 40.5 132.663619 
L 40.5 132.663619 
L 42.728039 132.663619 
L 42.728039 132.566281 
L 44.956078 132.566281 
L 44.956078 132.663619 
L 47.184117 132.663619 
L 47.184117 132.760957 
L 49.412156 132.760957 
L 49.412156 132.663619 
L 51.640195 132.663619 
L 51.640195 132.566281 
L 53.868234 132.566281 
L 53.868234 132.468944 
L 56.096273 132.468944 
L 56.096273 132.566281 
L 58.324312 132.566281 
L 58.324312 132.371606 
L 60.552351 132.371606 
L 60.552351 132.079593 
L 62.78039 132.079593 
L 62.78039 132.176931 
L 65.008429 132.176931 
L 65.008429 132.371606 
L 67.236469 132.371606 
L 67.236469 132.468944 
L 69.464508 132.468944 
L 69.464508 131.592905 
L 71.692547 131.592905 
L 71.692547 131.495567 
L 73.920586 131.495567 
L 73.920586 132.371606 
L 76.148625 132.371606 
L 76.148625 130.716866 
L 78.376664 130.716866 
L 78.376664 131.495567 
L 80.604703 131.495567 
L 80.604703 131.106216 
L 82.832742 131.106216 
L 82.832742 131.398229 
L 85.060781 131.398229 
L 85.060781 130.619528 
L 87.28882 130.619528 
L 87.28882 130.424853 
L 89.516859 130.424853 
L 89.516859 130.035502 
L 91.744898 130.035502 
L 91.744898 129.451476 
L 93.972937 129.451476 
L 93.972937 128.186087 
L 96.200976 128.186087 
L 96.200976 128.088749 
L 98.429015 128.088749 
L 98.429015 125.752645 
L 100.657054 125.752645 
L 100.657054 126.239334 
L 102.885093 126.239334 
L 102.885093 123.416542 
L 105.113132 123.416542 
L 105.113132 122.929853 
L 107.341171 122.929853 
L 107.341171 120.9831 
L 109.56921 120.9831 
L 109.56921 120.59375 
L 111.797249 120.59375 
L 111.797249 117.576282 
L 114.025288 117.576282 
L 114.025288 119.231023 
L 116.253327 119.231023 
L 116.253327 111.833361 
L 118.481366 111.833361 
L 118.481366 110.470634 
L 120.709406 110.470634 
L 120.709406 108.037192 
L 122.937445 108.037192 
L 122.937445 102.002258 
L 125.165484 102.002258 
L 125.165484 90.419077 
L 127.393523 90.419077 
L 127.393523 87.498947 
L 129.621562 87.498947 
L 129.621562 86.330895 
L 131.849601 86.330895 
L 131.849601 80.782649 
L 134.07764 80.782649 
L 134.07764 81.366675 
L 136.305679 81.366675 
L 136.305679 92.268492 
L 138.533718 92.268492 
L 138.533718 103.949011 
L 140.761757 103.949011 
L 140.761757 116.700244 
L 142.989796 116.700244 
L 142.989796 127.018035 
L 145.217835 127.018035 
L 145.217835 131.884918 
L 147.445874 131.884918 
L 147.445874 132.760957 
L 149.673913 132.760957 
" clip-path="url(#p89868ebf49)" style="fill: none; stroke: #1f77b4; stroke-width: 1.5; stroke-linecap: square"/>
   </g>
   <g id="line2d_62">
    <path d="M 40.5 125.4048 
L 40.5 125.4048 
L 42.728039 125.4048 
L 42.728039 129.121191 
L 44.956078 129.121191 
L 44.956078 132.485405 
L 47.184117 132.485405 
L 47.184117 132.760957 
L 49.412156 132.760957 
L 49.412156 131.674173 
L 51.640195 131.674173 
L 51.640195 127.721469 
L 53.868234 127.721469 
L 53.868234 130.667188 
L 56.096273 130.667188 
L 56.096273 124.132598 
L 58.324312 124.132598 
L 58.324312 127.364616 
L 60.552351 127.364616 
L 60.552351 128.321717 
L 62.78039 128.321717 
L 62.78039 119.283139 
L 65.008429 119.283139 
L 65.008429 121.870352 
L 67.236469 121.870352 
L 67.236469 120.070284 
L 69.464508 120.070284 
L 69.464508 91.780392 
L 71.692547 91.780392 
L 71.692547 119.983163 
L 73.920586 119.983163 
L 73.920586 130.14712 
L 76.148625 130.14712 
L 76.148625 122.127778 
L 78.376664 122.127778 
L 78.376664 129.663963 
L 80.604703 129.663963 
L 80.604703 121.734071 
L 82.832742 121.734071 
L 82.832742 122.029115 
L 85.060781 122.029115 
L 85.060781 115.541944 
L 87.28882 115.541944 
L 87.28882 113.579393 
L 89.516859 113.579393 
L 89.516859 115.713689 
L 91.744898 115.713689 
L 91.744898 110.487074 
L 93.972937 110.487074 
L 93.972937 118.615271 
L 96.200976 118.615271 
L 96.200976 119.516557 
L 98.429015 119.516557 
L 98.429015 111.341028 
L 100.657054 111.341028 
L 100.657054 117.321637 
L 102.885093 117.321637 
L 102.885093 114.453722 
L 105.113132 114.453722 
L 105.113132 116.434883 
L 107.341171 116.434883 
L 107.341171 117.87949 
L 109.56921 117.87949 
L 109.56921 119.073975 
L 111.797249 119.073975 
L 111.797249 114.980705 
L 114.025288 114.980705 
L 114.025288 98.618493 
L 116.253327 98.618493 
L 116.253327 122.247683 
L 118.481366 122.247683 
L 118.481366 121.728474 
L 120.709406 121.728474 
L 120.709406 123.733548 
L 122.937445 123.733548 
L 122.937445 121.180217 
L 125.165484 121.180217 
L 125.165484 110.899098 
L 127.393523 110.899098 
L 127.393523 121.739667 
L 129.621562 121.739667 
L 129.621562 115.754677 
L 131.849601 115.754677 
L 131.849601 122.275364 
L 134.07764 122.275364 
L 134.07764 124.684567 
L 136.305679 124.684567 
L 136.305679 126.876459 
L 138.533718 126.876459 
L 138.533718 128.531739 
L 140.761757 128.531739 
L 140.761757 130.805091 
L 142.989796 130.805091 
L 142.989796 131.647041 
L 145.217835 131.647041 
L 145.217835 132.65137 
L 147.445874 132.65137 
L 147.445874 132.760957 
L 149.673913 132.760957 
" clip-path="url(#p89868ebf49)" style="fill: none; stroke: #ff7f0e; stroke-width: 1.5; stroke-linecap: square"/>
   </g>
   <g id="line2d_63">
    <path d="M 128.139119 132.760957 
L 128.139119 23.587043 
" clip-path="url(#p89868ebf49)" style="fill: none; stroke-dasharray: 3.7,1.6; stroke-dashoffset: 0; stroke: #1f77b4"/>
   </g>
   <g id="line2d_64">
    <path d="M 98.694397 132.760957 
L 98.694397 23.587043 
" clip-path="url(#p89868ebf49)" style="fill: none; stroke-dasharray: 3.7,1.6; stroke-dashoffset: 0; stroke: #ff7f0e"/>
   </g>
   <g id="patch_3">
    <path d="M 40.5 132.760957 
L 40.5 23.587043 
" style="fill: none; stroke: #000000; stroke-width: 0.8; stroke-linejoin: miter; stroke-linecap: square"/>
   </g>
   <g id="patch_4">
    <path d="M 149.673913 132.760957 
L 149.673913 23.587043 
" style="fill: none; stroke: #000000; stroke-width: 0.8; stroke-linejoin: miter; stroke-linecap: square"/>
   </g>
   <g id="patch_5">
    <path d="M 40.5 132.760957 
L 149.673913 132.760957 
" style="fill: none; stroke: #000000; stroke-width: 0.8; stroke-linejoin: miter; stroke-linecap: square"/>
   </g>
   <g id="patch_6">
    <path d="M 40.5 23.587043 
L 149.673913 23.587043 
" style="fill: none; stroke: #000000; stroke-width: 0.8; stroke-linejoin: miter; stroke-linecap: square"/>
   </g>
   <g id="text_9">
    <!-- (a) -->
    <g transform="translate(151.48587 15.545588)scale(0.0833 -0.0833)">
     <defs>
      <path id="Arial-BoldMT-28" d="M 1916 -1347 
L 1313 -1347 
Q 834 -625 584 153 
Q 334 931 334 1659 
Q 334 2563 644 3369 
Q 913 4069 1325 4659 
L 1925 4659 
Q 1497 3713 1336 3048 
Q 1175 2384 1175 1641 
Q 1175 1128 1270 590 
Q 1366 53 1531 -431 
Q 1641 -750 1916 -1347 
z
" transform="scale(0.015625)"/>
      <path id="Arial-BoldMT-61" d="M 1116 2306 
L 319 2450 
Q 453 2931 781 3162 
Q 1109 3394 1756 3394 
Q 2344 3394 2631 3255 
Q 2919 3116 3036 2902 
Q 3153 2688 3153 2116 
L 3144 1091 
Q 3144 653 3186 445 
Q 3228 238 3344 0 
L 2475 0 
Q 2441 88 2391 259 
Q 2369 338 2359 363 
Q 2134 144 1878 34 
Q 1622 -75 1331 -75 
Q 819 -75 523 203 
Q 228 481 228 906 
Q 228 1188 362 1408 
Q 497 1628 739 1745 
Q 981 1863 1438 1950 
Q 2053 2066 2291 2166 
L 2291 2253 
Q 2291 2506 2166 2614 
Q 2041 2722 1694 2722 
Q 1459 2722 1328 2630 
Q 1197 2538 1116 2306 
z
M 2291 1594 
Q 2122 1538 1756 1459 
Q 1391 1381 1278 1306 
Q 1106 1184 1106 997 
Q 1106 813 1243 678 
Q 1381 544 1594 544 
Q 1831 544 2047 700 
Q 2206 819 2256 991 
Q 2291 1103 2291 1419 
L 2291 1594 
z
" transform="scale(0.015625)"/>
      <path id="Arial-BoldMT-29" d="M 216 -1347 
Q 475 -791 581 -494 
Q 688 -197 778 190 
Q 869 578 912 926 
Q 956 1275 956 1641 
Q 956 2384 797 3048 
Q 638 3713 209 4659 
L 806 4659 
Q 1278 3988 1539 3234 
Q 1800 2481 1800 1706 
Q 1800 1053 1594 306 
Q 1359 -531 822 -1347 
L 216 -1347 
z
" transform="scale(0.015625)"/>
     </defs>
     <use xlink:href="#Arial-BoldMT-28"/>
     <use xlink:href="#Arial-BoldMT-61" x="33.300781"/>
     <use xlink:href="#Arial-BoldMT-29" x="88.916016"/>
    </g>
   </g>
  </g>
  <g id="axes_2">
   <g id="patch_7">
    <path d="M 182.426087 132.760957 
L 291.6 132.760957 
L 291.6 23.587043 
L 182.426087 23.587043 
z
" style="fill: #ffffff"/>
   </g>
   <g id="matplotlib.axis_3">
    <g id="xtick_26">
     <g id="line2d_65">
      <path d="M 184.097116 132.760957 
L 184.097116 23.587043 
" clip-path="url(#pbd349b1d44)" style="fill: none; stroke: #b0b0b0; stroke-opacity: 0.75; stroke-width: 0.5; stroke-linecap: square"/>
     </g>
     <g id="line2d_66">
      <g>
       <use xlink:href="#m234b940dfc" x="184.097116" y="132.760957" style="stroke: #000000; stroke-width: 0.8"/>
      </g>
     </g>
     <g id="text_10">
      <!-- −12 -->
      <g transform="translate(175.307014 142.590455)scale(0.0833 -0.0833)">
       <use xlink:href="#DejaVuSans-2212"/>
       <use xlink:href="#DejaVuSans-31" x="83.789062"/>
       <use xlink:href="#DejaVuSans-32" x="147.412109"/>
      </g>
     </g>
    </g>
    <g id="xtick_27">
     <g id="line2d_67">
      <path d="M 219.745741 132.760957 
L 219.745741 23.587043 
" clip-path="url(#pbd349b1d44)" style="fill: none; stroke: #b0b0b0; stroke-opacity: 0.75; stroke-width: 0.5; stroke-linecap: square"/>
     </g>
     <g id="line2d_68">
      <g>
       <use xlink:href="#m234b940dfc" x="219.745741" y="132.760957" style="stroke: #000000; stroke-width: 0.8"/>
      </g>
     </g>
     <g id="text_11">
      <!-- −8 -->
      <g transform="translate(213.60562 142.590455)scale(0.0833 -0.0833)">
       <use xlink:href="#DejaVuSans-2212"/>
       <use xlink:href="#DejaVuSans-38" x="83.789062"/>
      </g>
     </g>
    </g>
    <g id="xtick_28">
     <g id="line2d_69">
      <path d="M 255.394366 132.760957 
L 255.394366 23.587043 
" clip-path="url(#pbd349b1d44)" style="fill: none; stroke: #b0b0b0; stroke-opacity: 0.75; stroke-width: 0.5; stroke-linecap: square"/>
     </g>
     <g id="line2d_70">
      <g>
       <use xlink:href="#m234b940dfc" x="255.394366" y="132.760957" style="stroke: #000000; stroke-width: 0.8"/>
      </g>
     </g>
     <g id="text_12">
      <!-- −4 -->
      <g transform="translate(249.254244 142.590455)scale(0.0833 -0.0833)">
       <use xlink:href="#DejaVuSans-2212"/>
       <use xlink:href="#DejaVuSans-34" x="83.789062"/>
      </g>
     </g>
    </g>
    <g id="xtick_29">
     <g id="line2d_71">
      <path d="M 291.04299 132.760957 
L 291.04299 23.587043 
" clip-path="url(#pbd349b1d44)" style="fill: none; stroke: #b0b0b0; stroke-opacity: 0.75; stroke-width: 0.5; stroke-linecap: square"/>
     </g>
     <g id="line2d_72">
      <g>
       <use xlink:href="#m234b940dfc" x="291.04299" y="132.760957" style="stroke: #000000; stroke-width: 0.8"/>
      </g>
     </g>
     <g id="text_13">
      <!-- 0 -->
      <g transform="translate(288.393009 142.590455)scale(0.0833 -0.0833)">
       <use xlink:href="#DejaVuSans-30"/>
      </g>
     </g>
    </g>
    <g id="xtick_30">
     <g id="line2d_73">
      <path d="M 188.553194 132.760957 
L 188.553194 23.587043 
" clip-path="url(#pbd349b1d44)" style="fill: none; stroke: #b0b0b0; stroke-opacity: 0.25; stroke-width: 0.5; stroke-linecap: square"/>
     </g>
     <g id="line2d_74">
      <g>
       <use xlink:href="#mac4a13b6f7" x="188.553194" y="132.760957" style="stroke: #000000; stroke-width: 0.6"/>
      </g>
     </g>
    </g>
    <g id="xtick_31">
     <g id="line2d_75">
      <path d="M 193.009272 132.760957 
L 193.009272 23.587043 
" clip-path="url(#pbd349b1d44)" style="fill: none; stroke: #b0b0b0; stroke-opacity: 0.25; stroke-width: 0.5; stroke-linecap: square"/>
     </g>
     <g id="line2d_76">
      <g>
       <use xlink:href="#mac4a13b6f7" x="193.009272" y="132.760957" style="stroke: #000000; stroke-width: 0.6"/>
      </g>
     </g>
    </g>
    <g id="xtick_32">
     <g id="line2d_77">
      <path d="M 197.46535 132.760957 
L 197.46535 23.587043 
" clip-path="url(#pbd349b1d44)" style="fill: none; stroke: #b0b0b0; stroke-opacity: 0.25; stroke-width: 0.5; stroke-linecap: square"/>
     </g>
     <g id="line2d_78">
      <g>
       <use xlink:href="#mac4a13b6f7" x="197.46535" y="132.760957" style="stroke: #000000; stroke-width: 0.6"/>
      </g>
     </g>
    </g>
    <g id="xtick_33">
     <g id="line2d_79">
      <path d="M 201.921429 132.760957 
L 201.921429 23.587043 
" clip-path="url(#pbd349b1d44)" style="fill: none; stroke: #b0b0b0; stroke-opacity: 0.25; stroke-width: 0.5; stroke-linecap: square"/>
     </g>
     <g id="line2d_80">
      <g>
       <use xlink:href="#mac4a13b6f7" x="201.921429" y="132.760957" style="stroke: #000000; stroke-width: 0.6"/>
      </g>
     </g>
    </g>
    <g id="xtick_34">
     <g id="line2d_81">
      <path d="M 206.377507 132.760957 
L 206.377507 23.587043 
" clip-path="url(#pbd349b1d44)" style="fill: none; stroke: #b0b0b0; stroke-opacity: 0.25; stroke-width: 0.5; stroke-linecap: square"/>
     </g>
     <g id="line2d_82">
      <g>
       <use xlink:href="#mac4a13b6f7" x="206.377507" y="132.760957" style="stroke: #000000; stroke-width: 0.6"/>
      </g>
     </g>
    </g>
    <g id="xtick_35">
     <g id="line2d_83">
      <path d="M 210.833585 132.760957 
L 210.833585 23.587043 
" clip-path="url(#pbd349b1d44)" style="fill: none; stroke: #b0b0b0; stroke-opacity: 0.25; stroke-width: 0.5; stroke-linecap: square"/>
     </g>
     <g id="line2d_84">
      <g>
       <use xlink:href="#mac4a13b6f7" x="210.833585" y="132.760957" style="stroke: #000000; stroke-width: 0.6"/>
      </g>
     </g>
    </g>
    <g id="xtick_36">
     <g id="line2d_85">
      <path d="M 215.289663 132.760957 
L 215.289663 23.587043 
" clip-path="url(#pbd349b1d44)" style="fill: none; stroke: #b0b0b0; stroke-opacity: 0.25; stroke-width: 0.5; stroke-linecap: square"/>
     </g>
     <g id="line2d_86">
      <g>
       <use xlink:href="#mac4a13b6f7" x="215.289663" y="132.760957" style="stroke: #000000; stroke-width: 0.6"/>
      </g>
     </g>
    </g>
    <g id="xtick_37">
     <g id="line2d_87">
      <path d="M 224.201819 132.760957 
L 224.201819 23.587043 
" clip-path="url(#pbd349b1d44)" style="fill: none; stroke: #b0b0b0; stroke-opacity: 0.25; stroke-width: 0.5; stroke-linecap: square"/>
     </g>
     <g id="line2d_88">
      <g>
       <use xlink:href="#mac4a13b6f7" x="224.201819" y="132.760957" style="stroke: #000000; stroke-width: 0.6"/>
      </g>
     </g>
    </g>
    <g id="xtick_38">
     <g id="line2d_89">
      <path d="M 228.657897 132.760957 
L 228.657897 23.587043 
" clip-path="url(#pbd349b1d44)" style="fill: none; stroke: #b0b0b0; stroke-opacity: 0.25; stroke-width: 0.5; stroke-linecap: square"/>
     </g>
     <g id="line2d_90">
      <g>
       <use xlink:href="#mac4a13b6f7" x="228.657897" y="132.760957" style="stroke: #000000; stroke-width: 0.6"/>
      </g>
     </g>
    </g>
    <g id="xtick_39">
     <g id="line2d_91">
      <path d="M 233.113975 132.760957 
L 233.113975 23.587043 
" clip-path="url(#pbd349b1d44)" style="fill: none; stroke: #b0b0b0; stroke-opacity: 0.25; stroke-width: 0.5; stroke-linecap: square"/>
     </g>
     <g id="line2d_92">
      <g>
       <use xlink:href="#mac4a13b6f7" x="233.113975" y="132.760957" style="stroke: #000000; stroke-width: 0.6"/>
      </g>
     </g>
    </g>
    <g id="xtick_40">
     <g id="line2d_93">
      <path d="M 237.570053 132.760957 
L 237.570053 23.587043 
" clip-path="url(#pbd349b1d44)" style="fill: none; stroke: #b0b0b0; stroke-opacity: 0.25; stroke-width: 0.5; stroke-linecap: square"/>
     </g>
     <g id="line2d_94">
      <g>
       <use xlink:href="#mac4a13b6f7" x="237.570053" y="132.760957" style="stroke: #000000; stroke-width: 0.6"/>
      </g>
     </g>
    </g>
    <g id="xtick_41">
     <g id="line2d_95">
      <path d="M 242.026131 132.760957 
L 242.026131 23.587043 
" clip-path="url(#pbd349b1d44)" style="fill: none; stroke: #b0b0b0; stroke-opacity: 0.25; stroke-width: 0.5; stroke-linecap: square"/>
     </g>
     <g id="line2d_96">
      <g>
       <use xlink:href="#mac4a13b6f7" x="242.026131" y="132.760957" style="stroke: #000000; stroke-width: 0.6"/>
      </g>
     </g>
    </g>
    <g id="xtick_42">
     <g id="line2d_97">
      <path d="M 246.482209 132.760957 
L 246.482209 23.587043 
" clip-path="url(#pbd349b1d44)" style="fill: none; stroke: #b0b0b0; stroke-opacity: 0.25; stroke-width: 0.5; stroke-linecap: square"/>
     </g>
     <g id="line2d_98">
      <g>
       <use xlink:href="#mac4a13b6f7" x="246.482209" y="132.760957" style="stroke: #000000; stroke-width: 0.6"/>
      </g>
     </g>
    </g>
    <g id="xtick_43">
     <g id="line2d_99">
      <path d="M 250.938287 132.760957 
L 250.938287 23.587043 
" clip-path="url(#pbd349b1d44)" style="fill: none; stroke: #b0b0b0; stroke-opacity: 0.25; stroke-width: 0.5; stroke-linecap: square"/>
     </g>
     <g id="line2d_100">
      <g>
       <use xlink:href="#mac4a13b6f7" x="250.938287" y="132.760957" style="stroke: #000000; stroke-width: 0.6"/>
      </g>
     </g>
    </g>
    <g id="xtick_44">
     <g id="line2d_101">
      <path d="M 259.850444 132.760957 
L 259.850444 23.587043 
" clip-path="url(#pbd349b1d44)" style="fill: none; stroke: #b0b0b0; stroke-opacity: 0.25; stroke-width: 0.5; stroke-linecap: square"/>
     </g>
     <g id="line2d_102">
      <g>
       <use xlink:href="#mac4a13b6f7" x="259.850444" y="132.760957" style="stroke: #000000; stroke-width: 0.6"/>
      </g>
     </g>
    </g>
    <g id="xtick_45">
     <g id="line2d_103">
      <path d="M 264.306522 132.760957 
L 264.306522 23.587043 
" clip-path="url(#pbd349b1d44)" style="fill: none; stroke: #b0b0b0; stroke-opacity: 0.25; stroke-width: 0.5; stroke-linecap: square"/>
     </g>
     <g id="line2d_104">
      <g>
       <use xlink:href="#mac4a13b6f7" x="264.306522" y="132.760957" style="stroke: #000000; stroke-width: 0.6"/>
      </g>
     </g>
    </g>
    <g id="xtick_46">
     <g id="line2d_105">
      <path d="M 268.7626 132.760957 
L 268.7626 23.587043 
" clip-path="url(#pbd349b1d44)" style="fill: none; stroke: #b0b0b0; stroke-opacity: 0.25; stroke-width: 0.5; stroke-linecap: square"/>
     </g>
     <g id="line2d_106">
      <g>
       <use xlink:href="#mac4a13b6f7" x="268.7626" y="132.760957" style="stroke: #000000; stroke-width: 0.6"/>
      </g>
     </g>
    </g>
    <g id="xtick_47">
     <g id="line2d_107">
      <path d="M 273.218678 132.760957 
L 273.218678 23.587043 
" clip-path="url(#pbd349b1d44)" style="fill: none; stroke: #b0b0b0; stroke-opacity: 0.25; stroke-width: 0.5; stroke-linecap: square"/>
     </g>
     <g id="line2d_108">
      <g>
       <use xlink:href="#mac4a13b6f7" x="273.218678" y="132.760957" style="stroke: #000000; stroke-width: 0.6"/>
      </g>
     </g>
    </g>
    <g id="xtick_48">
     <g id="line2d_109">
      <path d="M 277.674756 132.760957 
L 277.674756 23.587043 
" clip-path="url(#pbd349b1d44)" style="fill: none; stroke: #b0b0b0; stroke-opacity: 0.25; stroke-width: 0.5; stroke-linecap: square"/>
     </g>
     <g id="line2d_110">
      <g>
       <use xlink:href="#mac4a13b6f7" x="277.674756" y="132.760957" style="stroke: #000000; stroke-width: 0.6"/>
      </g>
     </g>
    </g>
    <g id="xtick_49">
     <g id="line2d_111">
      <path d="M 282.130834 132.760957 
L 282.130834 23.587043 
" clip-path="url(#pbd349b1d44)" style="fill: none; stroke: #b0b0b0; stroke-opacity: 0.25; stroke-width: 0.5; stroke-linecap: square"/>
     </g>
     <g id="line2d_112">
      <g>
       <use xlink:href="#mac4a13b6f7" x="282.130834" y="132.760957" style="stroke: #000000; stroke-width: 0.6"/>
      </g>
     </g>
    </g>
    <g id="xtick_50">
     <g id="line2d_113">
      <path d="M 286.586912 132.760957 
L 286.586912 23.587043 
" clip-path="url(#pbd349b1d44)" style="fill: none; stroke: #b0b0b0; stroke-opacity: 0.25; stroke-width: 0.5; stroke-linecap: square"/>
     </g>
     <g id="line2d_114">
      <g>
       <use xlink:href="#mac4a13b6f7" x="286.586912" y="132.760957" style="stroke: #000000; stroke-width: 0.6"/>
      </g>
     </g>
    </g>
    <g id="text_14">
     <!-- $b_t$ [m yr$^{-1}$] -->
     <g transform="translate(218.275043 154.568835)scale(0.0694 -0.0694)">
      <use xlink:href="#DejaVuSans-Oblique-62" transform="translate(0 0.684375)"/>
      <use xlink:href="#DejaVuSans-Oblique-74" transform="translate(63.476562 -15.721875)scale(0.7)"/>
      <use xlink:href="#DejaVuSans-20" transform="translate(93.657227 0.684375)"/>
      <use xlink:href="#DejaVuSans-5b" transform="translate(125.444336 0.684375)"/>
      <use xlink:href="#DejaVuSans-6d" transform="translate(164.458008 0.684375)"/>
      <use xlink:href="#DejaVuSans-20" transform="translate(261.870117 0.684375)"/>
      <use xlink:href="#DejaVuSans-79" transform="translate(293.657227 0.684375)"/>
      <use xlink:href="#DejaVuSans-72" transform="translate(352.836914 0.684375)"/>
      <use xlink:href="#DejaVuSans-2212" transform="translate(394.907227 38.965625)scale(0.7)"/>
      <use xlink:href="#DejaVuSans-31" transform="translate(453.55957 38.965625)scale(0.7)"/>
      <use xlink:href="#DejaVuSans-5d" transform="translate(500.830078 0.684375)"/>
     </g>
    </g>
   </g>
   <g id="matplotlib.axis_4">
    <g id="ytick_6">
     <g id="line2d_115">
      <path d="M 182.426087 132.760957 
L 291.6 132.760957 
" clip-path="url(#pbd349b1d44)" style="fill: none; stroke: #b0b0b0; stroke-opacity: 0.75; stroke-width: 0.5; stroke-linecap: square"/>
     </g>
     <g id="line2d_116">
      <g>
       <use xlink:href="#ma3f44cb621" x="182.426087" y="132.760957" style="stroke: #000000; stroke-width: 0.8"/>
      </g>
     </g>
    </g>
    <g id="ytick_7">
     <g id="line2d_117">
      <path d="M 182.426087 110.926174 
L 291.6 110.926174 
" clip-path="url(#pbd349b1d44)" style="fill: none; stroke: #b0b0b0; stroke-opacity: 0.75; stroke-width: 0.5; stroke-linecap: square"/>
     </g>
     <g id="line2d_118">
      <g>
       <use xlink:href="#ma3f44cb621" x="182.426087" y="110.926174" style="stroke: #000000; stroke-width: 0.8"/>
      </g>
     </g>
     <g id="text_15">
      <!-- 0.2 -->
      <g transform="translate(165.678784 114.090923)scale(0.0833 -0.0833)">
       <use xlink:href="#DejaVuSans-30"/>
       <use xlink:href="#DejaVuSans-2e" x="63.623047"/>
       <use xlink:href="#DejaVuSans-32" x="95.410156"/>
      </g>
     </g>
    </g>
    <g id="ytick_8">
     <g id="line2d_119">
      <path d="M 182.426087 89.091391 
L 291.6 89.091391 
" clip-path="url(#pbd349b1d44)" style="fill: none; stroke: #b0b0b0; stroke-opacity: 0.75; stroke-width: 0.5; stroke-linecap: square"/>
     </g>
     <g id="line2d_120">
      <g>
       <use xlink:href="#ma3f44cb621" x="182.426087" y="89.091391" style="stroke: #000000; stroke-width: 0.8"/>
      </g>
     </g>
     <g id="text_16">
      <!-- 0.4 -->
      <g transform="translate(165.678784 92.256141)scale(0.0833 -0.0833)">
       <use xlink:href="#DejaVuSans-30"/>
       <use xlink:href="#DejaVuSans-2e" x="63.623047"/>
       <use xlink:href="#DejaVuSans-34" x="95.410156"/>
      </g>
     </g>
    </g>
    <g id="ytick_9">
     <g id="line2d_121">
      <path d="M 182.426087 67.256609 
L 291.6 67.256609 
" clip-path="url(#pbd349b1d44)" style="fill: none; stroke: #b0b0b0; stroke-opacity: 0.75; stroke-width: 0.5; stroke-linecap: square"/>
     </g>
     <g id="line2d_122">
      <g>
       <use xlink:href="#ma3f44cb621" x="182.426087" y="67.256609" style="stroke: #000000; stroke-width: 0.8"/>
      </g>
     </g>
     <g id="text_17">
      <!-- 0.6 -->
      <g transform="translate(165.678784 70.421358)scale(0.0833 -0.0833)">
       <defs>
        <path id="DejaVuSans-36" d="M 2113 2584 
Q 1688 2584 1439 2293 
Q 1191 2003 1191 1497 
Q 1191 994 1439 701 
Q 1688 409 2113 409 
Q 2538 409 2786 701 
Q 3034 994 3034 1497 
Q 3034 2003 2786 2293 
Q 2538 2584 2113 2584 
z
M 3366 4563 
L 3366 3988 
Q 3128 4100 2886 4159 
Q 2644 4219 2406 4219 
Q 1781 4219 1451 3797 
Q 1122 3375 1075 2522 
Q 1259 2794 1537 2939 
Q 1816 3084 2150 3084 
Q 2853 3084 3261 2657 
Q 3669 2231 3669 1497 
Q 3669 778 3244 343 
Q 2819 -91 2113 -91 
Q 1303 -91 875 529 
Q 447 1150 447 2328 
Q 447 3434 972 4092 
Q 1497 4750 2381 4750 
Q 2619 4750 2861 4703 
Q 3103 4656 3366 4563 
z
" transform="scale(0.015625)"/>
       </defs>
       <use xlink:href="#DejaVuSans-30"/>
       <use xlink:href="#DejaVuSans-2e" x="63.623047"/>
       <use xlink:href="#DejaVuSans-36" x="95.410156"/>
      </g>
     </g>
    </g>
    <g id="ytick_10">
     <g id="line2d_123">
      <path d="M 182.426087 45.421826 
L 291.6 45.421826 
" clip-path="url(#pbd349b1d44)" style="fill: none; stroke: #b0b0b0; stroke-opacity: 0.75; stroke-width: 0.5; stroke-linecap: square"/>
     </g>
     <g id="line2d_124">
      <g>
       <use xlink:href="#ma3f44cb621" x="182.426087" y="45.421826" style="stroke: #000000; stroke-width: 0.8"/>
      </g>
     </g>
     <g id="text_18">
      <!-- 0.8 -->
      <g transform="translate(165.678784 48.586575)scale(0.0833 -0.0833)">
       <use xlink:href="#DejaVuSans-30"/>
       <use xlink:href="#DejaVuSans-2e" x="63.623047"/>
       <use xlink:href="#DejaVuSans-38" x="95.410156"/>
      </g>
     </g>
    </g>
    <g id="ytick_11">
     <g id="line2d_125">
      <path d="M 182.426087 23.587043 
L 291.6 23.587043 
" clip-path="url(#pbd349b1d44)" style="fill: none; stroke: #b0b0b0; stroke-opacity: 0.75; stroke-width: 0.5; stroke-linecap: square"/>
     </g>
     <g id="line2d_126">
      <g>
       <use xlink:href="#ma3f44cb621" x="182.426087" y="23.587043" style="stroke: #000000; stroke-width: 0.8"/>
      </g>
     </g>
     <g id="text_19">
      <!-- 1.0 -->
      <g transform="translate(165.678784 26.751793)scale(0.0833 -0.0833)">
       <use xlink:href="#DejaVuSans-31"/>
       <use xlink:href="#DejaVuSans-2e" x="63.623047"/>
       <use xlink:href="#DejaVuSans-30" x="95.410156"/>
      </g>
     </g>
    </g>
    <g id="ytick_12">
     <g id="line2d_127">
      <path d="M 182.426087 121.843565 
L 291.6 121.843565 
" clip-path="url(#pbd349b1d44)" style="fill: none; stroke: #b0b0b0; stroke-opacity: 0.25; stroke-width: 0.5; stroke-linecap: square"/>
     </g>
     <g id="line2d_128">
      <g>
       <use xlink:href="#mcb116a1b8f" x="182.426087" y="121.843565" style="stroke: #000000; stroke-width: 0.6"/>
      </g>
     </g>
    </g>
    <g id="ytick_13">
     <g id="line2d_129">
      <path d="M 182.426087 100.008783 
L 291.6 100.008783 
" clip-path="url(#pbd349b1d44)" style="fill: none; stroke: #b0b0b0; stroke-opacity: 0.25; stroke-width: 0.5; stroke-linecap: square"/>
     </g>
     <g id="line2d_130">
      <g>
       <use xlink:href="#mcb116a1b8f" x="182.426087" y="100.008783" style="stroke: #000000; stroke-width: 0.6"/>
      </g>
     </g>
    </g>
    <g id="ytick_14">
     <g id="line2d_131">
      <path d="M 182.426087 78.174 
L 291.6 78.174 
" clip-path="url(#pbd349b1d44)" style="fill: none; stroke: #b0b0b0; stroke-opacity: 0.25; stroke-width: 0.5; stroke-linecap: square"/>
     </g>
     <g id="line2d_132">
      <g>
       <use xlink:href="#mcb116a1b8f" x="182.426087" y="78.174" style="stroke: #000000; stroke-width: 0.6"/>
      </g>
     </g>
    </g>
    <g id="ytick_15">
     <g id="line2d_133">
      <path d="M 182.426087 56.339217 
L 291.6 56.339217 
" clip-path="url(#pbd349b1d44)" style="fill: none; stroke: #b0b0b0; stroke-opacity: 0.25; stroke-width: 0.5; stroke-linecap: square"/>
     </g>
     <g id="line2d_134">
      <g>
       <use xlink:href="#mcb116a1b8f" x="182.426087" y="56.339217" style="stroke: #000000; stroke-width: 0.6"/>
      </g>
     </g>
    </g>
    <g id="ytick_16">
     <g id="line2d_135">
      <path d="M 182.426087 34.504435 
L 291.6 34.504435 
" clip-path="url(#pbd349b1d44)" style="fill: none; stroke: #b0b0b0; stroke-opacity: 0.25; stroke-width: 0.5; stroke-linecap: square"/>
     </g>
     <g id="line2d_136">
      <g>
       <use xlink:href="#mcb116a1b8f" x="182.426087" y="34.504435" style="stroke: #000000; stroke-width: 0.6"/>
      </g>
     </g>
    </g>
    <g id="text_20">
     <!-- Cumulative frac. -->
     <g transform="translate(160.235481 106.867105)rotate(-90)scale(0.0694 -0.0694)">
      <defs>
       <path id="DejaVuSans-43" d="M 4122 4306 
L 4122 3641 
Q 3803 3938 3442 4084 
Q 3081 4231 2675 4231 
Q 1875 4231 1450 3742 
Q 1025 3253 1025 2328 
Q 1025 1406 1450 917 
Q 1875 428 2675 428 
Q 3081 428 3442 575 
Q 3803 722 4122 1019 
L 4122 359 
Q 3791 134 3420 21 
Q 3050 -91 2638 -91 
Q 1578 -91 968 557 
Q 359 1206 359 2328 
Q 359 3453 968 4101 
Q 1578 4750 2638 4750 
Q 3056 4750 3426 4639 
Q 3797 4528 4122 4306 
z
" transform="scale(0.015625)"/>
       <path id="DejaVuSans-75" d="M 544 1381 
L 544 3500 
L 1119 3500 
L 1119 1403 
Q 1119 906 1312 657 
Q 1506 409 1894 409 
Q 2359 409 2629 706 
Q 2900 1003 2900 1516 
L 2900 3500 
L 3475 3500 
L 3475 0 
L 2900 0 
L 2900 538 
Q 2691 219 2414 64 
Q 2138 -91 1772 -91 
Q 1169 -91 856 284 
Q 544 659 544 1381 
z
M 1991 3584 
L 1991 3584 
z
" transform="scale(0.015625)"/>
       <path id="DejaVuSans-76" d="M 191 3500 
L 800 3500 
L 1894 563 
L 2988 3500 
L 3597 3500 
L 2284 0 
L 1503 0 
L 191 3500 
z
" transform="scale(0.015625)"/>
       <path id="DejaVuSans-66" d="M 2375 4863 
L 2375 4384 
L 1825 4384 
Q 1516 4384 1395 4259 
Q 1275 4134 1275 3809 
L 1275 3500 
L 2222 3500 
L 2222 3053 
L 1275 3053 
L 1275 0 
L 697 0 
L 697 3053 
L 147 3053 
L 147 3500 
L 697 3500 
L 697 3744 
Q 697 4328 969 4595 
Q 1241 4863 1831 4863 
L 2375 4863 
z
" transform="scale(0.015625)"/>
       <path id="DejaVuSans-63" d="M 3122 3366 
L 3122 2828 
Q 2878 2963 2633 3030 
Q 2388 3097 2138 3097 
Q 1578 3097 1268 2742 
Q 959 2388 959 1747 
Q 959 1106 1268 751 
Q 1578 397 2138 397 
Q 2388 397 2633 464 
Q 2878 531 3122 666 
L 3122 134 
Q 2881 22 2623 -34 
Q 2366 -91 2075 -91 
Q 1284 -91 818 406 
Q 353 903 353 1747 
Q 353 2603 823 3093 
Q 1294 3584 2113 3584 
Q 2378 3584 2631 3529 
Q 2884 3475 3122 3366 
z
" transform="scale(0.015625)"/>
      </defs>
      <use xlink:href="#DejaVuSans-43"/>
      <use xlink:href="#DejaVuSans-75" x="69.824219"/>
      <use xlink:href="#DejaVuSans-6d" x="133.203125"/>
      <use xlink:href="#DejaVuSans-75" x="230.615234"/>
      <use xlink:href="#DejaVuSans-6c" x="293.994141"/>
      <use xlink:href="#DejaVuSans-61" x="321.777344"/>
      <use xlink:href="#DejaVuSans-74" x="383.056641"/>
      <use xlink:href="#DejaVuSans-69" x="422.265625"/>
      <use xlink:href="#DejaVuSans-76" x="450.048828"/>
      <use xlink:href="#DejaVuSans-65" x="509.228516"/>
      <use xlink:href="#DejaVuSans-20" x="570.751953"/>
      <use xlink:href="#DejaVuSans-66" x="602.539062"/>
      <use xlink:href="#DejaVuSans-72" x="637.744141"/>
      <use xlink:href="#DejaVuSans-61" x="678.857422"/>
      <use xlink:href="#DejaVuSans-63" x="740.136719"/>
      <use xlink:href="#DejaVuSans-2e" x="795.117188"/>
     </g>
    </g>
   </g>
   <g id="line2d_137">
    <path d="M 182.426087 78.174 
L 291.6 78.174 
" clip-path="url(#pbd349b1d44)" style="fill: none; stroke-dasharray: 3.7,1.6; stroke-dashoffset: 0; stroke: #000000"/>
   </g>
   <g id="line2d_138">
    <path d="M 182.426087 132.741489 
L 182.426087 132.741489 
L 184.654126 132.741489 
L 184.654126 132.702554 
L 186.882165 132.702554 
L 186.882165 132.683086 
L 189.110204 132.683086 
L 189.110204 132.683086 
L 191.338243 132.683086 
L 191.338243 132.663619 
L 193.566282 132.663619 
L 193.566282 132.624684 
L 195.794321 132.624684 
L 195.794321 132.566281 
L 198.02236 132.566281 
L 198.02236 132.527346 
L 200.250399 132.527346 
L 200.250399 132.449476 
L 202.478438 132.449476 
L 202.478438 132.313203 
L 204.706477 132.313203 
L 204.706477 132.196398 
L 206.934516 132.196398 
L 206.934516 132.118528 
L 209.162555 132.118528 
L 209.162555 132.060125 
L 211.390594 132.060125 
L 211.390594 131.826515 
L 213.618634 131.826515 
L 213.618634 131.573437 
L 215.846673 131.573437 
L 215.846673 131.495567 
L 218.074712 131.495567 
L 218.074712 131.086749 
L 220.302751 131.086749 
L 220.302751 130.833671 
L 222.53079 130.833671 
L 222.53079 130.502723 
L 224.758829 130.502723 
L 224.758829 130.230178 
L 226.986868 130.230178 
L 226.986868 129.801892 
L 229.214907 129.801892 
L 229.214907 129.334671 
L 231.442946 129.334671 
L 231.442946 128.78958 
L 233.670985 128.78958 
L 233.670985 128.127684 
L 235.899024 128.127684 
L 235.899024 127.21271 
L 238.127063 127.21271 
L 238.127063 126.278269 
L 240.355102 126.278269 
L 240.355102 124.876607 
L 242.583141 124.876607 
L 242.583141 123.572282 
L 244.81118 123.572282 
L 244.81118 121.703399 
L 247.039219 121.703399 
L 247.039219 119.737178 
L 249.267258 119.737178 
L 249.267258 117.381607 
L 251.495297 117.381607 
L 251.495297 114.948166 
L 253.723336 114.948166 
L 253.723336 111.911231 
L 255.951375 111.911231 
L 255.951375 109.205244 
L 258.179414 109.205244 
L 258.179414 105.019725 
L 260.407453 105.019725 
L 260.407453 100.56166 
L 262.635492 100.56166 
L 262.635492 95.616908 
L 264.863531 95.616908 
L 264.863531 89.465168 
L 267.091571 89.465168 
L 267.091571 80.996792 
L 269.31961 80.996792 
L 269.31961 71.94439 
L 271.547649 71.94439 
L 271.547649 62.658378 
L 273.775688 62.658378 
L 273.775688 52.262716 
L 276.003727 52.262716 
L 276.003727 41.98386 
L 278.231766 41.98386 
L 278.231766 33.885367 
L 280.459805 33.885367 
L 280.459805 28.122978 
L 282.687844 28.122978 
L 282.687844 24.910836 
L 284.915883 24.910836 
L 284.915883 23.762251 
L 287.143922 23.762251 
L 287.143922 23.587043 
L 289.371961 23.587043 
L 289.371961 23.587043 
L 291.6 23.587043 
" clip-path="url(#pbd349b1d44)" style="fill: none; stroke: #1f77b4; stroke-width: 1.5; stroke-linecap: square"/>
   </g>
   <g id="line2d_139">
    <path d="M 182.426087 131.289725 
L 182.426087 131.289725 
L 184.654126 131.289725 
L 184.654126 130.561772 
L 186.882165 130.561772 
L 186.882165 130.506662 
L 189.110204 130.506662 
L 189.110204 130.506662 
L 191.338243 130.506662 
L 191.338243 130.289305 
L 193.566282 130.289305 
L 193.566282 129.281408 
L 195.794321 129.281408 
L 195.794321 128.862654 
L 198.02236 128.862654 
L 198.02236 127.136982 
L 200.250399 127.136982 
L 200.250399 126.057714 
L 202.478438 126.057714 
L 202.478438 125.169866 
L 204.706477 125.169866 
L 204.706477 122.474303 
L 206.934516 122.474303 
L 206.934516 120.296182 
L 209.162555 120.296182 
L 209.162555 117.758047 
L 211.390594 117.758047 
L 211.390594 109.561934 
L 213.618634 109.561934 
L 213.618634 107.006376 
L 215.846673 107.006376 
L 215.846673 106.483608 
L 218.074712 106.483608 
L 218.074712 104.356973 
L 220.302751 104.356973 
L 220.302751 103.737574 
L 222.53079 103.737574 
L 222.53079 101.532197 
L 224.758829 101.532197 
L 224.758829 99.385829 
L 226.986868 99.385829 
L 226.986868 95.942026 
L 229.214907 95.942026 
L 229.214907 92.105713 
L 231.442946 92.105713 
L 231.442946 88.69626 
L 233.670985 88.69626 
L 233.670985 84.241483 
L 235.899024 84.241483 
L 235.899024 81.412346 
L 238.127063 81.412346 
L 238.127063 78.763467 
L 240.355102 78.763467 
L 240.355102 74.479481 
L 242.583141 74.479481 
L 242.583141 71.391617 
L 244.81118 71.391617 
L 244.81118 67.73017 
L 247.039219 67.73017 
L 247.039219 64.464955 
L 249.267258 64.464955 
L 249.267258 61.488662 
L 251.495297 61.488662 
L 251.495297 58.751266 
L 253.723336 58.751266 
L 253.723336 55.195215 
L 255.951375 55.195215 
L 255.951375 48.366723 
L 258.179414 48.366723 
L 258.179414 46.264068 
L 260.407453 46.264068 
L 260.407453 44.057572 
L 262.635492 44.057572 
L 262.635492 42.25209 
L 264.863531 42.25209 
L 264.863531 39.935942 
L 267.091571 39.935942 
L 267.091571 35.56357 
L 269.31961 35.56357 
L 269.31961 33.359312 
L 271.547649 33.359312 
L 271.547649 29.958056 
L 273.775688 29.958056 
L 273.775688 27.860938 
L 276.003727 27.860938 
L 276.003727 26.24566 
L 278.231766 26.24566 
L 278.231766 25.06876 
L 280.459805 25.06876 
L 280.459805 24.222917 
L 282.687844 24.222917 
L 282.687844 23.831744 
L 284.915883 23.831744 
L 284.915883 23.608961 
L 287.143922 23.608961 
L 287.143922 23.587043 
L 289.371961 23.587043 
L 289.371961 23.587043 
L 291.6 23.587043 
" clip-path="url(#pbd349b1d44)" style="fill: none; stroke: #ff7f0e; stroke-width: 1.5; stroke-linecap: square"/>
   </g>
   <g id="line2d_140">
    <path d="M 270.065206 132.760957 
L 270.065206 78.174 
" clip-path="url(#pbd349b1d44)" style="fill: none; stroke-dasharray: 3.7,1.6; stroke-dashoffset: 0; stroke: #1f77b4"/>
   </g>
   <g id="line2d_141">
    <path d="M 240.620484 132.760957 
L 240.620484 78.174 
" clip-path="url(#pbd349b1d44)" style="fill: none; stroke-dasharray: 3.7,1.6; stroke-dashoffset: 0; stroke: #ff7f0e"/>
   </g>
   <g id="patch_8">
    <path d="M 182.426087 132.760957 
L 182.426087 23.587043 
" style="fill: none; stroke: #000000; stroke-width: 0.8; stroke-linejoin: miter; stroke-linecap: square"/>
   </g>
   <g id="patch_9">
    <path d="M 291.6 132.760957 
L 291.6 23.587043 
" style="fill: none; stroke: #000000; stroke-width: 0.8; stroke-linejoin: miter; stroke-linecap: square"/>
   </g>
   <g id="patch_10">
    <path d="M 182.426087 132.760957 
L 291.6 132.760957 
" style="fill: none; stroke: #000000; stroke-width: 0.8; stroke-linejoin: miter; stroke-linecap: square"/>
   </g>
   <g id="patch_11">
    <path d="M 182.426087 23.587043 
L 291.6 23.587043 
" style="fill: none; stroke: #000000; stroke-width: 0.8; stroke-linejoin: miter; stroke-linecap: square"/>
   </g>
   <g id="text_21">
    <!-- (b) -->
    <g transform="translate(293.411957 15.545588)scale(0.0833 -0.0833)">
     <defs>
      <path id="Arial-BoldMT-62" d="M 422 0 
L 422 4581 
L 1300 4581 
L 1300 2931 
Q 1706 3394 2263 3394 
Q 2869 3394 3266 2955 
Q 3663 2516 3663 1694 
Q 3663 844 3258 384 
Q 2853 -75 2275 -75 
Q 1991 -75 1714 67 
Q 1438 209 1238 488 
L 1238 0 
L 422 0 
z
M 1294 1731 
Q 1294 1216 1456 969 
Q 1684 619 2063 619 
Q 2353 619 2558 867 
Q 2763 1116 2763 1650 
Q 2763 2219 2556 2470 
Q 2350 2722 2028 2722 
Q 1713 2722 1503 2476 
Q 1294 2231 1294 1731 
z
" transform="scale(0.015625)"/>
     </defs>
     <use xlink:href="#Arial-BoldMT-28"/>
     <use xlink:href="#Arial-BoldMT-62" x="33.300781"/>
     <use xlink:href="#Arial-BoldMT-29" x="94.384766"/>
    </g>
   </g>
  </g>
 </g>
 <defs>
  <clipPath id="p89868ebf49">
   <rect x="40.5" y="23.587043" width="109.173913" height="109.173913"/>
  </clipPath>
  <clipPath id="pbd349b1d44">
   <rect x="182.426087" y="23.587043" width="109.173913" height="109.173913"/>
  </clipPath>
 </defs>
</svg>
