<?xml version="1.0" encoding="utf-8" standalone="no"?>
<!DOCTYPE svg PUBLIC "-//W3C//DTD SVG 1.1//EN"
  "http://www.w3.org/Graphics/SVG/1.1/DTD/svg11.dtd">
<svg xmlns:xlink="http://www.w3.org/1999/xlink" width="365.399543pt" height="265.885027pt" viewBox="0 0 365.399543 265.885027" xmlns="http://www.w3.org/2000/svg" version="1.1">
 <metadata>
  <rdf:RDF xmlns:dc="http://purl.org/dc/elements/1.1/" xmlns:cc="http://creativecommons.org/ns#" xmlns:rdf="http://www.w3.org/1999/02/22-rdf-syntax-ns#">
   <cc:Work>
    <dc:type rdf:resource="http://purl.org/dc/dcmitype/StillImage"/>
    <dc:date>2024-10-21T19:19:47.200875</dc:date>
    <dc:format>image/svg+xml</dc:format>
    <dc:creator>
     <cc:Agent>
      <dc:title>Matplotlib v3.8.4, https://matplotlib.org/</dc:title>
     </cc:Agent>
    </dc:creator>
   </cc:Work>
  </rdf:RDF>
 </metadata>
 <defs>
  <style type="text/css">*{stroke-linejoin: round; stroke-linecap: butt}</style>
 </defs>
 <g id="figure_1">
  <g id="patch_1">
   <path d="M 0 265.885027 
L 365.399543 265.885027 
L 365.399543 0 
L 0 0 
z
" style="fill: #ffffff"/>
  </g>
  <g id="axes_1">
   <g id="patch_2">
    <path d="M 34.86 82.869129 
L 342.124521 82.869129 
L 342.124521 10.063125 
L 34.86 10.063125 
z
" style="fill: #ffffff"/>
   </g>
   <g id="line2d_1">
    <path d="M 34.86 72.468272 
L 342.124521 72.468272 
" clip-path="url(#p67176a82a5)" style="fill: none; stroke: #b6b6b6; stroke-width: 0.5; stroke-linecap: square"/>
   </g>
   <g id="matplotlib.axis_1">
    <g id="xtick_1">
     <g id="line2d_2">
      <path d="M 34.86 82.869129 
L 34.86 10.063125 
" clip-path="url(#p67176a82a5)" style="fill: none; stroke-dasharray: 0.5,0.825; stroke-dashoffset: 0; stroke: #b0b0b0; stroke-opacity: 0.75; stroke-width: 0.5"/>
     </g>
     <g id="line2d_3">
      <defs>
       <path id="m2bb4f39bfe" d="M 0 0 
L 0 -4 
" style="stroke: #000000; stroke-width: 0.8"/>
      </defs>
      <g>
       <use xlink:href="#m2bb4f39bfe" x="34.86" y="82.869129" style="stroke: #000000; stroke-width: 0.8"/>
      </g>
     </g>
     <g id="text_1">
      <!-- 1880 -->
      <g transform="translate(25.9625 92.095379) scale(0.08 -0.08)">
       <defs>
        <path id="ArialMT-31" d="M 2384 0 
L 1822 0 
L 1822 3584 
Q 1619 3391 1289 3197 
Q 959 3003 697 2906 
L 697 3450 
Q 1169 3672 1522 3987 
Q 1875 4303 2022 4600 
L 2384 4600 
L 2384 0 
z
" transform="scale(0.015625)"/>
        <path id="ArialMT-38" d="M 1131 2484 
Q 781 2613 612 2850 
Q 444 3088 444 3419 
Q 444 3919 803 4259 
Q 1163 4600 1759 4600 
Q 2359 4600 2725 4251 
Q 3091 3903 3091 3403 
Q 3091 3084 2923 2848 
Q 2756 2613 2416 2484 
Q 2838 2347 3058 2040 
Q 3278 1734 3278 1309 
Q 3278 722 2862 322 
Q 2447 -78 1769 -78 
Q 1091 -78 675 323 
Q 259 725 259 1325 
Q 259 1772 486 2073 
Q 713 2375 1131 2484 
z
M 1019 3438 
Q 1019 3113 1228 2906 
Q 1438 2700 1772 2700 
Q 2097 2700 2305 2904 
Q 2513 3109 2513 3406 
Q 2513 3716 2298 3927 
Q 2084 4138 1766 4138 
Q 1444 4138 1231 3931 
Q 1019 3725 1019 3438 
z
M 838 1322 
Q 838 1081 952 856 
Q 1066 631 1291 507 
Q 1516 384 1775 384 
Q 2178 384 2440 643 
Q 2703 903 2703 1303 
Q 2703 1709 2433 1975 
Q 2163 2241 1756 2241 
Q 1359 2241 1098 1978 
Q 838 1716 838 1322 
z
" transform="scale(0.015625)"/>
        <path id="ArialMT-30" d="M 266 2259 
Q 266 3072 433 3567 
Q 600 4063 929 4331 
Q 1259 4600 1759 4600 
Q 2128 4600 2406 4451 
Q 2684 4303 2865 4023 
Q 3047 3744 3150 3342 
Q 3253 2941 3253 2259 
Q 3253 1453 3087 958 
Q 2922 463 2592 192 
Q 2263 -78 1759 -78 
Q 1097 -78 719 397 
Q 266 969 266 2259 
z
M 844 2259 
Q 844 1131 1108 757 
Q 1372 384 1759 384 
Q 2147 384 2411 759 
Q 2675 1134 2675 2259 
Q 2675 3391 2411 3762 
Q 2147 4134 1753 4134 
Q 1366 4134 1134 3806 
Q 844 3388 844 2259 
z
" transform="scale(0.015625)"/>
       </defs>
       <use xlink:href="#ArialMT-31"/>
       <use xlink:href="#ArialMT-38" x="55.615234"/>
       <use xlink:href="#ArialMT-38" x="111.230469"/>
       <use xlink:href="#ArialMT-30" x="166.845703"/>
      </g>
     </g>
    </g>
    <g id="xtick_2">
     <g id="line2d_4">
      <path d="M 78.754932 82.869129 
L 78.754932 10.063125 
" clip-path="url(#p67176a82a5)" style="fill: none; stroke-dasharray: 0.5,0.825; stroke-dashoffset: 0; stroke: #b0b0b0; stroke-opacity: 0.75; stroke-width: 0.5"/>
     </g>
     <g id="line2d_5">
      <g>
       <use xlink:href="#m2bb4f39bfe" x="78.754932" y="82.869129" style="stroke: #000000; stroke-width: 0.8"/>
      </g>
     </g>
     <g id="text_2">
      <!-- 1900 -->
      <g transform="translate(69.857432 92.095379) scale(0.08 -0.08)">
       <defs>
        <path id="ArialMT-39" d="M 350 1059 
L 891 1109 
Q 959 728 1153 556 
Q 1347 384 1650 384 
Q 1909 384 2104 503 
Q 2300 622 2425 820 
Q 2550 1019 2634 1356 
Q 2719 1694 2719 2044 
Q 2719 2081 2716 2156 
Q 2547 1888 2255 1720 
Q 1963 1553 1622 1553 
Q 1053 1553 659 1965 
Q 266 2378 266 3053 
Q 266 3750 677 4175 
Q 1088 4600 1706 4600 
Q 2153 4600 2523 4359 
Q 2894 4119 3086 3673 
Q 3278 3228 3278 2384 
Q 3278 1506 3087 986 
Q 2897 466 2520 194 
Q 2144 -78 1638 -78 
Q 1100 -78 759 220 
Q 419 519 350 1059 
z
M 2653 3081 
Q 2653 3566 2395 3850 
Q 2138 4134 1775 4134 
Q 1400 4134 1122 3828 
Q 844 3522 844 3034 
Q 844 2597 1108 2323 
Q 1372 2050 1759 2050 
Q 2150 2050 2401 2323 
Q 2653 2597 2653 3081 
z
" transform="scale(0.015625)"/>
       </defs>
       <use xlink:href="#ArialMT-31"/>
       <use xlink:href="#ArialMT-39" x="55.615234"/>
       <use xlink:href="#ArialMT-30" x="111.230469"/>
       <use xlink:href="#ArialMT-30" x="166.845703"/>
      </g>
     </g>
    </g>
    <g id="xtick_3">
     <g id="line2d_6">
      <path d="M 122.649863 82.869129 
L 122.649863 10.063125 
" clip-path="url(#p67176a82a5)" style="fill: none; stroke-dasharray: 0.5,0.825; stroke-dashoffset: 0; stroke: #b0b0b0; stroke-opacity: 0.75; stroke-width: 0.5"/>
     </g>
     <g id="line2d_7">
      <g>
       <use xlink:href="#m2bb4f39bfe" x="122.649863" y="82.869129" style="stroke: #000000; stroke-width: 0.8"/>
      </g>
     </g>
     <g id="text_3">
      <!-- 1920 -->
      <g transform="translate(113.752363 92.095379) scale(0.08 -0.08)">
       <defs>
        <path id="ArialMT-32" d="M 3222 541 
L 3222 0 
L 194 0 
Q 188 203 259 391 
Q 375 700 629 1000 
Q 884 1300 1366 1694 
Q 2113 2306 2375 2664 
Q 2638 3022 2638 3341 
Q 2638 3675 2398 3904 
Q 2159 4134 1775 4134 
Q 1369 4134 1125 3890 
Q 881 3647 878 3216 
L 300 3275 
Q 359 3922 746 4261 
Q 1134 4600 1788 4600 
Q 2447 4600 2831 4234 
Q 3216 3869 3216 3328 
Q 3216 3053 3103 2787 
Q 2991 2522 2730 2228 
Q 2469 1934 1863 1422 
Q 1356 997 1212 845 
Q 1069 694 975 541 
L 3222 541 
z
" transform="scale(0.015625)"/>
       </defs>
       <use xlink:href="#ArialMT-31"/>
       <use xlink:href="#ArialMT-39" x="55.615234"/>
       <use xlink:href="#ArialMT-32" x="111.230469"/>
       <use xlink:href="#ArialMT-30" x="166.845703"/>
      </g>
     </g>
    </g>
    <g id="xtick_4">
     <g id="line2d_8">
      <path d="M 166.544795 82.869129 
L 166.544795 10.063125 
" clip-path="url(#p67176a82a5)" style="fill: none; stroke-dasharray: 0.5,0.825; stroke-dashoffset: 0; stroke: #b0b0b0; stroke-opacity: 0.75; stroke-width: 0.5"/>
     </g>
     <g id="line2d_9">
      <g>
       <use xlink:href="#m2bb4f39bfe" x="166.544795" y="82.869129" style="stroke: #000000; stroke-width: 0.8"/>
      </g>
     </g>
     <g id="text_4">
      <!-- 1940 -->
      <g transform="translate(157.647295 92.095379) scale(0.08 -0.08)">
       <defs>
        <path id="ArialMT-34" d="M 2069 0 
L 2069 1097 
L 81 1097 
L 81 1613 
L 2172 4581 
L 2631 4581 
L 2631 1613 
L 3250 1613 
L 3250 1097 
L 2631 1097 
L 2631 0 
L 2069 0 
z
M 2069 1613 
L 2069 3678 
L 634 1613 
L 2069 1613 
z
" transform="scale(0.015625)"/>
       </defs>
       <use xlink:href="#ArialMT-31"/>
       <use xlink:href="#ArialMT-39" x="55.615234"/>
       <use xlink:href="#ArialMT-34" x="111.230469"/>
       <use xlink:href="#ArialMT-30" x="166.845703"/>
      </g>
     </g>
    </g>
    <g id="xtick_5">
     <g id="line2d_10">
      <path d="M 210.439726 82.869129 
L 210.439726 10.063125 
" clip-path="url(#p67176a82a5)" style="fill: none; stroke-dasharray: 0.5,0.825; stroke-dashoffset: 0; stroke: #b0b0b0; stroke-opacity: 0.75; stroke-width: 0.5"/>
     </g>
     <g id="line2d_11">
      <g>
       <use xlink:href="#m2bb4f39bfe" x="210.439726" y="82.869129" style="stroke: #000000; stroke-width: 0.8"/>
      </g>
     </g>
     <g id="text_5">
      <!-- 1960 -->
      <g transform="translate(201.542226 92.095379) scale(0.08 -0.08)">
       <defs>
        <path id="ArialMT-36" d="M 3184 3459 
L 2625 3416 
Q 2550 3747 2413 3897 
Q 2184 4138 1850 4138 
Q 1581 4138 1378 3988 
Q 1113 3794 959 3422 
Q 806 3050 800 2363 
Q 1003 2672 1297 2822 
Q 1591 2972 1913 2972 
Q 2475 2972 2870 2558 
Q 3266 2144 3266 1488 
Q 3266 1056 3080 686 
Q 2894 316 2569 119 
Q 2244 -78 1831 -78 
Q 1128 -78 684 439 
Q 241 956 241 2144 
Q 241 3472 731 4075 
Q 1159 4600 1884 4600 
Q 2425 4600 2770 4297 
Q 3116 3994 3184 3459 
z
M 888 1484 
Q 888 1194 1011 928 
Q 1134 663 1356 523 
Q 1578 384 1822 384 
Q 2178 384 2434 671 
Q 2691 959 2691 1453 
Q 2691 1928 2437 2201 
Q 2184 2475 1800 2475 
Q 1419 2475 1153 2201 
Q 888 1928 888 1484 
z
" transform="scale(0.015625)"/>
       </defs>
       <use xlink:href="#ArialMT-31"/>
       <use xlink:href="#ArialMT-39" x="55.615234"/>
       <use xlink:href="#ArialMT-36" x="111.230469"/>
       <use xlink:href="#ArialMT-30" x="166.845703"/>
      </g>
     </g>
    </g>
    <g id="xtick_6">
     <g id="line2d_12">
      <path d="M 254.334658 82.869129 
L 254.334658 10.063125 
" clip-path="url(#p67176a82a5)" style="fill: none; stroke-dasharray: 0.5,0.825; stroke-dashoffset: 0; stroke: #b0b0b0; stroke-opacity: 0.75; stroke-width: 0.5"/>
     </g>
     <g id="line2d_13">
      <g>
       <use xlink:href="#m2bb4f39bfe" x="254.334658" y="82.869129" style="stroke: #000000; stroke-width: 0.8"/>
      </g>
     </g>
     <g id="text_6">
      <!-- 1980 -->
      <g transform="translate(245.437158 92.095379) scale(0.08 -0.08)">
       <use xlink:href="#ArialMT-31"/>
       <use xlink:href="#ArialMT-39" x="55.615234"/>
       <use xlink:href="#ArialMT-38" x="111.230469"/>
       <use xlink:href="#ArialMT-30" x="166.845703"/>
      </g>
     </g>
    </g>
    <g id="xtick_7">
     <g id="line2d_14">
      <path d="M 298.229589 82.869129 
L 298.229589 10.063125 
" clip-path="url(#p67176a82a5)" style="fill: none; stroke-dasharray: 0.5,0.825; stroke-dashoffset: 0; stroke: #b0b0b0; stroke-opacity: 0.75; stroke-width: 0.5"/>
     </g>
     <g id="line2d_15">
      <g>
       <use xlink:href="#m2bb4f39bfe" x="298.229589" y="82.869129" style="stroke: #000000; stroke-width: 0.8"/>
      </g>
     </g>
     <g id="text_7">
      <!-- 2000 -->
      <g transform="translate(289.332089 92.095379) scale(0.08 -0.08)">
       <use xlink:href="#ArialMT-32"/>
       <use xlink:href="#ArialMT-30" x="55.615234"/>
       <use xlink:href="#ArialMT-30" x="111.230469"/>
       <use xlink:href="#ArialMT-30" x="166.845703"/>
      </g>
     </g>
    </g>
    <g id="xtick_8">
     <g id="line2d_16">
      <path d="M 342.124521 82.869129 
L 342.124521 10.063125 
" clip-path="url(#p67176a82a5)" style="fill: none; stroke-dasharray: 0.5,0.825; stroke-dashoffset: 0; stroke: #b0b0b0; stroke-opacity: 0.75; stroke-width: 0.5"/>
     </g>
     <g id="line2d_17">
      <g>
       <use xlink:href="#m2bb4f39bfe" x="342.124521" y="82.869129" style="stroke: #000000; stroke-width: 0.8"/>
      </g>
     </g>
     <g id="text_8">
      <!-- 2020 -->
      <g transform="translate(333.227021 92.095379) scale(0.08 -0.08)">
       <use xlink:href="#ArialMT-32"/>
       <use xlink:href="#ArialMT-30" x="55.615234"/>
       <use xlink:href="#ArialMT-32" x="111.230469"/>
       <use xlink:href="#ArialMT-30" x="166.845703"/>
      </g>
     </g>
    </g>
    <g id="xtick_9">
     <g id="line2d_18">
      <path d="M 56.807466 82.869129 
L 56.807466 10.063125 
" clip-path="url(#p67176a82a5)" style="fill: none; stroke-dasharray: 0.5,0.825; stroke-dashoffset: 0; stroke: #b0b0b0; stroke-opacity: 0.25; stroke-width: 0.5"/>
     </g>
     <g id="line2d_19">
      <defs>
       <path id="m7c987d7eba" d="M 0 0 
L 0 -2 
" style="stroke: #000000; stroke-width: 0.6"/>
      </defs>
      <g>
       <use xlink:href="#m7c987d7eba" x="56.807466" y="82.869129" style="stroke: #000000; stroke-width: 0.6"/>
      </g>
     </g>
    </g>
    <g id="xtick_10">
     <g id="line2d_20">
      <path d="M 100.702397 82.869129 
L 100.702397 10.063125 
" clip-path="url(#p67176a82a5)" style="fill: none; stroke-dasharray: 0.5,0.825; stroke-dashoffset: 0; stroke: #b0b0b0; stroke-opacity: 0.25; stroke-width: 0.5"/>
     </g>
     <g id="line2d_21">
      <g>
       <use xlink:href="#m7c987d7eba" x="100.702397" y="82.869129" style="stroke: #000000; stroke-width: 0.6"/>
      </g>
     </g>
    </g>
    <g id="xtick_11">
     <g id="line2d_22">
      <path d="M 144.597329 82.869129 
L 144.597329 10.063125 
" clip-path="url(#p67176a82a5)" style="fill: none; stroke-dasharray: 0.5,0.825; stroke-dashoffset: 0; stroke: #b0b0b0; stroke-opacity: 0.25; stroke-width: 0.5"/>
     </g>
     <g id="line2d_23">
      <g>
       <use xlink:href="#m7c987d7eba" x="144.597329" y="82.869129" style="stroke: #000000; stroke-width: 0.6"/>
      </g>
     </g>
    </g>
    <g id="xtick_12">
     <g id="line2d_24">
      <path d="M 188.49226 82.869129 
L 188.49226 10.063125 
" clip-path="url(#p67176a82a5)" style="fill: none; stroke-dasharray: 0.5,0.825; stroke-dashoffset: 0; stroke: #b0b0b0; stroke-opacity: 0.25; stroke-width: 0.5"/>
     </g>
     <g id="line2d_25">
      <g>
       <use xlink:href="#m7c987d7eba" x="188.49226" y="82.869129" style="stroke: #000000; stroke-width: 0.6"/>
      </g>
     </g>
    </g>
    <g id="xtick_13">
     <g id="line2d_26">
      <path d="M 232.387192 82.869129 
L 232.387192 10.063125 
" clip-path="url(#p67176a82a5)" style="fill: none; stroke-dasharray: 0.5,0.825; stroke-dashoffset: 0; stroke: #b0b0b0; stroke-opacity: 0.25; stroke-width: 0.5"/>
     </g>
     <g id="line2d_27">
      <g>
       <use xlink:href="#m7c987d7eba" x="232.387192" y="82.869129" style="stroke: #000000; stroke-width: 0.6"/>
      </g>
     </g>
    </g>
    <g id="xtick_14">
     <g id="line2d_28">
      <path d="M 276.282123 82.869129 
L 276.282123 10.063125 
" clip-path="url(#p67176a82a5)" style="fill: none; stroke-dasharray: 0.5,0.825; stroke-dashoffset: 0; stroke: #b0b0b0; stroke-opacity: 0.25; stroke-width: 0.5"/>
     </g>
     <g id="line2d_29">
      <g>
       <use xlink:href="#m7c987d7eba" x="276.282123" y="82.869129" style="stroke: #000000; stroke-width: 0.6"/>
      </g>
     </g>
    </g>
    <g id="xtick_15">
     <g id="line2d_30">
      <path d="M 320.177055 82.869129 
L 320.177055 10.063125 
" clip-path="url(#p67176a82a5)" style="fill: none; stroke-dasharray: 0.5,0.825; stroke-dashoffset: 0; stroke: #b0b0b0; stroke-opacity: 0.25; stroke-width: 0.5"/>
     </g>
     <g id="line2d_31">
      <g>
       <use xlink:href="#m7c987d7eba" x="320.177055" y="82.869129" style="stroke: #000000; stroke-width: 0.6"/>
      </g>
     </g>
    </g>
   </g>
   <g id="matplotlib.axis_2">
    <g id="ytick_1">
     <g id="line2d_32">
      <path d="M 34.86 72.468272 
L 342.124521 72.468272 
" clip-path="url(#p67176a82a5)" style="fill: none; stroke-dasharray: 0.5,0.825; stroke-dashoffset: 0; stroke: #b0b0b0; stroke-opacity: 0.75; stroke-width: 0.5"/>
     </g>
     <g id="line2d_33">
      <defs>
       <path id="mae7d86426d" d="M 0 0 
L 4 0 
" style="stroke: #000000; stroke-width: 0.8"/>
      </defs>
      <g>
       <use xlink:href="#mae7d86426d" x="34.86" y="72.468272" style="stroke: #000000; stroke-width: 0.8"/>
      </g>
     </g>
     <g id="text_9">
      <!-- 0.0 -->
      <g transform="translate(20.24 75.331397) scale(0.08 -0.08)">
       <defs>
        <path id="ArialMT-2e" d="M 581 0 
L 581 641 
L 1222 641 
L 1222 0 
L 581 0 
z
" transform="scale(0.015625)"/>
       </defs>
       <use xlink:href="#ArialMT-30"/>
       <use xlink:href="#ArialMT-2e" x="55.615234"/>
       <use xlink:href="#ArialMT-30" x="83.398438"/>
      </g>
     </g>
    </g>
    <g id="ytick_2">
     <g id="line2d_34">
      <path d="M 34.86 51.666556 
L 342.124521 51.666556 
" clip-path="url(#p67176a82a5)" style="fill: none; stroke-dasharray: 0.5,0.825; stroke-dashoffset: 0; stroke: #b0b0b0; stroke-opacity: 0.75; stroke-width: 0.5"/>
     </g>
     <g id="line2d_35">
      <g>
       <use xlink:href="#mae7d86426d" x="34.86" y="51.666556" style="stroke: #000000; stroke-width: 0.8"/>
      </g>
     </g>
     <g id="text_10">
      <!-- 0.5 -->
      <g transform="translate(20.24 54.529681) scale(0.08 -0.08)">
       <defs>
        <path id="ArialMT-35" d="M 266 1200 
L 856 1250 
Q 922 819 1161 601 
Q 1400 384 1738 384 
Q 2144 384 2425 690 
Q 2706 997 2706 1503 
Q 2706 1984 2436 2262 
Q 2166 2541 1728 2541 
Q 1456 2541 1237 2417 
Q 1019 2294 894 2097 
L 366 2166 
L 809 4519 
L 3088 4519 
L 3088 3981 
L 1259 3981 
L 1013 2750 
Q 1425 3038 1878 3038 
Q 2478 3038 2890 2622 
Q 3303 2206 3303 1553 
Q 3303 931 2941 478 
Q 2500 -78 1738 -78 
Q 1113 -78 717 272 
Q 322 622 266 1200 
z
" transform="scale(0.015625)"/>
       </defs>
       <use xlink:href="#ArialMT-30"/>
       <use xlink:href="#ArialMT-2e" x="55.615234"/>
       <use xlink:href="#ArialMT-35" x="83.398438"/>
      </g>
     </g>
    </g>
    <g id="ytick_3">
     <g id="line2d_36">
      <path d="M 34.86 30.864841 
L 342.124521 30.864841 
" clip-path="url(#p67176a82a5)" style="fill: none; stroke-dasharray: 0.5,0.825; stroke-dashoffset: 0; stroke: #b0b0b0; stroke-opacity: 0.75; stroke-width: 0.5"/>
     </g>
     <g id="line2d_37">
      <g>
       <use xlink:href="#mae7d86426d" x="34.86" y="30.864841" style="stroke: #000000; stroke-width: 0.8"/>
      </g>
     </g>
     <g id="text_11">
      <!-- 1.0 -->
      <g transform="translate(20.24 33.727966) scale(0.08 -0.08)">
       <use xlink:href="#ArialMT-31"/>
       <use xlink:href="#ArialMT-2e" x="55.615234"/>
       <use xlink:href="#ArialMT-30" x="83.398438"/>
      </g>
     </g>
    </g>
    <g id="ytick_4">
     <g id="line2d_38">
      <path d="M 34.86 10.063125 
L 342.124521 10.063125 
" clip-path="url(#p67176a82a5)" style="fill: none; stroke-dasharray: 0.5,0.825; stroke-dashoffset: 0; stroke: #b0b0b0; stroke-opacity: 0.75; stroke-width: 0.5"/>
     </g>
     <g id="line2d_39">
      <g>
       <use xlink:href="#mae7d86426d" x="34.86" y="10.063125" style="stroke: #000000; stroke-width: 0.8"/>
      </g>
     </g>
     <g id="text_12">
      <!-- 1.5 -->
      <g transform="translate(20.24 12.92625) scale(0.08 -0.08)">
       <use xlink:href="#ArialMT-31"/>
       <use xlink:href="#ArialMT-2e" x="55.615234"/>
       <use xlink:href="#ArialMT-35" x="83.398438"/>
      </g>
     </g>
    </g>
    <g id="ytick_5">
     <g id="line2d_40">
      <path d="M 34.86 82.869129 
L 342.124521 82.869129 
" clip-path="url(#p67176a82a5)" style="fill: none; stroke-dasharray: 0.5,0.825; stroke-dashoffset: 0; stroke: #b0b0b0; stroke-opacity: 0.25; stroke-width: 0.5"/>
     </g>
     <g id="line2d_41">
      <defs>
       <path id="m2abf988d29" d="M 0 0 
L 2 0 
" style="stroke: #000000; stroke-width: 0.6"/>
      </defs>
      <g>
       <use xlink:href="#m2abf988d29" x="34.86" y="82.869129" style="stroke: #000000; stroke-width: 0.6"/>
      </g>
     </g>
    </g>
    <g id="ytick_6">
     <g id="line2d_42">
      <path d="M 34.86 62.067414 
L 342.124521 62.067414 
" clip-path="url(#p67176a82a5)" style="fill: none; stroke-dasharray: 0.5,0.825; stroke-dashoffset: 0; stroke: #b0b0b0; stroke-opacity: 0.25; stroke-width: 0.5"/>
     </g>
     <g id="line2d_43">
      <g>
       <use xlink:href="#m2abf988d29" x="34.86" y="62.067414" style="stroke: #000000; stroke-width: 0.6"/>
      </g>
     </g>
    </g>
    <g id="ytick_7">
     <g id="line2d_44">
      <path d="M 34.86 41.265698 
L 342.124521 41.265698 
" clip-path="url(#p67176a82a5)" style="fill: none; stroke-dasharray: 0.5,0.825; stroke-dashoffset: 0; stroke: #b0b0b0; stroke-opacity: 0.25; stroke-width: 0.5"/>
     </g>
     <g id="line2d_45">
      <g>
       <use xlink:href="#m2abf988d29" x="34.86" y="41.265698" style="stroke: #000000; stroke-width: 0.6"/>
      </g>
     </g>
    </g>
    <g id="ytick_8">
     <g id="line2d_46">
      <path d="M 34.86 20.463983 
L 342.124521 20.463983 
" clip-path="url(#p67176a82a5)" style="fill: none; stroke-dasharray: 0.5,0.825; stroke-dashoffset: 0; stroke: #b0b0b0; stroke-opacity: 0.25; stroke-width: 0.5"/>
     </g>
     <g id="line2d_47">
      <g>
       <use xlink:href="#m2abf988d29" x="34.86" y="20.463983" style="stroke: #000000; stroke-width: 0.6"/>
      </g>
     </g>
    </g>
    <g id="text_13">
     <!-- Anomaly [$^\degree$C] -->
     <g transform="translate(14.48 69.826127) rotate(-90) scale(0.08 -0.08)">
      <defs>
       <path id="ArialMT-41" d="M -9 0 
L 1750 4581 
L 2403 4581 
L 4278 0 
L 3588 0 
L 3053 1388 
L 1138 1388 
L 634 0 
L -9 0 
z
M 1313 1881 
L 2866 1881 
L 2388 3150 
Q 2169 3728 2063 4100 
Q 1975 3659 1816 3225 
L 1313 1881 
z
" transform="scale(0.015625)"/>
       <path id="ArialMT-6e" d="M 422 0 
L 422 3319 
L 928 3319 
L 928 2847 
Q 1294 3394 1984 3394 
Q 2284 3394 2536 3286 
Q 2788 3178 2913 3003 
Q 3038 2828 3088 2588 
Q 3119 2431 3119 2041 
L 3119 0 
L 2556 0 
L 2556 2019 
Q 2556 2363 2490 2533 
Q 2425 2703 2258 2804 
Q 2091 2906 1866 2906 
Q 1506 2906 1245 2678 
Q 984 2450 984 1813 
L 984 0 
L 422 0 
z
" transform="scale(0.015625)"/>
       <path id="ArialMT-6f" d="M 213 1659 
Q 213 2581 725 3025 
Q 1153 3394 1769 3394 
Q 2453 3394 2887 2945 
Q 3322 2497 3322 1706 
Q 3322 1066 3130 698 
Q 2938 331 2570 128 
Q 2203 -75 1769 -75 
Q 1072 -75 642 372 
Q 213 819 213 1659 
z
M 791 1659 
Q 791 1022 1069 705 
Q 1347 388 1769 388 
Q 2188 388 2466 706 
Q 2744 1025 2744 1678 
Q 2744 2294 2464 2611 
Q 2184 2928 1769 2928 
Q 1347 2928 1069 2612 
Q 791 2297 791 1659 
z
" transform="scale(0.015625)"/>
       <path id="ArialMT-6d" d="M 422 0 
L 422 3319 
L 925 3319 
L 925 2853 
Q 1081 3097 1340 3245 
Q 1600 3394 1931 3394 
Q 2300 3394 2536 3241 
Q 2772 3088 2869 2813 
Q 3263 3394 3894 3394 
Q 4388 3394 4653 3120 
Q 4919 2847 4919 2278 
L 4919 0 
L 4359 0 
L 4359 2091 
Q 4359 2428 4304 2576 
Q 4250 2725 4106 2815 
Q 3963 2906 3769 2906 
Q 3419 2906 3187 2673 
Q 2956 2441 2956 1928 
L 2956 0 
L 2394 0 
L 2394 2156 
Q 2394 2531 2256 2718 
Q 2119 2906 1806 2906 
Q 1569 2906 1367 2781 
Q 1166 2656 1075 2415 
Q 984 2175 984 1722 
L 984 0 
L 422 0 
z
" transform="scale(0.015625)"/>
       <path id="ArialMT-61" d="M 2588 409 
Q 2275 144 1986 34 
Q 1697 -75 1366 -75 
Q 819 -75 525 192 
Q 231 459 231 875 
Q 231 1119 342 1320 
Q 453 1522 633 1644 
Q 813 1766 1038 1828 
Q 1203 1872 1538 1913 
Q 2219 1994 2541 2106 
Q 2544 2222 2544 2253 
Q 2544 2597 2384 2738 
Q 2169 2928 1744 2928 
Q 1347 2928 1158 2789 
Q 969 2650 878 2297 
L 328 2372 
Q 403 2725 575 2942 
Q 747 3159 1072 3276 
Q 1397 3394 1825 3394 
Q 2250 3394 2515 3294 
Q 2781 3194 2906 3042 
Q 3031 2891 3081 2659 
Q 3109 2516 3109 2141 
L 3109 1391 
Q 3109 606 3145 398 
Q 3181 191 3288 0 
L 2700 0 
Q 2613 175 2588 409 
z
M 2541 1666 
Q 2234 1541 1622 1453 
Q 1275 1403 1131 1340 
Q 988 1278 909 1158 
Q 831 1038 831 891 
Q 831 666 1001 516 
Q 1172 366 1500 366 
Q 1825 366 2078 508 
Q 2331 650 2450 897 
Q 2541 1088 2541 1459 
L 2541 1666 
z
" transform="scale(0.015625)"/>
       <path id="ArialMT-6c" d="M 409 0 
L 409 4581 
L 972 4581 
L 972 0 
L 409 0 
z
" transform="scale(0.015625)"/>
       <path id="ArialMT-79" d="M 397 -1278 
L 334 -750 
Q 519 -800 656 -800 
Q 844 -800 956 -737 
Q 1069 -675 1141 -563 
Q 1194 -478 1313 -144 
Q 1328 -97 1363 -6 
L 103 3319 
L 709 3319 
L 1400 1397 
Q 1534 1031 1641 628 
Q 1738 1016 1872 1384 
L 2581 3319 
L 3144 3319 
L 1881 -56 
Q 1678 -603 1566 -809 
Q 1416 -1088 1222 -1217 
Q 1028 -1347 759 -1347 
Q 597 -1347 397 -1278 
z
" transform="scale(0.015625)"/>
       <path id="ArialMT-20" transform="scale(0.015625)"/>
       <path id="ArialMT-5b" d="M 434 -1272 
L 434 4581 
L 1675 4581 
L 1675 4116 
L 997 4116 
L 997 -806 
L 1675 -806 
L 1675 -1272 
L 434 -1272 
z
" transform="scale(0.015625)"/>
       <path id="DejaVuSans-b0" d="M 1600 4347 
Q 1350 4347 1178 4173 
Q 1006 4000 1006 3750 
Q 1006 3503 1178 3333 
Q 1350 3163 1600 3163 
Q 1850 3163 2022 3333 
Q 2194 3503 2194 3750 
Q 2194 3997 2020 4172 
Q 1847 4347 1600 4347 
z
M 1600 4750 
Q 1800 4750 1984 4673 
Q 2169 4597 2303 4453 
Q 2447 4313 2519 4134 
Q 2591 3956 2591 3750 
Q 2591 3338 2302 3052 
Q 2013 2766 1594 2766 
Q 1172 2766 890 3047 
Q 609 3328 609 3750 
Q 609 4169 896 4459 
Q 1184 4750 1600 4750 
z
" transform="scale(0.015625)"/>
       <path id="ArialMT-43" d="M 3763 1606 
L 4369 1453 
Q 4178 706 3683 314 
Q 3188 -78 2472 -78 
Q 1731 -78 1267 223 
Q 803 525 561 1097 
Q 319 1669 319 2325 
Q 319 3041 592 3573 
Q 866 4106 1370 4382 
Q 1875 4659 2481 4659 
Q 3169 4659 3637 4309 
Q 4106 3959 4291 3325 
L 3694 3184 
Q 3534 3684 3231 3912 
Q 2928 4141 2469 4141 
Q 1941 4141 1586 3887 
Q 1231 3634 1087 3207 
Q 944 2781 944 2328 
Q 944 1744 1114 1308 
Q 1284 872 1643 656 
Q 2003 441 2422 441 
Q 2931 441 3284 734 
Q 3638 1028 3763 1606 
z
" transform="scale(0.015625)"/>
       <path id="ArialMT-5d" d="M 1363 -1272 
L 122 -1272 
L 122 -806 
L 800 -806 
L 800 4116 
L 122 4116 
L 122 4581 
L 1363 4581 
L 1363 -1272 
z
" transform="scale(0.015625)"/>
      </defs>
      <use xlink:href="#ArialMT-41" transform="translate(0 0.765625)"/>
      <use xlink:href="#ArialMT-6e" transform="translate(66.699219 0.765625)"/>
      <use xlink:href="#ArialMT-6f" transform="translate(122.314453 0.765625)"/>
      <use xlink:href="#ArialMT-6d" transform="translate(177.929688 0.765625)"/>
      <use xlink:href="#ArialMT-61" transform="translate(261.230469 0.765625)"/>
      <use xlink:href="#ArialMT-6c" transform="translate(316.845703 0.765625)"/>
      <use xlink:href="#ArialMT-79" transform="translate(339.0625 0.765625)"/>
      <use xlink:href="#ArialMT-20" transform="translate(389.0625 0.765625)"/>
      <use xlink:href="#ArialMT-5b" transform="translate(416.845703 0.765625)"/>
      <use xlink:href="#DejaVuSans-b0" transform="translate(445.585938 39.046875) scale(0.7)"/>
      <use xlink:href="#ArialMT-43" transform="translate(483.320312 0.765625)"/>
      <use xlink:href="#ArialMT-5d" transform="translate(555.537109 0.765625)"/>
     </g>
    </g>
   </g>
   <g id="line2d_48">
    <path d="M 34.86 72.1142 
L 342.124521 22.544154 
L 342.124521 22.544154 
" clip-path="url(#p67176a82a5)" style="fill: none; stroke: #1f77b4; stroke-linecap: square"/>
   </g>
   <g id="line2d_49">
    <path d="M 34.86 72.1142 
L 166.544795 57.907071 
L 221.413459 70.3881 
L 342.124521 22.544154 
L 342.124521 22.544154 
" clip-path="url(#p67176a82a5)" style="fill: none; stroke: #ff7f0e; stroke-linecap: square"/>
   </g>
   <g id="line2d_50">
    <path d="M 34.86 72.1142 
L 221.413459 66.227757 
L 342.124521 22.544154 
L 342.124521 22.544154 
" clip-path="url(#p67176a82a5)" style="fill: none; stroke: #2ca02c; stroke-linecap: square"/>
   </g>
   <g id="line2d_51">
    <path d="M 34.86 72.468272 
L 39.249493 73.826198 
L 43.638986 74.972044 
L 48.028479 75.895729 
L 52.417973 76.596945 
L 56.807466 77.096705 
L 61.196959 77.421755 
L 65.586452 77.577681 
L 69.975945 77.545327 
L 74.365438 77.328957 
L 80.949678 76.733544 
L 87.533918 75.886307 
L 96.312904 74.469077 
L 107.286637 72.362899 
L 120.455116 69.67758 
L 138.013089 65.775239 
L 144.597329 64.731191 
L 151.181569 64.009819 
L 155.571062 63.716234 
L 159.960555 63.629695 
L 164.350048 63.811651 
L 168.739541 64.304988 
L 173.129034 65.10783 
L 177.518527 66.157837 
L 197.271247 71.327226 
L 201.66074 72.122223 
L 206.050233 72.677503 
L 210.439726 72.97869 
L 214.829219 72.99916 
L 219.218712 72.703534 
L 223.608206 72.052029 
L 227.997699 71.026188 
L 232.387192 69.620408 
L 236.776685 67.820581 
L 241.166178 65.644184 
L 245.555671 63.168693 
L 256.529404 56.484331 
L 267.503137 49.910561 
L 276.282123 44.884076 
L 282.866363 41.311804 
L 289.450603 37.978311 
L 296.034843 34.962781 
L 300.424336 33.183174 
L 304.813829 31.641202 
L 309.203322 30.365387 
L 313.592815 29.339065 
L 317.982308 28.525508 
L 322.371802 27.908548 
L 326.761295 27.503346 
L 331.150788 27.359055 
L 335.540281 27.515298 
L 339.929774 27.931916 
L 342.124521 28.199208 
L 342.124521 28.199208 
" clip-path="url(#p67176a82a5)" style="fill: none; stroke: #808080; stroke-opacity: 0.5; stroke-width: 2; stroke-linecap: square"/>
   </g>
   <g id="line2d_52">
    <path d="M 37.054747 77.394118 
L 39.249493 87.348432 
L 41.44424 64.476946 
L 43.638986 82.172272 
L 45.833733 80.390258 
L 48.028479 95.204547 
L 50.223226 108.503777 
L 52.417973 74.336959 
L 54.612719 52.314876 
L 56.807466 88.864646 
M 61.196959 42.74262 
L 63.391705 55.809564 
L 65.586452 118.592609 
L 67.781199 118.880366 
L 69.975945 117.757073 
L 72.170692 64.577488 
L 74.365438 62.785073 
L 76.560185 66.754734 
L 78.754932 66.688862 
L 80.949678 82.681914 
L 83.144425 72.530677 
L 85.339171 93.748427 
L 87.533918 64.7231 
L 89.728664 44.48303 
L 91.923411 70.689725 
L 94.118158 80.705751 
L 96.312904 86.010189 
L 98.507651 113.874087 
L 100.702397 109.224903 
L 102.897144 39.643165 
L 105.09189 27.130933 
L 107.286637 59.293852 
L 109.481384 28.802004 
L 111.67613 27.110131 
L 113.870877 82.033594 
L 116.065623 117.240497 
L 118.26037 126.434856 
L 120.455116 85.528282 
L 122.649863 103.279079 
L 124.84461 67.572935 
L 127.039356 74.569245 
L 129.234103 38.974043 
L 131.428849 100.391108 
L 133.623596 38.558008 
L 135.627125 -1 
M 135.921042 -1 
L 138.013089 75.907489 
L 140.207836 45.783138 
L 142.402582 36.429299 
L 144.597329 64.712699 
L 146.792075 73.972929 
L 148.986822 100.956221 
L 151.181569 113.863686 
L 153.376315 62.14022 
L 155.571062 64.875646 
L 157.765808 52.113793 
L 159.960555 51.902309 
L 162.155301 38.242516 
L 164.350048 54.571862 
L 166.544795 0.189244 
L 168.739541 10.579701 
L 170.934288 38.464401 
L 173.129034 41.16169 
L 175.323781 23.33462 
L 177.518527 75.283437 
L 179.713274 92.399782 
L 181.908021 66.695796 
L 184.102767 96.047016 
L 188.49226 61.145205 
L 190.687007 76.16751 
L 192.881753 71.965564 
L 195.0765 55.088438 
L 197.271247 75.88322 
L 199.465993 126.330847 
L 201.66074 117.871483 
L 203.855486 30.982717 
L 206.050233 47.374469 
L 208.24498 80.678015 
L 210.439726 62.611725 
L 212.634473 81.239662 
L 214.829219 45.578587 
L 217.023966 65.679979 
L 219.218712 106.399337 
L 221.413459 101.646145 
L 223.608206 90.180932 
L 225.802952 43.976855 
L 227.997699 61.814326 
L 230.192445 44.673713 
L 232.387192 90.135862 
L 234.581938 140.521084 
L 236.776685 99.066732 
L 238.971432 87.670859 
L 241.166178 98.55709 
L 243.360925 115.652633 
L 245.555671 55.240984 
L 247.750418 17.943508 
L 249.945164 13.533545 
L 252.139911 5.833443 
L 254.334658 10.829322 
L 256.529404 21.680883 
L 258.724151 64.470012 
L 260.918897 54.776413 
L 263.113644 61.595908 
L 265.308391 64.081713 
L 267.503137 37.757142 
L 269.697884 15.901473 
L 271.89263 39.639698 
L 274.087377 48.20307 
L 276.282123 47.648358 
L 278.47687 44.5177 
L 280.671617 63.031227 
L 282.790641 -1 
M 282.986659 -1 
L 285.06111 38.457467 
L 287.255856 31.017386 
L 289.450603 60.150189 
L 291.645349 13.609818 
L 293.840096 24.277631 
L 296.034843 68.307929 
L 298.229589 18.148058 
L 300.424336 21.316853 
L 301.7842 -1 
M 308.712368 -1 
L 309.203322 4.276781 
L 311.398069 41.744138 
L 313.592815 17.863768 
L 315.787562 64.674562 
L 317.982308 36.450101 
L 320.177055 13.67569 
L 322.371802 51.569481 
L 324.566548 71.473256 
L 326.761295 14.719242 
L 327.50893 -1 
M 341.403548 -1 
L 342.124521 22.710568 
L 342.124521 22.710568 
" clip-path="url(#p67176a82a5)" style="fill: none; stroke-dasharray: 1,1.65; stroke-dashoffset: 0; stroke: #808080; stroke-opacity: 0.5"/>
   </g>
   <g id="patch_3">
    <path d="M 34.86 82.869129 
L 34.86 10.063125 
" style="fill: none; stroke: #000000; stroke-width: 0.8; stroke-linejoin: miter; stroke-linecap: square"/>
   </g>
   <g id="patch_4">
    <path d="M 342.124521 82.869129 
L 342.124521 10.063125 
" style="fill: none; stroke: #000000; stroke-width: 0.8; stroke-linejoin: miter; stroke-linecap: square"/>
   </g>
   <g id="patch_5">
    <path d="M 34.86 82.869129 
L 342.124521 82.869129 
" style="fill: none; stroke: #000000; stroke-width: 0.8; stroke-linejoin: miter; stroke-linecap: square"/>
   </g>
   <g id="patch_6">
    <path d="M 34.86 10.063125 
L 342.124521 10.063125 
" style="fill: none; stroke: #000000; stroke-width: 0.8; stroke-linejoin: miter; stroke-linecap: square"/>
   </g>
   <g id="text_14">
    <!-- (a) -->
    <g transform="translate(345.97923 17.246392) scale(0.1 -0.1)">
     <defs>
      <path id="Arial-BoldMT-28" d="M 1916 -1347 
L 1313 -1347 
Q 834 -625 584 153 
Q 334 931 334 1659 
Q 334 2563 644 3369 
Q 913 4069 1325 4659 
L 1925 4659 
Q 1497 3713 1336 3048 
Q 1175 2384 1175 1641 
Q 1175 1128 1270 590 
Q 1366 53 1531 -431 
Q 1641 -750 1916 -1347 
z
" transform="scale(0.015625)"/>
      <path id="Arial-BoldMT-61" d="M 1116 2306 
L 319 2450 
Q 453 2931 781 3162 
Q 1109 3394 1756 3394 
Q 2344 3394 2631 3255 
Q 2919 3116 3036 2902 
Q 3153 2688 3153 2116 
L 3144 1091 
Q 3144 653 3186 445 
Q 3228 238 3344 0 
L 2475 0 
Q 2441 88 2391 259 
Q 2369 338 2359 363 
Q 2134 144 1878 34 
Q 1622 -75 1331 -75 
Q 819 -75 523 203 
Q 228 481 228 906 
Q 228 1188 362 1408 
Q 497 1628 739 1745 
Q 981 1863 1438 1950 
Q 2053 2066 2291 2166 
L 2291 2253 
Q 2291 2506 2166 2614 
Q 2041 2722 1694 2722 
Q 1459 2722 1328 2630 
Q 1197 2538 1116 2306 
z
M 2291 1594 
Q 2122 1538 1756 1459 
Q 1391 1381 1278 1306 
Q 1106 1184 1106 997 
Q 1106 813 1243 678 
Q 1381 544 1594 544 
Q 1831 544 2047 700 
Q 2206 819 2256 991 
Q 2291 1103 2291 1419 
L 2291 1594 
z
" transform="scale(0.015625)"/>
      <path id="Arial-BoldMT-29" d="M 216 -1347 
Q 475 -791 581 -494 
Q 688 -197 778 190 
Q 869 578 912 926 
Q 956 1275 956 1641 
Q 956 2384 797 3048 
Q 638 3713 209 4659 
L 806 4659 
Q 1278 3988 1539 3234 
Q 1800 2481 1800 1706 
Q 1800 1053 1594 306 
Q 1359 -531 822 -1347 
L 216 -1347 
z
" transform="scale(0.015625)"/>
     </defs>
     <use xlink:href="#Arial-BoldMT-28"/>
     <use xlink:href="#Arial-BoldMT-61" x="33.300781"/>
     <use xlink:href="#Arial-BoldMT-29" x="88.916016"/>
    </g>
   </g>
   <g id="legend_1">
    <g id="patch_7">
     <path d="M 39.06 23.350312 
L 162.197813 23.350312 
Q 163.397813 23.350312 163.397813 22.150312 
L 163.397813 14.263125 
Q 163.397813 13.063125 162.197813 13.063125 
L 39.06 13.063125 
Q 37.86 13.063125 37.86 14.263125 
L 37.86 22.150312 
Q 37.86 23.350312 39.06 23.350312 
z
" style="fill: #ffffff; opacity: 0.8; stroke: #cccccc; stroke-linejoin: miter"/>
    </g>
    <g id="line2d_53">
     <path d="M 40.26 17.657812 
L 46.26 17.657812 
L 52.26 17.657812 
" style="fill: none; stroke: #1f77b4; stroke-linecap: square"/>
    </g>
    <g id="text_15">
     <!-- Linear -->
     <g transform="translate(57.06 19.757812) scale(0.06 -0.06)">
      <defs>
       <path id="ArialMT-4c" d="M 469 0 
L 469 4581 
L 1075 4581 
L 1075 541 
L 3331 541 
L 3331 0 
L 469 0 
z
" transform="scale(0.015625)"/>
       <path id="ArialMT-69" d="M 425 3934 
L 425 4581 
L 988 4581 
L 988 3934 
L 425 3934 
z
M 425 0 
L 425 3319 
L 988 3319 
L 988 0 
L 425 0 
z
" transform="scale(0.015625)"/>
       <path id="ArialMT-65" d="M 2694 1069 
L 3275 997 
Q 3138 488 2766 206 
Q 2394 -75 1816 -75 
Q 1088 -75 661 373 
Q 234 822 234 1631 
Q 234 2469 665 2931 
Q 1097 3394 1784 3394 
Q 2450 3394 2872 2941 
Q 3294 2488 3294 1666 
Q 3294 1616 3291 1516 
L 816 1516 
Q 847 969 1125 678 
Q 1403 388 1819 388 
Q 2128 388 2347 550 
Q 2566 713 2694 1069 
z
M 847 1978 
L 2700 1978 
Q 2663 2397 2488 2606 
Q 2219 2931 1791 2931 
Q 1403 2931 1139 2672 
Q 875 2413 847 1978 
z
" transform="scale(0.015625)"/>
       <path id="ArialMT-72" d="M 416 0 
L 416 3319 
L 922 3319 
L 922 2816 
Q 1116 3169 1280 3281 
Q 1444 3394 1641 3394 
Q 1925 3394 2219 3213 
L 2025 2691 
Q 1819 2813 1613 2813 
Q 1428 2813 1281 2702 
Q 1134 2591 1072 2394 
Q 978 2094 978 1738 
L 978 0 
L 416 0 
z
" transform="scale(0.015625)"/>
      </defs>
      <use xlink:href="#ArialMT-4c"/>
      <use xlink:href="#ArialMT-69" x="55.615234"/>
      <use xlink:href="#ArialMT-6e" x="77.832031"/>
      <use xlink:href="#ArialMT-65" x="133.447266"/>
      <use xlink:href="#ArialMT-61" x="189.0625"/>
      <use xlink:href="#ArialMT-72" x="244.677734"/>
     </g>
    </g>
    <g id="line2d_54">
     <path d="M 85.737188 17.657812 
L 91.737188 17.657812 
L 97.737188 17.657812 
" style="fill: none; stroke: #ff7f0e; stroke-linecap: square"/>
    </g>
    <g id="text_16">
     <!-- ETCW -->
     <g transform="translate(102.537188 19.757812) scale(0.06 -0.06)">
      <defs>
       <path id="ArialMT-45" d="M 506 0 
L 506 4581 
L 3819 4581 
L 3819 4041 
L 1113 4041 
L 1113 2638 
L 3647 2638 
L 3647 2100 
L 1113 2100 
L 1113 541 
L 3925 541 
L 3925 0 
L 506 0 
z
" transform="scale(0.015625)"/>
       <path id="ArialMT-54" d="M 1659 0 
L 1659 4041 
L 150 4041 
L 150 4581 
L 3781 4581 
L 3781 4041 
L 2266 4041 
L 2266 0 
L 1659 0 
z
" transform="scale(0.015625)"/>
       <path id="ArialMT-57" d="M 1294 0 
L 78 4581 
L 700 4581 
L 1397 1578 
Q 1509 1106 1591 641 
Q 1766 1375 1797 1488 
L 2669 4581 
L 3400 4581 
L 4056 2263 
Q 4303 1400 4413 641 
Q 4500 1075 4641 1638 
L 5359 4581 
L 5969 4581 
L 4713 0 
L 4128 0 
L 3163 3491 
Q 3041 3928 3019 4028 
Q 2947 3713 2884 3491 
L 1913 0 
L 1294 0 
z
" transform="scale(0.015625)"/>
      </defs>
      <use xlink:href="#ArialMT-45"/>
      <use xlink:href="#ArialMT-54" x="66.699219"/>
      <use xlink:href="#ArialMT-43" x="127.783203"/>
      <use xlink:href="#ArialMT-57" x="200"/>
     </g>
    </g>
    <g id="line2d_55">
     <path d="M 132.200625 17.657812 
L 138.200625 17.657812 
L 144.200625 17.657812 
" style="fill: none; stroke: #2ca02c; stroke-linecap: square"/>
    </g>
    <g id="text_17">
     <!-- GWI -->
     <g transform="translate(149.000625 19.757812) scale(0.06 -0.06)">
      <defs>
       <path id="ArialMT-47" d="M 2638 1797 
L 2638 2334 
L 4578 2338 
L 4578 638 
Q 4131 281 3656 101 
Q 3181 -78 2681 -78 
Q 2006 -78 1454 211 
Q 903 500 622 1047 
Q 341 1594 341 2269 
Q 341 2938 620 3517 
Q 900 4097 1425 4378 
Q 1950 4659 2634 4659 
Q 3131 4659 3532 4498 
Q 3934 4338 4162 4050 
Q 4391 3763 4509 3300 
L 3963 3150 
Q 3859 3500 3706 3700 
Q 3553 3900 3268 4020 
Q 2984 4141 2638 4141 
Q 2222 4141 1919 4014 
Q 1616 3888 1430 3681 
Q 1244 3475 1141 3228 
Q 966 2803 966 2306 
Q 966 1694 1177 1281 
Q 1388 869 1791 669 
Q 2194 469 2647 469 
Q 3041 469 3416 620 
Q 3791 772 3984 944 
L 3984 1797 
L 2638 1797 
z
" transform="scale(0.015625)"/>
       <path id="ArialMT-49" d="M 597 0 
L 597 4581 
L 1203 4581 
L 1203 0 
L 597 0 
z
" transform="scale(0.015625)"/>
      </defs>
      <use xlink:href="#ArialMT-47"/>
      <use xlink:href="#ArialMT-57" x="77.783203"/>
      <use xlink:href="#ArialMT-49" x="172.167969"/>
     </g>
    </g>
   </g>
  </g>
  <g id="axes_2">
   <g id="patch_8">
    <path d="M 34.86 235.308777 
L 167.454786 235.308777 
L 167.454786 102.713991 
L 34.86 102.713991 
z
" style="fill: #ffffff"/>
   </g>
   <g id="matplotlib.axis_3">
    <g id="xtick_16">
     <g id="line2d_56">
      <path d="M 34.86 235.308777 
L 34.86 102.713991 
" clip-path="url(#p4257888f16)" style="fill: none; stroke-dasharray: 0.5,0.825; stroke-dashoffset: 0; stroke: #b0b0b0; stroke-opacity: 0.75; stroke-width: 0.5"/>
     </g>
     <g id="line2d_57">
      <g>
       <use xlink:href="#m2bb4f39bfe" x="34.86" y="235.308777" style="stroke: #000000; stroke-width: 0.8"/>
      </g>
     </g>
     <g id="text_18">
      <!-- 0.0 -->
      <g transform="translate(29.3 244.535027) scale(0.08 -0.08)">
       <use xlink:href="#ArialMT-30"/>
       <use xlink:href="#ArialMT-2e" x="55.615234"/>
       <use xlink:href="#ArialMT-30" x="83.398438"/>
      </g>
     </g>
    </g>
    <g id="xtick_17">
     <g id="line2d_58">
      <path d="M 61.378957 235.308777 
L 61.378957 102.713991 
" clip-path="url(#p4257888f16)" style="fill: none; stroke-dasharray: 0.5,0.825; stroke-dashoffset: 0; stroke: #b0b0b0; stroke-opacity: 0.75; stroke-width: 0.5"/>
     </g>
     <g id="line2d_59">
      <g>
       <use xlink:href="#m2bb4f39bfe" x="61.378957" y="235.308777" style="stroke: #000000; stroke-width: 0.8"/>
      </g>
     </g>
     <g id="text_19">
      <!-- 0.2 -->
      <g transform="translate(55.818957 244.535027) scale(0.08 -0.08)">
       <use xlink:href="#ArialMT-30"/>
       <use xlink:href="#ArialMT-2e" x="55.615234"/>
       <use xlink:href="#ArialMT-32" x="83.398438"/>
      </g>
     </g>
    </g>
    <g id="xtick_18">
     <g id="line2d_60">
      <path d="M 87.897914 235.308777 
L 87.897914 102.713991 
" clip-path="url(#p4257888f16)" style="fill: none; stroke-dasharray: 0.5,0.825; stroke-dashoffset: 0; stroke: #b0b0b0; stroke-opacity: 0.75; stroke-width: 0.5"/>
     </g>
     <g id="line2d_61">
      <g>
       <use xlink:href="#m2bb4f39bfe" x="87.897914" y="235.308777" style="stroke: #000000; stroke-width: 0.8"/>
      </g>
     </g>
     <g id="text_20">
      <!-- 0.4 -->
      <g transform="translate(82.337914 244.535027) scale(0.08 -0.08)">
       <use xlink:href="#ArialMT-30"/>
       <use xlink:href="#ArialMT-2e" x="55.615234"/>
       <use xlink:href="#ArialMT-34" x="83.398438"/>
      </g>
     </g>
    </g>
    <g id="xtick_19">
     <g id="line2d_62">
      <path d="M 114.416871 235.308777 
L 114.416871 102.713991 
" clip-path="url(#p4257888f16)" style="fill: none; stroke-dasharray: 0.5,0.825; stroke-dashoffset: 0; stroke: #b0b0b0; stroke-opacity: 0.75; stroke-width: 0.5"/>
     </g>
     <g id="line2d_63">
      <g>
       <use xlink:href="#m2bb4f39bfe" x="114.416871" y="235.308777" style="stroke: #000000; stroke-width: 0.8"/>
      </g>
     </g>
     <g id="text_21">
      <!-- 0.6 -->
      <g transform="translate(108.856871 244.535027) scale(0.08 -0.08)">
       <use xlink:href="#ArialMT-30"/>
       <use xlink:href="#ArialMT-2e" x="55.615234"/>
       <use xlink:href="#ArialMT-36" x="83.398438"/>
      </g>
     </g>
    </g>
    <g id="xtick_20">
     <g id="line2d_64">
      <path d="M 140.935829 235.308777 
L 140.935829 102.713991 
" clip-path="url(#p4257888f16)" style="fill: none; stroke-dasharray: 0.5,0.825; stroke-dashoffset: 0; stroke: #b0b0b0; stroke-opacity: 0.75; stroke-width: 0.5"/>
     </g>
     <g id="line2d_65">
      <g>
       <use xlink:href="#m2bb4f39bfe" x="140.935829" y="235.308777" style="stroke: #000000; stroke-width: 0.8"/>
      </g>
     </g>
     <g id="text_22">
      <!-- 0.8 -->
      <g transform="translate(135.375829 244.535027) scale(0.08 -0.08)">
       <use xlink:href="#ArialMT-30"/>
       <use xlink:href="#ArialMT-2e" x="55.615234"/>
       <use xlink:href="#ArialMT-38" x="83.398438"/>
      </g>
     </g>
    </g>
    <g id="xtick_21">
     <g id="line2d_66">
      <path d="M 167.454786 235.308777 
L 167.454786 102.713991 
" clip-path="url(#p4257888f16)" style="fill: none; stroke-dasharray: 0.5,0.825; stroke-dashoffset: 0; stroke: #b0b0b0; stroke-opacity: 0.75; stroke-width: 0.5"/>
     </g>
     <g id="line2d_67">
      <g>
       <use xlink:href="#m2bb4f39bfe" x="167.454786" y="235.308777" style="stroke: #000000; stroke-width: 0.8"/>
      </g>
     </g>
     <g id="text_23">
      <!-- 1.0 -->
      <g transform="translate(161.894786 244.535027) scale(0.08 -0.08)">
       <use xlink:href="#ArialMT-31"/>
       <use xlink:href="#ArialMT-2e" x="55.615234"/>
       <use xlink:href="#ArialMT-30" x="83.398438"/>
      </g>
     </g>
    </g>
    <g id="xtick_22">
     <g id="line2d_68">
      <path d="M 48.119479 235.308777 
L 48.119479 102.713991 
" clip-path="url(#p4257888f16)" style="fill: none; stroke-dasharray: 0.5,0.825; stroke-dashoffset: 0; stroke: #b0b0b0; stroke-opacity: 0.25; stroke-width: 0.5"/>
     </g>
     <g id="line2d_69">
      <g>
       <use xlink:href="#m7c987d7eba" x="48.119479" y="235.308777" style="stroke: #000000; stroke-width: 0.6"/>
      </g>
     </g>
    </g>
    <g id="xtick_23">
     <g id="line2d_70">
      <path d="M 74.638436 235.308777 
L 74.638436 102.713991 
" clip-path="url(#p4257888f16)" style="fill: none; stroke-dasharray: 0.5,0.825; stroke-dashoffset: 0; stroke: #b0b0b0; stroke-opacity: 0.25; stroke-width: 0.5"/>
     </g>
     <g id="line2d_71">
      <g>
       <use xlink:href="#m7c987d7eba" x="74.638436" y="235.308777" style="stroke: #000000; stroke-width: 0.6"/>
      </g>
     </g>
    </g>
    <g id="xtick_24">
     <g id="line2d_72">
      <path d="M 101.157393 235.308777 
L 101.157393 102.713991 
" clip-path="url(#p4257888f16)" style="fill: none; stroke-dasharray: 0.5,0.825; stroke-dashoffset: 0; stroke: #b0b0b0; stroke-opacity: 0.25; stroke-width: 0.5"/>
     </g>
     <g id="line2d_73">
      <g>
       <use xlink:href="#m7c987d7eba" x="101.157393" y="235.308777" style="stroke: #000000; stroke-width: 0.6"/>
      </g>
     </g>
    </g>
    <g id="xtick_25">
     <g id="line2d_74">
      <path d="M 127.67635 235.308777 
L 127.67635 102.713991 
" clip-path="url(#p4257888f16)" style="fill: none; stroke-dasharray: 0.5,0.825; stroke-dashoffset: 0; stroke: #b0b0b0; stroke-opacity: 0.25; stroke-width: 0.5"/>
     </g>
     <g id="line2d_75">
      <g>
       <use xlink:href="#m7c987d7eba" x="127.67635" y="235.308777" style="stroke: #000000; stroke-width: 0.6"/>
      </g>
     </g>
    </g>
    <g id="xtick_26">
     <g id="line2d_76">
      <path d="M 154.195307 235.308777 
L 154.195307 102.713991 
" clip-path="url(#p4257888f16)" style="fill: none; stroke-dasharray: 0.5,0.825; stroke-dashoffset: 0; stroke: #b0b0b0; stroke-opacity: 0.25; stroke-width: 0.5"/>
     </g>
     <g id="line2d_77">
      <g>
       <use xlink:href="#m7c987d7eba" x="154.195307" y="235.308777" style="stroke: #000000; stroke-width: 0.6"/>
      </g>
     </g>
    </g>
    <g id="text_24">
     <!-- $f_{eq}$ -->
     <g transform="translate(96.117393 256.205027) scale(0.08 -0.08)">
      <defs>
       <path id="DejaVuSans-Oblique-66" d="M 3059 4863 
L 2969 4384 
L 2419 4384 
Q 2106 4384 1964 4261 
Q 1822 4138 1753 3809 
L 1691 3500 
L 2638 3500 
L 2553 3053 
L 1606 3053 
L 1013 0 
L 434 0 
L 1031 3053 
L 481 3053 
L 563 3500 
L 1113 3500 
L 1159 3744 
Q 1278 4363 1576 4613 
Q 1875 4863 2516 4863 
L 3059 4863 
z
" transform="scale(0.015625)"/>
       <path id="DejaVuSans-Oblique-65" d="M 3078 2063 
Q 3088 2113 3092 2166 
Q 3097 2219 3097 2272 
Q 3097 2653 2873 2875 
Q 2650 3097 2266 3097 
Q 1838 3097 1509 2826 
Q 1181 2556 1013 2059 
L 3078 2063 
z
M 3578 1613 
L 903 1613 
Q 884 1494 878 1425 
Q 872 1356 872 1306 
Q 872 872 1139 634 
Q 1406 397 1894 397 
Q 2269 397 2603 481 
Q 2938 566 3225 728 
L 3116 159 
Q 2806 34 2476 -28 
Q 2147 -91 1806 -91 
Q 1078 -91 686 257 
Q 294 606 294 1247 
Q 294 1794 489 2264 
Q 684 2734 1063 3103 
Q 1306 3334 1642 3459 
Q 1978 3584 2356 3584 
Q 2950 3584 3301 3228 
Q 3653 2872 3653 2272 
Q 3653 2128 3634 1964 
Q 3616 1800 3578 1613 
z
" transform="scale(0.015625)"/>
       <path id="DejaVuSans-Oblique-71" d="M 2669 525 
Q 2438 222 2123 65 
Q 1809 -91 1428 -91 
Q 897 -91 595 267 
Q 294 625 294 1253 
Q 294 1759 480 2231 
Q 666 2703 1013 3078 
Q 1238 3322 1530 3453 
Q 1822 3584 2144 3584 
Q 2531 3584 2781 3431 
Q 3031 3278 3144 2969 
L 3244 3494 
L 3822 3494 
L 2888 -1319 
L 2309 -1319 
L 2669 525 
z
M 891 1338 
Q 891 875 1084 633 
Q 1278 391 1644 391 
Q 2188 391 2572 911 
Q 2956 1431 2956 2175 
Q 2956 2625 2757 2864 
Q 2559 3103 2188 3103 
Q 1916 3103 1684 2976 
Q 1453 2850 1281 2606 
Q 1100 2350 995 2006 
Q 891 1663 891 1338 
z
" transform="scale(0.015625)"/>
      </defs>
      <use xlink:href="#DejaVuSans-Oblique-66" transform="translate(0 0.015625)"/>
      <use xlink:href="#DejaVuSans-Oblique-65" transform="translate(35.205078 -16.390625) scale(0.7)"/>
      <use xlink:href="#DejaVuSans-Oblique-71" transform="translate(78.271484 -16.390625) scale(0.7)"/>
     </g>
    </g>
   </g>
   <g id="matplotlib.axis_4">
    <g id="ytick_9">
     <g id="line2d_78">
      <path d="M 34.86 235.308777 
L 167.454786 235.308777 
" clip-path="url(#p4257888f16)" style="fill: none; stroke-dasharray: 0.5,0.825; stroke-dashoffset: 0; stroke: #b0b0b0; stroke-opacity: 0.75; stroke-width: 0.5"/>
     </g>
     <g id="line2d_79">
      <g>
       <use xlink:href="#mae7d86426d" x="34.86" y="235.308777" style="stroke: #000000; stroke-width: 0.8"/>
      </g>
     </g>
    </g>
    <g id="ytick_10">
     <g id="line2d_80">
      <path d="M 34.86 208.78982 
L 167.454786 208.78982 
" clip-path="url(#p4257888f16)" style="fill: none; stroke-dasharray: 0.5,0.825; stroke-dashoffset: 0; stroke: #b0b0b0; stroke-opacity: 0.75; stroke-width: 0.5"/>
     </g>
     <g id="line2d_81">
      <g>
       <use xlink:href="#mae7d86426d" x="34.86" y="208.78982" style="stroke: #000000; stroke-width: 0.8"/>
      </g>
     </g>
     <g id="text_25">
      <!-- 0.2 -->
      <g transform="translate(20.24 211.652945) scale(0.08 -0.08)">
       <use xlink:href="#ArialMT-30"/>
       <use xlink:href="#ArialMT-2e" x="55.615234"/>
       <use xlink:href="#ArialMT-32" x="83.398438"/>
      </g>
     </g>
    </g>
    <g id="ytick_11">
     <g id="line2d_82">
      <path d="M 34.86 182.270863 
L 167.454786 182.270863 
" clip-path="url(#p4257888f16)" style="fill: none; stroke-dasharray: 0.5,0.825; stroke-dashoffset: 0; stroke: #b0b0b0; stroke-opacity: 0.75; stroke-width: 0.5"/>
     </g>
     <g id="line2d_83">
      <g>
       <use xlink:href="#mae7d86426d" x="34.86" y="182.270863" style="stroke: #000000; stroke-width: 0.8"/>
      </g>
     </g>
     <g id="text_26">
      <!-- 0.4 -->
      <g transform="translate(20.24 185.133988) scale(0.08 -0.08)">
       <use xlink:href="#ArialMT-30"/>
       <use xlink:href="#ArialMT-2e" x="55.615234"/>
       <use xlink:href="#ArialMT-34" x="83.398438"/>
      </g>
     </g>
    </g>
    <g id="ytick_12">
     <g id="line2d_84">
      <path d="M 34.86 155.751905 
L 167.454786 155.751905 
" clip-path="url(#p4257888f16)" style="fill: none; stroke-dasharray: 0.5,0.825; stroke-dashoffset: 0; stroke: #b0b0b0; stroke-opacity: 0.75; stroke-width: 0.5"/>
     </g>
     <g id="line2d_85">
      <g>
       <use xlink:href="#mae7d86426d" x="34.86" y="155.751905" style="stroke: #000000; stroke-width: 0.8"/>
      </g>
     </g>
     <g id="text_27">
      <!-- 0.6 -->
      <g transform="translate(20.24 158.61503) scale(0.08 -0.08)">
       <use xlink:href="#ArialMT-30"/>
       <use xlink:href="#ArialMT-2e" x="55.615234"/>
       <use xlink:href="#ArialMT-36" x="83.398438"/>
      </g>
     </g>
    </g>
    <g id="ytick_13">
     <g id="line2d_86">
      <path d="M 34.86 129.232948 
L 167.454786 129.232948 
" clip-path="url(#p4257888f16)" style="fill: none; stroke-dasharray: 0.5,0.825; stroke-dashoffset: 0; stroke: #b0b0b0; stroke-opacity: 0.75; stroke-width: 0.5"/>
     </g>
     <g id="line2d_87">
      <g>
       <use xlink:href="#mae7d86426d" x="34.86" y="129.232948" style="stroke: #000000; stroke-width: 0.8"/>
      </g>
     </g>
     <g id="text_28">
      <!-- 0.8 -->
      <g transform="translate(20.24 132.096073) scale(0.08 -0.08)">
       <use xlink:href="#ArialMT-30"/>
       <use xlink:href="#ArialMT-2e" x="55.615234"/>
       <use xlink:href="#ArialMT-38" x="83.398438"/>
      </g>
     </g>
    </g>
    <g id="ytick_14">
     <g id="line2d_88">
      <path d="M 34.86 102.713991 
L 167.454786 102.713991 
" clip-path="url(#p4257888f16)" style="fill: none; stroke-dasharray: 0.5,0.825; stroke-dashoffset: 0; stroke: #b0b0b0; stroke-opacity: 0.75; stroke-width: 0.5"/>
     </g>
     <g id="line2d_89">
      <g>
       <use xlink:href="#mae7d86426d" x="34.86" y="102.713991" style="stroke: #000000; stroke-width: 0.8"/>
      </g>
     </g>
     <g id="text_29">
      <!-- 1.0 -->
      <g transform="translate(20.24 105.577116) scale(0.08 -0.08)">
       <use xlink:href="#ArialMT-31"/>
       <use xlink:href="#ArialMT-2e" x="55.615234"/>
       <use xlink:href="#ArialMT-30" x="83.398438"/>
      </g>
     </g>
    </g>
    <g id="ytick_15">
     <g id="line2d_90">
      <path d="M 34.86 222.049298 
L 167.454786 222.049298 
" clip-path="url(#p4257888f16)" style="fill: none; stroke-dasharray: 0.5,0.825; stroke-dashoffset: 0; stroke: #b0b0b0; stroke-opacity: 0.25; stroke-width: 0.5"/>
     </g>
     <g id="line2d_91">
      <g>
       <use xlink:href="#m2abf988d29" x="34.86" y="222.049298" style="stroke: #000000; stroke-width: 0.6"/>
      </g>
     </g>
    </g>
    <g id="ytick_16">
     <g id="line2d_92">
      <path d="M 34.86 195.530341 
L 167.454786 195.530341 
" clip-path="url(#p4257888f16)" style="fill: none; stroke-dasharray: 0.5,0.825; stroke-dashoffset: 0; stroke: #b0b0b0; stroke-opacity: 0.25; stroke-width: 0.5"/>
     </g>
     <g id="line2d_93">
      <g>
       <use xlink:href="#m2abf988d29" x="34.86" y="195.530341" style="stroke: #000000; stroke-width: 0.6"/>
      </g>
     </g>
    </g>
    <g id="ytick_17">
     <g id="line2d_94">
      <path d="M 34.86 169.011384 
L 167.454786 169.011384 
" clip-path="url(#p4257888f16)" style="fill: none; stroke-dasharray: 0.5,0.825; stroke-dashoffset: 0; stroke: #b0b0b0; stroke-opacity: 0.25; stroke-width: 0.5"/>
     </g>
     <g id="line2d_95">
      <g>
       <use xlink:href="#m2abf988d29" x="34.86" y="169.011384" style="stroke: #000000; stroke-width: 0.6"/>
      </g>
     </g>
    </g>
    <g id="ytick_18">
     <g id="line2d_96">
      <path d="M 34.86 142.492427 
L 167.454786 142.492427 
" clip-path="url(#p4257888f16)" style="fill: none; stroke-dasharray: 0.5,0.825; stroke-dashoffset: 0; stroke: #b0b0b0; stroke-opacity: 0.25; stroke-width: 0.5"/>
     </g>
     <g id="line2d_97">
      <g>
       <use xlink:href="#m2abf988d29" x="34.86" y="142.492427" style="stroke: #000000; stroke-width: 0.6"/>
      </g>
     </g>
    </g>
    <g id="ytick_19">
     <g id="line2d_98">
      <path d="M 34.86 115.97347 
L 167.454786 115.97347 
" clip-path="url(#p4257888f16)" style="fill: none; stroke-dasharray: 0.5,0.825; stroke-dashoffset: 0; stroke: #b0b0b0; stroke-opacity: 0.25; stroke-width: 0.5"/>
     </g>
     <g id="line2d_99">
      <g>
       <use xlink:href="#m2abf988d29" x="34.86" y="115.97347" style="stroke: #000000; stroke-width: 0.6"/>
      </g>
     </g>
    </g>
    <g id="text_30">
     <!-- Cumulative frac. -->
     <g transform="translate(14.65 197.908259) rotate(-90) scale(0.08 -0.08)">
      <defs>
       <path id="ArialMT-75" d="M 2597 0 
L 2597 488 
Q 2209 -75 1544 -75 
Q 1250 -75 995 37 
Q 741 150 617 320 
Q 494 491 444 738 
Q 409 903 409 1263 
L 409 3319 
L 972 3319 
L 972 1478 
Q 972 1038 1006 884 
Q 1059 663 1231 536 
Q 1403 409 1656 409 
Q 1909 409 2131 539 
Q 2353 669 2445 892 
Q 2538 1116 2538 1541 
L 2538 3319 
L 3100 3319 
L 3100 0 
L 2597 0 
z
" transform="scale(0.015625)"/>
       <path id="ArialMT-74" d="M 1650 503 
L 1731 6 
Q 1494 -44 1306 -44 
Q 1000 -44 831 53 
Q 663 150 594 308 
Q 525 466 525 972 
L 525 2881 
L 113 2881 
L 113 3319 
L 525 3319 
L 525 4141 
L 1084 4478 
L 1084 3319 
L 1650 3319 
L 1650 2881 
L 1084 2881 
L 1084 941 
Q 1084 700 1114 631 
Q 1144 563 1211 522 
Q 1278 481 1403 481 
Q 1497 481 1650 503 
z
" transform="scale(0.015625)"/>
       <path id="ArialMT-76" d="M 1344 0 
L 81 3319 
L 675 3319 
L 1388 1331 
Q 1503 1009 1600 663 
Q 1675 925 1809 1294 
L 2547 3319 
L 3125 3319 
L 1869 0 
L 1344 0 
z
" transform="scale(0.015625)"/>
       <path id="ArialMT-66" d="M 556 0 
L 556 2881 
L 59 2881 
L 59 3319 
L 556 3319 
L 556 3672 
Q 556 4006 616 4169 
Q 697 4388 901 4523 
Q 1106 4659 1475 4659 
Q 1713 4659 2000 4603 
L 1916 4113 
Q 1741 4144 1584 4144 
Q 1328 4144 1222 4034 
Q 1116 3925 1116 3625 
L 1116 3319 
L 1763 3319 
L 1763 2881 
L 1116 2881 
L 1116 0 
L 556 0 
z
" transform="scale(0.015625)"/>
       <path id="ArialMT-63" d="M 2588 1216 
L 3141 1144 
Q 3050 572 2676 248 
Q 2303 -75 1759 -75 
Q 1078 -75 664 370 
Q 250 816 250 1647 
Q 250 2184 428 2587 
Q 606 2991 970 3192 
Q 1334 3394 1763 3394 
Q 2303 3394 2647 3120 
Q 2991 2847 3088 2344 
L 2541 2259 
Q 2463 2594 2264 2762 
Q 2066 2931 1784 2931 
Q 1359 2931 1093 2626 
Q 828 2322 828 1663 
Q 828 994 1084 691 
Q 1341 388 1753 388 
Q 2084 388 2306 591 
Q 2528 794 2588 1216 
z
" transform="scale(0.015625)"/>
      </defs>
      <use xlink:href="#ArialMT-43"/>
      <use xlink:href="#ArialMT-75" x="72.216797"/>
      <use xlink:href="#ArialMT-6d" x="127.832031"/>
      <use xlink:href="#ArialMT-75" x="211.132812"/>
      <use xlink:href="#ArialMT-6c" x="266.748047"/>
      <use xlink:href="#ArialMT-61" x="288.964844"/>
      <use xlink:href="#ArialMT-74" x="344.580078"/>
      <use xlink:href="#ArialMT-69" x="372.363281"/>
      <use xlink:href="#ArialMT-76" x="394.580078"/>
      <use xlink:href="#ArialMT-65" x="444.580078"/>
      <use xlink:href="#ArialMT-20" x="500.195312"/>
      <use xlink:href="#ArialMT-66" x="527.978516"/>
      <use xlink:href="#ArialMT-72" x="555.761719"/>
      <use xlink:href="#ArialMT-61" x="589.0625"/>
      <use xlink:href="#ArialMT-63" x="644.677734"/>
      <use xlink:href="#ArialMT-2e" x="694.677734"/>
     </g>
    </g>
   </g>
   <g id="line2d_100">
    <path d="M 34.86 235.155103 
L 34.86 235.155103 
L 38.17487 235.155103 
L 38.17487 234.489184 
L 41.489739 234.489184 
L 41.489739 233.643978 
L 44.804609 233.643978 
L 44.804609 232.54265 
L 48.119479 232.54265 
L 48.119479 231.518159 
L 51.434348 231.518159 
L 51.434348 230.314382 
L 54.749218 230.314382 
L 54.749218 228.547134 
L 58.064088 228.547134 
L 58.064088 226.70305 
L 61.378957 226.70305 
L 61.378957 224.91019 
L 64.693827 224.91019 
L 64.693827 222.579472 
L 68.008696 222.579472 
L 68.008696 219.685285 
L 71.323566 219.685285 
L 71.323566 216.71426 
L 74.638436 216.71426 
L 74.638436 213.435888 
L 77.953305 213.435888 
L 77.953305 210.439251 
L 81.268175 210.439251 
L 81.268175 206.648633 
L 84.583045 206.648633 
L 84.583045 203.037301 
L 87.897914 203.037301 
L 87.897914 198.734438 
L 91.212784 198.734438 
L 91.212784 194.738922 
L 94.527654 194.738922 
L 94.527654 190.410446 
L 97.842523 190.410446 
L 97.842523 185.262377 
L 101.157393 185.262377 
L 101.157393 179.806961 
L 104.472263 179.806961 
L 104.472263 175.119913 
L 107.787132 175.119913 
L 107.787132 169.638885 
L 111.102002 169.638885 
L 111.102002 164.183469 
L 114.416871 164.183469 
L 114.416871 157.114479 
L 117.731741 157.114479 
L 117.731741 150.455285 
L 121.046611 150.455285 
L 121.046611 143.821704 
L 124.36148 143.821704 
L 124.36148 136.803939 
L 127.67635 136.803939 
L 127.67635 130.75944 
L 130.99122 130.75944 
L 130.99122 124.689329 
L 134.306089 124.689329 
L 134.306089 118.849729 
L 137.620959 118.849729 
L 137.620959 113.496762 
L 140.935829 113.496762 
L 140.935829 109.757369 
L 144.250698 109.757369 
L 144.250698 107.144916 
L 147.565568 107.144916 
L 147.565568 105.403281 
L 150.880438 105.403281 
L 150.880438 104.532463 
L 154.195307 104.532463 
L 154.195307 103.815319 
L 157.510177 103.815319 
L 157.510177 103.328686 
L 160.825046 103.328686 
L 160.825046 103.098175 
L 164.139916 103.098175 
L 164.139916 102.713991 
L 167.454786 102.713991 
L 167.454786 102.713991 
L 170.769655 102.713991 
" clip-path="url(#p4257888f16)" style="fill: none; stroke: #1f77b4; stroke-linecap: square"/>
   </g>
   <g id="line2d_101">
    <path d="M 34.86 234.514796 
L 34.86 234.514796 
L 38.17487 234.514796 
L 38.17487 232.593875 
L 41.489739 232.593875 
L 41.489739 230.314382 
L 44.804609 230.314382 
L 44.804609 226.549376 
L 48.119479 226.549376 
L 48.119479 222.067227 
L 51.434348 222.067227 
L 51.434348 215.305584 
L 54.749218 215.305584 
L 54.749218 208.41588 
L 58.064088 208.41588 
L 58.064088 199.912603 
L 61.378957 199.912603 
L 61.378957 191.460549 
L 64.693827 191.460549 
L 64.693827 181.446147 
L 68.008696 181.446147 
L 68.008696 172.123276 
L 71.323566 172.123276 
L 71.323566 163.952958 
L 74.638436 163.952958 
L 74.638436 154.373965 
L 77.953305 154.373965 
L 77.953305 146.715892 
L 81.268175 146.715892 
L 81.268175 139.646902 
L 84.583045 139.646902 
L 84.583045 133.499954 
L 87.897914 133.499954 
L 87.897914 128.659233 
L 91.212784 128.659233 
L 91.212784 124.330757 
L 94.527654 124.330757 
L 94.527654 120.335241 
L 97.842523 120.335241 
L 97.842523 116.95442 
L 101.157393 116.95442 
L 101.157393 113.880946 
L 104.472263 113.880946 
L 104.472263 111.627065 
L 107.787132 111.627065 
L 107.787132 110.167165 
L 111.102002 110.167165 
L 111.102002 108.604816 
L 114.416871 108.604816 
L 114.416871 107.452263 
L 117.731741 107.452263 
L 117.731741 106.607058 
L 121.046611 106.607058 
L 121.046611 105.889914 
L 124.36148 105.889914 
L 124.36148 105.249607 
L 127.67635 105.249607 
L 127.67635 104.839811 
L 130.99122 104.839811 
L 130.99122 104.6093 
L 134.306089 104.6093 
L 134.306089 104.27634 
L 137.620959 104.27634 
L 137.620959 103.917768 
L 140.935829 103.917768 
L 140.935829 103.687258 
L 144.250698 103.687258 
L 144.250698 103.507972 
L 147.565568 103.507972 
L 147.565568 103.328686 
L 150.880438 103.328686 
L 150.880438 103.251849 
L 154.195307 103.251849 
L 154.195307 103.1494 
L 157.510177 103.1494 
L 157.510177 103.046951 
L 160.825046 103.046951 
L 160.825046 102.918889 
L 164.139916 102.918889 
L 164.139916 102.713991 
L 167.454786 102.713991 
L 167.454786 102.713991 
L 170.769655 102.713991 
" clip-path="url(#p4257888f16)" style="fill: none; stroke: #ff7f0e; stroke-linecap: square"/>
   </g>
   <g id="line2d_102">
    <path d="M 34.86 233.336631 
L 34.86 233.336631 
L 38.17487 233.336631 
L 38.17487 229.699687 
L 41.489739 229.699687 
L 41.489739 224.807741 
L 44.804609 224.807741 
L 44.804609 218.046098 
L 48.119479 218.046098 
L 48.119479 211.463742 
L 51.434348 211.463742 
L 51.434348 204.087405 
L 54.749218 204.087405 
L 54.749218 196.73668 
L 58.064088 196.73668 
L 58.064088 189.462791 
L 61.378957 189.462791 
L 61.378957 182.03523 
L 64.693827 182.03523 
L 64.693827 175.119913 
L 68.008696 175.119913 
L 68.008696 168.640006 
L 71.323566 168.640006 
L 71.323566 161.468567 
L 74.638436 161.468567 
L 74.638436 154.937435 
L 77.953305 154.937435 
L 77.953305 148.71365 
L 81.268175 148.71365 
L 81.268175 143.002111 
L 84.583045 143.002111 
L 84.583045 137.393021 
L 87.897914 137.393021 
L 87.897914 132.782811 
L 91.212784 132.782811 
L 91.212784 128.73607 
L 94.527654 128.73607 
L 94.527654 124.894228 
L 97.842523 124.894228 
L 97.842523 121.001161 
L 101.157393 121.001161 
L 101.157393 117.85085 
L 104.472263 117.85085 
L 104.472263 114.623702 
L 107.787132 114.623702 
L 107.787132 112.369822 
L 111.102002 112.369822 
L 111.102002 110.653799 
L 114.416871 110.653799 
L 114.416871 109.040225 
L 117.731741 109.040225 
L 117.731741 107.810835 
L 121.046611 107.810835 
L 121.046611 106.760732 
L 124.36148 106.760732 
L 124.36148 105.915526 
L 127.67635 105.915526 
L 127.67635 105.326444 
L 130.99122 105.326444 
L 130.99122 104.839811 
L 134.306089 104.839811 
L 134.306089 104.532463 
L 137.620959 104.532463 
L 137.620959 104.199503 
L 140.935829 104.199503 
L 140.935829 103.866544 
L 144.250698 103.866544 
L 144.250698 103.533584 
L 147.565568 103.533584 
L 147.565568 103.431135 
L 150.880438 103.431135 
L 150.880438 103.303074 
L 154.195307 103.303074 
L 154.195307 103.1494 
L 157.510177 103.1494 
L 157.510177 103.072563 
L 160.825046 103.072563 
L 160.825046 102.918889 
L 164.139916 102.918889 
L 164.139916 102.713991 
L 167.454786 102.713991 
L 167.454786 102.713991 
L 170.769655 102.713991 
" clip-path="url(#p4257888f16)" style="fill: none; stroke: #2ca02c; stroke-linecap: square"/>
   </g>
   <g id="line2d_103">
    <path d="M 111.627914 235.308777 
L 111.627914 169.011384 
" clip-path="url(#p4257888f16)" style="fill: none; stroke: #aec7e8; stroke-linecap: square"/>
   </g>
   <g id="line2d_104">
    <path d="M 34.86 169.011384 
L 111.627914 169.011384 
" clip-path="url(#p4257888f16)" style="fill: none; stroke: #aec7e8; stroke-linecap: square"/>
   </g>
   <g id="line2d_105">
    <path d="M 72.711919 235.308777 
L 72.711919 169.011384 
" clip-path="url(#p4257888f16)" style="fill: none; stroke: #ffbb78; stroke-linecap: square"/>
   </g>
   <g id="line2d_106">
    <path d="M 34.86 169.011384 
L 72.711919 169.011384 
" clip-path="url(#p4257888f16)" style="fill: none; stroke: #ffbb78; stroke-linecap: square"/>
   </g>
   <g id="line2d_107">
    <path d="M 71.152831 235.308777 
L 71.152831 169.011384 
" clip-path="url(#p4257888f16)" style="fill: none; stroke: #98df8a; stroke-linecap: square"/>
   </g>
   <g id="line2d_108">
    <path d="M 34.86 169.011384 
L 71.152831 169.011384 
" clip-path="url(#p4257888f16)" style="fill: none; stroke: #98df8a; stroke-linecap: square"/>
   </g>
   <g id="patch_9">
    <path d="M 34.86 235.308777 
L 34.86 102.713991 
" style="fill: none; stroke: #000000; stroke-width: 0.8; stroke-linejoin: miter; stroke-linecap: square"/>
   </g>
   <g id="patch_10">
    <path d="M 167.454786 235.308777 
L 167.454786 102.713991 
" style="fill: none; stroke: #000000; stroke-width: 0.8; stroke-linejoin: miter; stroke-linecap: square"/>
   </g>
   <g id="patch_11">
    <path d="M 34.86 235.308777 
L 167.454786 235.308777 
" style="fill: none; stroke: #000000; stroke-width: 0.8; stroke-linejoin: miter; stroke-linecap: square"/>
   </g>
   <g id="patch_12">
    <path d="M 34.86 102.713991 
L 167.454786 102.713991 
" style="fill: none; stroke: #000000; stroke-width: 0.8; stroke-linejoin: miter; stroke-linecap: square"/>
   </g>
   <g id="text_31">
    <!-- (b) -->
    <g transform="translate(170.825046 110.352861) scale(0.1 -0.1)">
     <defs>
      <path id="Arial-BoldMT-62" d="M 422 0 
L 422 4581 
L 1300 4581 
L 1300 2931 
Q 1706 3394 2263 3394 
Q 2869 3394 3266 2955 
Q 3663 2516 3663 1694 
Q 3663 844 3258 384 
Q 2853 -75 2275 -75 
Q 1991 -75 1714 67 
Q 1438 209 1238 488 
L 1238 0 
L 422 0 
z
M 1294 1731 
Q 1294 1216 1456 969 
Q 1684 619 2063 619 
Q 2353 619 2558 867 
Q 2763 1116 2763 1650 
Q 2763 2219 2556 2470 
Q 2350 2722 2028 2722 
Q 1713 2722 1503 2476 
Q 1294 2231 1294 1731 
z
" transform="scale(0.015625)"/>
     </defs>
     <use xlink:href="#Arial-BoldMT-28"/>
     <use xlink:href="#Arial-BoldMT-62" x="33.300781"/>
     <use xlink:href="#Arial-BoldMT-29" x="94.384766"/>
    </g>
   </g>
  </g>
  <g id="axes_3">
   <g id="patch_13">
    <path d="M 209.529735 235.308777 
L 342.124521 235.308777 
L 342.124521 102.713991 
L 209.529735 102.713991 
z
" style="fill: #ffffff"/>
   </g>
   <g id="matplotlib.axis_5">
    <g id="xtick_27">
     <g id="line2d_109">
      <path d="M 209.529735 235.308777 
L 209.529735 102.713991 
" clip-path="url(#pa05ee1eaa5)" style="fill: none; stroke-dasharray: 0.5,0.825; stroke-dashoffset: 0; stroke: #b0b0b0; stroke-opacity: 0.75; stroke-width: 0.5"/>
     </g>
     <g id="line2d_110">
      <g>
       <use xlink:href="#m2bb4f39bfe" x="209.529735" y="235.308777" style="stroke: #000000; stroke-width: 0.8"/>
      </g>
     </g>
     <g id="text_32">
      <!-- 0.0 -->
      <g transform="translate(203.969735 244.535027) scale(0.08 -0.08)">
       <use xlink:href="#ArialMT-30"/>
       <use xlink:href="#ArialMT-2e" x="55.615234"/>
       <use xlink:href="#ArialMT-30" x="83.398438"/>
      </g>
     </g>
    </g>
    <g id="xtick_28">
     <g id="line2d_111">
      <path d="M 236.048692 235.308777 
L 236.048692 102.713991 
" clip-path="url(#pa05ee1eaa5)" style="fill: none; stroke-dasharray: 0.5,0.825; stroke-dashoffset: 0; stroke: #b0b0b0; stroke-opacity: 0.75; stroke-width: 0.5"/>
     </g>
     <g id="line2d_112">
      <g>
       <use xlink:href="#m2bb4f39bfe" x="236.048692" y="235.308777" style="stroke: #000000; stroke-width: 0.8"/>
      </g>
     </g>
     <g id="text_33">
      <!-- 0.2 -->
      <g transform="translate(230.488692 244.535027) scale(0.08 -0.08)">
       <use xlink:href="#ArialMT-30"/>
       <use xlink:href="#ArialMT-2e" x="55.615234"/>
       <use xlink:href="#ArialMT-32" x="83.398438"/>
      </g>
     </g>
    </g>
    <g id="xtick_29">
     <g id="line2d_113">
      <path d="M 262.567649 235.308777 
L 262.567649 102.713991 
" clip-path="url(#pa05ee1eaa5)" style="fill: none; stroke-dasharray: 0.5,0.825; stroke-dashoffset: 0; stroke: #b0b0b0; stroke-opacity: 0.75; stroke-width: 0.5"/>
     </g>
     <g id="line2d_114">
      <g>
       <use xlink:href="#m2bb4f39bfe" x="262.567649" y="235.308777" style="stroke: #000000; stroke-width: 0.8"/>
      </g>
     </g>
     <g id="text_34">
      <!-- 0.4 -->
      <g transform="translate(257.007649 244.535027) scale(0.08 -0.08)">
       <use xlink:href="#ArialMT-30"/>
       <use xlink:href="#ArialMT-2e" x="55.615234"/>
       <use xlink:href="#ArialMT-34" x="83.398438"/>
      </g>
     </g>
    </g>
    <g id="xtick_30">
     <g id="line2d_115">
      <path d="M 289.086606 235.308777 
L 289.086606 102.713991 
" clip-path="url(#pa05ee1eaa5)" style="fill: none; stroke-dasharray: 0.5,0.825; stroke-dashoffset: 0; stroke: #b0b0b0; stroke-opacity: 0.75; stroke-width: 0.5"/>
     </g>
     <g id="line2d_116">
      <g>
       <use xlink:href="#m2bb4f39bfe" x="289.086606" y="235.308777" style="stroke: #000000; stroke-width: 0.8"/>
      </g>
     </g>
     <g id="text_35">
      <!-- 0.6 -->
      <g transform="translate(283.526606 244.535027) scale(0.08 -0.08)">
       <use xlink:href="#ArialMT-30"/>
       <use xlink:href="#ArialMT-2e" x="55.615234"/>
       <use xlink:href="#ArialMT-36" x="83.398438"/>
      </g>
     </g>
    </g>
    <g id="xtick_31">
     <g id="line2d_117">
      <path d="M 315.605564 235.308777 
L 315.605564 102.713991 
" clip-path="url(#pa05ee1eaa5)" style="fill: none; stroke-dasharray: 0.5,0.825; stroke-dashoffset: 0; stroke: #b0b0b0; stroke-opacity: 0.75; stroke-width: 0.5"/>
     </g>
     <g id="line2d_118">
      <g>
       <use xlink:href="#m2bb4f39bfe" x="315.605564" y="235.308777" style="stroke: #000000; stroke-width: 0.8"/>
      </g>
     </g>
     <g id="text_36">
      <!-- 0.8 -->
      <g transform="translate(310.045564 244.535027) scale(0.08 -0.08)">
       <use xlink:href="#ArialMT-30"/>
       <use xlink:href="#ArialMT-2e" x="55.615234"/>
       <use xlink:href="#ArialMT-38" x="83.398438"/>
      </g>
     </g>
    </g>
    <g id="xtick_32">
     <g id="line2d_119">
      <path d="M 342.124521 235.308777 
L 342.124521 102.713991 
" clip-path="url(#pa05ee1eaa5)" style="fill: none; stroke-dasharray: 0.5,0.825; stroke-dashoffset: 0; stroke: #b0b0b0; stroke-opacity: 0.75; stroke-width: 0.5"/>
     </g>
     <g id="line2d_120">
      <g>
       <use xlink:href="#m2bb4f39bfe" x="342.124521" y="235.308777" style="stroke: #000000; stroke-width: 0.8"/>
      </g>
     </g>
     <g id="text_37">
      <!-- 1.0 -->
      <g transform="translate(336.564521 244.535027) scale(0.08 -0.08)">
       <use xlink:href="#ArialMT-31"/>
       <use xlink:href="#ArialMT-2e" x="55.615234"/>
       <use xlink:href="#ArialMT-30" x="83.398438"/>
      </g>
     </g>
    </g>
    <g id="xtick_33">
     <g id="line2d_121">
      <path d="M 222.789214 235.308777 
L 222.789214 102.713991 
" clip-path="url(#pa05ee1eaa5)" style="fill: none; stroke-dasharray: 0.5,0.825; stroke-dashoffset: 0; stroke: #b0b0b0; stroke-opacity: 0.25; stroke-width: 0.5"/>
     </g>
     <g id="line2d_122">
      <g>
       <use xlink:href="#m7c987d7eba" x="222.789214" y="235.308777" style="stroke: #000000; stroke-width: 0.6"/>
      </g>
     </g>
    </g>
    <g id="xtick_34">
     <g id="line2d_123">
      <path d="M 249.308171 235.308777 
L 249.308171 102.713991 
" clip-path="url(#pa05ee1eaa5)" style="fill: none; stroke-dasharray: 0.5,0.825; stroke-dashoffset: 0; stroke: #b0b0b0; stroke-opacity: 0.25; stroke-width: 0.5"/>
     </g>
     <g id="line2d_124">
      <g>
       <use xlink:href="#m7c987d7eba" x="249.308171" y="235.308777" style="stroke: #000000; stroke-width: 0.6"/>
      </g>
     </g>
    </g>
    <g id="xtick_35">
     <g id="line2d_125">
      <path d="M 275.827128 235.308777 
L 275.827128 102.713991 
" clip-path="url(#pa05ee1eaa5)" style="fill: none; stroke-dasharray: 0.5,0.825; stroke-dashoffset: 0; stroke: #b0b0b0; stroke-opacity: 0.25; stroke-width: 0.5"/>
     </g>
     <g id="line2d_126">
      <g>
       <use xlink:href="#m7c987d7eba" x="275.827128" y="235.308777" style="stroke: #000000; stroke-width: 0.6"/>
      </g>
     </g>
    </g>
    <g id="xtick_36">
     <g id="line2d_127">
      <path d="M 302.346085 235.308777 
L 302.346085 102.713991 
" clip-path="url(#pa05ee1eaa5)" style="fill: none; stroke-dasharray: 0.5,0.825; stroke-dashoffset: 0; stroke: #b0b0b0; stroke-opacity: 0.25; stroke-width: 0.5"/>
     </g>
     <g id="line2d_128">
      <g>
       <use xlink:href="#m7c987d7eba" x="302.346085" y="235.308777" style="stroke: #000000; stroke-width: 0.6"/>
      </g>
     </g>
    </g>
    <g id="xtick_37">
     <g id="line2d_129">
      <path d="M 328.865042 235.308777 
L 328.865042 102.713991 
" clip-path="url(#pa05ee1eaa5)" style="fill: none; stroke-dasharray: 0.5,0.825; stroke-dashoffset: 0; stroke: #b0b0b0; stroke-opacity: 0.25; stroke-width: 0.5"/>
     </g>
     <g id="line2d_130">
      <g>
       <use xlink:href="#m7c987d7eba" x="328.865042" y="235.308777" style="stroke: #000000; stroke-width: 0.6"/>
      </g>
     </g>
    </g>
    <g id="text_38">
     <!-- $f_{eq}$ (area-weighted) -->
     <g transform="translate(241.667128 256.205027) scale(0.08 -0.08)">
      <defs>
       <path id="ArialMT-28" d="M 1497 -1347 
Q 1031 -759 709 28 
Q 388 816 388 1659 
Q 388 2403 628 3084 
Q 909 3875 1497 4659 
L 1900 4659 
Q 1522 4009 1400 3731 
Q 1209 3300 1100 2831 
Q 966 2247 966 1656 
Q 966 153 1900 -1347 
L 1497 -1347 
z
" transform="scale(0.015625)"/>
       <path id="ArialMT-2d" d="M 203 1375 
L 203 1941 
L 1931 1941 
L 1931 1375 
L 203 1375 
z
" transform="scale(0.015625)"/>
       <path id="ArialMT-77" d="M 1034 0 
L 19 3319 
L 600 3319 
L 1128 1403 
L 1325 691 
Q 1338 744 1497 1375 
L 2025 3319 
L 2603 3319 
L 3100 1394 
L 3266 759 
L 3456 1400 
L 4025 3319 
L 4572 3319 
L 3534 0 
L 2950 0 
L 2422 1988 
L 2294 2553 
L 1622 0 
L 1034 0 
z
" transform="scale(0.015625)"/>
       <path id="ArialMT-67" d="M 319 -275 
L 866 -356 
Q 900 -609 1056 -725 
Q 1266 -881 1628 -881 
Q 2019 -881 2231 -725 
Q 2444 -569 2519 -288 
Q 2563 -116 2559 434 
Q 2191 0 1641 0 
Q 956 0 581 494 
Q 206 988 206 1678 
Q 206 2153 378 2554 
Q 550 2956 876 3175 
Q 1203 3394 1644 3394 
Q 2231 3394 2613 2919 
L 2613 3319 
L 3131 3319 
L 3131 450 
Q 3131 -325 2973 -648 
Q 2816 -972 2473 -1159 
Q 2131 -1347 1631 -1347 
Q 1038 -1347 672 -1080 
Q 306 -813 319 -275 
z
M 784 1719 
Q 784 1066 1043 766 
Q 1303 466 1694 466 
Q 2081 466 2343 764 
Q 2606 1063 2606 1700 
Q 2606 2309 2336 2618 
Q 2066 2928 1684 2928 
Q 1309 2928 1046 2623 
Q 784 2319 784 1719 
z
" transform="scale(0.015625)"/>
       <path id="ArialMT-68" d="M 422 0 
L 422 4581 
L 984 4581 
L 984 2938 
Q 1378 3394 1978 3394 
Q 2347 3394 2619 3248 
Q 2891 3103 3008 2847 
Q 3125 2591 3125 2103 
L 3125 0 
L 2563 0 
L 2563 2103 
Q 2563 2525 2380 2717 
Q 2197 2909 1863 2909 
Q 1613 2909 1392 2779 
Q 1172 2650 1078 2428 
Q 984 2206 984 1816 
L 984 0 
L 422 0 
z
" transform="scale(0.015625)"/>
       <path id="ArialMT-64" d="M 2575 0 
L 2575 419 
Q 2259 -75 1647 -75 
Q 1250 -75 917 144 
Q 584 363 401 755 
Q 219 1147 219 1656 
Q 219 2153 384 2558 
Q 550 2963 881 3178 
Q 1213 3394 1622 3394 
Q 1922 3394 2156 3267 
Q 2391 3141 2538 2938 
L 2538 4581 
L 3097 4581 
L 3097 0 
L 2575 0 
z
M 797 1656 
Q 797 1019 1065 703 
Q 1334 388 1700 388 
Q 2069 388 2326 689 
Q 2584 991 2584 1609 
Q 2584 2291 2321 2609 
Q 2059 2928 1675 2928 
Q 1300 2928 1048 2622 
Q 797 2316 797 1656 
z
" transform="scale(0.015625)"/>
       <path id="ArialMT-29" d="M 791 -1347 
L 388 -1347 
Q 1322 153 1322 1656 
Q 1322 2244 1188 2822 
Q 1081 3291 891 3722 
Q 769 4003 388 4659 
L 791 4659 
Q 1378 3875 1659 3084 
Q 1900 2403 1900 1659 
Q 1900 816 1576 28 
Q 1253 -759 791 -1347 
z
" transform="scale(0.015625)"/>
      </defs>
      <use xlink:href="#DejaVuSans-Oblique-66" transform="translate(0 0.015625)"/>
      <use xlink:href="#DejaVuSans-Oblique-65" transform="translate(35.205078 -16.390625) scale(0.7)"/>
      <use xlink:href="#DejaVuSans-Oblique-71" transform="translate(78.271484 -16.390625) scale(0.7)"/>
      <use xlink:href="#ArialMT-20" transform="translate(125.439453 0.015625)"/>
      <use xlink:href="#ArialMT-28" transform="translate(153.222656 0.015625)"/>
      <use xlink:href="#ArialMT-61" transform="translate(186.523438 0.015625)"/>
      <use xlink:href="#ArialMT-72" transform="translate(242.138672 0.015625)"/>
      <use xlink:href="#ArialMT-65" transform="translate(275.439453 0.015625)"/>
      <use xlink:href="#ArialMT-61" transform="translate(331.054688 0.015625)"/>
      <use xlink:href="#ArialMT-2d" transform="translate(386.669922 0.015625)"/>
      <use xlink:href="#ArialMT-77" transform="translate(419.970703 0.015625)"/>
      <use xlink:href="#ArialMT-65" transform="translate(492.1875 0.015625)"/>
      <use xlink:href="#ArialMT-69" transform="translate(547.802734 0.015625)"/>
      <use xlink:href="#ArialMT-67" transform="translate(570.019531 0.015625)"/>
      <use xlink:href="#ArialMT-68" transform="translate(625.634766 0.015625)"/>
      <use xlink:href="#ArialMT-74" transform="translate(681.25 0.015625)"/>
      <use xlink:href="#ArialMT-65" transform="translate(709.033203 0.015625)"/>
      <use xlink:href="#ArialMT-64" transform="translate(764.648438 0.015625)"/>
      <use xlink:href="#ArialMT-29" transform="translate(820.263672 0.015625)"/>
     </g>
    </g>
   </g>
   <g id="matplotlib.axis_6">
    <g id="ytick_20">
     <g id="line2d_131">
      <path d="M 209.529735 235.308777 
L 342.124521 235.308777 
" clip-path="url(#pa05ee1eaa5)" style="fill: none; stroke-dasharray: 0.5,0.825; stroke-dashoffset: 0; stroke: #b0b0b0; stroke-opacity: 0.75; stroke-width: 0.5"/>
     </g>
     <g id="line2d_132">
      <g>
       <use xlink:href="#mae7d86426d" x="209.529735" y="235.308777" style="stroke: #000000; stroke-width: 0.8"/>
      </g>
     </g>
    </g>
    <g id="ytick_21">
     <g id="line2d_133">
      <path d="M 209.529735 208.78982 
L 342.124521 208.78982 
" clip-path="url(#pa05ee1eaa5)" style="fill: none; stroke-dasharray: 0.5,0.825; stroke-dashoffset: 0; stroke: #b0b0b0; stroke-opacity: 0.75; stroke-width: 0.5"/>
     </g>
     <g id="line2d_134">
      <g>
       <use xlink:href="#mae7d86426d" x="209.529735" y="208.78982" style="stroke: #000000; stroke-width: 0.8"/>
      </g>
     </g>
     <g id="text_39">
      <!-- 0.2 -->
      <g transform="translate(194.909735 211.652945) scale(0.08 -0.08)">
       <use xlink:href="#ArialMT-30"/>
       <use xlink:href="#ArialMT-2e" x="55.615234"/>
       <use xlink:href="#ArialMT-32" x="83.398438"/>
      </g>
     </g>
    </g>
    <g id="ytick_22">
     <g id="line2d_135">
      <path d="M 209.529735 182.270863 
L 342.124521 182.270863 
" clip-path="url(#pa05ee1eaa5)" style="fill: none; stroke-dasharray: 0.5,0.825; stroke-dashoffset: 0; stroke: #b0b0b0; stroke-opacity: 0.75; stroke-width: 0.5"/>
     </g>
     <g id="line2d_136">
      <g>
       <use xlink:href="#mae7d86426d" x="209.529735" y="182.270863" style="stroke: #000000; stroke-width: 0.8"/>
      </g>
     </g>
     <g id="text_40">
      <!-- 0.4 -->
      <g transform="translate(194.909735 185.133988) scale(0.08 -0.08)">
       <use xlink:href="#ArialMT-30"/>
       <use xlink:href="#ArialMT-2e" x="55.615234"/>
       <use xlink:href="#ArialMT-34" x="83.398438"/>
      </g>
     </g>
    </g>
    <g id="ytick_23">
     <g id="line2d_137">
      <path d="M 209.529735 155.751905 
L 342.124521 155.751905 
" clip-path="url(#pa05ee1eaa5)" style="fill: none; stroke-dasharray: 0.5,0.825; stroke-dashoffset: 0; stroke: #b0b0b0; stroke-opacity: 0.75; stroke-width: 0.5"/>
     </g>
     <g id="line2d_138">
      <g>
       <use xlink:href="#mae7d86426d" x="209.529735" y="155.751905" style="stroke: #000000; stroke-width: 0.8"/>
      </g>
     </g>
     <g id="text_41">
      <!-- 0.6 -->
      <g transform="translate(194.909735 158.61503) scale(0.08 -0.08)">
       <use xlink:href="#ArialMT-30"/>
       <use xlink:href="#ArialMT-2e" x="55.615234"/>
       <use xlink:href="#ArialMT-36" x="83.398438"/>
      </g>
     </g>
    </g>
    <g id="ytick_24">
     <g id="line2d_139">
      <path d="M 209.529735 129.232948 
L 342.124521 129.232948 
" clip-path="url(#pa05ee1eaa5)" style="fill: none; stroke-dasharray: 0.5,0.825; stroke-dashoffset: 0; stroke: #b0b0b0; stroke-opacity: 0.75; stroke-width: 0.5"/>
     </g>
     <g id="line2d_140">
      <g>
       <use xlink:href="#mae7d86426d" x="209.529735" y="129.232948" style="stroke: #000000; stroke-width: 0.8"/>
      </g>
     </g>
     <g id="text_42">
      <!-- 0.8 -->
      <g transform="translate(194.909735 132.096073) scale(0.08 -0.08)">
       <use xlink:href="#ArialMT-30"/>
       <use xlink:href="#ArialMT-2e" x="55.615234"/>
       <use xlink:href="#ArialMT-38" x="83.398438"/>
      </g>
     </g>
    </g>
    <g id="ytick_25">
     <g id="line2d_141">
      <path d="M 209.529735 102.713991 
L 342.124521 102.713991 
" clip-path="url(#pa05ee1eaa5)" style="fill: none; stroke-dasharray: 0.5,0.825; stroke-dashoffset: 0; stroke: #b0b0b0; stroke-opacity: 0.75; stroke-width: 0.5"/>
     </g>
     <g id="line2d_142">
      <g>
       <use xlink:href="#mae7d86426d" x="209.529735" y="102.713991" style="stroke: #000000; stroke-width: 0.8"/>
      </g>
     </g>
     <g id="text_43">
      <!-- 1.0 -->
      <g transform="translate(194.909735 105.577116) scale(0.08 -0.08)">
       <use xlink:href="#ArialMT-31"/>
       <use xlink:href="#ArialMT-2e" x="55.615234"/>
       <use xlink:href="#ArialMT-30" x="83.398438"/>
      </g>
     </g>
    </g>
    <g id="ytick_26">
     <g id="line2d_143">
      <path d="M 209.529735 222.049298 
L 342.124521 222.049298 
" clip-path="url(#pa05ee1eaa5)" style="fill: none; stroke-dasharray: 0.5,0.825; stroke-dashoffset: 0; stroke: #b0b0b0; stroke-opacity: 0.25; stroke-width: 0.5"/>
     </g>
     <g id="line2d_144">
      <g>
       <use xlink:href="#m2abf988d29" x="209.529735" y="222.049298" style="stroke: #000000; stroke-width: 0.6"/>
      </g>
     </g>
    </g>
    <g id="ytick_27">
     <g id="line2d_145">
      <path d="M 209.529735 195.530341 
L 342.124521 195.530341 
" clip-path="url(#pa05ee1eaa5)" style="fill: none; stroke-dasharray: 0.5,0.825; stroke-dashoffset: 0; stroke: #b0b0b0; stroke-opacity: 0.25; stroke-width: 0.5"/>
     </g>
     <g id="line2d_146">
      <g>
       <use xlink:href="#m2abf988d29" x="209.529735" y="195.530341" style="stroke: #000000; stroke-width: 0.6"/>
      </g>
     </g>
    </g>
    <g id="ytick_28">
     <g id="line2d_147">
      <path d="M 209.529735 169.011384 
L 342.124521 169.011384 
" clip-path="url(#pa05ee1eaa5)" style="fill: none; stroke-dasharray: 0.5,0.825; stroke-dashoffset: 0; stroke: #b0b0b0; stroke-opacity: 0.25; stroke-width: 0.5"/>
     </g>
     <g id="line2d_148">
      <g>
       <use xlink:href="#m2abf988d29" x="209.529735" y="169.011384" style="stroke: #000000; stroke-width: 0.6"/>
      </g>
     </g>
    </g>
    <g id="ytick_29">
     <g id="line2d_149">
      <path d="M 209.529735 142.492427 
L 342.124521 142.492427 
" clip-path="url(#pa05ee1eaa5)" style="fill: none; stroke-dasharray: 0.5,0.825; stroke-dashoffset: 0; stroke: #b0b0b0; stroke-opacity: 0.25; stroke-width: 0.5"/>
     </g>
     <g id="line2d_150">
      <g>
       <use xlink:href="#m2abf988d29" x="209.529735" y="142.492427" style="stroke: #000000; stroke-width: 0.6"/>
      </g>
     </g>
    </g>
    <g id="ytick_30">
     <g id="line2d_151">
      <path d="M 209.529735 115.97347 
L 342.124521 115.97347 
" clip-path="url(#pa05ee1eaa5)" style="fill: none; stroke-dasharray: 0.5,0.825; stroke-dashoffset: 0; stroke: #b0b0b0; stroke-opacity: 0.25; stroke-width: 0.5"/>
     </g>
     <g id="line2d_152">
      <g>
       <use xlink:href="#m2abf988d29" x="209.529735" y="115.97347" style="stroke: #000000; stroke-width: 0.6"/>
      </g>
     </g>
    </g>
    <g id="text_44">
     <!-- Cumulative frac. -->
     <g transform="translate(189.319735 197.908259) rotate(-90) scale(0.08 -0.08)">
      <use xlink:href="#ArialMT-43"/>
      <use xlink:href="#ArialMT-75" x="72.216797"/>
      <use xlink:href="#ArialMT-6d" x="127.832031"/>
      <use xlink:href="#ArialMT-75" x="211.132812"/>
      <use xlink:href="#ArialMT-6c" x="266.748047"/>
      <use xlink:href="#ArialMT-61" x="288.964844"/>
      <use xlink:href="#ArialMT-74" x="344.580078"/>
      <use xlink:href="#ArialMT-69" x="372.363281"/>
      <use xlink:href="#ArialMT-76" x="394.580078"/>
      <use xlink:href="#ArialMT-65" x="444.580078"/>
      <use xlink:href="#ArialMT-20" x="500.195312"/>
      <use xlink:href="#ArialMT-66" x="527.978516"/>
      <use xlink:href="#ArialMT-72" x="555.761719"/>
      <use xlink:href="#ArialMT-61" x="589.0625"/>
      <use xlink:href="#ArialMT-63" x="644.677734"/>
      <use xlink:href="#ArialMT-2e" x="694.677734"/>
     </g>
    </g>
   </g>
   <g id="line2d_153">
    <path d="M 209.529735 235.168361 
L 209.529735 235.168361 
L 212.844605 235.168361 
L 212.844605 234.290571 
L 216.159474 234.290571 
L 216.159474 224.991079 
L 219.474344 224.991079 
L 219.474344 221.118485 
L 222.789214 221.118485 
L 222.789214 220.864833 
L 226.104083 220.864833 
L 226.104083 218.853493 
L 229.418953 218.853493 
L 229.418953 216.702002 
L 232.733822 216.702002 
L 232.733822 212.057089 
L 236.048692 212.057089 
L 236.048692 209.800661 
L 239.363562 209.800661 
L 239.363562 207.500479 
L 242.678431 207.500479 
L 242.678431 197.482785 
L 245.993301 197.482785 
L 245.993301 192.468219 
L 249.308171 192.468219 
L 249.308171 188.985079 
L 252.62304 188.985079 
L 252.62304 186.360452 
L 255.93791 186.360452 
L 255.93791 179.540687 
L 259.25278 179.540687 
L 259.25278 175.664468 
L 262.567649 175.664468 
L 262.567649 166.653581 
L 265.882519 166.653581 
L 265.882519 159.683666 
L 269.197389 159.683666 
L 269.197389 152.885244 
L 272.512258 152.885244 
L 272.512258 149.560138 
L 275.827128 149.560138 
L 275.827128 145.2701 
L 279.141997 145.2701 
L 279.141997 140.369111 
L 282.456867 140.369111 
L 282.456867 136.479224 
L 285.771737 136.479224 
L 285.771737 132.770308 
L 289.086606 132.770308 
L 289.086606 126.181652 
L 292.401476 126.181652 
L 292.401476 121.751038 
L 295.716346 121.751038 
L 295.716346 118.327782 
L 299.031215 118.327782 
L 299.031215 115.595955 
L 302.346085 115.595955 
L 302.346085 113.403208 
L 305.660955 113.403208 
L 305.660955 110.914777 
L 308.975824 110.914777 
L 308.975824 107.051612 
L 312.290694 107.051612 
L 312.290694 105.544674 
L 315.605564 105.544674 
L 315.605564 104.072323 
L 318.920433 104.072323 
L 318.920433 103.474144 
L 322.235303 103.474144 
L 322.235303 103.133512 
L 325.550172 103.133512 
L 325.550172 102.994897 
L 328.865042 102.994897 
L 328.865042 102.880765 
L 332.179912 102.880765 
L 332.179912 102.816514 
L 335.494781 102.816514 
L 335.494781 102.765205 
L 338.809651 102.765205 
L 338.809651 102.713991 
L 342.124521 102.713991 
L 342.124521 102.713991 
L 345.43939 102.713991 
" clip-path="url(#pa05ee1eaa5)" style="fill: none; stroke: #1f77b4; stroke-linecap: square"/>
   </g>
   <g id="line2d_154">
    <path d="M 209.529735 234.301443 
L 209.529735 234.301443 
L 212.844605 234.301443 
L 212.844605 221.123056 
L 216.159474 221.123056 
L 216.159474 218.853493 
L 219.474344 218.853493 
L 219.474344 212.039763 
L 222.789214 212.039763 
L 222.789214 206.053639 
L 226.104083 206.053639 
L 226.104083 190.461861 
L 229.418953 190.461861 
L 229.418953 182.616178 
L 232.733822 182.616178 
L 232.733822 168.290859 
L 236.048692 168.290859 
L 236.048692 154.194266 
L 239.363562 154.194266 
L 239.363562 147.022698 
L 242.678431 147.022698 
L 242.678431 137.924858 
L 245.993301 137.924858 
L 245.993301 132.717837 
L 249.308171 132.717837 
L 249.308171 123.920546 
L 252.62304 123.920546 
L 252.62304 120.091879 
L 255.93791 120.091879 
L 255.93791 116.755316 
L 259.25278 116.755316 
L 259.25278 114.402334 
L 262.567649 114.402334 
L 262.567649 112.668778 
L 265.882519 112.668778 
L 265.882519 110.84504 
L 269.197389 110.84504 
L 269.197389 109.342593 
L 272.512258 109.342593 
L 272.512258 106.602852 
L 275.827128 106.602852 
L 275.827128 105.645112 
L 279.141997 105.645112 
L 279.141997 105.034416 
L 282.456867 105.034416 
L 282.456867 104.194529 
L 285.771737 104.194529 
L 285.771737 103.760219 
L 289.086606 103.760219 
L 289.086606 103.516434 
L 292.401476 103.516434 
L 292.401476 103.34986 
L 295.716346 103.34986 
L 295.716346 103.229553 
L 299.031215 103.229553 
L 299.031215 103.110713 
L 302.346085 103.110713 
L 302.346085 103.041678 
L 305.660955 103.041678 
L 305.660955 103.009941 
L 308.975824 103.009941 
L 308.975824 102.952603 
L 312.290694 102.952603 
L 312.290694 102.897361 
L 315.605564 102.897361 
L 315.605564 102.868715 
L 318.920433 102.868715 
L 318.920433 102.842704 
L 322.235303 102.842704 
L 322.235303 102.816514 
L 325.550172 102.816514 
L 325.550172 102.804335 
L 328.865042 102.804335 
L 328.865042 102.781811 
L 332.179912 102.781811 
L 332.179912 102.761045 
L 335.494781 102.761045 
L 335.494781 102.746593 
L 338.809651 102.746593 
L 338.809651 102.713991 
L 342.124521 102.713991 
L 342.124521 102.713991 
L 345.43939 102.713991 
" clip-path="url(#pa05ee1eaa5)" style="fill: none; stroke: #ff7f0e; stroke-linecap: square"/>
   </g>
   <g id="line2d_155">
    <path d="M 209.529735 223.695885 
L 209.529735 223.695885 
L 212.844605 223.695885 
L 212.844605 218.584098 
L 216.159474 218.584098 
L 216.159474 209.762772 
L 219.474344 209.762772 
L 219.474344 193.573342 
L 222.789214 193.573342 
L 222.789214 186.99736 
L 226.104083 186.99736 
L 226.104083 176.875958 
L 229.418953 176.875958 
L 229.418953 163.349754 
L 232.733822 163.349754 
L 232.733822 152.591729 
L 236.048692 152.591729 
L 236.048692 147.191517 
L 239.363562 147.191517 
L 239.363562 140.369111 
L 242.678431 140.369111 
L 242.678431 135.201392 
L 245.993301 135.201392 
L 245.993301 130.416037 
L 249.308171 130.416037 
L 249.308171 124.163481 
L 252.62304 124.163481 
L 252.62304 120.782487 
L 255.93791 120.782487 
L 255.93791 117.999223 
L 259.25278 117.999223 
L 259.25278 115.903393 
L 262.567649 115.903393 
L 262.567649 114.157063 
L 265.882519 114.157063 
L 265.882519 112.679276 
L 269.197389 112.679276 
L 269.197389 111.158836 
L 272.512258 111.158836 
L 272.512258 109.667603 
L 275.827128 109.667603 
L 275.827128 106.825323 
L 279.141997 106.825323 
L 279.141997 105.832928 
L 282.456867 105.832928 
L 282.456867 105.206282 
L 285.771737 105.206282 
L 285.771737 104.824227 
L 289.086606 104.824227 
L 289.086606 103.84517 
L 292.401476 103.84517 
L 292.401476 103.594431 
L 295.716346 103.594431 
L 295.716346 103.376874 
L 299.031215 103.376874 
L 299.031215 103.231983 
L 302.346085 103.231983 
L 302.346085 103.12466 
L 305.660955 103.12466 
L 305.660955 103.041678 
L 308.975824 103.041678 
L 308.975824 102.994897 
L 312.290694 102.994897 
L 312.290694 102.938496 
L 315.605564 102.938496 
L 315.605564 102.891638 
L 318.920433 102.891638 
L 318.920433 102.846531 
L 322.235303 102.846531 
L 322.235303 102.832859 
L 325.550172 102.832859 
L 325.550172 102.814242 
L 328.865042 102.814242 
L 328.865042 102.781811 
L 332.179912 102.781811 
L 332.179912 102.763162 
L 335.494781 102.763162 
L 335.494781 102.746593 
L 338.809651 102.746593 
L 338.809651 102.713991 
L 342.124521 102.713991 
L 342.124521 102.713991 
L 345.43939 102.713991 
" clip-path="url(#pa05ee1eaa5)" style="fill: none; stroke: #2ca02c; stroke-linecap: square"/>
   </g>
   <g id="line2d_156">
    <path d="M 264.254372 235.308777 
L 264.254372 169.011384 
" clip-path="url(#pa05ee1eaa5)" style="fill: none; stroke: #aec7e8; stroke-linecap: square"/>
   </g>
   <g id="line2d_157">
    <path d="M 209.529735 169.011384 
L 264.254372 169.011384 
" clip-path="url(#pa05ee1eaa5)" style="fill: none; stroke: #aec7e8; stroke-linecap: square"/>
   </g>
   <g id="line2d_158">
    <path d="M 235.656886 235.308777 
L 235.656886 169.011384 
" clip-path="url(#pa05ee1eaa5)" style="fill: none; stroke: #ffbb78; stroke-linecap: square"/>
   </g>
   <g id="line2d_159">
    <path d="M 209.529735 169.011384 
L 235.656886 169.011384 
" clip-path="url(#pa05ee1eaa5)" style="fill: none; stroke: #ffbb78; stroke-linecap: square"/>
   </g>
   <g id="line2d_160">
    <path d="M 230.827213 235.308777 
L 230.827213 169.011384 
" clip-path="url(#pa05ee1eaa5)" style="fill: none; stroke: #98df8a; stroke-linecap: square"/>
   </g>
   <g id="line2d_161">
    <path d="M 209.529735 169.011384 
L 230.827213 169.011384 
" clip-path="url(#pa05ee1eaa5)" style="fill: none; stroke: #98df8a; stroke-linecap: square"/>
   </g>
   <g id="patch_14">
    <path d="M 209.529735 235.308777 
L 209.529735 102.713991 
" style="fill: none; stroke: #000000; stroke-width: 0.8; stroke-linejoin: miter; stroke-linecap: square"/>
   </g>
   <g id="patch_15">
    <path d="M 342.124521 235.308777 
L 342.124521 102.713991 
" style="fill: none; stroke: #000000; stroke-width: 0.8; stroke-linejoin: miter; stroke-linecap: square"/>
   </g>
   <g id="patch_16">
    <path d="M 209.529735 235.308777 
L 342.124521 235.308777 
" style="fill: none; stroke: #000000; stroke-width: 0.8; stroke-linejoin: miter; stroke-linecap: square"/>
   </g>
   <g id="patch_17">
    <path d="M 209.529735 102.713991 
L 342.124521 102.713991 
" style="fill: none; stroke: #000000; stroke-width: 0.8; stroke-linejoin: miter; stroke-linecap: square"/>
   </g>
   <g id="text_45">
    <!-- (c) -->
    <g transform="translate(345.494781 110.352861) scale(0.1 -0.1)">
     <defs>
      <path id="Arial-BoldMT-63" d="M 3353 2338 
L 2488 2181 
Q 2444 2441 2289 2572 
Q 2134 2703 1888 2703 
Q 1559 2703 1364 2476 
Q 1169 2250 1169 1719 
Q 1169 1128 1367 884 
Q 1566 641 1900 641 
Q 2150 641 2309 783 
Q 2469 925 2534 1272 
L 3397 1125 
Q 3263 531 2881 228 
Q 2500 -75 1859 -75 
Q 1131 -75 698 384 
Q 266 844 266 1656 
Q 266 2478 700 2936 
Q 1134 3394 1875 3394 
Q 2481 3394 2839 3133 
Q 3197 2872 3353 2338 
z
" transform="scale(0.015625)"/>
     </defs>
     <use xlink:href="#Arial-BoldMT-28"/>
     <use xlink:href="#Arial-BoldMT-63" x="33.300781"/>
     <use xlink:href="#Arial-BoldMT-29" x="88.916016"/>
    </g>
   </g>
  </g>
 </g>
 <defs>
  <clipPath id="p67176a82a5">
   <rect x="34.86" y="10.063125" width="307.264521" height="72.806004"/>
  </clipPath>
  <clipPath id="p4257888f16">
   <rect x="34.86" y="102.713991" width="132.594786" height="132.594786"/>
  </clipPath>
  <clipPath id="pa05ee1eaa5">
   <rect x="209.529735" y="102.713991" width="132.594786" height="132.594786"/>
  </clipPath>
 </defs>
</svg>
